<?xml version="1.0" encoding="UTF-8" standalone="no"?>
<!DOCTYPE svg PUBLIC "-//W3C//DTD SVG 1.1//EN"
 "http://www.w3.org/Graphics/SVG/1.1/DTD/svg11.dtd">
<!-- Generated by graphviz version 2.40.1 (20161225.0304)
 -->
<!-- Title: twoDegreesRelationshipsDiagram Pages: 1 -->
<svg width="887pt" height="437pt"
 viewBox="0.00 0.00 887.00 437.20" xmlns="http://www.w3.org/2000/svg" xmlns:xlink="http://www.w3.org/1999/xlink">
<g id="graph0" class="graph" transform="scale(1 1) rotate(0) translate(4 433.2)">
<title>twoDegreesRelationshipsDiagram</title>
<polygon fill="#ffffff" stroke="transparent" points="-4,4 -4,-433.2 883,-433.2 883,4 -4,4"/>
<text text-anchor="middle" x="72.4936" y="-7.3" font-family="Helvetica,sans-Serif" font-size="11.00" fill="#000000">Generated by SchemaSpy</text>
<!-- aggregation_constraint -->
<g id="node1" class="node">
<title>aggregation_constraint</title>
<g id="a_node1"><a xlink:href="../../tables/aggregation_constraint.html" xlink:title="aggregation_constraint" target="_top">
<polygon fill="#ffffff" stroke="transparent" points="247,-320.2 247,-425.2 472,-425.2 472,-320.2 247,-320.2"/>
<polygon fill="#f5f5f5" stroke="transparent" points="247.5,-401.7 247.5,-424.7 472.5,-424.7 472.5,-401.7 247.5,-401.7"/>
<polygon fill="none" stroke="#000000" points="247.5,-401.7 247.5,-424.7 472.5,-424.7 472.5,-401.7 247.5,-401.7"/>
<text text-anchor="start" x="252.5" y="-410.3" font-family="Helvetica,sans-Serif" font-weight="bold" font-size="11.00" fill="#000000">aggregation_constraint</text>
<text text-anchor="start" x="437.5437" y="-409.8" font-family="Helvetica,sans-Serif" font-size="11.00" fill="#000000">[table]</text>
<polygon fill="none" stroke="#000000" points="247.5,-379.7 247.5,-401.7 472.5,-401.7 472.5,-379.7 247.5,-379.7"/>
<image xlink:href="../../images/primaryKeys.png" width="11px" height="12px" preserveAspectRatio="xMinYMin meet" x="252.5" y="-396.7"/>
<text text-anchor="start" x="267.5" y="-386.8" font-family="Helvetica,sans-Serif" font-size="11.00" fill="#000000">aggregation_constraint_name</text>
<polygon fill="none" stroke="#000000" points="247.5,-357.7 247.5,-379.7 472.5,-379.7 472.5,-357.7 247.5,-357.7"/>
<image xlink:href="../../images/foreignKeys.png" width="11px" height="12px" preserveAspectRatio="xMinYMin meet" x="252.5" y="-374.7"/>
<text text-anchor="start" x="267.5" y="-364.8" font-family="Helvetica,sans-Serif" font-size="11.00" fill="#000000">covers_level_of_data_granularity</text>
<polygon fill="none" stroke="#000000" points="247.5,-338.7 247.5,-357.7 472.5,-357.7 472.5,-338.7 247.5,-338.7"/>
<text text-anchor="start" x="250.5" y="-344.8" font-family="Helvetica,sans-Serif" font-size="11.00" fill="#000000">...</text>
<polygon fill="#ffffff" stroke="transparent" points="247.5,-319.7 247.5,-338.7 353.5,-338.7 353.5,-319.7 247.5,-319.7"/>
<polygon fill="none" stroke="#000000" points="247.5,-319.7 247.5,-338.7 353.5,-338.7 353.5,-319.7 247.5,-319.7"/>
<text text-anchor="start" x="250.5" y="-325.8" font-family="Helvetica,sans-Serif" font-size="11.00" fill="#000000">&lt; 1</text>
<polygon fill="#ffffff" stroke="transparent" points="353.5,-319.7 353.5,-338.7 408.5,-338.7 408.5,-319.7 353.5,-319.7"/>
<polygon fill="none" stroke="#000000" points="353.5,-319.7 353.5,-338.7 408.5,-338.7 408.5,-319.7 353.5,-319.7"/>
<text text-anchor="start" x="399.3862" y="-325.8" font-family="Helvetica,sans-Serif" font-size="11.00" fill="#000000"> &#160;</text>
<polygon fill="#ffffff" stroke="transparent" points="408.5,-319.7 408.5,-338.7 472.5,-338.7 472.5,-319.7 408.5,-319.7"/>
<polygon fill="none" stroke="#000000" points="408.5,-319.7 408.5,-338.7 472.5,-338.7 472.5,-319.7 408.5,-319.7"/>
<text text-anchor="start" x="453.9053" y="-325.8" font-family="Helvetica,sans-Serif" font-size="11.00" fill="#000000">1 &gt;</text>
</a>
</g>
</g>
<!-- levels_of_data_granularity -->
<g id="node2" class="node">
<title>levels_of_data_granularity</title>
<g id="a_node2"><a xlink:href="../../tables/levels_of_data_granularity.html" xlink:title="levels_of_data_granularity" target="_top">
<polygon fill="#ffffff" stroke="transparent" points="8,-215.2 8,-276.2 198,-276.2 198,-215.2 8,-215.2"/>
<polygon fill="#f5f5f5" stroke="transparent" points="8,-252.7 8,-275.7 198,-275.7 198,-252.7 8,-252.7"/>
<polygon fill="none" stroke="#000000" points="8,-252.7 8,-275.7 198,-275.7 198,-252.7 8,-252.7"/>
<text text-anchor="start" x="13" y="-261.3" font-family="Helvetica,sans-Serif" font-weight="bold" font-size="11.00" fill="#000000">levels_of_data_granularity</text>
<text text-anchor="start" x="163.5219" y="-260.8" font-family="Helvetica,sans-Serif" font-size="11.00" fill="#000000">[table]</text>
<polygon fill="none" stroke="#000000" points="8,-233.7 8,-252.7 198,-252.7 198,-233.7 8,-233.7"/>
<text text-anchor="start" x="11" y="-239.8" font-family="Helvetica,sans-Serif" font-size="11.00" fill="#000000">...</text>
<polygon fill="#ffffff" stroke="transparent" points="8,-214.7 8,-233.7 92,-233.7 92,-214.7 8,-214.7"/>
<polygon fill="none" stroke="#000000" points="8,-214.7 8,-233.7 92,-233.7 92,-214.7 8,-214.7"/>
<text text-anchor="start" x="11" y="-220.8" font-family="Helvetica,sans-Serif" font-size="11.00" fill="#000000"> &#160;</text>
<polygon fill="#ffffff" stroke="transparent" points="92,-214.7 92,-233.7 140,-233.7 140,-214.7 92,-214.7"/>
<polygon fill="none" stroke="#000000" points="92,-214.7 92,-233.7 140,-233.7 140,-214.7 92,-214.7"/>
<text text-anchor="start" x="130.8862" y="-220.8" font-family="Helvetica,sans-Serif" font-size="11.00" fill="#000000"> &#160;</text>
<polygon fill="#ffffff" stroke="transparent" points="140,-214.7 140,-233.7 198,-233.7 198,-214.7 140,-214.7"/>
<polygon fill="none" stroke="#000000" points="140,-214.7 140,-233.7 198,-233.7 198,-214.7 140,-214.7"/>
<text text-anchor="start" x="179.4053" y="-220.8" font-family="Helvetica,sans-Serif" font-size="11.00" fill="#000000">5 &gt;</text>
</a>
</g>
</g>
<!-- aggregation_constraint&#45;&gt;levels_of_data_granularity -->
<g id="edge1" class="edge">
<title>aggregation_constraint:w&#45;&gt;levels_of_data_granularity:e</title>
<path fill="none" stroke="#000000" d="M233.377,-365.3298C199.9188,-345.2923 252.2908,-242.7 198,-242.7"/>
<polygon fill="#000000" stroke="#000000" points="239.7185,-366.843 246.6644,-372.2017 243.6092,-367.7715 247.5,-368.7 247.5,-368.7 247.5,-368.7 243.6092,-367.7715 248.3356,-365.1983 239.7185,-366.843 239.7185,-366.843"/>
<ellipse fill="none" stroke="#000000" cx="236.6059" cy="-366.1003" rx="3.2" ry="3.2"/>
</g>
<!-- aggregation_function -->
<g id="node3" class="node">
<title>aggregation_function</title>
<g id="a_node3"><a xlink:href="../../tables/aggregation_function.html" xlink:title="aggregation_function" target="_top">
<polygon fill="#ffffff" stroke="transparent" points="252,-172.2 252,-299.2 467,-299.2 467,-172.2 252,-172.2"/>
<polygon fill="#f5f5f5" stroke="transparent" points="252.5,-275.7 252.5,-298.7 467.5,-298.7 467.5,-275.7 252.5,-275.7"/>
<polygon fill="none" stroke="#000000" points="252.5,-275.7 252.5,-298.7 467.5,-298.7 467.5,-275.7 252.5,-275.7"/>
<text text-anchor="start" x="257.5" y="-284.3" font-family="Helvetica,sans-Serif" font-weight="bold" font-size="11.00" fill="#000000">aggregation_function</text>
<text text-anchor="start" x="432.5437" y="-283.8" font-family="Helvetica,sans-Serif" font-size="11.00" fill="#000000">[table]</text>
<polygon fill="none" stroke="#000000" points="252.5,-253.7 252.5,-275.7 467.5,-275.7 467.5,-253.7 252.5,-253.7"/>
<image xlink:href="../../images/primaryKeys.png" width="11px" height="12px" preserveAspectRatio="xMinYMin meet" x="257.5" y="-270.7"/>
<text text-anchor="start" x="272.5" y="-260.8" font-family="Helvetica,sans-Serif" font-size="11.00" fill="#000000">aggregation_function_name</text>
<polygon fill="none" stroke="#000000" points="252.5,-231.7 252.5,-253.7 467.5,-253.7 467.5,-231.7 252.5,-231.7"/>
<image xlink:href="../../images/foreignKeys.png" width="11px" height="12px" preserveAspectRatio="xMinYMin meet" x="257.5" y="-248.7"/>
<text text-anchor="start" x="272.5" y="-238.8" font-family="Helvetica,sans-Serif" font-size="11.00" fill="#000000">source_level_of_data_granularity</text>
<polygon fill="none" stroke="#000000" points="252.5,-209.7 252.5,-231.7 467.5,-231.7 467.5,-209.7 252.5,-209.7"/>
<image xlink:href="../../images/foreignKeys.png" width="11px" height="12px" preserveAspectRatio="xMinYMin meet" x="257.5" y="-226.7"/>
<text text-anchor="start" x="272.5" y="-216.8" font-family="Helvetica,sans-Serif" font-size="11.00" fill="#000000">target_level_of_data_granularity</text>
<polygon fill="none" stroke="#000000" points="252.5,-190.7 252.5,-209.7 467.5,-209.7 467.5,-190.7 252.5,-190.7"/>
<text text-anchor="start" x="255.5" y="-196.8" font-family="Helvetica,sans-Serif" font-size="11.00" fill="#000000">...</text>
<polygon fill="#ffffff" stroke="transparent" points="252.5,-171.7 252.5,-190.7 353.5,-190.7 353.5,-171.7 252.5,-171.7"/>
<polygon fill="none" stroke="#000000" points="252.5,-171.7 252.5,-190.7 353.5,-190.7 353.5,-171.7 252.5,-171.7"/>
<text text-anchor="start" x="255.5" y="-177.8" font-family="Helvetica,sans-Serif" font-size="11.00" fill="#000000">&lt; 2</text>
<polygon fill="#ffffff" stroke="transparent" points="353.5,-171.7 353.5,-190.7 405.5,-190.7 405.5,-171.7 353.5,-171.7"/>
<polygon fill="none" stroke="#000000" points="353.5,-171.7 353.5,-190.7 405.5,-190.7 405.5,-171.7 353.5,-171.7"/>
<text text-anchor="start" x="396.3862" y="-177.8" font-family="Helvetica,sans-Serif" font-size="11.00" fill="#000000"> &#160;</text>
<polygon fill="#ffffff" stroke="transparent" points="405.5,-171.7 405.5,-190.7 467.5,-190.7 467.5,-171.7 405.5,-171.7"/>
<polygon fill="none" stroke="#000000" points="405.5,-171.7 405.5,-190.7 467.5,-190.7 467.5,-171.7 405.5,-171.7"/>
<text text-anchor="start" x="448.9053" y="-177.8" font-family="Helvetica,sans-Serif" font-size="11.00" fill="#000000">1 &gt;</text>
</a>
</g>
</g>
<!-- aggregation_function&#45;&gt;levels_of_data_granularity -->
<g id="edge2" class="edge">
<title>aggregation_function:w&#45;&gt;levels_of_data_granularity:e</title>
<path fill="none" stroke="#000000" d="M237.9947,-242.7C224.4413,-242.7 216.5451,-242.7 198,-242.7"/>
<polygon fill="#000000" stroke="#000000" points="244.5,-242.7001 252.5,-246.3 248.5,-242.7 252.5,-242.7 252.5,-242.7 252.5,-242.7 248.5,-242.7 252.5,-239.1 244.5,-242.7001 244.5,-242.7001"/>
<ellipse fill="none" stroke="#000000" cx="241.3" cy="-242.7001" rx="3.2" ry="3.2"/>
</g>
<!-- aggregation_function&#45;&gt;levels_of_data_granularity -->
<g id="edge3" class="edge">
<title>aggregation_function:w&#45;&gt;levels_of_data_granularity:e</title>
<path fill="none" stroke="#000000" d="M238.2841,-223.3976C224.2492,-229.2723 218.4072,-242.7 198,-242.7"/>
<polygon fill="#000000" stroke="#000000" points="244.6403,-222.1915 253.1712,-224.2369 248.5701,-221.4458 252.5,-220.7 252.5,-220.7 252.5,-220.7 248.5701,-221.4458 251.8288,-217.1631 244.6403,-222.1915 244.6403,-222.1915"/>
<ellipse fill="none" stroke="#000000" cx="241.4964" cy="-222.7881" rx="3.2" ry="3.2"/>
</g>
<!-- aggregation_process_computes_value_for_dimension -->
<g id="node4" class="node">
<title>aggregation_process_computes_value_for_dimension</title>
<g id="a_node4"><a xlink:href="../../tables/aggregation_process_computes_va_b73ff08c.html" xlink:title="aggregation_process_computes_value_for_dimension" target="_top">
<polygon fill="#ffffff" stroke="transparent" points="521,-38.2 521,-99.2 871,-99.2 871,-38.2 521,-38.2"/>
<polygon fill="#f5f5f5" stroke="transparent" points="521,-75.7 521,-98.7 871,-98.7 871,-75.7 521,-75.7"/>
<polygon fill="none" stroke="#000000" points="521,-75.7 521,-98.7 871,-98.7 871,-75.7 521,-75.7"/>
<text text-anchor="start" x="526" y="-84.3" font-family="Helvetica,sans-Serif" font-weight="bold" font-size="11.00" fill="#000000">aggregation_process_computes_value_for_dimension</text>
<text text-anchor="start" x="836.5219" y="-83.8" font-family="Helvetica,sans-Serif" font-size="11.00" fill="#000000">[table]</text>
<polygon fill="none" stroke="#000000" points="521,-56.7 521,-75.7 871,-75.7 871,-56.7 521,-56.7"/>
<text text-anchor="start" x="524" y="-62.8" font-family="Helvetica,sans-Serif" font-size="11.00" fill="#000000">...</text>
<polygon fill="#ffffff" stroke="transparent" points="521,-37.7 521,-56.7 694,-56.7 694,-37.7 521,-37.7"/>
<polygon fill="none" stroke="#000000" points="521,-37.7 521,-56.7 694,-56.7 694,-37.7 521,-37.7"/>
<text text-anchor="start" x="524" y="-43.8" font-family="Helvetica,sans-Serif" font-size="11.00" fill="#000000">&lt; 2</text>
<polygon fill="#ffffff" stroke="transparent" points="694,-37.7 694,-56.7 782,-56.7 782,-37.7 694,-37.7"/>
<polygon fill="none" stroke="#000000" points="694,-37.7 694,-56.7 782,-56.7 782,-37.7 694,-37.7"/>
<text text-anchor="start" x="772.8862" y="-43.8" font-family="Helvetica,sans-Serif" font-size="11.00" fill="#000000"> &#160;</text>
<polygon fill="#ffffff" stroke="transparent" points="782,-37.7 782,-56.7 871,-56.7 871,-37.7 782,-37.7"/>
<polygon fill="none" stroke="#000000" points="782,-37.7 782,-56.7 871,-56.7 871,-37.7 782,-37.7"/>
<text text-anchor="start" x="861.8862" y="-43.8" font-family="Helvetica,sans-Serif" font-size="11.00" fill="#000000"> &#160;</text>
</a>
</g>
</g>
<!-- aggregation_process -->
<g id="node5" class="node">
<title>aggregation_process</title>
<g id="a_node5"><a xlink:href="../../tables/aggregation_process.html" xlink:title="aggregation_process" target="_top">
<polygon fill="#ffffff" stroke="transparent" points="253,-68.2 253,-151.2 466,-151.2 466,-68.2 253,-68.2"/>
<polygon fill="#f5f5f5" stroke="transparent" points="253.5,-127.7 253.5,-150.7 466.5,-150.7 466.5,-127.7 253.5,-127.7"/>
<polygon fill="none" stroke="#000000" points="253.5,-127.7 253.5,-150.7 466.5,-150.7 466.5,-127.7 253.5,-127.7"/>
<text text-anchor="start" x="258.5" y="-136.3" font-family="Helvetica,sans-Serif" font-weight="bold" font-size="11.00" fill="#000000">aggregation_process</text>
<text text-anchor="start" x="431.5437" y="-135.8" font-family="Helvetica,sans-Serif" font-size="11.00" fill="#000000">[table]</text>
<polygon fill="none" stroke="#000000" points="253.5,-105.7 253.5,-127.7 466.5,-127.7 466.5,-105.7 253.5,-105.7"/>
<image xlink:href="../../images/primaryKeys.png" width="11px" height="12px" preserveAspectRatio="xMinYMin meet" x="258.5" y="-122.7"/>
<text text-anchor="start" x="273.5" y="-112.8" font-family="Helvetica,sans-Serif" font-size="11.00" fill="#000000">aggregation_process_name</text>
<polygon fill="none" stroke="#000000" points="253.5,-86.7 253.5,-105.7 466.5,-105.7 466.5,-86.7 253.5,-86.7"/>
<text text-anchor="start" x="256.5" y="-92.8" font-family="Helvetica,sans-Serif" font-size="11.00" fill="#000000">...</text>
<polygon fill="#ffffff" stroke="transparent" points="253.5,-67.7 253.5,-86.7 349.5,-86.7 349.5,-67.7 253.5,-67.7"/>
<polygon fill="none" stroke="#000000" points="253.5,-67.7 253.5,-86.7 349.5,-86.7 349.5,-67.7 253.5,-67.7"/>
<text text-anchor="start" x="256.5" y="-73.8" font-family="Helvetica,sans-Serif" font-size="11.00" fill="#000000"> &#160;</text>
<polygon fill="#ffffff" stroke="transparent" points="349.5,-67.7 349.5,-86.7 403.5,-86.7 403.5,-67.7 349.5,-67.7"/>
<polygon fill="none" stroke="#000000" points="349.5,-67.7 349.5,-86.7 403.5,-86.7 403.5,-67.7 349.5,-67.7"/>
<text text-anchor="start" x="394.3862" y="-73.8" font-family="Helvetica,sans-Serif" font-size="11.00" fill="#000000"> &#160;</text>
<polygon fill="#ffffff" stroke="transparent" points="403.5,-67.7 403.5,-86.7 466.5,-86.7 466.5,-67.7 403.5,-67.7"/>
<polygon fill="none" stroke="#000000" points="403.5,-67.7 403.5,-86.7 466.5,-86.7 466.5,-67.7 403.5,-67.7"/>
<text text-anchor="start" x="447.9053" y="-73.8" font-family="Helvetica,sans-Serif" font-size="11.00" fill="#000000">3 &gt;</text>
</a>
</g>
</g>
<!-- aggregation_process_computes_value_for_dimension&#45;&gt;aggregation_process -->
<g id="edge4" class="edge">
<title>aggregation_process_computes_value_for_dimension:w&#45;&gt;aggregation_process:e</title>
<path fill="none" stroke="#000000" d="M506.9558,-70.0482C490.6303,-82.3815 493.7128,-116.7 466.5,-116.7"/>
<polygon fill="#000000" stroke="#000000" points="513.3579,-68.0661 522.0647,-69.1389 517.1789,-66.8831 521,-65.7 521,-65.7 521,-65.7 517.1789,-66.8831 519.9353,-62.2611 513.3579,-68.0661 513.3579,-68.0661"/>
<ellipse fill="none" stroke="#000000" cx="510.3011" cy="-69.0126" rx="3.2" ry="3.2"/>
</g>
<!-- aggregation_process_is_based_on -->
<g id="node6" class="node">
<title>aggregation_process_is_based_on</title>
<g id="a_node6"><a xlink:href="../../tables/aggregation_process_is_based_on.html" xlink:title="aggregation_process_is_based_on" target="_top">
<polygon fill="#ffffff" stroke="transparent" points="538.5,-232.7 538.5,-344.7 853.5,-344.7 853.5,-232.7 538.5,-232.7"/>
<polygon fill="#f5f5f5" stroke="transparent" points="541,-319.7 541,-342.7 852,-342.7 852,-319.7 541,-319.7"/>
<polygon fill="none" stroke="#000000" points="541,-319.7 541,-342.7 852,-342.7 852,-319.7 541,-319.7"/>
<text text-anchor="start" x="546" y="-328.3" font-family="Helvetica,sans-Serif" font-weight="bold" font-size="11.00" fill="#000000">aggregation_process_is_based_on</text>
<text text-anchor="start" x="817.0437" y="-327.8" font-family="Helvetica,sans-Serif" font-size="11.00" fill="#000000">[table]</text>
<polygon fill="none" stroke="#000000" points="541,-297.7 541,-319.7 762,-319.7 762,-297.7 541,-297.7"/>
<image xlink:href="../../images/primaryKeys.png" width="11px" height="12px" preserveAspectRatio="xMinYMin meet" x="546" y="-314.7"/>
<text text-anchor="start" x="561" y="-304.8" font-family="Helvetica,sans-Serif" font-size="11.00" fill="#000000">aggregation_process_name</text>
<polygon fill="none" stroke="#000000" points="762,-297.7 762,-319.7 852,-319.7 852,-297.7 762,-297.7"/>
<text text-anchor="start" x="764.5043" y="-305.4" font-family="Helvetica,sans-Serif" font-size="11.00" fill="#000000">text[2147483647]</text>
<polygon fill="none" stroke="#000000" points="541,-275.7 541,-297.7 762,-297.7 762,-275.7 541,-275.7"/>
<image xlink:href="../../images/primaryKeys.png" width="11px" height="12px" preserveAspectRatio="xMinYMin meet" x="546" y="-292.7"/>
<text text-anchor="start" x="561" y="-282.8" font-family="Helvetica,sans-Serif" font-size="11.00" fill="#000000">aggregation_constraint_name</text>
<polygon fill="none" stroke="#000000" points="762,-275.7 762,-297.7 852,-297.7 852,-275.7 762,-275.7"/>
<text text-anchor="start" x="764.5043" y="-283.4" font-family="Helvetica,sans-Serif" font-size="11.00" fill="#000000">text[2147483647]</text>
<polygon fill="none" stroke="#000000" points="541,-253.7 541,-275.7 762,-275.7 762,-253.7 541,-253.7"/>
<image xlink:href="../../images/foreignKeys.png" width="11px" height="12px" preserveAspectRatio="xMinYMin meet" x="546" y="-270.7"/>
<text text-anchor="start" x="561" y="-260.8" font-family="Helvetica,sans-Serif" font-size="11.00" fill="#000000">aggregation_function_name</text>
<polygon fill="none" stroke="#000000" points="762,-253.7 762,-275.7 852,-275.7 852,-253.7 762,-253.7"/>
<text text-anchor="start" x="764.5043" y="-261.4" font-family="Helvetica,sans-Serif" font-size="11.00" fill="#000000">text[2147483647]</text>
<polygon fill="#ffffff" stroke="transparent" points="541,-234.7 541,-253.7 656,-253.7 656,-234.7 541,-234.7"/>
<polygon fill="none" stroke="#000000" points="541,-234.7 541,-253.7 656,-253.7 656,-234.7 541,-234.7"/>
<text text-anchor="start" x="544" y="-240.8" font-family="Helvetica,sans-Serif" font-size="11.00" fill="#000000">&lt; 3</text>
<polygon fill="#ffffff" stroke="transparent" points="656,-234.7 656,-253.7 762,-253.7 762,-234.7 656,-234.7"/>
<polygon fill="none" stroke="#000000" points="656,-234.7 656,-253.7 762,-253.7 762,-234.7 656,-234.7"/>
<text text-anchor="start" x="752.8862" y="-240.8" font-family="Helvetica,sans-Serif" font-size="11.00" fill="#000000"> &#160;</text>
<polygon fill="#ffffff" stroke="transparent" points="762,-234.7 762,-253.7 852,-253.7 852,-234.7 762,-234.7"/>
<polygon fill="none" stroke="#000000" points="762,-234.7 762,-253.7 852,-253.7 852,-234.7 762,-234.7"/>
<text text-anchor="start" x="833.4053" y="-240.8" font-family="Helvetica,sans-Serif" font-size="11.00" fill="#000000">0 &gt;</text>
<polygon fill="none" stroke="#000000" stroke-width="2" points="539.5,-233.7 539.5,-343.7 852.5,-343.7 852.5,-233.7 539.5,-233.7"/>
</a>
</g>
</g>
<!-- aggregation_process_is_based_on&#45;&gt;aggregation_constraint -->
<g id="edge5" class="edge">
<title>aggregation_process_is_based_on:w&#45;&gt;aggregation_constraint:e</title>
<path fill="none" stroke="#000000" d="M526.5139,-289.9266C493.4679,-307.4806 522.0102,-390.7 472.5,-390.7"/>
<polygon fill="#000000" stroke="#000000" points="533.1914,-288.4393 541.7827,-290.2139 537.0957,-287.5696 541,-286.7 541,-286.7 541,-286.7 537.0957,-287.5696 540.2173,-283.1861 533.1914,-288.4393 533.1914,-288.4393"/>
<ellipse fill="none" stroke="#000000" cx="530.0679" cy="-289.135" rx="3.2" ry="3.2"/>
</g>
<!-- aggregation_process_is_based_on&#45;&gt;aggregation_function -->
<g id="edge6" class="edge">
<title>aggregation_process_is_based_on:w&#45;&gt;aggregation_function:e</title>
<path fill="none" stroke="#000000" d="M526.3805,-264.7C504.8986,-264.7 494.6797,-264.7 467.5,-264.7"/>
<polygon fill="#000000" stroke="#000000" points="533,-264.7001 541,-268.3 537,-264.7 541,-264.7 541,-264.7 541,-264.7 537,-264.7 541,-261.1 533,-264.7001 533,-264.7001"/>
<ellipse fill="none" stroke="#000000" cx="529.8" cy="-264.7001" rx="3.2" ry="3.2"/>
</g>
<!-- aggregation_process_is_based_on&#45;&gt;aggregation_process -->
<g id="edge7" class="edge">
<title>aggregation_process_is_based_on:w&#45;&gt;aggregation_process:e</title>
<path fill="none" stroke="#000000" d="M526.4858,-306.6737C461.8808,-286.1539 552.4901,-116.7 466.5,-116.7"/>
<polygon fill="#000000" stroke="#000000" points="533.0768,-307.5938 540.5022,-312.2654 537.0384,-308.1469 541,-308.7 541,-308.7 541,-308.7 537.0384,-308.1469 541.4978,-305.1346 533.0768,-307.5938 533.0768,-307.5938"/>
<ellipse fill="none" stroke="#000000" cx="529.9076" cy="-307.1513" rx="3.2" ry="3.2"/>
</g>
<!-- dq_result -->
<g id="node7" class="node">
<title>dq_result</title>
<g id="a_node7"><a xlink:href="../../tables/dq_result.html" xlink:title="dq_result" target="_top">
<polygon fill="#ffffff" stroke="transparent" points="649.5,-120.2 649.5,-181.2 742.5,-181.2 742.5,-120.2 649.5,-120.2"/>
<polygon fill="#f5f5f5" stroke="transparent" points="650,-157.7 650,-180.7 743,-180.7 743,-157.7 650,-157.7"/>
<polygon fill="none" stroke="#000000" points="650,-157.7 650,-180.7 743,-180.7 743,-157.7 650,-157.7"/>
<text text-anchor="start" x="655" y="-166.3" font-family="Helvetica,sans-Serif" font-weight="bold" font-size="11.00" fill="#000000">dq_result</text>
<text text-anchor="start" x="708.5219" y="-165.8" font-family="Helvetica,sans-Serif" font-size="11.00" fill="#000000">[table]</text>
<polygon fill="none" stroke="#000000" points="650,-138.7 650,-157.7 743,-157.7 743,-138.7 650,-138.7"/>
<text text-anchor="start" x="653" y="-144.8" font-family="Helvetica,sans-Serif" font-size="11.00" fill="#000000">...</text>
<polygon fill="#ffffff" stroke="transparent" points="650,-119.7 650,-138.7 695,-138.7 695,-119.7 650,-119.7"/>
<polygon fill="none" stroke="#000000" points="650,-119.7 650,-138.7 695,-138.7 695,-119.7 650,-119.7"/>
<text text-anchor="start" x="653" y="-125.8" font-family="Helvetica,sans-Serif" font-size="11.00" fill="#000000">&lt; 3</text>
<polygon fill="#ffffff" stroke="transparent" points="695,-119.7 695,-138.7 719,-138.7 719,-119.7 695,-119.7"/>
<polygon fill="none" stroke="#000000" points="695,-119.7 695,-138.7 719,-138.7 719,-119.7 695,-119.7"/>
<text text-anchor="start" x="709.8862" y="-125.8" font-family="Helvetica,sans-Serif" font-size="11.00" fill="#000000"> &#160;</text>
<polygon fill="#ffffff" stroke="transparent" points="719,-119.7 719,-138.7 743,-138.7 743,-119.7 719,-119.7"/>
<polygon fill="none" stroke="#000000" points="719,-119.7 719,-138.7 743,-138.7 743,-119.7 719,-119.7"/>
<text text-anchor="start" x="733.8862" y="-125.8" font-family="Helvetica,sans-Serif" font-size="11.00" fill="#000000"> &#160;</text>
</a>
</g>
</g>
<!-- dq_result&#45;&gt;aggregation_process -->
<g id="edge8" class="edge">
<title>dq_result:w&#45;&gt;aggregation_process:e</title>
<path fill="none" stroke="#000000" d="M635.2175,-147.3519C564.7767,-143.9461 544.0417,-116.7 466.5,-116.7"/>
<polygon fill="#000000" stroke="#000000" points="642.0022,-147.5116 649.9152,-151.299 646.0011,-147.6058 650,-147.7 650,-147.7 650,-147.7 646.0011,-147.6058 650.0848,-144.101 642.0022,-147.5116 642.0022,-147.5116"/>
<ellipse fill="none" stroke="#000000" cx="638.8031" cy="-147.4362" rx="3.2" ry="3.2"/>
</g>
</g>
</svg>
