<?xml version="1.0" encoding="UTF-8" standalone="no"?>
<!DOCTYPE svg PUBLIC "-//W3C//DTD SVG 1.1//EN"
 "http://www.w3.org/Graphics/SVG/1.1/DTD/svg11.dtd">
<!-- Generated by graphviz version 2.40.1 (20161225.0304)
 -->
<!-- Title: twoDegreesRelationshipsDiagram Pages: 1 -->
<svg width="712pt" height="387pt"
 viewBox="0.00 0.00 712.00 387.20" xmlns="http://www.w3.org/2000/svg" xmlns:xlink="http://www.w3.org/1999/xlink">
<g id="graph0" class="graph" transform="scale(1 1) rotate(0) translate(4 383.2)">
<title>twoDegreesRelationshipsDiagram</title>
<polygon fill="#ffffff" stroke="transparent" points="-4,4 -4,-383.2 708,-383.2 708,4 -4,4"/>
<text text-anchor="middle" x="72.4936" y="-7.3" font-family="Helvetica,sans-Serif" font-size="11.00" fill="#000000">Generated by SchemaSpy</text>
<!-- aggregation_process_computes_value_for_dimension -->
<g id="node1" class="node">
<title>aggregation_process_computes_value_for_dimension</title>
<g id="a_node1"><a xlink:href="../../tables/aggregation_process_computes_va_b73ff08c.html" xlink:title="aggregation_process_computes_value_for_dimension" target="_top">
<polygon fill="#ffffff" stroke="transparent" points="270,-120.7 270,-210.7 696,-210.7 696,-120.7 270,-120.7"/>
<polygon fill="#f5f5f5" stroke="transparent" points="272,-185.7 272,-208.7 694,-208.7 694,-185.7 272,-185.7"/>
<polygon fill="none" stroke="#000000" points="272,-185.7 272,-208.7 694,-208.7 694,-185.7 272,-185.7"/>
<text text-anchor="start" x="277" y="-194.3" font-family="Helvetica,sans-Serif" font-weight="bold" font-size="11.00" fill="#000000">aggregation_process_computes_value_for_dimension</text>
<text text-anchor="start" x="659.0437" y="-193.8" font-family="Helvetica,sans-Serif" font-size="11.00" fill="#000000">[table]</text>
<polygon fill="none" stroke="#000000" points="272,-163.7 272,-185.7 604,-185.7 604,-163.7 272,-163.7"/>
<image xlink:href="../../images/primaryKeys.png" width="11px" height="12px" preserveAspectRatio="xMinYMin meet" x="277" y="-180.7"/>
<text text-anchor="start" x="292" y="-170.8" font-family="Helvetica,sans-Serif" font-size="11.00" fill="#000000">aggregation_process_name</text>
<polygon fill="none" stroke="#000000" points="604,-163.7 604,-185.7 694,-185.7 694,-163.7 604,-163.7"/>
<text text-anchor="start" x="606.5043" y="-171.4" font-family="Helvetica,sans-Serif" font-size="11.00" fill="#000000">text[2147483647]</text>
<polygon fill="none" stroke="#000000" points="272,-141.7 272,-163.7 604,-163.7 604,-141.7 272,-141.7"/>
<image xlink:href="../../images/primaryKeys.png" width="11px" height="12px" preserveAspectRatio="xMinYMin meet" x="277" y="-158.7"/>
<text text-anchor="start" x="292" y="-148.8" font-family="Helvetica,sans-Serif" font-size="11.00" fill="#000000">dimension_name</text>
<polygon fill="none" stroke="#000000" points="604,-141.7 604,-163.7 694,-163.7 694,-141.7 604,-141.7"/>
<text text-anchor="start" x="606.5043" y="-149.4" font-family="Helvetica,sans-Serif" font-size="11.00" fill="#000000">text[2147483647]</text>
<polygon fill="#ffffff" stroke="transparent" points="272,-122.7 272,-141.7 442,-141.7 442,-122.7 272,-122.7"/>
<polygon fill="none" stroke="#000000" points="272,-122.7 272,-141.7 442,-141.7 442,-122.7 272,-122.7"/>
<text text-anchor="start" x="275" y="-128.8" font-family="Helvetica,sans-Serif" font-size="11.00" fill="#000000">&lt; 2</text>
<polygon fill="#ffffff" stroke="transparent" points="442,-122.7 442,-141.7 604,-141.7 604,-122.7 442,-122.7"/>
<polygon fill="none" stroke="#000000" points="442,-122.7 442,-141.7 604,-141.7 604,-122.7 442,-122.7"/>
<text text-anchor="start" x="594.8862" y="-128.8" font-family="Helvetica,sans-Serif" font-size="11.00" fill="#000000"> &#160;</text>
<polygon fill="#ffffff" stroke="transparent" points="604,-122.7 604,-141.7 694,-141.7 694,-122.7 604,-122.7"/>
<polygon fill="none" stroke="#000000" points="604,-122.7 604,-141.7 694,-141.7 694,-122.7 604,-122.7"/>
<text text-anchor="start" x="675.4053" y="-128.8" font-family="Helvetica,sans-Serif" font-size="11.00" fill="#000000">0 &gt;</text>
<polygon fill="none" stroke="#000000" stroke-width="2" points="271,-121.7 271,-209.7 695,-209.7 695,-121.7 271,-121.7"/>
</a>
</g>
</g>
<!-- aggregation_process -->
<g id="node2" class="node">
<title>aggregation_process</title>
<g id="a_node2"><a xlink:href="../../tables/aggregation_process.html" xlink:title="aggregation_process" target="_top">
<polygon fill="#ffffff" stroke="transparent" points="8,-211.2 8,-294.2 221,-294.2 221,-211.2 8,-211.2"/>
<polygon fill="#f5f5f5" stroke="transparent" points="8.5,-270.7 8.5,-293.7 221.5,-293.7 221.5,-270.7 8.5,-270.7"/>
<polygon fill="none" stroke="#000000" points="8.5,-270.7 8.5,-293.7 221.5,-293.7 221.5,-270.7 8.5,-270.7"/>
<text text-anchor="start" x="13.5" y="-279.3" font-family="Helvetica,sans-Serif" font-weight="bold" font-size="11.00" fill="#000000">aggregation_process</text>
<text text-anchor="start" x="186.5437" y="-278.8" font-family="Helvetica,sans-Serif" font-size="11.00" fill="#000000">[table]</text>
<polygon fill="none" stroke="#000000" points="8.5,-248.7 8.5,-270.7 221.5,-270.7 221.5,-248.7 8.5,-248.7"/>
<image xlink:href="../../images/primaryKeys.png" width="11px" height="12px" preserveAspectRatio="xMinYMin meet" x="13.5" y="-265.7"/>
<text text-anchor="start" x="28.5" y="-255.8" font-family="Helvetica,sans-Serif" font-size="11.00" fill="#000000">aggregation_process_name</text>
<polygon fill="none" stroke="#000000" points="8.5,-229.7 8.5,-248.7 221.5,-248.7 221.5,-229.7 8.5,-229.7"/>
<text text-anchor="start" x="11.5" y="-235.8" font-family="Helvetica,sans-Serif" font-size="11.00" fill="#000000">...</text>
<polygon fill="#ffffff" stroke="transparent" points="8.5,-210.7 8.5,-229.7 104.5,-229.7 104.5,-210.7 8.5,-210.7"/>
<polygon fill="none" stroke="#000000" points="8.5,-210.7 8.5,-229.7 104.5,-229.7 104.5,-210.7 8.5,-210.7"/>
<text text-anchor="start" x="11.5" y="-216.8" font-family="Helvetica,sans-Serif" font-size="11.00" fill="#000000"> &#160;</text>
<polygon fill="#ffffff" stroke="transparent" points="104.5,-210.7 104.5,-229.7 158.5,-229.7 158.5,-210.7 104.5,-210.7"/>
<polygon fill="none" stroke="#000000" points="104.5,-210.7 104.5,-229.7 158.5,-229.7 158.5,-210.7 104.5,-210.7"/>
<text text-anchor="start" x="149.3862" y="-216.8" font-family="Helvetica,sans-Serif" font-size="11.00" fill="#000000"> &#160;</text>
<polygon fill="#ffffff" stroke="transparent" points="158.5,-210.7 158.5,-229.7 221.5,-229.7 221.5,-210.7 158.5,-210.7"/>
<polygon fill="none" stroke="#000000" points="158.5,-210.7 158.5,-229.7 221.5,-229.7 221.5,-210.7 158.5,-210.7"/>
<text text-anchor="start" x="202.9053" y="-216.8" font-family="Helvetica,sans-Serif" font-size="11.00" fill="#000000">3 &gt;</text>
</a>
</g>
</g>
<!-- aggregation_process_computes_value_for_dimension&#45;&gt;aggregation_process -->
<g id="edge1" class="edge">
<title>aggregation_process_computes_value_for_dimension:w&#45;&gt;aggregation_process:e</title>
<path fill="none" stroke="#000000" d="M258.1216,-179.032C236.76,-196.3534 259.4344,-259.7 221.5,-259.7"/>
<polygon fill="#000000" stroke="#000000" points="264.3634,-177.0837 273.0727,-178.1365 268.1817,-175.8919 272,-174.7 272,-174.7 272,-174.7 268.1817,-175.8919 270.9273,-171.2635 264.3634,-177.0837 264.3634,-177.0837"/>
<ellipse fill="none" stroke="#000000" cx="261.3087" cy="-178.0372" rx="3.2" ry="3.2"/>
</g>
<!-- dq_dimension -->
<g id="node3" class="node">
<title>dq_dimension</title>
<g id="a_node3"><a xlink:href="../../tables/dq_dimension.html" xlink:title="dq_dimension" target="_top">
<polygon fill="#ffffff" stroke="transparent" points="38.5,-39.2 38.5,-144.2 190.5,-144.2 190.5,-39.2 38.5,-39.2"/>
<polygon fill="#f5f5f5" stroke="transparent" points="38.5,-120.7 38.5,-143.7 190.5,-143.7 190.5,-120.7 38.5,-120.7"/>
<polygon fill="none" stroke="#000000" points="38.5,-120.7 38.5,-143.7 190.5,-143.7 190.5,-120.7 38.5,-120.7"/>
<text text-anchor="start" x="43.5" y="-129.3" font-family="Helvetica,sans-Serif" font-weight="bold" font-size="11.00" fill="#000000">dq_dimension</text>
<text text-anchor="start" x="155.5437" y="-128.8" font-family="Helvetica,sans-Serif" font-size="11.00" fill="#000000">[table]</text>
<polygon fill="none" stroke="#000000" points="38.5,-98.7 38.5,-120.7 190.5,-120.7 190.5,-98.7 38.5,-98.7"/>
<image xlink:href="../../images/primaryKeys.png" width="11px" height="12px" preserveAspectRatio="xMinYMin meet" x="43.5" y="-115.7"/>
<text text-anchor="start" x="58.5" y="-105.8" font-family="Helvetica,sans-Serif" font-size="11.00" fill="#000000">dimension_name</text>
<polygon fill="none" stroke="#000000" points="38.5,-76.7 38.5,-98.7 190.5,-98.7 190.5,-76.7 38.5,-76.7"/>
<image xlink:href="../../images/foreignKeys.png" width="11px" height="12px" preserveAspectRatio="xMinYMin meet" x="43.5" y="-93.7"/>
<text text-anchor="start" x="58.5" y="-83.8" font-family="Helvetica,sans-Serif" font-size="11.00" fill="#000000">is_sub_dimension_of</text>
<polygon fill="none" stroke="#000000" points="38.5,-57.7 38.5,-76.7 190.5,-76.7 190.5,-57.7 38.5,-57.7"/>
<text text-anchor="start" x="41.5" y="-63.8" font-family="Helvetica,sans-Serif" font-size="11.00" fill="#000000">...</text>
<polygon fill="#ffffff" stroke="transparent" points="38.5,-38.7 38.5,-57.7 108.5,-57.7 108.5,-38.7 38.5,-38.7"/>
<polygon fill="none" stroke="#000000" points="38.5,-38.7 38.5,-57.7 108.5,-57.7 108.5,-38.7 38.5,-38.7"/>
<text text-anchor="start" x="41.5" y="-44.8" font-family="Helvetica,sans-Serif" font-size="11.00" fill="#000000">&lt; 1</text>
<polygon fill="#ffffff" stroke="transparent" points="108.5,-38.7 108.5,-57.7 144.5,-57.7 144.5,-38.7 108.5,-38.7"/>
<polygon fill="none" stroke="#000000" points="108.5,-38.7 108.5,-57.7 144.5,-57.7 144.5,-38.7 108.5,-38.7"/>
<text text-anchor="start" x="135.3862" y="-44.8" font-family="Helvetica,sans-Serif" font-size="11.00" fill="#000000"> &#160;</text>
<polygon fill="#ffffff" stroke="transparent" points="144.5,-38.7 144.5,-57.7 190.5,-57.7 190.5,-38.7 144.5,-38.7"/>
<polygon fill="none" stroke="#000000" points="144.5,-38.7 144.5,-57.7 190.5,-57.7 190.5,-38.7 144.5,-38.7"/>
<text text-anchor="start" x="171.9053" y="-44.8" font-family="Helvetica,sans-Serif" font-size="11.00" fill="#000000">3 &gt;</text>
</a>
</g>
</g>
<!-- aggregation_process_computes_value_for_dimension&#45;&gt;dq_dimension -->
<g id="edge2" class="edge">
<title>aggregation_process_computes_value_for_dimension:w&#45;&gt;dq_dimension:e</title>
<path fill="none" stroke="#000000" d="M257.6772,-150.626C230.4244,-142.0366 226.0154,-109.7 190.5,-109.7"/>
<polygon fill="#000000" stroke="#000000" points="264.0826,-151.5535 271.4841,-156.2628 268.0413,-152.1267 272,-152.7 272,-152.7 272,-152.7 268.0413,-152.1267 272.5159,-149.1372 264.0826,-151.5535 264.0826,-151.5535"/>
<ellipse fill="none" stroke="#000000" cx="260.9156" cy="-151.0949" rx="3.2" ry="3.2"/>
</g>
<!-- aggregation_process_is_based_on -->
<g id="node4" class="node">
<title>aggregation_process_is_based_on</title>
<g id="a_node4"><a xlink:href="../../tables/aggregation_process_is_based_on.html" xlink:title="aggregation_process_is_based_on" target="_top">
<polygon fill="#ffffff" stroke="transparent" points="363.5,-314.2 363.5,-375.2 602.5,-375.2 602.5,-314.2 363.5,-314.2"/>
<polygon fill="#f5f5f5" stroke="transparent" points="364,-351.7 364,-374.7 603,-374.7 603,-351.7 364,-351.7"/>
<polygon fill="none" stroke="#000000" points="364,-351.7 364,-374.7 603,-374.7 603,-351.7 364,-351.7"/>
<text text-anchor="start" x="369" y="-360.3" font-family="Helvetica,sans-Serif" font-weight="bold" font-size="11.00" fill="#000000">aggregation_process_is_based_on</text>
<text text-anchor="start" x="568.5219" y="-359.8" font-family="Helvetica,sans-Serif" font-size="11.00" fill="#000000">[table]</text>
<polygon fill="none" stroke="#000000" points="364,-332.7 364,-351.7 603,-351.7 603,-332.7 364,-332.7"/>
<text text-anchor="start" x="367" y="-338.8" font-family="Helvetica,sans-Serif" font-size="11.00" fill="#000000">...</text>
<polygon fill="#ffffff" stroke="transparent" points="364,-313.7 364,-332.7 482,-332.7 482,-313.7 364,-313.7"/>
<polygon fill="none" stroke="#000000" points="364,-313.7 364,-332.7 482,-332.7 482,-313.7 364,-313.7"/>
<text text-anchor="start" x="367" y="-319.8" font-family="Helvetica,sans-Serif" font-size="11.00" fill="#000000">&lt; 3</text>
<polygon fill="#ffffff" stroke="transparent" points="482,-313.7 482,-332.7 542,-332.7 542,-313.7 482,-313.7"/>
<polygon fill="none" stroke="#000000" points="482,-313.7 482,-332.7 542,-332.7 542,-313.7 482,-313.7"/>
<text text-anchor="start" x="532.8862" y="-319.8" font-family="Helvetica,sans-Serif" font-size="11.00" fill="#000000"> &#160;</text>
<polygon fill="#ffffff" stroke="transparent" points="542,-313.7 542,-332.7 603,-332.7 603,-313.7 542,-313.7"/>
<polygon fill="none" stroke="#000000" points="542,-313.7 542,-332.7 603,-332.7 603,-313.7 542,-313.7"/>
<text text-anchor="start" x="593.8862" y="-319.8" font-family="Helvetica,sans-Serif" font-size="11.00" fill="#000000"> &#160;</text>
</a>
</g>
</g>
<!-- aggregation_process_is_based_on&#45;&gt;aggregation_process -->
<g id="edge3" class="edge">
<title>aggregation_process_is_based_on:w&#45;&gt;aggregation_process:e</title>
<path fill="none" stroke="#000000" d="M349.2984,-341.2982C312.357,-339.0992 297.7608,-327.7324 262,-303.7 239.9401,-288.875 248.0786,-259.7 221.5,-259.7"/>
<polygon fill="#000000" stroke="#000000" points="356.003,-341.4814 363.9016,-345.2987 360.0015,-341.5907 364,-341.7 364,-341.7 364,-341.7 360.0015,-341.5907 364.0984,-338.1013 356.003,-341.4814 356.003,-341.4814"/>
<ellipse fill="none" stroke="#000000" cx="352.8042" cy="-341.3939" rx="3.2" ry="3.2"/>
</g>
<!-- dq_result -->
<g id="node5" class="node">
<title>dq_result</title>
<g id="a_node5"><a xlink:href="../../tables/dq_result.html" xlink:title="dq_result" target="_top">
<polygon fill="#ffffff" stroke="transparent" points="436.5,-232.2 436.5,-293.2 529.5,-293.2 529.5,-232.2 436.5,-232.2"/>
<polygon fill="#f5f5f5" stroke="transparent" points="437,-269.7 437,-292.7 530,-292.7 530,-269.7 437,-269.7"/>
<polygon fill="none" stroke="#000000" points="437,-269.7 437,-292.7 530,-292.7 530,-269.7 437,-269.7"/>
<text text-anchor="start" x="442" y="-278.3" font-family="Helvetica,sans-Serif" font-weight="bold" font-size="11.00" fill="#000000">dq_result</text>
<text text-anchor="start" x="495.5219" y="-277.8" font-family="Helvetica,sans-Serif" font-size="11.00" fill="#000000">[table]</text>
<polygon fill="none" stroke="#000000" points="437,-250.7 437,-269.7 530,-269.7 530,-250.7 437,-250.7"/>
<text text-anchor="start" x="440" y="-256.8" font-family="Helvetica,sans-Serif" font-size="11.00" fill="#000000">...</text>
<polygon fill="#ffffff" stroke="transparent" points="437,-231.7 437,-250.7 482,-250.7 482,-231.7 437,-231.7"/>
<polygon fill="none" stroke="#000000" points="437,-231.7 437,-250.7 482,-250.7 482,-231.7 437,-231.7"/>
<text text-anchor="start" x="440" y="-237.8" font-family="Helvetica,sans-Serif" font-size="11.00" fill="#000000">&lt; 3</text>
<polygon fill="#ffffff" stroke="transparent" points="482,-231.7 482,-250.7 506,-250.7 506,-231.7 482,-231.7"/>
<polygon fill="none" stroke="#000000" points="482,-231.7 482,-250.7 506,-250.7 506,-231.7 482,-231.7"/>
<text text-anchor="start" x="496.8862" y="-237.8" font-family="Helvetica,sans-Serif" font-size="11.00" fill="#000000"> &#160;</text>
<polygon fill="#ffffff" stroke="transparent" points="506,-231.7 506,-250.7 530,-250.7 530,-231.7 506,-231.7"/>
<polygon fill="none" stroke="#000000" points="506,-231.7 506,-250.7 530,-250.7 530,-231.7 506,-231.7"/>
<text text-anchor="start" x="520.8862" y="-237.8" font-family="Helvetica,sans-Serif" font-size="11.00" fill="#000000"> &#160;</text>
</a>
</g>
</g>
<!-- dq_result&#45;&gt;aggregation_process -->
<g id="edge4" class="edge">
<title>dq_result:w&#45;&gt;aggregation_process:e</title>
<path fill="none" stroke="#000000" d="M422.4259,-259.7C338.4971,-259.7 312.227,-259.7 221.5,-259.7"/>
<polygon fill="#000000" stroke="#000000" points="429,-259.7001 437,-263.3 433,-259.7 437,-259.7 437,-259.7 437,-259.7 433,-259.7 437,-256.1 429,-259.7001 429,-259.7001"/>
<ellipse fill="none" stroke="#000000" cx="425.8" cy="-259.7001" rx="3.2" ry="3.2"/>
</g>
<!-- metric_computes_value_for_dimension -->
<g id="node6" class="node">
<title>metric_computes_value_for_dimension</title>
<g id="a_node6"><a xlink:href="../../tables/metric_computes_value_for_dimension.html" xlink:title="metric_computes_value_for_dimension" target="_top">
<polygon fill="#ffffff" stroke="transparent" points="350.5,-38.2 350.5,-99.2 615.5,-99.2 615.5,-38.2 350.5,-38.2"/>
<polygon fill="#f5f5f5" stroke="transparent" points="351,-75.7 351,-98.7 616,-98.7 616,-75.7 351,-75.7"/>
<polygon fill="none" stroke="#000000" points="351,-75.7 351,-98.7 616,-98.7 616,-75.7 351,-75.7"/>
<text text-anchor="start" x="356" y="-84.3" font-family="Helvetica,sans-Serif" font-weight="bold" font-size="11.00" fill="#000000">metric_computes_value_for_dimension</text>
<text text-anchor="start" x="581.5219" y="-83.8" font-family="Helvetica,sans-Serif" font-size="11.00" fill="#000000">[table]</text>
<polygon fill="none" stroke="#000000" points="351,-56.7 351,-75.7 616,-75.7 616,-56.7 351,-56.7"/>
<text text-anchor="start" x="354" y="-62.8" font-family="Helvetica,sans-Serif" font-size="11.00" fill="#000000">...</text>
<polygon fill="#ffffff" stroke="transparent" points="351,-37.7 351,-56.7 482,-56.7 482,-37.7 351,-37.7"/>
<polygon fill="none" stroke="#000000" points="351,-37.7 351,-56.7 482,-56.7 482,-37.7 351,-37.7"/>
<text text-anchor="start" x="354" y="-43.8" font-family="Helvetica,sans-Serif" font-size="11.00" fill="#000000">&lt; 2</text>
<polygon fill="#ffffff" stroke="transparent" points="482,-37.7 482,-56.7 549,-56.7 549,-37.7 482,-37.7"/>
<polygon fill="none" stroke="#000000" points="482,-37.7 482,-56.7 549,-56.7 549,-37.7 482,-37.7"/>
<text text-anchor="start" x="539.8862" y="-43.8" font-family="Helvetica,sans-Serif" font-size="11.00" fill="#000000"> &#160;</text>
<polygon fill="#ffffff" stroke="transparent" points="549,-37.7 549,-56.7 616,-56.7 616,-37.7 549,-37.7"/>
<polygon fill="none" stroke="#000000" points="549,-37.7 549,-56.7 616,-56.7 616,-37.7 549,-37.7"/>
<text text-anchor="start" x="606.8862" y="-43.8" font-family="Helvetica,sans-Serif" font-size="11.00" fill="#000000"> &#160;</text>
</a>
</g>
</g>
<!-- metric_computes_value_for_dimension&#45;&gt;dq_dimension -->
<g id="edge5" class="edge">
<title>metric_computes_value_for_dimension:w&#45;&gt;dq_dimension:e</title>
<path fill="none" stroke="#000000" d="M336.2659,-66.322C274.9636,-71.67 259.2646,-109.7 190.5,-109.7"/>
<polygon fill="#000000" stroke="#000000" points="343.0071,-66.0375 351.1519,-69.2968 347.0036,-65.8687 351,-65.7 351,-65.7 351,-65.7 347.0036,-65.8687 350.8481,-62.1032 343.0071,-66.0375 343.0071,-66.0375"/>
<ellipse fill="none" stroke="#000000" cx="339.81" cy="-66.1725" rx="3.2" ry="3.2"/>
</g>
</g>
</svg>
