<?xml version="1.0" encoding="UTF-8" standalone="no"?>
<!DOCTYPE svg PUBLIC "-//W3C//DTD SVG 1.1//EN"
 "http://www.w3.org/Graphics/SVG/1.1/DTD/svg11.dtd">
<!-- Generated by graphviz version 2.40.1 (20161225.0304)
 -->
<!-- Title: twoDegreesRelationshipsDiagram Pages: 1 -->
<svg width="870pt" height="513pt"
 viewBox="0.00 0.00 870.00 513.20" xmlns="http://www.w3.org/2000/svg" xmlns:xlink="http://www.w3.org/1999/xlink">
<g id="graph0" class="graph" transform="scale(1 1) rotate(0) translate(4 509.2)">
<title>twoDegreesRelationshipsDiagram</title>
<polygon fill="#ffffff" stroke="transparent" points="-4,4 -4,-509.2 866,-509.2 866,4 -4,4"/>
<text text-anchor="middle" x="72.4936" y="-7.3" font-family="Helvetica,sans-Serif" font-size="11.00" fill="#000000">Generated by SchemaSpy</text>
<!-- aggregation_constraint -->
<g id="node1" class="node">
<title>aggregation_constraint</title>
<g id="a_node1"><a xlink:href="../../tables/aggregation_constraint.html" xlink:title="aggregation_constraint" target="_top">
<polygon fill="#ffffff" stroke="transparent" points="247,-284.7 247,-418.7 566,-418.7 566,-284.7 247,-284.7"/>
<polygon fill="#f5f5f5" stroke="transparent" points="249.5,-393.7 249.5,-416.7 564.5,-416.7 564.5,-393.7 249.5,-393.7"/>
<polygon fill="none" stroke="#000000" points="249.5,-393.7 249.5,-416.7 564.5,-416.7 564.5,-393.7 249.5,-393.7"/>
<text text-anchor="start" x="254.5" y="-402.3" font-family="Helvetica,sans-Serif" font-weight="bold" font-size="11.00" fill="#000000">aggregation_constraint</text>
<text text-anchor="start" x="529.5437" y="-401.8" font-family="Helvetica,sans-Serif" font-size="11.00" fill="#000000">[table]</text>
<polygon fill="none" stroke="#000000" points="249.5,-371.7 249.5,-393.7 474.5,-393.7 474.5,-371.7 249.5,-371.7"/>
<image xlink:href="../../images/primaryKeys.png" width="11px" height="12px" preserveAspectRatio="xMinYMin meet" x="254.5" y="-388.7"/>
<text text-anchor="start" x="269.5" y="-378.8" font-family="Helvetica,sans-Serif" font-size="11.00" fill="#000000">aggregation_constraint_name</text>
<polygon fill="none" stroke="#000000" points="474.5,-371.7 474.5,-393.7 564.5,-393.7 564.5,-371.7 474.5,-371.7"/>
<text text-anchor="start" x="477.0043" y="-379.4" font-family="Helvetica,sans-Serif" font-size="11.00" fill="#000000">text[2147483647]</text>
<polygon fill="none" stroke="#000000" points="249.5,-349.7 249.5,-371.7 474.5,-371.7 474.5,-349.7 249.5,-349.7"/>
<text text-anchor="start" x="269.5" y="-356.8" font-family="Helvetica,sans-Serif" font-size="11.00" fill="#000000">aggregation_constraint_description</text>
<polygon fill="none" stroke="#000000" points="474.5,-349.7 474.5,-371.7 564.5,-371.7 564.5,-349.7 474.5,-349.7"/>
<text text-anchor="start" x="477.0043" y="-357.4" font-family="Helvetica,sans-Serif" font-size="11.00" fill="#000000">text[2147483647]</text>
<polygon fill="none" stroke="#000000" points="249.5,-327.7 249.5,-349.7 474.5,-349.7 474.5,-327.7 249.5,-327.7"/>
<text text-anchor="start" x="269.5" y="-334.8" font-family="Helvetica,sans-Serif" font-size="11.00" fill="#000000">aggregation_constraint_formula</text>
<polygon fill="none" stroke="#000000" points="474.5,-327.7 474.5,-349.7 564.5,-349.7 564.5,-327.7 474.5,-327.7"/>
<text text-anchor="start" x="477.0043" y="-335.4" font-family="Helvetica,sans-Serif" font-size="11.00" fill="#000000">text[2147483647]</text>
<polygon fill="none" stroke="#000000" points="249.5,-305.7 249.5,-327.7 474.5,-327.7 474.5,-305.7 249.5,-305.7"/>
<image xlink:href="../../images/foreignKeys.png" width="11px" height="12px" preserveAspectRatio="xMinYMin meet" x="254.5" y="-322.7"/>
<text text-anchor="start" x="269.5" y="-312.8" font-family="Helvetica,sans-Serif" font-size="11.00" fill="#000000">covers_level_of_data_granularity</text>
<polygon fill="none" stroke="#000000" points="474.5,-305.7 474.5,-327.7 564.5,-327.7 564.5,-305.7 474.5,-305.7"/>
<text text-anchor="start" x="477.0043" y="-313.4" font-family="Helvetica,sans-Serif" font-size="11.00" fill="#000000">text[2147483647]</text>
<polygon fill="#ffffff" stroke="transparent" points="249.5,-286.7 249.5,-305.7 366.5,-305.7 366.5,-286.7 249.5,-286.7"/>
<polygon fill="none" stroke="#000000" points="249.5,-286.7 249.5,-305.7 366.5,-305.7 366.5,-286.7 249.5,-286.7"/>
<text text-anchor="start" x="252.5" y="-292.8" font-family="Helvetica,sans-Serif" font-size="11.00" fill="#000000">&lt; 1</text>
<polygon fill="#ffffff" stroke="transparent" points="366.5,-286.7 366.5,-305.7 474.5,-305.7 474.5,-286.7 366.5,-286.7"/>
<polygon fill="none" stroke="#000000" points="366.5,-286.7 366.5,-305.7 474.5,-305.7 474.5,-286.7 366.5,-286.7"/>
<text text-anchor="start" x="465.3862" y="-292.8" font-family="Helvetica,sans-Serif" font-size="11.00" fill="#000000"> &#160;</text>
<polygon fill="#ffffff" stroke="transparent" points="474.5,-286.7 474.5,-305.7 564.5,-305.7 564.5,-286.7 474.5,-286.7"/>
<polygon fill="none" stroke="#000000" points="474.5,-286.7 474.5,-305.7 564.5,-305.7 564.5,-286.7 474.5,-286.7"/>
<text text-anchor="start" x="545.9053" y="-292.8" font-family="Helvetica,sans-Serif" font-size="11.00" fill="#000000">1 &gt;</text>
<polygon fill="none" stroke="#000000" stroke-width="2" points="248,-285.7 248,-417.7 565,-417.7 565,-285.7 248,-285.7"/>
</a>
</g>
</g>
<!-- levels_of_data_granularity -->
<g id="node2" class="node">
<title>levels_of_data_granularity</title>
<g id="a_node2"><a xlink:href="../../tables/levels_of_data_granularity.html" xlink:title="levels_of_data_granularity" target="_top">
<polygon fill="#ffffff" stroke="transparent" points="8,-181.2 8,-264.2 198,-264.2 198,-181.2 8,-181.2"/>
<polygon fill="#f5f5f5" stroke="transparent" points="8,-240.7 8,-263.7 198,-263.7 198,-240.7 8,-240.7"/>
<polygon fill="none" stroke="#000000" points="8,-240.7 8,-263.7 198,-263.7 198,-240.7 8,-240.7"/>
<text text-anchor="start" x="13" y="-249.3" font-family="Helvetica,sans-Serif" font-weight="bold" font-size="11.00" fill="#000000">levels_of_data_granularity</text>
<text text-anchor="start" x="163.5219" y="-248.8" font-family="Helvetica,sans-Serif" font-size="11.00" fill="#000000">[table]</text>
<polygon fill="none" stroke="#000000" points="8,-218.7 8,-240.7 198,-240.7 198,-218.7 8,-218.7"/>
<image xlink:href="../../images/primaryKeys.png" width="11px" height="12px" preserveAspectRatio="xMinYMin meet" x="13" y="-235.7"/>
<text text-anchor="start" x="37" y="-225.8" font-family="Helvetica,sans-Serif" font-size="11.00" fill="#000000">level_name</text>
<polygon fill="none" stroke="#000000" points="8,-199.7 8,-218.7 198,-218.7 198,-199.7 8,-199.7"/>
<text text-anchor="start" x="11" y="-205.8" font-family="Helvetica,sans-Serif" font-size="11.00" fill="#000000">...</text>
<polygon fill="#ffffff" stroke="transparent" points="8,-180.7 8,-199.7 92,-199.7 92,-180.7 8,-180.7"/>
<polygon fill="none" stroke="#000000" points="8,-180.7 8,-199.7 92,-199.7 92,-180.7 8,-180.7"/>
<text text-anchor="start" x="11" y="-186.8" font-family="Helvetica,sans-Serif" font-size="11.00" fill="#000000"> &#160;</text>
<polygon fill="#ffffff" stroke="transparent" points="92,-180.7 92,-199.7 140,-199.7 140,-180.7 92,-180.7"/>
<polygon fill="none" stroke="#000000" points="92,-180.7 92,-199.7 140,-199.7 140,-180.7 92,-180.7"/>
<text text-anchor="start" x="130.8862" y="-186.8" font-family="Helvetica,sans-Serif" font-size="11.00" fill="#000000"> &#160;</text>
<polygon fill="#ffffff" stroke="transparent" points="140,-180.7 140,-199.7 198,-199.7 198,-180.7 140,-180.7"/>
<polygon fill="none" stroke="#000000" points="140,-180.7 140,-199.7 198,-199.7 198,-180.7 140,-180.7"/>
<text text-anchor="start" x="179.4053" y="-186.8" font-family="Helvetica,sans-Serif" font-size="11.00" fill="#000000">5 &gt;</text>
</a>
</g>
</g>
<!-- aggregation_constraint&#45;&gt;levels_of_data_granularity -->
<g id="edge1" class="edge">
<title>aggregation_constraint:w&#45;&gt;levels_of_data_granularity:e</title>
<path fill="none" stroke="#000000" d="M235.6146,-312.5038C213.2884,-295.1252 236.9657,-229.7 198,-229.7"/>
<polygon fill="#000000" stroke="#000000" points="241.842,-314.3857 248.4586,-320.1461 245.671,-315.5429 249.5,-316.7 249.5,-316.7 249.5,-316.7 245.671,-315.5429 250.5414,-313.2539 241.842,-314.3857 241.842,-314.3857"/>
<ellipse fill="none" stroke="#000000" cx="238.7789" cy="-313.46" rx="3.2" ry="3.2"/>
</g>
<!-- aggregation_function -->
<g id="node3" class="node">
<title>aggregation_function</title>
<g id="a_node3"><a xlink:href="../../tables/aggregation_function.html" xlink:title="aggregation_function" target="_top">
<polygon fill="#ffffff" stroke="transparent" points="326,-202.2 326,-263.2 487,-263.2 487,-202.2 326,-202.2"/>
<polygon fill="#f5f5f5" stroke="transparent" points="326.5,-239.7 326.5,-262.7 487.5,-262.7 487.5,-239.7 326.5,-239.7"/>
<polygon fill="none" stroke="#000000" points="326.5,-239.7 326.5,-262.7 487.5,-262.7 487.5,-239.7 326.5,-239.7"/>
<text text-anchor="start" x="331.5" y="-248.3" font-family="Helvetica,sans-Serif" font-weight="bold" font-size="11.00" fill="#000000">aggregation_function</text>
<text text-anchor="start" x="453.0219" y="-247.8" font-family="Helvetica,sans-Serif" font-size="11.00" fill="#000000">[table]</text>
<polygon fill="none" stroke="#000000" points="326.5,-220.7 326.5,-239.7 487.5,-239.7 487.5,-220.7 326.5,-220.7"/>
<text text-anchor="start" x="329.5" y="-226.8" font-family="Helvetica,sans-Serif" font-size="11.00" fill="#000000">...</text>
<polygon fill="#ffffff" stroke="transparent" points="326.5,-201.7 326.5,-220.7 400.5,-220.7 400.5,-201.7 326.5,-201.7"/>
<polygon fill="none" stroke="#000000" points="326.5,-201.7 326.5,-220.7 400.5,-220.7 400.5,-201.7 326.5,-201.7"/>
<text text-anchor="start" x="329.5" y="-207.8" font-family="Helvetica,sans-Serif" font-size="11.00" fill="#000000">&lt; 2</text>
<polygon fill="#ffffff" stroke="transparent" points="400.5,-201.7 400.5,-220.7 439.5,-220.7 439.5,-201.7 400.5,-201.7"/>
<polygon fill="none" stroke="#000000" points="400.5,-201.7 400.5,-220.7 439.5,-220.7 439.5,-201.7 400.5,-201.7"/>
<text text-anchor="start" x="430.3862" y="-207.8" font-family="Helvetica,sans-Serif" font-size="11.00" fill="#000000"> &#160;</text>
<polygon fill="#ffffff" stroke="transparent" points="439.5,-201.7 439.5,-220.7 487.5,-220.7 487.5,-201.7 439.5,-201.7"/>
<polygon fill="none" stroke="#000000" points="439.5,-201.7 439.5,-220.7 487.5,-220.7 487.5,-201.7 439.5,-201.7"/>
<text text-anchor="start" x="468.9053" y="-207.8" font-family="Helvetica,sans-Serif" font-size="11.00" fill="#000000">1 &gt;</text>
</a>
</g>
</g>
<!-- aggregation_function&#45;&gt;levels_of_data_granularity -->
<g id="edge2" class="edge">
<title>aggregation_function:w&#45;&gt;levels_of_data_granularity:e</title>
<path fill="none" stroke="#000000" d="M312.0819,-228.2281C266.4776,-223.7484 249.98,-224.2391 198,-229.7"/>
<polygon fill="#000000" stroke="#000000" points="318.5414,-228.8875 326.1344,-233.2814 322.5207,-229.2937 326.5,-229.7 326.5,-229.7 326.5,-229.7 322.5207,-229.2937 326.8656,-226.1186 318.5414,-228.8875 318.5414,-228.8875"/>
<ellipse fill="none" stroke="#000000" cx="315.3579" cy="-228.5625" rx="3.2" ry="3.2"/>
</g>
<!-- aggregation_function&#45;&gt;levels_of_data_granularity -->
<g id="edge3" class="edge">
<title>aggregation_function:w&#45;&gt;levels_of_data_granularity:e</title>
<path fill="none" stroke="#000000" d="M312.0819,-231.4172C266.4776,-236.6435 249.98,-236.0711 198,-229.7"/>
<polygon fill="#000000" stroke="#000000" points="318.5561,-230.6462 326.9258,-233.2747 322.5281,-230.1731 326.5,-229.7 326.5,-229.7 326.5,-229.7 322.5281,-230.1731 326.0742,-226.1253 318.5561,-230.6462 318.5561,-230.6462"/>
<ellipse fill="none" stroke="#000000" cx="315.3786" cy="-231.0246" rx="3.2" ry="3.2"/>
</g>
<!-- aggregation_process_is_based_on -->
<g id="node4" class="node">
<title>aggregation_process_is_based_on</title>
<g id="a_node4"><a xlink:href="../../tables/aggregation_process_is_based_on.html" xlink:title="aggregation_process_is_based_on" target="_top">
<polygon fill="#ffffff" stroke="transparent" points="615,-330.7 615,-438.7 854,-438.7 854,-330.7 615,-330.7"/>
<polygon fill="#f5f5f5" stroke="transparent" points="615.5,-415.7 615.5,-438.7 854.5,-438.7 854.5,-415.7 615.5,-415.7"/>
<polygon fill="none" stroke="#000000" points="615.5,-415.7 615.5,-438.7 854.5,-438.7 854.5,-415.7 615.5,-415.7"/>
<text text-anchor="start" x="620.5" y="-424.3" font-family="Helvetica,sans-Serif" font-weight="bold" font-size="11.00" fill="#000000">aggregation_process_is_based_on</text>
<text text-anchor="start" x="820.0219" y="-423.8" font-family="Helvetica,sans-Serif" font-size="11.00" fill="#000000">[table]</text>
<polygon fill="none" stroke="#000000" points="615.5,-393.7 615.5,-415.7 854.5,-415.7 854.5,-393.7 615.5,-393.7"/>
<image xlink:href="../../images/primaryKeys.png" width="11px" height="12px" preserveAspectRatio="xMinYMin meet" x="620.5" y="-410.7"/>
<text text-anchor="start" x="644.5" y="-400.8" font-family="Helvetica,sans-Serif" font-size="11.00" fill="#000000">aggregation_process_name</text>
<polygon fill="none" stroke="#000000" points="615.5,-371.7 615.5,-393.7 854.5,-393.7 854.5,-371.7 615.5,-371.7"/>
<image xlink:href="../../images/primaryKeys.png" width="11px" height="12px" preserveAspectRatio="xMinYMin meet" x="620.5" y="-388.7"/>
<text text-anchor="start" x="644.5" y="-378.8" font-family="Helvetica,sans-Serif" font-size="11.00" fill="#000000">aggregation_constraint_name</text>
<polygon fill="none" stroke="#000000" points="615.5,-349.7 615.5,-371.7 854.5,-371.7 854.5,-349.7 615.5,-349.7"/>
<image xlink:href="../../images/foreignKeys.png" width="11px" height="12px" preserveAspectRatio="xMinYMin meet" x="620.5" y="-366.7"/>
<text text-anchor="start" x="644.5" y="-356.8" font-family="Helvetica,sans-Serif" font-size="11.00" fill="#000000">aggregation_function_name</text>
<polygon fill="#ffffff" stroke="transparent" points="615.5,-330.7 615.5,-349.7 733.5,-349.7 733.5,-330.7 615.5,-330.7"/>
<polygon fill="none" stroke="#000000" points="615.5,-330.7 615.5,-349.7 733.5,-349.7 733.5,-330.7 615.5,-330.7"/>
<text text-anchor="start" x="618.5" y="-336.8" font-family="Helvetica,sans-Serif" font-size="11.00" fill="#000000">&lt; 3</text>
<polygon fill="#ffffff" stroke="transparent" points="733.5,-330.7 733.5,-349.7 793.5,-349.7 793.5,-330.7 733.5,-330.7"/>
<polygon fill="none" stroke="#000000" points="733.5,-330.7 733.5,-349.7 793.5,-349.7 793.5,-330.7 733.5,-330.7"/>
<text text-anchor="start" x="784.3862" y="-336.8" font-family="Helvetica,sans-Serif" font-size="11.00" fill="#000000"> &#160;</text>
<polygon fill="#ffffff" stroke="transparent" points="793.5,-330.7 793.5,-349.7 854.5,-349.7 854.5,-330.7 793.5,-330.7"/>
<polygon fill="none" stroke="#000000" points="793.5,-330.7 793.5,-349.7 854.5,-349.7 854.5,-330.7 793.5,-330.7"/>
<text text-anchor="start" x="845.3862" y="-336.8" font-family="Helvetica,sans-Serif" font-size="11.00" fill="#000000"> &#160;</text>
</a>
</g>
</g>
<!-- aggregation_process_is_based_on&#45;&gt;aggregation_constraint -->
<g id="edge4" class="edge">
<title>aggregation_process_is_based_on:w&#45;&gt;aggregation_constraint:e</title>
<path fill="none" stroke="#000000" d="M600.776,-382.7C588.7815,-382.7 581.3229,-382.7 564.5,-382.7"/>
<polygon fill="#000000" stroke="#000000" points="607.5,-382.7001 615.5,-386.3 611.5,-382.7 615.5,-382.7 615.5,-382.7 615.5,-382.7 611.5,-382.7 615.5,-379.1 607.5,-382.7001 607.5,-382.7001"/>
<ellipse fill="none" stroke="#000000" cx="604.3" cy="-382.7001" rx="3.2" ry="3.2"/>
</g>
<!-- aggregation_process_is_based_on&#45;&gt;aggregation_function -->
<g id="edge5" class="edge">
<title>aggregation_process_is_based_on:w&#45;&gt;aggregation_function:e</title>
<path fill="none" stroke="#000000" d="M601.2675,-357.4627C580.6206,-345.1688 599.2828,-300.7557 574,-274.7 543.8218,-243.5993 530.8356,-229.7 487.5,-229.7"/>
<polygon fill="#000000" stroke="#000000" points="607.6992,-358.9256 614.7015,-364.2103 611.5996,-359.8128 615.5,-360.7 615.5,-360.7 615.5,-360.7 611.5996,-359.8128 616.2985,-357.1897 607.6992,-358.9256 607.6992,-358.9256"/>
<ellipse fill="none" stroke="#000000" cx="604.5789" cy="-358.2159" rx="3.2" ry="3.2"/>
</g>
<!-- aggregation_process -->
<g id="node5" class="node">
<title>aggregation_process</title>
<g id="a_node5"><a xlink:href="../../tables/aggregation_process.html" xlink:title="aggregation_process" target="_top">
<polygon fill="#ffffff" stroke="transparent" points="326.5,-440.2 326.5,-501.2 486.5,-501.2 486.5,-440.2 326.5,-440.2"/>
<polygon fill="#f5f5f5" stroke="transparent" points="326.5,-477.7 326.5,-500.7 486.5,-500.7 486.5,-477.7 326.5,-477.7"/>
<polygon fill="none" stroke="#000000" points="326.5,-477.7 326.5,-500.7 486.5,-500.7 486.5,-477.7 326.5,-477.7"/>
<text text-anchor="start" x="331.5" y="-486.3" font-family="Helvetica,sans-Serif" font-weight="bold" font-size="11.00" fill="#000000">aggregation_process</text>
<text text-anchor="start" x="452.0219" y="-485.8" font-family="Helvetica,sans-Serif" font-size="11.00" fill="#000000">[table]</text>
<polygon fill="none" stroke="#000000" points="326.5,-458.7 326.5,-477.7 486.5,-477.7 486.5,-458.7 326.5,-458.7"/>
<text text-anchor="start" x="329.5" y="-464.8" font-family="Helvetica,sans-Serif" font-size="11.00" fill="#000000">...</text>
<polygon fill="#ffffff" stroke="transparent" points="326.5,-439.7 326.5,-458.7 395.5,-458.7 395.5,-439.7 326.5,-439.7"/>
<polygon fill="none" stroke="#000000" points="326.5,-439.7 326.5,-458.7 395.5,-458.7 395.5,-439.7 326.5,-439.7"/>
<text text-anchor="start" x="329.5" y="-445.8" font-family="Helvetica,sans-Serif" font-size="11.00" fill="#000000"> &#160;</text>
<polygon fill="#ffffff" stroke="transparent" points="395.5,-439.7 395.5,-458.7 436.5,-458.7 436.5,-439.7 395.5,-439.7"/>
<polygon fill="none" stroke="#000000" points="395.5,-439.7 395.5,-458.7 436.5,-458.7 436.5,-439.7 395.5,-439.7"/>
<text text-anchor="start" x="427.3862" y="-445.8" font-family="Helvetica,sans-Serif" font-size="11.00" fill="#000000"> &#160;</text>
<polygon fill="#ffffff" stroke="transparent" points="436.5,-439.7 436.5,-458.7 486.5,-458.7 486.5,-439.7 436.5,-439.7"/>
<polygon fill="none" stroke="#000000" points="436.5,-439.7 436.5,-458.7 486.5,-458.7 486.5,-439.7 436.5,-439.7"/>
<text text-anchor="start" x="467.9053" y="-445.8" font-family="Helvetica,sans-Serif" font-size="11.00" fill="#000000">3 &gt;</text>
</a>
</g>
</g>
<!-- aggregation_process_is_based_on&#45;&gt;aggregation_process -->
<g id="edge6" class="edge">
<title>aggregation_process_is_based_on:w&#45;&gt;aggregation_process:e</title>
<path fill="none" stroke="#000000" d="M601.3772,-407.8375C592.0532,-412.7962 587.7565,-422.6089 574,-429.7 536.3143,-449.126 528.8979,-467.7 486.5,-467.7"/>
<polygon fill="#000000" stroke="#000000" points="607.6904,-406.435 616.2808,-408.2143 611.5952,-405.5675 615.5,-404.7 615.5,-404.7 615.5,-404.7 611.5952,-405.5675 614.7192,-401.1857 607.6904,-406.435 607.6904,-406.435"/>
<ellipse fill="none" stroke="#000000" cx="604.5666" cy="-407.129" rx="3.2" ry="3.2"/>
</g>
<!-- data_element -->
<g id="node6" class="node">
<title>data_element</title>
<g id="a_node6"><a xlink:href="../../tables/data_element.html" xlink:title="data_element" target="_top">
<polygon fill="#ffffff" stroke="transparent" points="349,-120.2 349,-181.2 464,-181.2 464,-120.2 349,-120.2"/>
<polygon fill="#f5f5f5" stroke="transparent" points="349.5,-157.7 349.5,-180.7 464.5,-180.7 464.5,-157.7 349.5,-157.7"/>
<polygon fill="none" stroke="#000000" points="349.5,-157.7 349.5,-180.7 464.5,-180.7 464.5,-157.7 349.5,-157.7"/>
<text text-anchor="start" x="354.5" y="-166.3" font-family="Helvetica,sans-Serif" font-weight="bold" font-size="11.00" fill="#000000">data_element</text>
<text text-anchor="start" x="430.0219" y="-165.8" font-family="Helvetica,sans-Serif" font-size="11.00" fill="#000000">[table]</text>
<polygon fill="none" stroke="#000000" points="349.5,-138.7 349.5,-157.7 464.5,-157.7 464.5,-138.7 349.5,-138.7"/>
<text text-anchor="start" x="352.5" y="-144.8" font-family="Helvetica,sans-Serif" font-size="11.00" fill="#000000">...</text>
<polygon fill="#ffffff" stroke="transparent" points="349.5,-119.7 349.5,-138.7 400.5,-138.7 400.5,-119.7 349.5,-119.7"/>
<polygon fill="none" stroke="#000000" points="349.5,-119.7 349.5,-138.7 400.5,-138.7 400.5,-119.7 349.5,-119.7"/>
<text text-anchor="start" x="352.5" y="-125.8" font-family="Helvetica,sans-Serif" font-size="11.00" fill="#000000">&lt; 2</text>
<polygon fill="#ffffff" stroke="transparent" points="400.5,-119.7 400.5,-138.7 427.5,-138.7 427.5,-119.7 400.5,-119.7"/>
<polygon fill="none" stroke="#000000" points="400.5,-119.7 400.5,-138.7 427.5,-138.7 427.5,-119.7 400.5,-119.7"/>
<text text-anchor="start" x="418.3862" y="-125.8" font-family="Helvetica,sans-Serif" font-size="11.00" fill="#000000"> &#160;</text>
<polygon fill="#ffffff" stroke="transparent" points="427.5,-119.7 427.5,-138.7 464.5,-138.7 464.5,-119.7 427.5,-119.7"/>
<polygon fill="none" stroke="#000000" points="427.5,-119.7 427.5,-138.7 464.5,-138.7 464.5,-119.7 427.5,-119.7"/>
<text text-anchor="start" x="445.9053" y="-125.8" font-family="Helvetica,sans-Serif" font-size="11.00" fill="#000000">2 &gt;</text>
</a>
</g>
</g>
<!-- data_element&#45;&gt;levels_of_data_granularity -->
<g id="edge7" class="edge">
<title>data_element:w&#45;&gt;levels_of_data_granularity:e</title>
<path fill="none" stroke="#000000" d="M335.0886,-148.1483C293.8082,-150.9003 279.3322,-166.234 239,-191.7 217.992,-204.9646 222.8452,-229.7 198,-229.7"/>
<polygon fill="#000000" stroke="#000000" points="341.5039,-147.9488 349.612,-151.2983 345.5019,-147.8244 349.5,-147.7 349.5,-147.7 349.5,-147.7 345.5019,-147.8244 349.388,-144.1017 341.5039,-147.9488 341.5039,-147.9488"/>
<ellipse fill="none" stroke="#000000" cx="338.3054" cy="-148.0483" rx="3.2" ry="3.2"/>
</g>
<!-- dq_metric -->
<g id="node7" class="node">
<title>dq_metric</title>
<g id="a_node7"><a xlink:href="../../tables/dq_metric.html" xlink:title="dq_metric" target="_top">
<polygon fill="#ffffff" stroke="transparent" points="358.5,-38.2 358.5,-99.2 454.5,-99.2 454.5,-38.2 358.5,-38.2"/>
<polygon fill="#f5f5f5" stroke="transparent" points="358.5,-75.7 358.5,-98.7 454.5,-98.7 454.5,-75.7 358.5,-75.7"/>
<polygon fill="none" stroke="#000000" points="358.5,-75.7 358.5,-98.7 454.5,-98.7 454.5,-75.7 358.5,-75.7"/>
<text text-anchor="start" x="363.5" y="-84.3" font-family="Helvetica,sans-Serif" font-weight="bold" font-size="11.00" fill="#000000">dq_metric</text>
<text text-anchor="start" x="420.0219" y="-83.8" font-family="Helvetica,sans-Serif" font-size="11.00" fill="#000000">[table]</text>
<polygon fill="none" stroke="#000000" points="358.5,-56.7 358.5,-75.7 454.5,-75.7 454.5,-56.7 358.5,-56.7"/>
<text text-anchor="start" x="361.5" y="-62.8" font-family="Helvetica,sans-Serif" font-size="11.00" fill="#000000">...</text>
<polygon fill="#ffffff" stroke="transparent" points="358.5,-37.7 358.5,-56.7 400.5,-56.7 400.5,-37.7 358.5,-37.7"/>
<polygon fill="none" stroke="#000000" points="358.5,-37.7 358.5,-56.7 400.5,-56.7 400.5,-37.7 358.5,-37.7"/>
<text text-anchor="start" x="361.5" y="-43.8" font-family="Helvetica,sans-Serif" font-size="11.00" fill="#000000">&lt; 1</text>
<polygon fill="#ffffff" stroke="transparent" points="400.5,-37.7 400.5,-56.7 422.5,-56.7 422.5,-37.7 400.5,-37.7"/>
<polygon fill="none" stroke="#000000" points="400.5,-37.7 400.5,-56.7 422.5,-56.7 422.5,-37.7 400.5,-37.7"/>
<text text-anchor="start" x="413.3862" y="-43.8" font-family="Helvetica,sans-Serif" font-size="11.00" fill="#000000"> &#160;</text>
<polygon fill="#ffffff" stroke="transparent" points="422.5,-37.7 422.5,-56.7 454.5,-56.7 454.5,-37.7 422.5,-37.7"/>
<polygon fill="none" stroke="#000000" points="422.5,-37.7 422.5,-56.7 454.5,-56.7 454.5,-37.7 422.5,-37.7"/>
<text text-anchor="start" x="435.9053" y="-43.8" font-family="Helvetica,sans-Serif" font-size="11.00" fill="#000000">2 &gt;</text>
</a>
</g>
</g>
<!-- dq_metric&#45;&gt;levels_of_data_granularity -->
<g id="edge8" class="edge">
<title>dq_metric:w&#45;&gt;levels_of_data_granularity:e</title>
<path fill="none" stroke="#000000" d="M344.0144,-65.8093C297.5754,-66.6294 274.9928,-72.8489 239,-109.7 199.6195,-150.0196 254.3604,-229.7 198,-229.7"/>
<polygon fill="#000000" stroke="#000000" points="350.5002,-65.7604 358.5272,-69.2999 354.5001,-65.7302 358.5,-65.7 358.5,-65.7 358.5,-65.7 354.5001,-65.7302 358.4728,-62.1001 350.5002,-65.7604 350.5002,-65.7604"/>
<ellipse fill="none" stroke="#000000" cx="347.3003" cy="-65.7846" rx="3.2" ry="3.2"/>
</g>
</g>
</svg>
