<?xml version="1.0" encoding="UTF-8" standalone="no"?>
<!DOCTYPE svg PUBLIC "-//W3C//DTD SVG 1.1//EN"
 "http://www.w3.org/Graphics/SVG/1.1/DTD/svg11.dtd">
<!-- Generated by graphviz version 2.40.1 (20161225.0304)
 -->
<!-- Title: twoDegreesRelationshipsDiagram Pages: 1 -->
<svg width="860pt" height="535pt"
 viewBox="0.00 0.00 860.00 535.20" xmlns="http://www.w3.org/2000/svg" xmlns:xlink="http://www.w3.org/1999/xlink">
<g id="graph0" class="graph" transform="scale(1 1) rotate(0) translate(4 531.2)">
<title>twoDegreesRelationshipsDiagram</title>
<polygon fill="#ffffff" stroke="transparent" points="-4,4 -4,-531.2 856,-531.2 856,4 -4,4"/>
<text text-anchor="middle" x="72.4936" y="-7.3" font-family="Helvetica,sans-Serif" font-size="11.00" fill="#000000">Generated by SchemaSpy</text>
<!-- aggregation_constraint -->
<g id="node1" class="node">
<title>aggregation_constraint</title>
<g id="a_node1"><a xlink:href="../../tables/aggregation_constraint.html" xlink:title="aggregation_constraint" target="_top">
<polygon fill="#ffffff" stroke="transparent" points="315.5,-380.2 315.5,-441.2 487.5,-441.2 487.5,-380.2 315.5,-380.2"/>
<polygon fill="#f5f5f5" stroke="transparent" points="315.5,-417.7 315.5,-440.7 487.5,-440.7 487.5,-417.7 315.5,-417.7"/>
<polygon fill="none" stroke="#000000" points="315.5,-417.7 315.5,-440.7 487.5,-440.7 487.5,-417.7 315.5,-417.7"/>
<text text-anchor="start" x="320.5" y="-426.3" font-family="Helvetica,sans-Serif" font-weight="bold" font-size="11.00" fill="#000000">aggregation_constraint</text>
<text text-anchor="start" x="453.0219" y="-425.8" font-family="Helvetica,sans-Serif" font-size="11.00" fill="#000000">[table]</text>
<polygon fill="none" stroke="#000000" points="315.5,-398.7 315.5,-417.7 487.5,-417.7 487.5,-398.7 315.5,-398.7"/>
<text text-anchor="start" x="318.5" y="-404.8" font-family="Helvetica,sans-Serif" font-size="11.00" fill="#000000">...</text>
<polygon fill="#ffffff" stroke="transparent" points="315.5,-379.7 315.5,-398.7 395.5,-398.7 395.5,-379.7 315.5,-379.7"/>
<polygon fill="none" stroke="#000000" points="315.5,-379.7 315.5,-398.7 395.5,-398.7 395.5,-379.7 315.5,-379.7"/>
<text text-anchor="start" x="318.5" y="-385.8" font-family="Helvetica,sans-Serif" font-size="11.00" fill="#000000">&lt; 1</text>
<polygon fill="#ffffff" stroke="transparent" points="395.5,-379.7 395.5,-398.7 436.5,-398.7 436.5,-379.7 395.5,-379.7"/>
<polygon fill="none" stroke="#000000" points="395.5,-379.7 395.5,-398.7 436.5,-398.7 436.5,-379.7 395.5,-379.7"/>
<text text-anchor="start" x="427.3862" y="-385.8" font-family="Helvetica,sans-Serif" font-size="11.00" fill="#000000"> &#160;</text>
<polygon fill="#ffffff" stroke="transparent" points="436.5,-379.7 436.5,-398.7 487.5,-398.7 487.5,-379.7 436.5,-379.7"/>
<polygon fill="none" stroke="#000000" points="436.5,-379.7 436.5,-398.7 487.5,-398.7 487.5,-379.7 436.5,-379.7"/>
<text text-anchor="start" x="468.9053" y="-385.8" font-family="Helvetica,sans-Serif" font-size="11.00" fill="#000000">1 &gt;</text>
</a>
</g>
</g>
<!-- levels_of_data_granularity -->
<g id="node2" class="node">
<title>levels_of_data_granularity</title>
<g id="a_node2"><a xlink:href="../../tables/levels_of_data_granularity.html" xlink:title="levels_of_data_granularity" target="_top">
<polygon fill="#ffffff" stroke="transparent" points="8,-186.2 8,-269.2 198,-269.2 198,-186.2 8,-186.2"/>
<polygon fill="#f5f5f5" stroke="transparent" points="8,-245.7 8,-268.7 198,-268.7 198,-245.7 8,-245.7"/>
<polygon fill="none" stroke="#000000" points="8,-245.7 8,-268.7 198,-268.7 198,-245.7 8,-245.7"/>
<text text-anchor="start" x="13" y="-254.3" font-family="Helvetica,sans-Serif" font-weight="bold" font-size="11.00" fill="#000000">levels_of_data_granularity</text>
<text text-anchor="start" x="163.5219" y="-253.8" font-family="Helvetica,sans-Serif" font-size="11.00" fill="#000000">[table]</text>
<polygon fill="none" stroke="#000000" points="8,-223.7 8,-245.7 198,-245.7 198,-223.7 8,-223.7"/>
<image xlink:href="../../images/primaryKeys.png" width="11px" height="12px" preserveAspectRatio="xMinYMin meet" x="13" y="-240.7"/>
<text text-anchor="start" x="37" y="-230.8" font-family="Helvetica,sans-Serif" font-size="11.00" fill="#000000">level_name</text>
<polygon fill="none" stroke="#000000" points="8,-204.7 8,-223.7 198,-223.7 198,-204.7 8,-204.7"/>
<text text-anchor="start" x="11" y="-210.8" font-family="Helvetica,sans-Serif" font-size="11.00" fill="#000000">...</text>
<polygon fill="#ffffff" stroke="transparent" points="8,-185.7 8,-204.7 92,-204.7 92,-185.7 8,-185.7"/>
<polygon fill="none" stroke="#000000" points="8,-185.7 8,-204.7 92,-204.7 92,-185.7 8,-185.7"/>
<text text-anchor="start" x="11" y="-191.8" font-family="Helvetica,sans-Serif" font-size="11.00" fill="#000000"> &#160;</text>
<polygon fill="#ffffff" stroke="transparent" points="92,-185.7 92,-204.7 140,-204.7 140,-185.7 92,-185.7"/>
<polygon fill="none" stroke="#000000" points="92,-185.7 92,-204.7 140,-204.7 140,-185.7 92,-185.7"/>
<text text-anchor="start" x="130.8862" y="-191.8" font-family="Helvetica,sans-Serif" font-size="11.00" fill="#000000"> &#160;</text>
<polygon fill="#ffffff" stroke="transparent" points="140,-185.7 140,-204.7 198,-204.7 198,-185.7 140,-185.7"/>
<polygon fill="none" stroke="#000000" points="140,-185.7 140,-204.7 198,-204.7 198,-185.7 140,-185.7"/>
<text text-anchor="start" x="179.4053" y="-191.8" font-family="Helvetica,sans-Serif" font-size="11.00" fill="#000000">5 &gt;</text>
</a>
</g>
</g>
<!-- aggregation_constraint&#45;&gt;levels_of_data_granularity -->
<g id="edge1" class="edge">
<title>aggregation_constraint:w&#45;&gt;levels_of_data_granularity:e</title>
<path fill="none" stroke="#000000" d="M300.8092,-407.1344C273.3875,-404.7683 260.0751,-394.6044 239,-369.7 198.493,-321.8332 260.7061,-234.7 198,-234.7"/>
<polygon fill="#000000" stroke="#000000" points="307.5059,-407.3922 315.3615,-411.2973 311.503,-407.5461 315.5,-407.7 315.5,-407.7 315.5,-407.7 311.503,-407.5461 315.6385,-404.1027 307.5059,-407.3922 307.5059,-407.3922"/>
<ellipse fill="none" stroke="#000000" cx="304.3083" cy="-407.2691" rx="3.2" ry="3.2"/>
</g>
<!-- aggregation_function -->
<g id="node3" class="node">
<title>aggregation_function</title>
<g id="a_node3"><a xlink:href="../../tables/aggregation_function.html" xlink:title="aggregation_function" target="_top">
<polygon fill="#ffffff" stroke="transparent" points="247,-202.7 247,-358.7 556,-358.7 556,-202.7 247,-202.7"/>
<polygon fill="#f5f5f5" stroke="transparent" points="249.5,-333.7 249.5,-356.7 554.5,-356.7 554.5,-333.7 249.5,-333.7"/>
<polygon fill="none" stroke="#000000" points="249.5,-333.7 249.5,-356.7 554.5,-356.7 554.5,-333.7 249.5,-333.7"/>
<text text-anchor="start" x="254.5" y="-342.3" font-family="Helvetica,sans-Serif" font-weight="bold" font-size="11.00" fill="#000000">aggregation_function</text>
<text text-anchor="start" x="519.5437" y="-341.8" font-family="Helvetica,sans-Serif" font-size="11.00" fill="#000000">[table]</text>
<polygon fill="none" stroke="#000000" points="249.5,-311.7 249.5,-333.7 464.5,-333.7 464.5,-311.7 249.5,-311.7"/>
<image xlink:href="../../images/primaryKeys.png" width="11px" height="12px" preserveAspectRatio="xMinYMin meet" x="254.5" y="-328.7"/>
<text text-anchor="start" x="269.5" y="-318.8" font-family="Helvetica,sans-Serif" font-size="11.00" fill="#000000">aggregation_function_name</text>
<polygon fill="none" stroke="#000000" points="464.5,-311.7 464.5,-333.7 554.5,-333.7 554.5,-311.7 464.5,-311.7"/>
<text text-anchor="start" x="467.0043" y="-319.4" font-family="Helvetica,sans-Serif" font-size="11.00" fill="#000000">text[2147483647]</text>
<polygon fill="none" stroke="#000000" points="249.5,-289.7 249.5,-311.7 464.5,-311.7 464.5,-289.7 249.5,-289.7"/>
<text text-anchor="start" x="269.5" y="-296.8" font-family="Helvetica,sans-Serif" font-size="11.00" fill="#000000">aggregation_function_description</text>
<polygon fill="none" stroke="#000000" points="464.5,-289.7 464.5,-311.7 554.5,-311.7 554.5,-289.7 464.5,-289.7"/>
<text text-anchor="start" x="467.0043" y="-297.4" font-family="Helvetica,sans-Serif" font-size="11.00" fill="#000000">text[2147483647]</text>
<polygon fill="none" stroke="#000000" points="249.5,-267.7 249.5,-289.7 464.5,-289.7 464.5,-267.7 249.5,-267.7"/>
<text text-anchor="start" x="269.5" y="-274.8" font-family="Helvetica,sans-Serif" font-size="11.00" fill="#000000">aggregation_function_expression</text>
<polygon fill="none" stroke="#000000" points="464.5,-267.7 464.5,-289.7 554.5,-289.7 554.5,-267.7 464.5,-267.7"/>
<text text-anchor="start" x="467.0043" y="-275.4" font-family="Helvetica,sans-Serif" font-size="11.00" fill="#000000">text[2147483647]</text>
<polygon fill="none" stroke="#000000" points="249.5,-245.7 249.5,-267.7 464.5,-267.7 464.5,-245.7 249.5,-245.7"/>
<image xlink:href="../../images/foreignKeys.png" width="11px" height="12px" preserveAspectRatio="xMinYMin meet" x="254.5" y="-262.7"/>
<text text-anchor="start" x="269.5" y="-252.8" font-family="Helvetica,sans-Serif" font-size="11.00" fill="#000000">source_level_of_data_granularity</text>
<polygon fill="none" stroke="#000000" points="464.5,-245.7 464.5,-267.7 554.5,-267.7 554.5,-245.7 464.5,-245.7"/>
<text text-anchor="start" x="467.0043" y="-253.4" font-family="Helvetica,sans-Serif" font-size="11.00" fill="#000000">text[2147483647]</text>
<polygon fill="none" stroke="#000000" points="249.5,-223.7 249.5,-245.7 464.5,-245.7 464.5,-223.7 249.5,-223.7"/>
<image xlink:href="../../images/foreignKeys.png" width="11px" height="12px" preserveAspectRatio="xMinYMin meet" x="254.5" y="-240.7"/>
<text text-anchor="start" x="269.5" y="-230.8" font-family="Helvetica,sans-Serif" font-size="11.00" fill="#000000">target_level_of_data_granularity</text>
<polygon fill="none" stroke="#000000" points="464.5,-223.7 464.5,-245.7 554.5,-245.7 554.5,-223.7 464.5,-223.7"/>
<text text-anchor="start" x="467.0043" y="-231.4" font-family="Helvetica,sans-Serif" font-size="11.00" fill="#000000">text[2147483647]</text>
<polygon fill="#ffffff" stroke="transparent" points="249.5,-204.7 249.5,-223.7 361.5,-223.7 361.5,-204.7 249.5,-204.7"/>
<polygon fill="none" stroke="#000000" points="249.5,-204.7 249.5,-223.7 361.5,-223.7 361.5,-204.7 249.5,-204.7"/>
<text text-anchor="start" x="252.5" y="-210.8" font-family="Helvetica,sans-Serif" font-size="11.00" fill="#000000">&lt; 2</text>
<polygon fill="#ffffff" stroke="transparent" points="361.5,-204.7 361.5,-223.7 464.5,-223.7 464.5,-204.7 361.5,-204.7"/>
<polygon fill="none" stroke="#000000" points="361.5,-204.7 361.5,-223.7 464.5,-223.7 464.5,-204.7 361.5,-204.7"/>
<text text-anchor="start" x="455.3862" y="-210.8" font-family="Helvetica,sans-Serif" font-size="11.00" fill="#000000"> &#160;</text>
<polygon fill="#ffffff" stroke="transparent" points="464.5,-204.7 464.5,-223.7 554.5,-223.7 554.5,-204.7 464.5,-204.7"/>
<polygon fill="none" stroke="#000000" points="464.5,-204.7 464.5,-223.7 554.5,-223.7 554.5,-204.7 464.5,-204.7"/>
<text text-anchor="start" x="535.9053" y="-210.8" font-family="Helvetica,sans-Serif" font-size="11.00" fill="#000000">1 &gt;</text>
<polygon fill="none" stroke="#000000" stroke-width="2" points="248,-203.7 248,-357.7 555,-357.7 555,-203.7 248,-203.7"/>
</a>
</g>
</g>
<!-- aggregation_function&#45;&gt;levels_of_data_granularity -->
<g id="edge2" class="edge">
<title>aggregation_function:w&#45;&gt;levels_of_data_granularity:e</title>
<path fill="none" stroke="#000000" d="M235.2209,-253.641C222.531,-247.596 217.0563,-234.7 198,-234.7"/>
<polygon fill="#000000" stroke="#000000" points="241.6775,-255.0241 248.7459,-260.2201 245.5887,-255.8621 249.5,-256.7 249.5,-256.7 249.5,-256.7 245.5887,-255.8621 250.2541,-253.1799 241.6775,-255.0241 241.6775,-255.0241"/>
<ellipse fill="none" stroke="#000000" cx="238.5485" cy="-254.3538" rx="3.2" ry="3.2"/>
</g>
<!-- aggregation_function&#45;&gt;levels_of_data_granularity -->
<g id="edge3" class="edge">
<title>aggregation_function:w&#45;&gt;levels_of_data_granularity:e</title>
<path fill="none" stroke="#000000" d="M235.0156,-234.7C222.6771,-234.7 215.1667,-234.7 198,-234.7"/>
<polygon fill="#000000" stroke="#000000" points="241.5,-234.7001 249.5,-238.3 245.5,-234.7 249.5,-234.7 249.5,-234.7 249.5,-234.7 245.5,-234.7 249.5,-231.1 241.5,-234.7001 241.5,-234.7001"/>
<ellipse fill="none" stroke="#000000" cx="238.3" cy="-234.7001" rx="3.2" ry="3.2"/>
</g>
<!-- aggregation_process_is_based_on -->
<g id="node4" class="node">
<title>aggregation_process_is_based_on</title>
<g id="a_node4"><a xlink:href="../../tables/aggregation_process_is_based_on.html" xlink:title="aggregation_process_is_based_on" target="_top">
<polygon fill="#ffffff" stroke="transparent" points="605,-355.7 605,-463.7 844,-463.7 844,-355.7 605,-355.7"/>
<polygon fill="#f5f5f5" stroke="transparent" points="605.5,-440.7 605.5,-463.7 844.5,-463.7 844.5,-440.7 605.5,-440.7"/>
<polygon fill="none" stroke="#000000" points="605.5,-440.7 605.5,-463.7 844.5,-463.7 844.5,-440.7 605.5,-440.7"/>
<text text-anchor="start" x="610.5" y="-449.3" font-family="Helvetica,sans-Serif" font-weight="bold" font-size="11.00" fill="#000000">aggregation_process_is_based_on</text>
<text text-anchor="start" x="810.0219" y="-448.8" font-family="Helvetica,sans-Serif" font-size="11.00" fill="#000000">[table]</text>
<polygon fill="none" stroke="#000000" points="605.5,-418.7 605.5,-440.7 844.5,-440.7 844.5,-418.7 605.5,-418.7"/>
<image xlink:href="../../images/primaryKeys.png" width="11px" height="12px" preserveAspectRatio="xMinYMin meet" x="610.5" y="-435.7"/>
<text text-anchor="start" x="634.5" y="-425.8" font-family="Helvetica,sans-Serif" font-size="11.00" fill="#000000">aggregation_process_name</text>
<polygon fill="none" stroke="#000000" points="605.5,-396.7 605.5,-418.7 844.5,-418.7 844.5,-396.7 605.5,-396.7"/>
<image xlink:href="../../images/primaryKeys.png" width="11px" height="12px" preserveAspectRatio="xMinYMin meet" x="610.5" y="-413.7"/>
<text text-anchor="start" x="634.5" y="-403.8" font-family="Helvetica,sans-Serif" font-size="11.00" fill="#000000">aggregation_constraint_name</text>
<polygon fill="none" stroke="#000000" points="605.5,-374.7 605.5,-396.7 844.5,-396.7 844.5,-374.7 605.5,-374.7"/>
<image xlink:href="../../images/foreignKeys.png" width="11px" height="12px" preserveAspectRatio="xMinYMin meet" x="610.5" y="-391.7"/>
<text text-anchor="start" x="634.5" y="-381.8" font-family="Helvetica,sans-Serif" font-size="11.00" fill="#000000">aggregation_function_name</text>
<polygon fill="#ffffff" stroke="transparent" points="605.5,-355.7 605.5,-374.7 723.5,-374.7 723.5,-355.7 605.5,-355.7"/>
<polygon fill="none" stroke="#000000" points="605.5,-355.7 605.5,-374.7 723.5,-374.7 723.5,-355.7 605.5,-355.7"/>
<text text-anchor="start" x="608.5" y="-361.8" font-family="Helvetica,sans-Serif" font-size="11.00" fill="#000000">&lt; 3</text>
<polygon fill="#ffffff" stroke="transparent" points="723.5,-355.7 723.5,-374.7 783.5,-374.7 783.5,-355.7 723.5,-355.7"/>
<polygon fill="none" stroke="#000000" points="723.5,-355.7 723.5,-374.7 783.5,-374.7 783.5,-355.7 723.5,-355.7"/>
<text text-anchor="start" x="774.3862" y="-361.8" font-family="Helvetica,sans-Serif" font-size="11.00" fill="#000000"> &#160;</text>
<polygon fill="#ffffff" stroke="transparent" points="783.5,-355.7 783.5,-374.7 844.5,-374.7 844.5,-355.7 783.5,-355.7"/>
<polygon fill="none" stroke="#000000" points="783.5,-355.7 783.5,-374.7 844.5,-374.7 844.5,-355.7 783.5,-355.7"/>
<text text-anchor="start" x="835.3862" y="-361.8" font-family="Helvetica,sans-Serif" font-size="11.00" fill="#000000"> &#160;</text>
</a>
</g>
</g>
<!-- aggregation_process_is_based_on&#45;&gt;aggregation_constraint -->
<g id="edge4" class="edge">
<title>aggregation_process_is_based_on:w&#45;&gt;aggregation_constraint:e</title>
<path fill="none" stroke="#000000" d="M590.9212,-407.7C550.0533,-407.7 534.7205,-407.7 487.5,-407.7"/>
<polygon fill="#000000" stroke="#000000" points="597.5,-407.7001 605.5,-411.3 601.5,-407.7 605.5,-407.7 605.5,-407.7 605.5,-407.7 601.5,-407.7 605.5,-404.1 597.5,-407.7001 597.5,-407.7001"/>
<ellipse fill="none" stroke="#000000" cx="594.3" cy="-407.7001" rx="3.2" ry="3.2"/>
</g>
<!-- aggregation_process_is_based_on&#45;&gt;aggregation_function -->
<g id="edge5" class="edge">
<title>aggregation_process_is_based_on:w&#45;&gt;aggregation_function:e</title>
<path fill="none" stroke="#000000" d="M591.4033,-380.7565C575.025,-365.9048 584.3329,-322.7 554.5,-322.7"/>
<polygon fill="#000000" stroke="#000000" points="597.9507,-383.0526 604.3087,-389.0972 601.7254,-384.3763 605.5,-385.7 605.5,-385.7 605.5,-385.7 601.7254,-384.3763 606.6913,-382.3028 597.9507,-383.0526 597.9507,-383.0526"/>
<ellipse fill="none" stroke="#000000" cx="594.931" cy="-381.9936" rx="3.2" ry="3.2"/>
</g>
<!-- aggregation_process -->
<g id="node5" class="node">
<title>aggregation_process</title>
<g id="a_node5"><a xlink:href="../../tables/aggregation_process.html" xlink:title="aggregation_process" target="_top">
<polygon fill="#ffffff" stroke="transparent" points="321.5,-462.2 321.5,-523.2 481.5,-523.2 481.5,-462.2 321.5,-462.2"/>
<polygon fill="#f5f5f5" stroke="transparent" points="321.5,-499.7 321.5,-522.7 481.5,-522.7 481.5,-499.7 321.5,-499.7"/>
<polygon fill="none" stroke="#000000" points="321.5,-499.7 321.5,-522.7 481.5,-522.7 481.5,-499.7 321.5,-499.7"/>
<text text-anchor="start" x="326.5" y="-508.3" font-family="Helvetica,sans-Serif" font-weight="bold" font-size="11.00" fill="#000000">aggregation_process</text>
<text text-anchor="start" x="447.0219" y="-507.8" font-family="Helvetica,sans-Serif" font-size="11.00" fill="#000000">[table]</text>
<polygon fill="none" stroke="#000000" points="321.5,-480.7 321.5,-499.7 481.5,-499.7 481.5,-480.7 321.5,-480.7"/>
<text text-anchor="start" x="324.5" y="-486.8" font-family="Helvetica,sans-Serif" font-size="11.00" fill="#000000">...</text>
<polygon fill="#ffffff" stroke="transparent" points="321.5,-461.7 321.5,-480.7 390.5,-480.7 390.5,-461.7 321.5,-461.7"/>
<polygon fill="none" stroke="#000000" points="321.5,-461.7 321.5,-480.7 390.5,-480.7 390.5,-461.7 321.5,-461.7"/>
<text text-anchor="start" x="324.5" y="-467.8" font-family="Helvetica,sans-Serif" font-size="11.00" fill="#000000"> &#160;</text>
<polygon fill="#ffffff" stroke="transparent" points="390.5,-461.7 390.5,-480.7 431.5,-480.7 431.5,-461.7 390.5,-461.7"/>
<polygon fill="none" stroke="#000000" points="390.5,-461.7 390.5,-480.7 431.5,-480.7 431.5,-461.7 390.5,-461.7"/>
<text text-anchor="start" x="422.3862" y="-467.8" font-family="Helvetica,sans-Serif" font-size="11.00" fill="#000000"> &#160;</text>
<polygon fill="#ffffff" stroke="transparent" points="431.5,-461.7 431.5,-480.7 481.5,-480.7 481.5,-461.7 431.5,-461.7"/>
<polygon fill="none" stroke="#000000" points="431.5,-461.7 431.5,-480.7 481.5,-480.7 481.5,-461.7 431.5,-461.7"/>
<text text-anchor="start" x="462.9053" y="-467.8" font-family="Helvetica,sans-Serif" font-size="11.00" fill="#000000">3 &gt;</text>
</a>
</g>
</g>
<!-- aggregation_process_is_based_on&#45;&gt;aggregation_process -->
<g id="edge6" class="edge">
<title>aggregation_process_is_based_on:w&#45;&gt;aggregation_process:e</title>
<path fill="none" stroke="#000000" d="M591.2862,-432.5019C582.1141,-436.7748 577.3017,-445.1172 564,-451.7 527.8189,-469.6054 521.8693,-489.7 481.5,-489.7"/>
<polygon fill="#000000" stroke="#000000" points="597.651,-431.2473 606.1963,-433.232 601.5755,-430.4736 605.5,-429.7 605.5,-429.7 605.5,-429.7 601.5755,-430.4736 604.8037,-426.168 597.651,-431.2473 597.651,-431.2473"/>
<ellipse fill="none" stroke="#000000" cx="594.5115" cy="-431.8662" rx="3.2" ry="3.2"/>
</g>
<!-- data_element -->
<g id="node6" class="node">
<title>data_element</title>
<g id="a_node6"><a xlink:href="../../tables/data_element.html" xlink:title="data_element" target="_top">
<polygon fill="#ffffff" stroke="transparent" points="344,-120.2 344,-181.2 459,-181.2 459,-120.2 344,-120.2"/>
<polygon fill="#f5f5f5" stroke="transparent" points="344.5,-157.7 344.5,-180.7 459.5,-180.7 459.5,-157.7 344.5,-157.7"/>
<polygon fill="none" stroke="#000000" points="344.5,-157.7 344.5,-180.7 459.5,-180.7 459.5,-157.7 344.5,-157.7"/>
<text text-anchor="start" x="349.5" y="-166.3" font-family="Helvetica,sans-Serif" font-weight="bold" font-size="11.00" fill="#000000">data_element</text>
<text text-anchor="start" x="425.0219" y="-165.8" font-family="Helvetica,sans-Serif" font-size="11.00" fill="#000000">[table]</text>
<polygon fill="none" stroke="#000000" points="344.5,-138.7 344.5,-157.7 459.5,-157.7 459.5,-138.7 344.5,-138.7"/>
<text text-anchor="start" x="347.5" y="-144.8" font-family="Helvetica,sans-Serif" font-size="11.00" fill="#000000">...</text>
<polygon fill="#ffffff" stroke="transparent" points="344.5,-119.7 344.5,-138.7 395.5,-138.7 395.5,-119.7 344.5,-119.7"/>
<polygon fill="none" stroke="#000000" points="344.5,-119.7 344.5,-138.7 395.5,-138.7 395.5,-119.7 344.5,-119.7"/>
<text text-anchor="start" x="347.5" y="-125.8" font-family="Helvetica,sans-Serif" font-size="11.00" fill="#000000">&lt; 2</text>
<polygon fill="#ffffff" stroke="transparent" points="395.5,-119.7 395.5,-138.7 422.5,-138.7 422.5,-119.7 395.5,-119.7"/>
<polygon fill="none" stroke="#000000" points="395.5,-119.7 395.5,-138.7 422.5,-138.7 422.5,-119.7 395.5,-119.7"/>
<text text-anchor="start" x="413.3862" y="-125.8" font-family="Helvetica,sans-Serif" font-size="11.00" fill="#000000"> &#160;</text>
<polygon fill="#ffffff" stroke="transparent" points="422.5,-119.7 422.5,-138.7 459.5,-138.7 459.5,-119.7 422.5,-119.7"/>
<polygon fill="none" stroke="#000000" points="422.5,-119.7 422.5,-138.7 459.5,-138.7 459.5,-119.7 422.5,-119.7"/>
<text text-anchor="start" x="440.9053" y="-125.8" font-family="Helvetica,sans-Serif" font-size="11.00" fill="#000000">2 &gt;</text>
</a>
</g>
</g>
<!-- data_element&#45;&gt;levels_of_data_granularity -->
<g id="edge7" class="edge">
<title>data_element:w&#45;&gt;levels_of_data_granularity:e</title>
<path fill="none" stroke="#000000" d="M329.8696,-148.1875C290.7294,-150.997 276.5337,-165.9023 239,-191.7 217.2384,-206.6572 224.4061,-234.7 198,-234.7"/>
<polygon fill="#000000" stroke="#000000" points="336.5044,-147.9665 344.6199,-151.298 340.5022,-147.8332 344.5,-147.7 344.5,-147.7 344.5,-147.7 340.5022,-147.8332 344.3801,-144.102 336.5044,-147.9665 336.5044,-147.9665"/>
<ellipse fill="none" stroke="#000000" cx="333.3062" cy="-148.0731" rx="3.2" ry="3.2"/>
</g>
<!-- dq_metric -->
<g id="node7" class="node">
<title>dq_metric</title>
<g id="a_node7"><a xlink:href="../../tables/dq_metric.html" xlink:title="dq_metric" target="_top">
<polygon fill="#ffffff" stroke="transparent" points="353.5,-38.2 353.5,-99.2 449.5,-99.2 449.5,-38.2 353.5,-38.2"/>
<polygon fill="#f5f5f5" stroke="transparent" points="353.5,-75.7 353.5,-98.7 449.5,-98.7 449.5,-75.7 353.5,-75.7"/>
<polygon fill="none" stroke="#000000" points="353.5,-75.7 353.5,-98.7 449.5,-98.7 449.5,-75.7 353.5,-75.7"/>
<text text-anchor="start" x="358.5" y="-84.3" font-family="Helvetica,sans-Serif" font-weight="bold" font-size="11.00" fill="#000000">dq_metric</text>
<text text-anchor="start" x="415.0219" y="-83.8" font-family="Helvetica,sans-Serif" font-size="11.00" fill="#000000">[table]</text>
<polygon fill="none" stroke="#000000" points="353.5,-56.7 353.5,-75.7 449.5,-75.7 449.5,-56.7 353.5,-56.7"/>
<text text-anchor="start" x="356.5" y="-62.8" font-family="Helvetica,sans-Serif" font-size="11.00" fill="#000000">...</text>
<polygon fill="#ffffff" stroke="transparent" points="353.5,-37.7 353.5,-56.7 395.5,-56.7 395.5,-37.7 353.5,-37.7"/>
<polygon fill="none" stroke="#000000" points="353.5,-37.7 353.5,-56.7 395.5,-56.7 395.5,-37.7 353.5,-37.7"/>
<text text-anchor="start" x="356.5" y="-43.8" font-family="Helvetica,sans-Serif" font-size="11.00" fill="#000000">&lt; 1</text>
<polygon fill="#ffffff" stroke="transparent" points="395.5,-37.7 395.5,-56.7 417.5,-56.7 417.5,-37.7 395.5,-37.7"/>
<polygon fill="none" stroke="#000000" points="395.5,-37.7 395.5,-56.7 417.5,-56.7 417.5,-37.7 395.5,-37.7"/>
<text text-anchor="start" x="408.3862" y="-43.8" font-family="Helvetica,sans-Serif" font-size="11.00" fill="#000000"> &#160;</text>
<polygon fill="#ffffff" stroke="transparent" points="417.5,-37.7 417.5,-56.7 449.5,-56.7 449.5,-37.7 417.5,-37.7"/>
<polygon fill="none" stroke="#000000" points="417.5,-37.7 417.5,-56.7 449.5,-56.7 449.5,-37.7 417.5,-37.7"/>
<text text-anchor="start" x="430.9053" y="-43.8" font-family="Helvetica,sans-Serif" font-size="11.00" fill="#000000">2 &gt;</text>
</a>
</g>
</g>
<!-- dq_metric&#45;&gt;levels_of_data_granularity -->
<g id="edge8" class="edge">
<title>dq_metric:w&#45;&gt;levels_of_data_granularity:e</title>
<path fill="none" stroke="#000000" d="M338.9748,-65.8438C294.6482,-66.8514 273.0522,-73.9034 239,-109.7 198.7022,-152.0622 256.4677,-234.7 198,-234.7"/>
<polygon fill="#000000" stroke="#000000" points="345.5004,-65.7792 353.5357,-69.2998 349.5002,-65.7396 353.5,-65.7 353.5,-65.7 353.5,-65.7 349.5002,-65.7396 353.4643,-62.1002 345.5004,-65.7792 345.5004,-65.7792"/>
<ellipse fill="none" stroke="#000000" cx="342.3005" cy="-65.8109" rx="3.2" ry="3.2"/>
</g>
</g>
</svg>
