<?xml version="1.0" encoding="UTF-8" standalone="no"?>
<!DOCTYPE svg PUBLIC "-//W3C//DTD SVG 1.1//EN"
 "http://www.w3.org/Graphics/SVG/1.1/DTD/svg11.dtd">
<!-- Generated by graphviz version 2.40.1 (20161225.0304)
 -->
<!-- Title: oneDegreeRelationshipsDiagram Pages: 1 -->
<svg width="870pt" height="221pt"
 viewBox="0.00 0.00 870.00 220.70" xmlns="http://www.w3.org/2000/svg" xmlns:xlink="http://www.w3.org/1999/xlink">
<g id="graph0" class="graph" transform="scale(1 1) rotate(0) translate(4 216.7)">
<title>oneDegreeRelationshipsDiagram</title>
<polygon fill="#ffffff" stroke="transparent" points="-4,4 -4,-216.7 866,-216.7 866,4 -4,4"/>
<text text-anchor="middle" x="72.4936" y="-7.3" font-family="Helvetica,sans-Serif" font-size="11.00" fill="#000000">Generated by SchemaSpy</text>
<!-- aggregation_constraint -->
<g id="node1" class="node">
<title>aggregation_constraint</title>
<g id="a_node1"><a xlink:href="../../tables/aggregation_constraint.html" xlink:title="aggregation_constraint" target="_top">
<polygon fill="#ffffff" stroke="transparent" points="247,-54.7 247,-188.7 566,-188.7 566,-54.7 247,-54.7"/>
<polygon fill="#f5f5f5" stroke="transparent" points="249.5,-163.7 249.5,-186.7 564.5,-186.7 564.5,-163.7 249.5,-163.7"/>
<polygon fill="none" stroke="#000000" points="249.5,-163.7 249.5,-186.7 564.5,-186.7 564.5,-163.7 249.5,-163.7"/>
<text text-anchor="start" x="254.5" y="-172.3" font-family="Helvetica,sans-Serif" font-weight="bold" font-size="11.00" fill="#000000">aggregation_constraint</text>
<text text-anchor="start" x="529.5437" y="-171.8" font-family="Helvetica,sans-Serif" font-size="11.00" fill="#000000">[table]</text>
<polygon fill="none" stroke="#000000" points="249.5,-141.7 249.5,-163.7 474.5,-163.7 474.5,-141.7 249.5,-141.7"/>
<image xlink:href="../../images/primaryKeys.png" width="11px" height="12px" preserveAspectRatio="xMinYMin meet" x="254.5" y="-158.7"/>
<text text-anchor="start" x="269.5" y="-148.8" font-family="Helvetica,sans-Serif" font-size="11.00" fill="#000000">aggregation_constraint_name</text>
<polygon fill="none" stroke="#000000" points="474.5,-141.7 474.5,-163.7 564.5,-163.7 564.5,-141.7 474.5,-141.7"/>
<text text-anchor="start" x="477.0043" y="-149.4" font-family="Helvetica,sans-Serif" font-size="11.00" fill="#000000">text[2147483647]</text>
<polygon fill="none" stroke="#000000" points="249.5,-119.7 249.5,-141.7 474.5,-141.7 474.5,-119.7 249.5,-119.7"/>
<text text-anchor="start" x="269.5" y="-126.8" font-family="Helvetica,sans-Serif" font-size="11.00" fill="#000000">aggregation_constraint_description</text>
<polygon fill="none" stroke="#000000" points="474.5,-119.7 474.5,-141.7 564.5,-141.7 564.5,-119.7 474.5,-119.7"/>
<text text-anchor="start" x="477.0043" y="-127.4" font-family="Helvetica,sans-Serif" font-size="11.00" fill="#000000">text[2147483647]</text>
<polygon fill="none" stroke="#000000" points="249.5,-97.7 249.5,-119.7 474.5,-119.7 474.5,-97.7 249.5,-97.7"/>
<text text-anchor="start" x="269.5" y="-104.8" font-family="Helvetica,sans-Serif" font-size="11.00" fill="#000000">aggregation_constraint_formula</text>
<polygon fill="none" stroke="#000000" points="474.5,-97.7 474.5,-119.7 564.5,-119.7 564.5,-97.7 474.5,-97.7"/>
<text text-anchor="start" x="477.0043" y="-105.4" font-family="Helvetica,sans-Serif" font-size="11.00" fill="#000000">text[2147483647]</text>
<polygon fill="none" stroke="#000000" points="249.5,-75.7 249.5,-97.7 474.5,-97.7 474.5,-75.7 249.5,-75.7"/>
<image xlink:href="../../images/foreignKeys.png" width="11px" height="12px" preserveAspectRatio="xMinYMin meet" x="254.5" y="-92.7"/>
<text text-anchor="start" x="269.5" y="-82.8" font-family="Helvetica,sans-Serif" font-size="11.00" fill="#000000">covers_level_of_data_granularity</text>
<polygon fill="none" stroke="#000000" points="474.5,-75.7 474.5,-97.7 564.5,-97.7 564.5,-75.7 474.5,-75.7"/>
<text text-anchor="start" x="477.0043" y="-83.4" font-family="Helvetica,sans-Serif" font-size="11.00" fill="#000000">text[2147483647]</text>
<polygon fill="#ffffff" stroke="transparent" points="249.5,-56.7 249.5,-75.7 366.5,-75.7 366.5,-56.7 249.5,-56.7"/>
<polygon fill="none" stroke="#000000" points="249.5,-56.7 249.5,-75.7 366.5,-75.7 366.5,-56.7 249.5,-56.7"/>
<text text-anchor="start" x="252.5" y="-62.8" font-family="Helvetica,sans-Serif" font-size="11.00" fill="#000000">&lt; 1</text>
<polygon fill="#ffffff" stroke="transparent" points="366.5,-56.7 366.5,-75.7 474.5,-75.7 474.5,-56.7 366.5,-56.7"/>
<polygon fill="none" stroke="#000000" points="366.5,-56.7 366.5,-75.7 474.5,-75.7 474.5,-56.7 366.5,-56.7"/>
<text text-anchor="start" x="465.3862" y="-62.8" font-family="Helvetica,sans-Serif" font-size="11.00" fill="#000000"> &#160;</text>
<polygon fill="#ffffff" stroke="transparent" points="474.5,-56.7 474.5,-75.7 564.5,-75.7 564.5,-56.7 474.5,-56.7"/>
<polygon fill="none" stroke="#000000" points="474.5,-56.7 474.5,-75.7 564.5,-75.7 564.5,-56.7 474.5,-56.7"/>
<text text-anchor="start" x="545.9053" y="-62.8" font-family="Helvetica,sans-Serif" font-size="11.00" fill="#000000">1 &gt;</text>
<polygon fill="none" stroke="#000000" stroke-width="2" points="248,-55.7 248,-187.7 565,-187.7 565,-55.7 248,-55.7"/>
</a>
</g>
</g>
<!-- levels_of_data_granularity -->
<g id="node2" class="node">
<title>levels_of_data_granularity</title>
<g id="a_node2"><a xlink:href="../../tables/levels_of_data_granularity.html" xlink:title="levels_of_data_granularity" target="_top">
<polygon fill="#ffffff" stroke="transparent" points="8,-38.2 8,-121.2 198,-121.2 198,-38.2 8,-38.2"/>
<polygon fill="#f5f5f5" stroke="transparent" points="8,-97.7 8,-120.7 198,-120.7 198,-97.7 8,-97.7"/>
<polygon fill="none" stroke="#000000" points="8,-97.7 8,-120.7 198,-120.7 198,-97.7 8,-97.7"/>
<text text-anchor="start" x="13" y="-106.3" font-family="Helvetica,sans-Serif" font-weight="bold" font-size="11.00" fill="#000000">levels_of_data_granularity</text>
<text text-anchor="start" x="163.5219" y="-105.8" font-family="Helvetica,sans-Serif" font-size="11.00" fill="#000000">[table]</text>
<polygon fill="none" stroke="#000000" points="8,-75.7 8,-97.7 198,-97.7 198,-75.7 8,-75.7"/>
<image xlink:href="../../images/primaryKeys.png" width="11px" height="12px" preserveAspectRatio="xMinYMin meet" x="13" y="-92.7"/>
<text text-anchor="start" x="37" y="-82.8" font-family="Helvetica,sans-Serif" font-size="11.00" fill="#000000">level_name</text>
<polygon fill="none" stroke="#000000" points="8,-56.7 8,-75.7 198,-75.7 198,-56.7 8,-56.7"/>
<text text-anchor="start" x="11" y="-62.8" font-family="Helvetica,sans-Serif" font-size="11.00" fill="#000000">...</text>
<polygon fill="#ffffff" stroke="transparent" points="8,-37.7 8,-56.7 92,-56.7 92,-37.7 8,-37.7"/>
<polygon fill="none" stroke="#000000" points="8,-37.7 8,-56.7 92,-56.7 92,-37.7 8,-37.7"/>
<text text-anchor="start" x="11" y="-43.8" font-family="Helvetica,sans-Serif" font-size="11.00" fill="#000000"> &#160;</text>
<polygon fill="#ffffff" stroke="transparent" points="92,-37.7 92,-56.7 140,-56.7 140,-37.7 92,-37.7"/>
<polygon fill="none" stroke="#000000" points="92,-37.7 92,-56.7 140,-56.7 140,-37.7 92,-37.7"/>
<text text-anchor="start" x="130.8862" y="-43.8" font-family="Helvetica,sans-Serif" font-size="11.00" fill="#000000"> &#160;</text>
<polygon fill="#ffffff" stroke="transparent" points="140,-37.7 140,-56.7 198,-56.7 198,-37.7 140,-37.7"/>
<polygon fill="none" stroke="#000000" points="140,-37.7 140,-56.7 198,-56.7 198,-37.7 140,-37.7"/>
<text text-anchor="start" x="179.4053" y="-43.8" font-family="Helvetica,sans-Serif" font-size="11.00" fill="#000000">5 &gt;</text>
</a>
</g>
</g>
<!-- aggregation_constraint&#45;&gt;levels_of_data_granularity -->
<g id="edge1" class="edge">
<title>aggregation_constraint:w&#45;&gt;levels_of_data_granularity:e</title>
<path fill="none" stroke="#000000" d="M235.0156,-86.7C222.6771,-86.7 215.1667,-86.7 198,-86.7"/>
<polygon fill="#000000" stroke="#000000" points="241.5,-86.7001 249.5,-90.3 245.5,-86.7 249.5,-86.7 249.5,-86.7 249.5,-86.7 245.5,-86.7 249.5,-83.1 241.5,-86.7001 241.5,-86.7001"/>
<ellipse fill="none" stroke="#000000" cx="238.3" cy="-86.7001" rx="3.2" ry="3.2"/>
</g>
<!-- aggregation_process_is_based_on -->
<g id="node3" class="node">
<title>aggregation_process_is_based_on</title>
<g id="a_node3"><a xlink:href="../../tables/aggregation_process_is_based_on.html" xlink:title="aggregation_process_is_based_on" target="_top">
<polygon fill="#ffffff" stroke="transparent" points="615,-100.7 615,-208.7 854,-208.7 854,-100.7 615,-100.7"/>
<polygon fill="#f5f5f5" stroke="transparent" points="615.5,-185.7 615.5,-208.7 854.5,-208.7 854.5,-185.7 615.5,-185.7"/>
<polygon fill="none" stroke="#000000" points="615.5,-185.7 615.5,-208.7 854.5,-208.7 854.5,-185.7 615.5,-185.7"/>
<text text-anchor="start" x="620.5" y="-194.3" font-family="Helvetica,sans-Serif" font-weight="bold" font-size="11.00" fill="#000000">aggregation_process_is_based_on</text>
<text text-anchor="start" x="820.0219" y="-193.8" font-family="Helvetica,sans-Serif" font-size="11.00" fill="#000000">[table]</text>
<polygon fill="none" stroke="#000000" points="615.5,-163.7 615.5,-185.7 854.5,-185.7 854.5,-163.7 615.5,-163.7"/>
<image xlink:href="../../images/primaryKeys.png" width="11px" height="12px" preserveAspectRatio="xMinYMin meet" x="620.5" y="-180.7"/>
<text text-anchor="start" x="644.5" y="-170.8" font-family="Helvetica,sans-Serif" font-size="11.00" fill="#000000">aggregation_process_name</text>
<polygon fill="none" stroke="#000000" points="615.5,-141.7 615.5,-163.7 854.5,-163.7 854.5,-141.7 615.5,-141.7"/>
<image xlink:href="../../images/primaryKeys.png" width="11px" height="12px" preserveAspectRatio="xMinYMin meet" x="620.5" y="-158.7"/>
<text text-anchor="start" x="644.5" y="-148.8" font-family="Helvetica,sans-Serif" font-size="11.00" fill="#000000">aggregation_constraint_name</text>
<polygon fill="none" stroke="#000000" points="615.5,-119.7 615.5,-141.7 854.5,-141.7 854.5,-119.7 615.5,-119.7"/>
<image xlink:href="../../images/foreignKeys.png" width="11px" height="12px" preserveAspectRatio="xMinYMin meet" x="620.5" y="-136.7"/>
<text text-anchor="start" x="644.5" y="-126.8" font-family="Helvetica,sans-Serif" font-size="11.00" fill="#000000">aggregation_function_name</text>
<polygon fill="#ffffff" stroke="transparent" points="615.5,-100.7 615.5,-119.7 733.5,-119.7 733.5,-100.7 615.5,-100.7"/>
<polygon fill="none" stroke="#000000" points="615.5,-100.7 615.5,-119.7 733.5,-119.7 733.5,-100.7 615.5,-100.7"/>
<text text-anchor="start" x="618.5" y="-106.8" font-family="Helvetica,sans-Serif" font-size="11.00" fill="#000000">&lt; 3</text>
<polygon fill="#ffffff" stroke="transparent" points="733.5,-100.7 733.5,-119.7 793.5,-119.7 793.5,-100.7 733.5,-100.7"/>
<polygon fill="none" stroke="#000000" points="733.5,-100.7 733.5,-119.7 793.5,-119.7 793.5,-100.7 733.5,-100.7"/>
<text text-anchor="start" x="784.3862" y="-106.8" font-family="Helvetica,sans-Serif" font-size="11.00" fill="#000000"> &#160;</text>
<polygon fill="#ffffff" stroke="transparent" points="793.5,-100.7 793.5,-119.7 854.5,-119.7 854.5,-100.7 793.5,-100.7"/>
<polygon fill="none" stroke="#000000" points="793.5,-100.7 793.5,-119.7 854.5,-119.7 854.5,-100.7 793.5,-100.7"/>
<text text-anchor="start" x="845.3862" y="-106.8" font-family="Helvetica,sans-Serif" font-size="11.00" fill="#000000"> &#160;</text>
</a>
</g>
</g>
<!-- aggregation_process_is_based_on&#45;&gt;aggregation_constraint -->
<g id="edge2" class="edge">
<title>aggregation_process_is_based_on:w&#45;&gt;aggregation_constraint:e</title>
<path fill="none" stroke="#000000" d="M600.776,-152.7C588.7815,-152.7 581.3229,-152.7 564.5,-152.7"/>
<polygon fill="#000000" stroke="#000000" points="607.5,-152.7001 615.5,-156.3 611.5,-152.7 615.5,-152.7 615.5,-152.7 615.5,-152.7 611.5,-152.7 615.5,-149.1 607.5,-152.7001 607.5,-152.7001"/>
<ellipse fill="none" stroke="#000000" cx="604.3" cy="-152.7001" rx="3.2" ry="3.2"/>
</g>
</g>
</svg>
