<?xml version="1.0" encoding="UTF-8" standalone="no"?>
<!DOCTYPE svg PUBLIC "-//W3C//DTD SVG 1.1//EN"
 "http://www.w3.org/Graphics/SVG/1.1/DTD/svg11.dtd">
<!-- Generated by graphviz version 2.40.1 (20161225.0304)
 -->
<!-- Title: oneDegreeRelationshipsDiagram Pages: 1 -->
<svg width="888pt" height="205pt"
 viewBox="0.00 0.00 888.00 204.70" xmlns="http://www.w3.org/2000/svg" xmlns:xlink="http://www.w3.org/1999/xlink">
<g id="graph0" class="graph" transform="scale(1 1) rotate(0) translate(4 200.7)">
<title>oneDegreeRelationshipsDiagram</title>
<polygon fill="#ffffff" stroke="transparent" points="-4,4 -4,-200.7 884,-200.7 884,4 -4,4"/>
<text text-anchor="middle" x="72.4936" y="-7.3" font-family="Helvetica,sans-Serif" font-size="11.00" fill="#000000">Generated by SchemaSpy</text>
<!-- data_element -->
<g id="node1" class="node">
<title>data_element</title>
<g id="a_node1"><a xlink:href="../../tables/data_element.html" xlink:title="data_element" target="_top">
<polygon fill="#ffffff" stroke="transparent" points="247,-38.2 247,-172.2 581,-172.2 581,-38.2 247,-38.2"/>
<polygon fill="#f5f5f5" stroke="transparent" points="249,-147.2 249,-170.2 579,-170.2 579,-147.2 249,-147.2"/>
<polygon fill="none" stroke="#000000" points="249,-147.2 249,-170.2 579,-170.2 579,-147.2 249,-147.2"/>
<text text-anchor="start" x="254" y="-155.8" font-family="Helvetica,sans-Serif" font-weight="bold" font-size="11.00" fill="#000000">data_element</text>
<text text-anchor="start" x="544.0437" y="-155.3" font-family="Helvetica,sans-Serif" font-size="11.00" fill="#000000">[table]</text>
<polygon fill="none" stroke="#000000" points="249,-125.2 249,-147.2 489,-147.2 489,-125.2 249,-125.2"/>
<image xlink:href="../../images/primaryKeys.png" width="11px" height="12px" preserveAspectRatio="xMinYMin meet" x="254" y="-142.2"/>
<text text-anchor="start" x="269" y="-132.3" font-family="Helvetica,sans-Serif" font-size="11.00" fill="#000000">data_element_global_identifier</text>
<polygon fill="none" stroke="#000000" points="489,-125.2 489,-147.2 579,-147.2 579,-125.2 489,-125.2"/>
<text text-anchor="start" x="491.5043" y="-132.9" font-family="Helvetica,sans-Serif" font-size="11.00" fill="#000000">text[2147483647]</text>
<polygon fill="none" stroke="#000000" points="249,-103.2 249,-125.2 489,-125.2 489,-103.2 249,-103.2"/>
<text text-anchor="start" x="269" y="-110.3" font-family="Helvetica,sans-Serif" font-size="11.00" fill="#000000">data_element_local_identifier</text>
<polygon fill="none" stroke="#000000" points="489,-103.2 489,-125.2 579,-125.2 579,-103.2 489,-103.2"/>
<text text-anchor="start" x="491.5043" y="-110.9" font-family="Helvetica,sans-Serif" font-size="11.00" fill="#000000">text[2147483647]</text>
<polygon fill="none" stroke="#000000" points="249,-81.2 249,-103.2 489,-103.2 489,-81.2 249,-81.2"/>
<image xlink:href="../../images/foreignKeys.png" width="11px" height="12px" preserveAspectRatio="xMinYMin meet" x="254" y="-98.2"/>
<text text-anchor="start" x="269" y="-88.3" font-family="Helvetica,sans-Serif" font-size="11.00" fill="#000000">is_of_level_of_data_granularity</text>
<polygon fill="none" stroke="#000000" points="489,-81.2 489,-103.2 579,-103.2 579,-81.2 489,-81.2"/>
<text text-anchor="start" x="491.5043" y="-88.9" font-family="Helvetica,sans-Serif" font-size="11.00" fill="#000000">text[2147483647]</text>
<polygon fill="none" stroke="#000000" points="249,-59.2 249,-81.2 489,-81.2 489,-59.2 249,-59.2"/>
<image xlink:href="../../images/foreignKeys.png" width="11px" height="12px" preserveAspectRatio="xMinYMin meet" x="254" y="-76.2"/>
<text text-anchor="start" x="269" y="-66.3" font-family="Helvetica,sans-Serif" font-size="11.00" fill="#000000">parent_data_element_global_identifier</text>
<polygon fill="none" stroke="#000000" points="489,-59.2 489,-81.2 579,-81.2 579,-59.2 489,-59.2"/>
<text text-anchor="start" x="491.5043" y="-66.9" font-family="Helvetica,sans-Serif" font-size="11.00" fill="#000000">text[2147483647]</text>
<polygon fill="#ffffff" stroke="transparent" points="249,-40.2 249,-59.2 373,-59.2 373,-40.2 249,-40.2"/>
<polygon fill="none" stroke="#000000" points="249,-40.2 249,-59.2 373,-59.2 373,-40.2 249,-40.2"/>
<text text-anchor="start" x="252" y="-46.3" font-family="Helvetica,sans-Serif" font-size="11.00" fill="#000000">&lt; 2</text>
<polygon fill="#ffffff" stroke="transparent" points="373,-40.2 373,-59.2 489,-59.2 489,-40.2 373,-40.2"/>
<polygon fill="none" stroke="#000000" points="373,-40.2 373,-59.2 489,-59.2 489,-40.2 373,-40.2"/>
<text text-anchor="start" x="479.8862" y="-46.3" font-family="Helvetica,sans-Serif" font-size="11.00" fill="#000000"> &#160;</text>
<polygon fill="#ffffff" stroke="transparent" points="489,-40.2 489,-59.2 579,-59.2 579,-40.2 489,-40.2"/>
<polygon fill="none" stroke="#000000" points="489,-40.2 489,-59.2 579,-59.2 579,-40.2 489,-40.2"/>
<text text-anchor="start" x="560.4053" y="-46.3" font-family="Helvetica,sans-Serif" font-size="11.00" fill="#000000">2 &gt;</text>
<polygon fill="none" stroke="#000000" stroke-width="2" points="248,-39.2 248,-171.2 580,-171.2 580,-39.2 248,-39.2"/>
</a>
</g>
</g>
<!-- data_element&#45;&gt;data_element -->
<g id="edge2" class="edge">
<title>data_element:w&#45;&gt;data_element:e</title>
<path fill="none" stroke="#000000" d="M235.4172,-76.1507C172.4473,-109.2195 186.6563,-189.2 414,-189.2 656.5,-189.2 656.5,-164.2 579,-136.2"/>
<polygon fill="#000000" stroke="#000000" points="241.6724,-73.4103 250.4446,-73.4974 245.3362,-71.8052 249,-70.2 249,-70.2 249,-70.2 245.3362,-71.8052 247.5554,-66.9026 241.6724,-73.4103 241.6724,-73.4103"/>
<ellipse fill="none" stroke="#000000" cx="238.7413" cy="-74.6944" rx="3.2" ry="3.2"/>
</g>
<!-- levels_of_data_granularity -->
<g id="node2" class="node">
<title>levels_of_data_granularity</title>
<g id="a_node2"><a xlink:href="../../tables/levels_of_data_granularity.html" xlink:title="levels_of_data_granularity" target="_top">
<polygon fill="#ffffff" stroke="transparent" points="8,-43.7 8,-126.7 198,-126.7 198,-43.7 8,-43.7"/>
<polygon fill="#f5f5f5" stroke="transparent" points="8,-103.2 8,-126.2 198,-126.2 198,-103.2 8,-103.2"/>
<polygon fill="none" stroke="#000000" points="8,-103.2 8,-126.2 198,-126.2 198,-103.2 8,-103.2"/>
<text text-anchor="start" x="13" y="-111.8" font-family="Helvetica,sans-Serif" font-weight="bold" font-size="11.00" fill="#000000">levels_of_data_granularity</text>
<text text-anchor="start" x="163.5219" y="-111.3" font-family="Helvetica,sans-Serif" font-size="11.00" fill="#000000">[table]</text>
<polygon fill="none" stroke="#000000" points="8,-81.2 8,-103.2 198,-103.2 198,-81.2 8,-81.2"/>
<image xlink:href="../../images/primaryKeys.png" width="11px" height="12px" preserveAspectRatio="xMinYMin meet" x="13" y="-98.2"/>
<text text-anchor="start" x="37" y="-88.3" font-family="Helvetica,sans-Serif" font-size="11.00" fill="#000000">level_name</text>
<polygon fill="none" stroke="#000000" points="8,-62.2 8,-81.2 198,-81.2 198,-62.2 8,-62.2"/>
<text text-anchor="start" x="11" y="-68.3" font-family="Helvetica,sans-Serif" font-size="11.00" fill="#000000">...</text>
<polygon fill="#ffffff" stroke="transparent" points="8,-43.2 8,-62.2 92,-62.2 92,-43.2 8,-43.2"/>
<polygon fill="none" stroke="#000000" points="8,-43.2 8,-62.2 92,-62.2 92,-43.2 8,-43.2"/>
<text text-anchor="start" x="11" y="-49.3" font-family="Helvetica,sans-Serif" font-size="11.00" fill="#000000"> &#160;</text>
<polygon fill="#ffffff" stroke="transparent" points="92,-43.2 92,-62.2 140,-62.2 140,-43.2 92,-43.2"/>
<polygon fill="none" stroke="#000000" points="92,-43.2 92,-62.2 140,-62.2 140,-43.2 92,-43.2"/>
<text text-anchor="start" x="130.8862" y="-49.3" font-family="Helvetica,sans-Serif" font-size="11.00" fill="#000000"> &#160;</text>
<polygon fill="#ffffff" stroke="transparent" points="140,-43.2 140,-62.2 198,-62.2 198,-43.2 140,-43.2"/>
<polygon fill="none" stroke="#000000" points="140,-43.2 140,-62.2 198,-62.2 198,-43.2 140,-43.2"/>
<text text-anchor="start" x="179.4053" y="-49.3" font-family="Helvetica,sans-Serif" font-size="11.00" fill="#000000">5 &gt;</text>
</a>
</g>
</g>
<!-- data_element&#45;&gt;levels_of_data_granularity -->
<g id="edge1" class="edge">
<title>data_element:w&#45;&gt;levels_of_data_granularity:e</title>
<path fill="none" stroke="#000000" d="M234.276,-92.2C222.2815,-92.2 214.8229,-92.2 198,-92.2"/>
<polygon fill="#000000" stroke="#000000" points="241,-92.2001 249,-95.8 245,-92.2 249,-92.2 249,-92.2 249,-92.2 245,-92.2 249,-88.6 241,-92.2001 241,-92.2001"/>
<ellipse fill="none" stroke="#000000" cx="237.8" cy="-92.2001" rx="3.2" ry="3.2"/>
</g>
<!-- dq_result -->
<g id="node3" class="node">
<title>dq_result</title>
<g id="a_node3"><a xlink:href="../../tables/dq_result.html" xlink:title="dq_result" target="_top">
<polygon fill="#ffffff" stroke="transparent" points="630,-43.7 630,-192.7 872,-192.7 872,-43.7 630,-43.7"/>
<polygon fill="#f5f5f5" stroke="transparent" points="630,-169.2 630,-192.2 872,-192.2 872,-169.2 630,-169.2"/>
<polygon fill="none" stroke="#000000" points="630,-169.2 630,-192.2 872,-192.2 872,-169.2 630,-169.2"/>
<text text-anchor="start" x="635" y="-177.8" font-family="Helvetica,sans-Serif" font-weight="bold" font-size="11.00" fill="#000000">dq_result</text>
<text text-anchor="start" x="837.0437" y="-177.3" font-family="Helvetica,sans-Serif" font-size="11.00" fill="#000000">[table]</text>
<polygon fill="#ffffff" stroke="transparent" points="630,-147.2 630,-169.2 872,-169.2 872,-147.2 630,-147.2"/>
<polygon fill="none" stroke="#000000" points="630,-147.2 630,-169.2 872,-169.2 872,-147.2 630,-147.2"/>
<text text-anchor="start" x="650" y="-154.3" font-family="Helvetica,sans-Serif" font-size="11.00" fill="#000000">creation_timestamp</text>
<polygon fill="#ffffff" stroke="transparent" points="630,-125.2 630,-147.2 872,-147.2 872,-125.2 630,-125.2"/>
<polygon fill="none" stroke="#000000" points="630,-125.2 630,-147.2 872,-147.2 872,-125.2 630,-125.2"/>
<image xlink:href="../../images/foreignKeys.png" width="11px" height="12px" preserveAspectRatio="xMinYMin meet" x="635" y="-142.2"/>
<text text-anchor="start" x="650" y="-132.3" font-family="Helvetica,sans-Serif" font-size="11.00" fill="#000000">computed_on_data_element_global_id</text>
<polygon fill="#ffffff" stroke="transparent" points="630,-103.2 630,-125.2 872,-125.2 872,-103.2 630,-103.2"/>
<polygon fill="none" stroke="#000000" points="630,-103.2 630,-125.2 872,-125.2 872,-103.2 630,-103.2"/>
<image xlink:href="../../images/foreignKeys.png" width="11px" height="12px" preserveAspectRatio="xMinYMin meet" x="635" y="-120.2"/>
<text text-anchor="start" x="650" y="-110.3" font-family="Helvetica,sans-Serif" font-size="11.00" fill="#000000">calculated_by_dq_metric</text>
<polygon fill="none" stroke="#000000" points="630,-81.2 630,-103.2 872,-103.2 872,-81.2 630,-81.2"/>
<image xlink:href="../../images/foreignKeys.png" width="11px" height="12px" preserveAspectRatio="xMinYMin meet" x="635" y="-98.2"/>
<text text-anchor="start" x="650" y="-88.3" font-family="Helvetica,sans-Serif" font-size="11.00" fill="#000000">calculated_by_aggregation_process</text>
<polygon fill="none" stroke="#000000" points="630,-62.2 630,-81.2 872,-81.2 872,-62.2 630,-62.2"/>
<text text-anchor="start" x="633" y="-68.3" font-family="Helvetica,sans-Serif" font-size="11.00" fill="#000000">...</text>
<polygon fill="#ffffff" stroke="transparent" points="630,-43.2 630,-62.2 749,-62.2 749,-43.2 630,-43.2"/>
<polygon fill="none" stroke="#000000" points="630,-43.2 630,-62.2 749,-62.2 749,-43.2 630,-43.2"/>
<text text-anchor="start" x="633" y="-49.3" font-family="Helvetica,sans-Serif" font-size="11.00" fill="#000000">&lt; 3</text>
<polygon fill="#ffffff" stroke="transparent" points="749,-43.2 749,-62.2 810,-62.2 810,-43.2 749,-43.2"/>
<polygon fill="none" stroke="#000000" points="749,-43.2 749,-62.2 810,-62.2 810,-43.2 749,-43.2"/>
<text text-anchor="start" x="800.8862" y="-49.3" font-family="Helvetica,sans-Serif" font-size="11.00" fill="#000000"> &#160;</text>
<polygon fill="#ffffff" stroke="transparent" points="810,-43.2 810,-62.2 872,-62.2 872,-43.2 810,-43.2"/>
<polygon fill="none" stroke="#000000" points="810,-43.2 810,-62.2 872,-62.2 872,-43.2 810,-43.2"/>
<text text-anchor="start" x="862.8862" y="-49.3" font-family="Helvetica,sans-Serif" font-size="11.00" fill="#000000"> &#160;</text>
</a>
</g>
</g>
<!-- dq_result&#45;&gt;data_element -->
<g id="edge3" class="edge">
<title>dq_result:w&#45;&gt;data_element:e</title>
<path fill="none" stroke="#000000" d="M615.276,-136.2C603.2815,-136.2 595.8229,-136.2 579,-136.2"/>
<polygon fill="#000000" stroke="#000000" points="622,-136.2001 630,-139.8 626,-136.2 630,-136.2 630,-136.2 630,-136.2 626,-136.2 630,-132.6 622,-136.2001 622,-136.2001"/>
<ellipse fill="none" stroke="#000000" cx="618.8" cy="-136.2001" rx="3.2" ry="3.2"/>
</g>
</g>
</svg>
