<?xml version="1.0" encoding="UTF-8" standalone="no"?>
<!DOCTYPE svg PUBLIC "-//W3C//DTD SVG 1.1//EN"
 "http://www.w3.org/Graphics/SVG/1.1/DTD/svg11.dtd">
<!-- Generated by graphviz version 2.40.1 (20161225.0304)
 -->
<!-- Title: oneDegreeRelationshipsDiagram Pages: 1 -->
<svg width="714pt" height="243pt"
 viewBox="0.00 0.00 714.00 243.20" xmlns="http://www.w3.org/2000/svg" xmlns:xlink="http://www.w3.org/1999/xlink">
<g id="graph0" class="graph" transform="scale(1 1) rotate(0) translate(4 239.2)">
<title>oneDegreeRelationshipsDiagram</title>
<polygon fill="#ffffff" stroke="transparent" points="-4,4 -4,-239.2 710.0032,-239.2 710.0032,4 -4,4"/>
<text text-anchor="middle" x="72.4936" y="-7.3" font-family="Helvetica,sans-Serif" font-size="11.00" fill="#000000">Generated by SchemaSpy</text>
<!-- aggregation_process_computes_value_for_dimension -->
<g id="node1" class="node">
<title>aggregation_process_computes_value_for_dimension</title>
<g id="a_node1"><a xlink:href="../../tables/aggregation_process_computes_va_b73ff08c.html" xlink:title="aggregation_process_computes_value_for_dimension" target="_top">
<polygon fill="#ffffff" stroke="transparent" points="348.0032,-145.2 348.0032,-231.2 698.0032,-231.2 698.0032,-145.2 348.0032,-145.2"/>
<polygon fill="#f5f5f5" stroke="transparent" points="348.0032,-208.2 348.0032,-231.2 698.0032,-231.2 698.0032,-208.2 348.0032,-208.2"/>
<polygon fill="none" stroke="#000000" points="348.0032,-208.2 348.0032,-231.2 698.0032,-231.2 698.0032,-208.2 348.0032,-208.2"/>
<text text-anchor="start" x="353.0032" y="-216.8" font-family="Helvetica,sans-Serif" font-weight="bold" font-size="11.00" fill="#000000">aggregation_process_computes_value_for_dimension</text>
<text text-anchor="start" x="663.525" y="-216.3" font-family="Helvetica,sans-Serif" font-size="11.00" fill="#000000">[table]</text>
<polygon fill="none" stroke="#000000" points="348.0032,-186.2 348.0032,-208.2 698.0032,-208.2 698.0032,-186.2 348.0032,-186.2"/>
<image xlink:href="../../images/primaryKeys.png" width="11px" height="12px" preserveAspectRatio="xMinYMin meet" x="353.003" y="-203.2"/>
<text text-anchor="start" x="377.0032" y="-193.3" font-family="Helvetica,sans-Serif" font-size="11.00" fill="#000000">aggregation_process_name</text>
<polygon fill="none" stroke="#000000" points="348.0032,-164.2 348.0032,-186.2 698.0032,-186.2 698.0032,-164.2 348.0032,-164.2"/>
<image xlink:href="../../images/primaryKeys.png" width="11px" height="12px" preserveAspectRatio="xMinYMin meet" x="353.003" y="-181.2"/>
<text text-anchor="start" x="377.0032" y="-171.3" font-family="Helvetica,sans-Serif" font-size="11.00" fill="#000000">dimension_name</text>
<polygon fill="#ffffff" stroke="transparent" points="348.0032,-145.2 348.0032,-164.2 521.0032,-164.2 521.0032,-145.2 348.0032,-145.2"/>
<polygon fill="none" stroke="#000000" points="348.0032,-145.2 348.0032,-164.2 521.0032,-164.2 521.0032,-145.2 348.0032,-145.2"/>
<text text-anchor="start" x="351.0032" y="-151.3" font-family="Helvetica,sans-Serif" font-size="11.00" fill="#000000">&lt; 2</text>
<polygon fill="#ffffff" stroke="transparent" points="521.0032,-145.2 521.0032,-164.2 609.0032,-164.2 609.0032,-145.2 521.0032,-145.2"/>
<polygon fill="none" stroke="#000000" points="521.0032,-145.2 521.0032,-164.2 609.0032,-164.2 609.0032,-145.2 521.0032,-145.2"/>
<text text-anchor="start" x="599.8894" y="-151.3" font-family="Helvetica,sans-Serif" font-size="11.00" fill="#000000"> &#160;</text>
<polygon fill="#ffffff" stroke="transparent" points="609.0032,-145.2 609.0032,-164.2 698.0032,-164.2 698.0032,-145.2 609.0032,-145.2"/>
<polygon fill="none" stroke="#000000" points="609.0032,-145.2 609.0032,-164.2 698.0032,-164.2 698.0032,-145.2 609.0032,-145.2"/>
<text text-anchor="start" x="688.8894" y="-151.3" font-family="Helvetica,sans-Serif" font-size="11.00" fill="#000000"> &#160;</text>
</a>
</g>
</g>
<!-- dq_dimension -->
<g id="node2" class="node">
<title>dq_dimension</title>
<g id="a_node2"><a xlink:href="../../tables/dq_dimension.html" xlink:title="dq_dimension" target="_top">
<polygon fill="#ffffff" stroke="transparent" points="53.0032,-45.2 53.0032,-157.2 299.0032,-157.2 299.0032,-45.2 53.0032,-45.2"/>
<polygon fill="#f5f5f5" stroke="transparent" points="55.0032,-132.2 55.0032,-155.2 297.0032,-155.2 297.0032,-132.2 55.0032,-132.2"/>
<polygon fill="none" stroke="#000000" points="55.0032,-132.2 55.0032,-155.2 297.0032,-155.2 297.0032,-132.2 55.0032,-132.2"/>
<text text-anchor="start" x="60.0032" y="-140.8" font-family="Helvetica,sans-Serif" font-weight="bold" font-size="11.00" fill="#000000">dq_dimension</text>
<text text-anchor="start" x="262.0469" y="-140.3" font-family="Helvetica,sans-Serif" font-size="11.00" fill="#000000">[table]</text>
<polygon fill="none" stroke="#000000" points="55.0032,-110.2 55.0032,-132.2 207.0032,-132.2 207.0032,-110.2 55.0032,-110.2"/>
<image xlink:href="../../images/primaryKeys.png" width="11px" height="12px" preserveAspectRatio="xMinYMin meet" x="60.0032" y="-127.2"/>
<text text-anchor="start" x="75.0032" y="-117.3" font-family="Helvetica,sans-Serif" font-size="11.00" fill="#000000">dimension_name</text>
<polygon fill="none" stroke="#000000" points="207.0032,-110.2 207.0032,-132.2 297.0032,-132.2 297.0032,-110.2 207.0032,-110.2"/>
<text text-anchor="start" x="209.5074" y="-117.9" font-family="Helvetica,sans-Serif" font-size="11.00" fill="#000000">text[2147483647]</text>
<polygon fill="none" stroke="#000000" points="55.0032,-88.2 55.0032,-110.2 207.0032,-110.2 207.0032,-88.2 55.0032,-88.2"/>
<text text-anchor="start" x="75.0032" y="-95.3" font-family="Helvetica,sans-Serif" font-size="11.00" fill="#000000">dimension_description</text>
<polygon fill="none" stroke="#000000" points="207.0032,-88.2 207.0032,-110.2 297.0032,-110.2 297.0032,-88.2 207.0032,-88.2"/>
<text text-anchor="start" x="209.5074" y="-95.9" font-family="Helvetica,sans-Serif" font-size="11.00" fill="#000000">text[2147483647]</text>
<polygon fill="none" stroke="#000000" points="55.0032,-66.2 55.0032,-88.2 207.0032,-88.2 207.0032,-66.2 55.0032,-66.2"/>
<image xlink:href="../../images/foreignKeys.png" width="11px" height="12px" preserveAspectRatio="xMinYMin meet" x="60.0032" y="-83.2"/>
<text text-anchor="start" x="75.0032" y="-73.3" font-family="Helvetica,sans-Serif" font-size="11.00" fill="#000000">is_sub_dimension_of</text>
<polygon fill="none" stroke="#000000" points="207.0032,-66.2 207.0032,-88.2 297.0032,-88.2 297.0032,-66.2 207.0032,-66.2"/>
<text text-anchor="start" x="209.5074" y="-73.9" font-family="Helvetica,sans-Serif" font-size="11.00" fill="#000000">text[2147483647]</text>
<polygon fill="#ffffff" stroke="transparent" points="55.0032,-47.2 55.0032,-66.2 135.0032,-66.2 135.0032,-47.2 55.0032,-47.2"/>
<polygon fill="none" stroke="#000000" points="55.0032,-47.2 55.0032,-66.2 135.0032,-66.2 135.0032,-47.2 55.0032,-47.2"/>
<text text-anchor="start" x="58.0032" y="-53.3" font-family="Helvetica,sans-Serif" font-size="11.00" fill="#000000">&lt; 1</text>
<polygon fill="#ffffff" stroke="transparent" points="135.0032,-47.2 135.0032,-66.2 207.0032,-66.2 207.0032,-47.2 135.0032,-47.2"/>
<polygon fill="none" stroke="#000000" points="135.0032,-47.2 135.0032,-66.2 207.0032,-66.2 207.0032,-47.2 135.0032,-47.2"/>
<text text-anchor="start" x="197.8894" y="-53.3" font-family="Helvetica,sans-Serif" font-size="11.00" fill="#000000"> &#160;</text>
<polygon fill="#ffffff" stroke="transparent" points="207.0032,-47.2 207.0032,-66.2 297.0032,-66.2 297.0032,-47.2 207.0032,-47.2"/>
<polygon fill="none" stroke="#000000" points="207.0032,-47.2 207.0032,-66.2 297.0032,-66.2 297.0032,-47.2 207.0032,-47.2"/>
<text text-anchor="start" x="278.4085" y="-53.3" font-family="Helvetica,sans-Serif" font-size="11.00" fill="#000000">3 &gt;</text>
<polygon fill="none" stroke="#000000" stroke-width="2" points="54.0032,-46.2 54.0032,-156.2 298.0032,-156.2 298.0032,-46.2 54.0032,-46.2"/>
</a>
</g>
</g>
<!-- aggregation_process_computes_value_for_dimension&#45;&gt;dq_dimension -->
<g id="edge1" class="edge">
<title>aggregation_process_computes_value_for_dimension:w&#45;&gt;dq_dimension:e</title>
<path fill="none" stroke="#000000" d="M334.3032,-170.596C318.8395,-157.5373 324.0831,-121.2 297.0032,-121.2"/>
<polygon fill="#000000" stroke="#000000" points="340.4199,-172.6515 346.8563,-178.6125 344.2115,-173.9258 348.0032,-175.2 348.0032,-175.2 348.0032,-175.2 344.2115,-173.9258 349.15,-171.7875 340.4199,-172.6515 340.4199,-172.6515"/>
<ellipse fill="none" stroke="#000000" cx="337.3866" cy="-171.6322" rx="3.2" ry="3.2"/>
</g>
<!-- dq_dimension&#45;&gt;dq_dimension -->
<g id="edge2" class="edge">
<title>dq_dimension:w&#45;&gt;dq_dimension:e</title>
<path fill="none" stroke="#000000" d="M41.1594,-81.778C-30.8311,-109.532 -19.7439,-174.2 176.0032,-174.2 383.5032,-174.2 383.5032,-145.5333 297.0032,-121.2"/>
<polygon fill="#000000" stroke="#000000" points="47.4077,-79.7118 56.1335,-80.618 51.2054,-78.4559 55.0032,-77.2 55.0032,-77.2 55.0032,-77.2 51.2054,-78.4559 53.8729,-73.782 47.4077,-79.7118 47.4077,-79.7118"/>
<ellipse fill="none" stroke="#000000" cx="44.3695" cy="-80.7165" rx="3.2" ry="3.2"/>
</g>
<!-- metric_computes_value_for_dimension -->
<g id="node3" class="node">
<title>metric_computes_value_for_dimension</title>
<g id="a_node3"><a xlink:href="../../tables/metric_computes_value_for_dimension.html" xlink:title="metric_computes_value_for_dimension" target="_top">
<polygon fill="#ffffff" stroke="transparent" points="390.5032,-38.2 390.5032,-124.2 655.5032,-124.2 655.5032,-38.2 390.5032,-38.2"/>
<polygon fill="#f5f5f5" stroke="transparent" points="391.0032,-101.2 391.0032,-124.2 656.0032,-124.2 656.0032,-101.2 391.0032,-101.2"/>
<polygon fill="none" stroke="#000000" points="391.0032,-101.2 391.0032,-124.2 656.0032,-124.2 656.0032,-101.2 391.0032,-101.2"/>
<text text-anchor="start" x="396.0032" y="-109.8" font-family="Helvetica,sans-Serif" font-weight="bold" font-size="11.00" fill="#000000">metric_computes_value_for_dimension</text>
<text text-anchor="start" x="621.525" y="-109.3" font-family="Helvetica,sans-Serif" font-size="11.00" fill="#000000">[table]</text>
<polygon fill="none" stroke="#000000" points="391.0032,-79.2 391.0032,-101.2 656.0032,-101.2 656.0032,-79.2 391.0032,-79.2"/>
<image xlink:href="../../images/primaryKeys.png" width="11px" height="12px" preserveAspectRatio="xMinYMin meet" x="396.003" y="-96.2"/>
<text text-anchor="start" x="420.0032" y="-86.3" font-family="Helvetica,sans-Serif" font-size="11.00" fill="#000000">metric_name</text>
<polygon fill="none" stroke="#000000" points="391.0032,-57.2 391.0032,-79.2 656.0032,-79.2 656.0032,-57.2 391.0032,-57.2"/>
<image xlink:href="../../images/primaryKeys.png" width="11px" height="12px" preserveAspectRatio="xMinYMin meet" x="396.003" y="-74.2"/>
<text text-anchor="start" x="420.0032" y="-64.3" font-family="Helvetica,sans-Serif" font-size="11.00" fill="#000000">dimension_name</text>
<polygon fill="#ffffff" stroke="transparent" points="391.0032,-38.2 391.0032,-57.2 522.0032,-57.2 522.0032,-38.2 391.0032,-38.2"/>
<polygon fill="none" stroke="#000000" points="391.0032,-38.2 391.0032,-57.2 522.0032,-57.2 522.0032,-38.2 391.0032,-38.2"/>
<text text-anchor="start" x="394.0032" y="-44.3" font-family="Helvetica,sans-Serif" font-size="11.00" fill="#000000">&lt; 2</text>
<polygon fill="#ffffff" stroke="transparent" points="522.0032,-38.2 522.0032,-57.2 589.0032,-57.2 589.0032,-38.2 522.0032,-38.2"/>
<polygon fill="none" stroke="#000000" points="522.0032,-38.2 522.0032,-57.2 589.0032,-57.2 589.0032,-38.2 522.0032,-38.2"/>
<text text-anchor="start" x="579.8894" y="-44.3" font-family="Helvetica,sans-Serif" font-size="11.00" fill="#000000"> &#160;</text>
<polygon fill="#ffffff" stroke="transparent" points="589.0032,-38.2 589.0032,-57.2 656.0032,-57.2 656.0032,-38.2 589.0032,-38.2"/>
<polygon fill="none" stroke="#000000" points="589.0032,-38.2 589.0032,-57.2 656.0032,-57.2 656.0032,-38.2 589.0032,-38.2"/>
<text text-anchor="start" x="646.8894" y="-44.3" font-family="Helvetica,sans-Serif" font-size="11.00" fill="#000000"> &#160;</text>
</a>
</g>
</g>
<!-- metric_computes_value_for_dimension&#45;&gt;dq_dimension -->
<g id="edge3" class="edge">
<title>metric_computes_value_for_dimension:w&#45;&gt;dq_dimension:e</title>
<path fill="none" stroke="#000000" d="M376.4793,-70.0863C342.8375,-79.5277 339.531,-121.2 297.0032,-121.2"/>
<polygon fill="#000000" stroke="#000000" points="383.0698,-69.2304 391.4668,-71.77 387.0365,-68.7152 391.0032,-68.2 391.0032,-68.2 391.0032,-68.2 387.0365,-68.7152 390.5395,-64.63 383.0698,-69.2304 383.0698,-69.2304"/>
<ellipse fill="none" stroke="#000000" cx="379.8964" cy="-69.6426" rx="3.2" ry="3.2"/>
</g>
</g>
</svg>
