<?xml version="1.0" encoding="UTF-8" standalone="no"?>
<!DOCTYPE svg PUBLIC "-//W3C//DTD SVG 1.1//EN"
 "http://www.w3.org/Graphics/SVG/1.1/DTD/svg11.dtd">
<!-- Generated by graphviz version 2.40.1 (20161225.0304)
 -->
<!-- Title: twoDegreesRelationshipsDiagram Pages: 1 -->
<svg width="714pt" height="345pt"
 viewBox="0.00 0.00 714.00 345.20" xmlns="http://www.w3.org/2000/svg" xmlns:xlink="http://www.w3.org/1999/xlink">
<g id="graph0" class="graph" transform="scale(1 1) rotate(0) translate(4 341.2)">
<title>twoDegreesRelationshipsDiagram</title>
<polygon fill="#ffffff" stroke="transparent" points="-4,4 -4,-341.2 710.0032,-341.2 710.0032,4 -4,4"/>
<text text-anchor="middle" x="72.4936" y="-7.3" font-family="Helvetica,sans-Serif" font-size="11.00" fill="#000000">Generated by SchemaSpy</text>
<!-- aggregation_process_computes_value_for_dimension -->
<g id="node1" class="node">
<title>aggregation_process_computes_value_for_dimension</title>
<g id="a_node1"><a xlink:href="../../tables/aggregation_process_computes_va_b73ff08c.html" xlink:title="aggregation_process_computes_value_for_dimension" target="_top">
<polygon fill="#ffffff" stroke="transparent" points="348.0032,-206.7 348.0032,-292.7 698.0032,-292.7 698.0032,-206.7 348.0032,-206.7"/>
<polygon fill="#f5f5f5" stroke="transparent" points="348.0032,-269.7 348.0032,-292.7 698.0032,-292.7 698.0032,-269.7 348.0032,-269.7"/>
<polygon fill="none" stroke="#000000" points="348.0032,-269.7 348.0032,-292.7 698.0032,-292.7 698.0032,-269.7 348.0032,-269.7"/>
<text text-anchor="start" x="353.0032" y="-278.3" font-family="Helvetica,sans-Serif" font-weight="bold" font-size="11.00" fill="#000000">aggregation_process_computes_value_for_dimension</text>
<text text-anchor="start" x="663.525" y="-277.8" font-family="Helvetica,sans-Serif" font-size="11.00" fill="#000000">[table]</text>
<polygon fill="none" stroke="#000000" points="348.0032,-247.7 348.0032,-269.7 698.0032,-269.7 698.0032,-247.7 348.0032,-247.7"/>
<image xlink:href="../../images/primaryKeys.png" width="11px" height="12px" preserveAspectRatio="xMinYMin meet" x="353.003" y="-264.7"/>
<text text-anchor="start" x="377.0032" y="-254.8" font-family="Helvetica,sans-Serif" font-size="11.00" fill="#000000">aggregation_process_name</text>
<polygon fill="none" stroke="#000000" points="348.0032,-225.7 348.0032,-247.7 698.0032,-247.7 698.0032,-225.7 348.0032,-225.7"/>
<image xlink:href="../../images/primaryKeys.png" width="11px" height="12px" preserveAspectRatio="xMinYMin meet" x="353.003" y="-242.7"/>
<text text-anchor="start" x="377.0032" y="-232.8" font-family="Helvetica,sans-Serif" font-size="11.00" fill="#000000">dimension_name</text>
<polygon fill="#ffffff" stroke="transparent" points="348.0032,-206.7 348.0032,-225.7 521.0032,-225.7 521.0032,-206.7 348.0032,-206.7"/>
<polygon fill="none" stroke="#000000" points="348.0032,-206.7 348.0032,-225.7 521.0032,-225.7 521.0032,-206.7 348.0032,-206.7"/>
<text text-anchor="start" x="351.0032" y="-212.8" font-family="Helvetica,sans-Serif" font-size="11.00" fill="#000000">&lt; 2</text>
<polygon fill="#ffffff" stroke="transparent" points="521.0032,-206.7 521.0032,-225.7 609.0032,-225.7 609.0032,-206.7 521.0032,-206.7"/>
<polygon fill="none" stroke="#000000" points="521.0032,-206.7 521.0032,-225.7 609.0032,-225.7 609.0032,-206.7 521.0032,-206.7"/>
<text text-anchor="start" x="599.8894" y="-212.8" font-family="Helvetica,sans-Serif" font-size="11.00" fill="#000000"> &#160;</text>
<polygon fill="#ffffff" stroke="transparent" points="609.0032,-206.7 609.0032,-225.7 698.0032,-225.7 698.0032,-206.7 609.0032,-206.7"/>
<polygon fill="none" stroke="#000000" points="609.0032,-206.7 609.0032,-225.7 698.0032,-225.7 698.0032,-206.7 609.0032,-206.7"/>
<text text-anchor="start" x="688.8894" y="-212.8" font-family="Helvetica,sans-Serif" font-size="11.00" fill="#000000"> &#160;</text>
</a>
</g>
</g>
<!-- aggregation_process -->
<g id="node2" class="node">
<title>aggregation_process</title>
<g id="a_node2"><a xlink:href="../../tables/aggregation_process.html" xlink:title="aggregation_process" target="_top">
<polygon fill="#ffffff" stroke="transparent" points="96.0032,-272.2 96.0032,-333.2 256.0032,-333.2 256.0032,-272.2 96.0032,-272.2"/>
<polygon fill="#f5f5f5" stroke="transparent" points="96.0032,-309.7 96.0032,-332.7 256.0032,-332.7 256.0032,-309.7 96.0032,-309.7"/>
<polygon fill="none" stroke="#000000" points="96.0032,-309.7 96.0032,-332.7 256.0032,-332.7 256.0032,-309.7 96.0032,-309.7"/>
<text text-anchor="start" x="101.0032" y="-318.3" font-family="Helvetica,sans-Serif" font-weight="bold" font-size="11.00" fill="#000000">aggregation_process</text>
<text text-anchor="start" x="221.525" y="-317.8" font-family="Helvetica,sans-Serif" font-size="11.00" fill="#000000">[table]</text>
<polygon fill="none" stroke="#000000" points="96.0032,-290.7 96.0032,-309.7 256.0032,-309.7 256.0032,-290.7 96.0032,-290.7"/>
<text text-anchor="start" x="99.0032" y="-296.8" font-family="Helvetica,sans-Serif" font-size="11.00" fill="#000000">...</text>
<polygon fill="#ffffff" stroke="transparent" points="96.0032,-271.7 96.0032,-290.7 165.0032,-290.7 165.0032,-271.7 96.0032,-271.7"/>
<polygon fill="none" stroke="#000000" points="96.0032,-271.7 96.0032,-290.7 165.0032,-290.7 165.0032,-271.7 96.0032,-271.7"/>
<text text-anchor="start" x="99.0032" y="-277.8" font-family="Helvetica,sans-Serif" font-size="11.00" fill="#000000"> &#160;</text>
<polygon fill="#ffffff" stroke="transparent" points="165.0032,-271.7 165.0032,-290.7 206.0032,-290.7 206.0032,-271.7 165.0032,-271.7"/>
<polygon fill="none" stroke="#000000" points="165.0032,-271.7 165.0032,-290.7 206.0032,-290.7 206.0032,-271.7 165.0032,-271.7"/>
<text text-anchor="start" x="196.8894" y="-277.8" font-family="Helvetica,sans-Serif" font-size="11.00" fill="#000000"> &#160;</text>
<polygon fill="#ffffff" stroke="transparent" points="206.0032,-271.7 206.0032,-290.7 256.0032,-290.7 256.0032,-271.7 206.0032,-271.7"/>
<polygon fill="none" stroke="#000000" points="206.0032,-271.7 206.0032,-290.7 256.0032,-290.7 256.0032,-271.7 206.0032,-271.7"/>
<text text-anchor="start" x="237.4085" y="-277.8" font-family="Helvetica,sans-Serif" font-size="11.00" fill="#000000">3 &gt;</text>
</a>
</g>
</g>
<!-- aggregation_process_computes_value_for_dimension&#45;&gt;aggregation_process -->
<g id="edge1" class="edge">
<title>aggregation_process_computes_value_for_dimension:w&#45;&gt;aggregation_process:e</title>
<path fill="none" stroke="#000000" d="M333.4511,-260.358C302.0195,-268.0285 295.3478,-299.7 256.0032,-299.7"/>
<polygon fill="#000000" stroke="#000000" points="340.0546,-259.6057 348.4107,-262.2769 344.0289,-259.1528 348.0032,-258.7 348.0032,-258.7 348.0032,-258.7 344.0289,-259.1528 347.5956,-255.1231 340.0546,-259.6057 340.0546,-259.6057"/>
<ellipse fill="none" stroke="#000000" cx="336.8752" cy="-259.968" rx="3.2" ry="3.2"/>
</g>
<!-- dq_dimension -->
<g id="node3" class="node">
<title>dq_dimension</title>
<g id="a_node3"><a xlink:href="../../tables/dq_dimension.html" xlink:title="dq_dimension" target="_top">
<polygon fill="#ffffff" stroke="transparent" points="53.0032,-120.7 53.0032,-232.7 299.0032,-232.7 299.0032,-120.7 53.0032,-120.7"/>
<polygon fill="#f5f5f5" stroke="transparent" points="55.0032,-207.7 55.0032,-230.7 297.0032,-230.7 297.0032,-207.7 55.0032,-207.7"/>
<polygon fill="none" stroke="#000000" points="55.0032,-207.7 55.0032,-230.7 297.0032,-230.7 297.0032,-207.7 55.0032,-207.7"/>
<text text-anchor="start" x="60.0032" y="-216.3" font-family="Helvetica,sans-Serif" font-weight="bold" font-size="11.00" fill="#000000">dq_dimension</text>
<text text-anchor="start" x="262.0469" y="-215.8" font-family="Helvetica,sans-Serif" font-size="11.00" fill="#000000">[table]</text>
<polygon fill="none" stroke="#000000" points="55.0032,-185.7 55.0032,-207.7 207.0032,-207.7 207.0032,-185.7 55.0032,-185.7"/>
<image xlink:href="../../images/primaryKeys.png" width="11px" height="12px" preserveAspectRatio="xMinYMin meet" x="60.0032" y="-202.7"/>
<text text-anchor="start" x="75.0032" y="-192.8" font-family="Helvetica,sans-Serif" font-size="11.00" fill="#000000">dimension_name</text>
<polygon fill="none" stroke="#000000" points="207.0032,-185.7 207.0032,-207.7 297.0032,-207.7 297.0032,-185.7 207.0032,-185.7"/>
<text text-anchor="start" x="209.5074" y="-193.4" font-family="Helvetica,sans-Serif" font-size="11.00" fill="#000000">text[2147483647]</text>
<polygon fill="none" stroke="#000000" points="55.0032,-163.7 55.0032,-185.7 207.0032,-185.7 207.0032,-163.7 55.0032,-163.7"/>
<text text-anchor="start" x="75.0032" y="-170.8" font-family="Helvetica,sans-Serif" font-size="11.00" fill="#000000">dimension_description</text>
<polygon fill="none" stroke="#000000" points="207.0032,-163.7 207.0032,-185.7 297.0032,-185.7 297.0032,-163.7 207.0032,-163.7"/>
<text text-anchor="start" x="209.5074" y="-171.4" font-family="Helvetica,sans-Serif" font-size="11.00" fill="#000000">text[2147483647]</text>
<polygon fill="none" stroke="#000000" points="55.0032,-141.7 55.0032,-163.7 207.0032,-163.7 207.0032,-141.7 55.0032,-141.7"/>
<image xlink:href="../../images/foreignKeys.png" width="11px" height="12px" preserveAspectRatio="xMinYMin meet" x="60.0032" y="-158.7"/>
<text text-anchor="start" x="75.0032" y="-148.8" font-family="Helvetica,sans-Serif" font-size="11.00" fill="#000000">is_sub_dimension_of</text>
<polygon fill="none" stroke="#000000" points="207.0032,-141.7 207.0032,-163.7 297.0032,-163.7 297.0032,-141.7 207.0032,-141.7"/>
<text text-anchor="start" x="209.5074" y="-149.4" font-family="Helvetica,sans-Serif" font-size="11.00" fill="#000000">text[2147483647]</text>
<polygon fill="#ffffff" stroke="transparent" points="55.0032,-122.7 55.0032,-141.7 135.0032,-141.7 135.0032,-122.7 55.0032,-122.7"/>
<polygon fill="none" stroke="#000000" points="55.0032,-122.7 55.0032,-141.7 135.0032,-141.7 135.0032,-122.7 55.0032,-122.7"/>
<text text-anchor="start" x="58.0032" y="-128.8" font-family="Helvetica,sans-Serif" font-size="11.00" fill="#000000">&lt; 1</text>
<polygon fill="#ffffff" stroke="transparent" points="135.0032,-122.7 135.0032,-141.7 207.0032,-141.7 207.0032,-122.7 135.0032,-122.7"/>
<polygon fill="none" stroke="#000000" points="135.0032,-122.7 135.0032,-141.7 207.0032,-141.7 207.0032,-122.7 135.0032,-122.7"/>
<text text-anchor="start" x="197.8894" y="-128.8" font-family="Helvetica,sans-Serif" font-size="11.00" fill="#000000"> &#160;</text>
<polygon fill="#ffffff" stroke="transparent" points="207.0032,-122.7 207.0032,-141.7 297.0032,-141.7 297.0032,-122.7 207.0032,-122.7"/>
<polygon fill="none" stroke="#000000" points="207.0032,-122.7 207.0032,-141.7 297.0032,-141.7 297.0032,-122.7 207.0032,-122.7"/>
<text text-anchor="start" x="278.4085" y="-128.8" font-family="Helvetica,sans-Serif" font-size="11.00" fill="#000000">3 &gt;</text>
<polygon fill="none" stroke="#000000" stroke-width="2" points="54.0032,-121.7 54.0032,-231.7 298.0032,-231.7 298.0032,-121.7 54.0032,-121.7"/>
</a>
</g>
</g>
<!-- aggregation_process_computes_value_for_dimension&#45;&gt;dq_dimension -->
<g id="edge2" class="edge">
<title>aggregation_process_computes_value_for_dimension:w&#45;&gt;dq_dimension:e</title>
<path fill="none" stroke="#000000" d="M334.2396,-232.4193C320.4217,-222.1004 319.9585,-196.7 297.0032,-196.7"/>
<polygon fill="#000000" stroke="#000000" points="340.3641,-234.3241 346.934,-240.1376 344.1836,-235.512 348.0032,-236.7 348.0032,-236.7 348.0032,-236.7 344.1836,-235.512 349.0723,-233.2624 340.3641,-234.3241 340.3641,-234.3241"/>
<ellipse fill="none" stroke="#000000" cx="337.3085" cy="-233.3737" rx="3.2" ry="3.2"/>
</g>
<!-- dq_dimension&#45;&gt;dq_dimension -->
<g id="edge3" class="edge">
<title>dq_dimension:w&#45;&gt;dq_dimension:e</title>
<path fill="none" stroke="#000000" d="M41.1594,-157.278C-30.8311,-185.032 -19.7439,-249.7 176.0032,-249.7 383.5032,-249.7 383.5032,-221.0333 297.0032,-196.7"/>
<polygon fill="#000000" stroke="#000000" points="47.4077,-155.2118 56.1335,-156.118 51.2054,-153.9559 55.0032,-152.7 55.0032,-152.7 55.0032,-152.7 51.2054,-153.9559 53.8729,-149.282 47.4077,-155.2118 47.4077,-155.2118"/>
<ellipse fill="none" stroke="#000000" cx="44.3695" cy="-156.2165" rx="3.2" ry="3.2"/>
</g>
<!-- metric_computes_value_for_dimension -->
<g id="node4" class="node">
<title>metric_computes_value_for_dimension</title>
<g id="a_node4"><a xlink:href="../../tables/metric_computes_value_for_dimension.html" xlink:title="metric_computes_value_for_dimension" target="_top">
<polygon fill="#ffffff" stroke="transparent" points="390.5032,-76.7 390.5032,-162.7 655.5032,-162.7 655.5032,-76.7 390.5032,-76.7"/>
<polygon fill="#f5f5f5" stroke="transparent" points="391.0032,-139.7 391.0032,-162.7 656.0032,-162.7 656.0032,-139.7 391.0032,-139.7"/>
<polygon fill="none" stroke="#000000" points="391.0032,-139.7 391.0032,-162.7 656.0032,-162.7 656.0032,-139.7 391.0032,-139.7"/>
<text text-anchor="start" x="396.0032" y="-148.3" font-family="Helvetica,sans-Serif" font-weight="bold" font-size="11.00" fill="#000000">metric_computes_value_for_dimension</text>
<text text-anchor="start" x="621.525" y="-147.8" font-family="Helvetica,sans-Serif" font-size="11.00" fill="#000000">[table]</text>
<polygon fill="none" stroke="#000000" points="391.0032,-117.7 391.0032,-139.7 656.0032,-139.7 656.0032,-117.7 391.0032,-117.7"/>
<image xlink:href="../../images/primaryKeys.png" width="11px" height="12px" preserveAspectRatio="xMinYMin meet" x="396.003" y="-134.7"/>
<text text-anchor="start" x="420.0032" y="-124.8" font-family="Helvetica,sans-Serif" font-size="11.00" fill="#000000">metric_name</text>
<polygon fill="none" stroke="#000000" points="391.0032,-95.7 391.0032,-117.7 656.0032,-117.7 656.0032,-95.7 391.0032,-95.7"/>
<image xlink:href="../../images/primaryKeys.png" width="11px" height="12px" preserveAspectRatio="xMinYMin meet" x="396.003" y="-112.7"/>
<text text-anchor="start" x="420.0032" y="-102.8" font-family="Helvetica,sans-Serif" font-size="11.00" fill="#000000">dimension_name</text>
<polygon fill="#ffffff" stroke="transparent" points="391.0032,-76.7 391.0032,-95.7 522.0032,-95.7 522.0032,-76.7 391.0032,-76.7"/>
<polygon fill="none" stroke="#000000" points="391.0032,-76.7 391.0032,-95.7 522.0032,-95.7 522.0032,-76.7 391.0032,-76.7"/>
<text text-anchor="start" x="394.0032" y="-82.8" font-family="Helvetica,sans-Serif" font-size="11.00" fill="#000000">&lt; 2</text>
<polygon fill="#ffffff" stroke="transparent" points="522.0032,-76.7 522.0032,-95.7 589.0032,-95.7 589.0032,-76.7 522.0032,-76.7"/>
<polygon fill="none" stroke="#000000" points="522.0032,-76.7 522.0032,-95.7 589.0032,-95.7 589.0032,-76.7 522.0032,-76.7"/>
<text text-anchor="start" x="579.8894" y="-82.8" font-family="Helvetica,sans-Serif" font-size="11.00" fill="#000000"> &#160;</text>
<polygon fill="#ffffff" stroke="transparent" points="589.0032,-76.7 589.0032,-95.7 656.0032,-95.7 656.0032,-76.7 589.0032,-76.7"/>
<polygon fill="none" stroke="#000000" points="589.0032,-76.7 589.0032,-95.7 656.0032,-95.7 656.0032,-76.7 589.0032,-76.7"/>
<text text-anchor="start" x="646.8894" y="-82.8" font-family="Helvetica,sans-Serif" font-size="11.00" fill="#000000"> &#160;</text>
</a>
</g>
</g>
<!-- metric_computes_value_for_dimension&#45;&gt;dq_dimension -->
<g id="edge4" class="edge">
<title>metric_computes_value_for_dimension:w&#45;&gt;dq_dimension:e</title>
<path fill="none" stroke="#000000" d="M376.7015,-108.9247C336.5297,-122.784 349.42,-196.7 297.0032,-196.7"/>
<polygon fill="#000000" stroke="#000000" points="383.0982,-107.9297 391.5565,-110.2572 387.0507,-107.3149 391.0032,-106.7 391.0032,-106.7 391.0032,-106.7 387.0507,-107.3149 390.4498,-103.1428 383.0982,-107.9297 383.0982,-107.9297"/>
<ellipse fill="none" stroke="#000000" cx="379.9363" cy="-108.4216" rx="3.2" ry="3.2"/>
</g>
<!-- dq_metric -->
<g id="node5" class="node">
<title>dq_metric</title>
<g id="a_node5"><a xlink:href="../../tables/dq_metric.html" xlink:title="dq_metric" target="_top">
<polygon fill="#ffffff" stroke="transparent" points="128.0032,-38.2 128.0032,-99.2 224.0032,-99.2 224.0032,-38.2 128.0032,-38.2"/>
<polygon fill="#f5f5f5" stroke="transparent" points="128.0032,-75.7 128.0032,-98.7 224.0032,-98.7 224.0032,-75.7 128.0032,-75.7"/>
<polygon fill="none" stroke="#000000" points="128.0032,-75.7 128.0032,-98.7 224.0032,-98.7 224.0032,-75.7 128.0032,-75.7"/>
<text text-anchor="start" x="133.0032" y="-84.3" font-family="Helvetica,sans-Serif" font-weight="bold" font-size="11.00" fill="#000000">dq_metric</text>
<text text-anchor="start" x="189.525" y="-83.8" font-family="Helvetica,sans-Serif" font-size="11.00" fill="#000000">[table]</text>
<polygon fill="none" stroke="#000000" points="128.0032,-56.7 128.0032,-75.7 224.0032,-75.7 224.0032,-56.7 128.0032,-56.7"/>
<text text-anchor="start" x="131.0032" y="-62.8" font-family="Helvetica,sans-Serif" font-size="11.00" fill="#000000">...</text>
<polygon fill="#ffffff" stroke="transparent" points="128.0032,-37.7 128.0032,-56.7 170.0032,-56.7 170.0032,-37.7 128.0032,-37.7"/>
<polygon fill="none" stroke="#000000" points="128.0032,-37.7 128.0032,-56.7 170.0032,-56.7 170.0032,-37.7 128.0032,-37.7"/>
<text text-anchor="start" x="131.0032" y="-43.8" font-family="Helvetica,sans-Serif" font-size="11.00" fill="#000000">&lt; 1</text>
<polygon fill="#ffffff" stroke="transparent" points="170.0032,-37.7 170.0032,-56.7 192.0032,-56.7 192.0032,-37.7 170.0032,-37.7"/>
<polygon fill="none" stroke="#000000" points="170.0032,-37.7 170.0032,-56.7 192.0032,-56.7 192.0032,-37.7 170.0032,-37.7"/>
<text text-anchor="start" x="182.8894" y="-43.8" font-family="Helvetica,sans-Serif" font-size="11.00" fill="#000000"> &#160;</text>
<polygon fill="#ffffff" stroke="transparent" points="192.0032,-37.7 192.0032,-56.7 224.0032,-56.7 224.0032,-37.7 192.0032,-37.7"/>
<polygon fill="none" stroke="#000000" points="192.0032,-37.7 192.0032,-56.7 224.0032,-56.7 224.0032,-37.7 192.0032,-37.7"/>
<text text-anchor="start" x="205.4085" y="-43.8" font-family="Helvetica,sans-Serif" font-size="11.00" fill="#000000">2 &gt;</text>
</a>
</g>
</g>
<!-- metric_computes_value_for_dimension&#45;&gt;dq_metric -->
<g id="edge5" class="edge">
<title>metric_computes_value_for_dimension:w&#45;&gt;dq_metric:e</title>
<path fill="none" stroke="#000000" d="M376.511,-127.9486C310.3047,-120.8406 298.2183,-65.7 224.0032,-65.7"/>
<polygon fill="#000000" stroke="#000000" points="383.0139,-128.2857 390.8167,-132.2952 387.0085,-128.4929 391.0032,-128.7 391.0032,-128.7 391.0032,-128.7 387.0085,-128.4929 391.1896,-125.1048 383.0139,-128.2857 383.0139,-128.2857"/>
<ellipse fill="none" stroke="#000000" cx="379.8182" cy="-128.12" rx="3.2" ry="3.2"/>
</g>
</g>
</svg>
