<?xml version="1.0" encoding="UTF-8" standalone="no"?>
<!DOCTYPE svg PUBLIC "-//W3C//DTD SVG 1.1//EN"
 "http://www.w3.org/Graphics/SVG/1.1/DTD/svg11.dtd">
<!-- Generated by graphviz version 2.40.1 (20161225.0304)
 -->
<!-- Title: oneDegreeRelationshipsDiagram Pages: 1 -->
<svg width="928pt" height="307pt"
 viewBox="0.00 0.00 928.00 306.70" xmlns="http://www.w3.org/2000/svg" xmlns:xlink="http://www.w3.org/1999/xlink">
<g id="graph0" class="graph" transform="scale(1 1) rotate(0) translate(4 302.7)">
<title>oneDegreeRelationshipsDiagram</title>
<polygon fill="#ffffff" stroke="transparent" points="-4,4 -4,-302.7 924,-302.7 924,4 -4,4"/>
<text text-anchor="middle" x="72.4936" y="-7.3" font-family="Helvetica,sans-Serif" font-size="11.00" fill="#000000">Generated by SchemaSpy</text>
<!-- dq_metric -->
<g id="node1" class="node">
<title>dq_metric</title>
<g id="a_node1"><a xlink:href="../../tables/dq_metric.html" xlink:title="dq_metric" target="_top">
<polygon fill="#ffffff" stroke="transparent" points="247,-55.2 247,-189.2 598,-189.2 598,-55.2 247,-55.2"/>
<polygon fill="#f5f5f5" stroke="transparent" points="249.5,-164.2 249.5,-187.2 596.5,-187.2 596.5,-164.2 249.5,-164.2"/>
<polygon fill="none" stroke="#000000" points="249.5,-164.2 249.5,-187.2 596.5,-187.2 596.5,-164.2 249.5,-164.2"/>
<text text-anchor="start" x="254.5" y="-172.8" font-family="Helvetica,sans-Serif" font-weight="bold" font-size="11.00" fill="#000000">dq_metric</text>
<text text-anchor="start" x="561.5437" y="-172.3" font-family="Helvetica,sans-Serif" font-size="11.00" fill="#000000">[table]</text>
<polygon fill="none" stroke="#000000" points="249.5,-142.2 249.5,-164.2 496.5,-164.2 496.5,-142.2 249.5,-142.2"/>
<image xlink:href="../../images/primaryKeys.png" width="11px" height="12px" preserveAspectRatio="xMinYMin meet" x="254.5" y="-159.2"/>
<text text-anchor="start" x="269.5" y="-149.3" font-family="Helvetica,sans-Serif" font-size="11.00" fill="#000000">metric_name</text>
<polygon fill="none" stroke="#000000" points="496.5,-142.2 496.5,-164.2 596.5,-164.2 596.5,-142.2 496.5,-142.2"/>
<text text-anchor="start" x="499.5" y="-149.9" font-family="Helvetica,sans-Serif" font-size="11.00" fill="#000000">text[2147483647]</text>
<polygon fill="none" stroke="#000000" points="249.5,-120.2 249.5,-142.2 496.5,-142.2 496.5,-120.2 249.5,-120.2"/>
<text text-anchor="start" x="269.5" y="-127.3" font-family="Helvetica,sans-Serif" font-size="11.00" fill="#000000">metric_description</text>
<polygon fill="none" stroke="#000000" points="496.5,-120.2 496.5,-142.2 596.5,-142.2 596.5,-120.2 496.5,-120.2"/>
<text text-anchor="start" x="499.5" y="-127.9" font-family="Helvetica,sans-Serif" font-size="11.00" fill="#000000">text[2147483647]</text>
<polygon fill="none" stroke="#000000" points="249.5,-98.2 249.5,-120.2 496.5,-120.2 496.5,-98.2 249.5,-98.2"/>
<text text-anchor="start" x="269.5" y="-105.3" font-family="Helvetica,sans-Serif" font-size="11.00" fill="#000000">python_implementation</text>
<polygon fill="none" stroke="#000000" points="496.5,-98.2 496.5,-120.2 596.5,-120.2 596.5,-98.2 496.5,-98.2"/>
<text text-anchor="start" x="499.4178" y="-105.9" font-family="Helvetica,sans-Serif" font-size="11.00" fill="#000000">bytea[2147483647]</text>
<polygon fill="none" stroke="#000000" points="249.5,-76.2 249.5,-98.2 496.5,-98.2 496.5,-76.2 249.5,-76.2"/>
<image xlink:href="../../images/foreignKeys.png" width="11px" height="12px" preserveAspectRatio="xMinYMin meet" x="254.5" y="-93.2"/>
<text text-anchor="start" x="269.5" y="-83.3" font-family="Helvetica,sans-Serif" font-size="11.00" fill="#000000">designed_for_level_of_data_granularity</text>
<polygon fill="none" stroke="#000000" points="496.5,-76.2 496.5,-98.2 596.5,-98.2 596.5,-76.2 496.5,-76.2"/>
<text text-anchor="start" x="499.5" y="-83.9" font-family="Helvetica,sans-Serif" font-size="11.00" fill="#000000">text[2147483647]</text>
<polygon fill="#ffffff" stroke="transparent" points="249.5,-57.2 249.5,-76.2 377.5,-76.2 377.5,-57.2 249.5,-57.2"/>
<polygon fill="none" stroke="#000000" points="249.5,-57.2 249.5,-76.2 377.5,-76.2 377.5,-57.2 249.5,-57.2"/>
<text text-anchor="start" x="252.5" y="-63.3" font-family="Helvetica,sans-Serif" font-size="11.00" fill="#000000">&lt; 1</text>
<polygon fill="#ffffff" stroke="transparent" points="377.5,-57.2 377.5,-76.2 496.5,-76.2 496.5,-57.2 377.5,-57.2"/>
<polygon fill="none" stroke="#000000" points="377.5,-57.2 377.5,-76.2 496.5,-76.2 496.5,-57.2 377.5,-57.2"/>
<text text-anchor="start" x="487.3862" y="-63.3" font-family="Helvetica,sans-Serif" font-size="11.00" fill="#000000"> &#160;</text>
<polygon fill="#ffffff" stroke="transparent" points="496.5,-57.2 496.5,-76.2 596.5,-76.2 596.5,-57.2 496.5,-57.2"/>
<polygon fill="none" stroke="#000000" points="496.5,-57.2 496.5,-76.2 596.5,-76.2 596.5,-57.2 496.5,-57.2"/>
<text text-anchor="start" x="577.9053" y="-63.3" font-family="Helvetica,sans-Serif" font-size="11.00" fill="#000000">2 &gt;</text>
<polygon fill="none" stroke="#000000" stroke-width="2" points="248,-56.2 248,-188.2 597,-188.2 597,-56.2 248,-56.2"/>
</a>
</g>
</g>
<!-- levels_of_data_granularity -->
<g id="node2" class="node">
<title>levels_of_data_granularity</title>
<g id="a_node2"><a xlink:href="../../tables/levels_of_data_granularity.html" xlink:title="levels_of_data_granularity" target="_top">
<polygon fill="#ffffff" stroke="transparent" points="8,-38.7 8,-121.7 198,-121.7 198,-38.7 8,-38.7"/>
<polygon fill="#f5f5f5" stroke="transparent" points="8,-98.2 8,-121.2 198,-121.2 198,-98.2 8,-98.2"/>
<polygon fill="none" stroke="#000000" points="8,-98.2 8,-121.2 198,-121.2 198,-98.2 8,-98.2"/>
<text text-anchor="start" x="13" y="-106.8" font-family="Helvetica,sans-Serif" font-weight="bold" font-size="11.00" fill="#000000">levels_of_data_granularity</text>
<text text-anchor="start" x="163.5219" y="-106.3" font-family="Helvetica,sans-Serif" font-size="11.00" fill="#000000">[table]</text>
<polygon fill="none" stroke="#000000" points="8,-76.2 8,-98.2 198,-98.2 198,-76.2 8,-76.2"/>
<image xlink:href="../../images/primaryKeys.png" width="11px" height="12px" preserveAspectRatio="xMinYMin meet" x="13" y="-93.2"/>
<text text-anchor="start" x="37" y="-83.3" font-family="Helvetica,sans-Serif" font-size="11.00" fill="#000000">level_name</text>
<polygon fill="none" stroke="#000000" points="8,-57.2 8,-76.2 198,-76.2 198,-57.2 8,-57.2"/>
<text text-anchor="start" x="11" y="-63.3" font-family="Helvetica,sans-Serif" font-size="11.00" fill="#000000">...</text>
<polygon fill="#ffffff" stroke="transparent" points="8,-38.2 8,-57.2 92,-57.2 92,-38.2 8,-38.2"/>
<polygon fill="none" stroke="#000000" points="8,-38.2 8,-57.2 92,-57.2 92,-38.2 8,-38.2"/>
<text text-anchor="start" x="11" y="-44.3" font-family="Helvetica,sans-Serif" font-size="11.00" fill="#000000"> &#160;</text>
<polygon fill="#ffffff" stroke="transparent" points="92,-38.2 92,-57.2 140,-57.2 140,-38.2 92,-38.2"/>
<polygon fill="none" stroke="#000000" points="92,-38.2 92,-57.2 140,-57.2 140,-38.2 92,-38.2"/>
<text text-anchor="start" x="130.8862" y="-44.3" font-family="Helvetica,sans-Serif" font-size="11.00" fill="#000000"> &#160;</text>
<polygon fill="#ffffff" stroke="transparent" points="140,-38.2 140,-57.2 198,-57.2 198,-38.2 140,-38.2"/>
<polygon fill="none" stroke="#000000" points="140,-38.2 140,-57.2 198,-57.2 198,-38.2 140,-38.2"/>
<text text-anchor="start" x="179.4053" y="-44.3" font-family="Helvetica,sans-Serif" font-size="11.00" fill="#000000">5 &gt;</text>
</a>
</g>
</g>
<!-- dq_metric&#45;&gt;levels_of_data_granularity -->
<g id="edge1" class="edge">
<title>dq_metric:w&#45;&gt;levels_of_data_granularity:e</title>
<path fill="none" stroke="#000000" d="M235.0156,-87.2C222.6771,-87.2 215.1667,-87.2 198,-87.2"/>
<polygon fill="#000000" stroke="#000000" points="241.5,-87.2001 249.5,-90.8 245.5,-87.2 249.5,-87.2 249.5,-87.2 249.5,-87.2 245.5,-87.2 249.5,-83.6 241.5,-87.2001 241.5,-87.2001"/>
<ellipse fill="none" stroke="#000000" cx="238.3" cy="-87.2001" rx="3.2" ry="3.2"/>
</g>
<!-- dq_result -->
<g id="node3" class="node">
<title>dq_result</title>
<g id="a_node3"><a xlink:href="../../tables/dq_result.html" xlink:title="dq_result" target="_top">
<polygon fill="#ffffff" stroke="transparent" points="658.5,-145.7 658.5,-294.7 900.5,-294.7 900.5,-145.7 658.5,-145.7"/>
<polygon fill="#f5f5f5" stroke="transparent" points="658.5,-271.2 658.5,-294.2 900.5,-294.2 900.5,-271.2 658.5,-271.2"/>
<polygon fill="none" stroke="#000000" points="658.5,-271.2 658.5,-294.2 900.5,-294.2 900.5,-271.2 658.5,-271.2"/>
<text text-anchor="start" x="663.5" y="-279.8" font-family="Helvetica,sans-Serif" font-weight="bold" font-size="11.00" fill="#000000">dq_result</text>
<text text-anchor="start" x="865.5437" y="-279.3" font-family="Helvetica,sans-Serif" font-size="11.00" fill="#000000">[table]</text>
<polygon fill="#ffffff" stroke="transparent" points="658.5,-249.2 658.5,-271.2 900.5,-271.2 900.5,-249.2 658.5,-249.2"/>
<polygon fill="none" stroke="#000000" points="658.5,-249.2 658.5,-271.2 900.5,-271.2 900.5,-249.2 658.5,-249.2"/>
<text text-anchor="start" x="678.5" y="-256.3" font-family="Helvetica,sans-Serif" font-size="11.00" fill="#000000">creation_timestamp</text>
<polygon fill="#ffffff" stroke="transparent" points="658.5,-227.2 658.5,-249.2 900.5,-249.2 900.5,-227.2 658.5,-227.2"/>
<polygon fill="none" stroke="#000000" points="658.5,-227.2 658.5,-249.2 900.5,-249.2 900.5,-227.2 658.5,-227.2"/>
<image xlink:href="../../images/foreignKeys.png" width="11px" height="12px" preserveAspectRatio="xMinYMin meet" x="663.5" y="-244.2"/>
<text text-anchor="start" x="678.5" y="-234.3" font-family="Helvetica,sans-Serif" font-size="11.00" fill="#000000">computed_on_data_element_global_id</text>
<polygon fill="#ffffff" stroke="transparent" points="658.5,-205.2 658.5,-227.2 900.5,-227.2 900.5,-205.2 658.5,-205.2"/>
<polygon fill="none" stroke="#000000" points="658.5,-205.2 658.5,-227.2 900.5,-227.2 900.5,-205.2 658.5,-205.2"/>
<image xlink:href="../../images/foreignKeys.png" width="11px" height="12px" preserveAspectRatio="xMinYMin meet" x="663.5" y="-222.2"/>
<text text-anchor="start" x="678.5" y="-212.3" font-family="Helvetica,sans-Serif" font-size="11.00" fill="#000000">calculated_by_dq_metric</text>
<polygon fill="none" stroke="#000000" points="658.5,-183.2 658.5,-205.2 900.5,-205.2 900.5,-183.2 658.5,-183.2"/>
<image xlink:href="../../images/foreignKeys.png" width="11px" height="12px" preserveAspectRatio="xMinYMin meet" x="663.5" y="-200.2"/>
<text text-anchor="start" x="678.5" y="-190.3" font-family="Helvetica,sans-Serif" font-size="11.00" fill="#000000">calculated_by_aggregation_process</text>
<polygon fill="none" stroke="#000000" points="658.5,-164.2 658.5,-183.2 900.5,-183.2 900.5,-164.2 658.5,-164.2"/>
<text text-anchor="start" x="661.5" y="-170.3" font-family="Helvetica,sans-Serif" font-size="11.00" fill="#000000">...</text>
<polygon fill="#ffffff" stroke="transparent" points="658.5,-145.2 658.5,-164.2 777.5,-164.2 777.5,-145.2 658.5,-145.2"/>
<polygon fill="none" stroke="#000000" points="658.5,-145.2 658.5,-164.2 777.5,-164.2 777.5,-145.2 658.5,-145.2"/>
<text text-anchor="start" x="661.5" y="-151.3" font-family="Helvetica,sans-Serif" font-size="11.00" fill="#000000">&lt; 3</text>
<polygon fill="#ffffff" stroke="transparent" points="777.5,-145.2 777.5,-164.2 838.5,-164.2 838.5,-145.2 777.5,-145.2"/>
<polygon fill="none" stroke="#000000" points="777.5,-145.2 777.5,-164.2 838.5,-164.2 838.5,-145.2 777.5,-145.2"/>
<text text-anchor="start" x="829.3862" y="-151.3" font-family="Helvetica,sans-Serif" font-size="11.00" fill="#000000"> &#160;</text>
<polygon fill="#ffffff" stroke="transparent" points="838.5,-145.2 838.5,-164.2 900.5,-164.2 900.5,-145.2 838.5,-145.2"/>
<polygon fill="none" stroke="#000000" points="838.5,-145.2 838.5,-164.2 900.5,-164.2 900.5,-145.2 838.5,-145.2"/>
<text text-anchor="start" x="891.3862" y="-151.3" font-family="Helvetica,sans-Serif" font-size="11.00" fill="#000000"> &#160;</text>
</a>
</g>
</g>
<!-- dq_result&#45;&gt;dq_metric -->
<g id="edge2" class="edge">
<title>dq_result:w&#45;&gt;dq_metric:e</title>
<path fill="none" stroke="#000000" d="M644.3326,-212.4477C622.9035,-198.885 629.9536,-153.2 596.5,-153.2"/>
<polygon fill="#000000" stroke="#000000" points="650.7666,-214.1518 657.5783,-219.68 654.6333,-215.1759 658.5,-216.2 658.5,-216.2 658.5,-216.2 654.6333,-215.1759 659.4217,-212.72 650.7666,-214.1518 650.7666,-214.1518"/>
<ellipse fill="none" stroke="#000000" cx="647.6733" cy="-213.3325" rx="3.2" ry="3.2"/>
</g>
<!-- metric_computes_value_for_dimension -->
<g id="node4" class="node">
<title>metric_computes_value_for_dimension</title>
<g id="a_node4"><a xlink:href="../../tables/metric_computes_value_for_dimension.html" xlink:title="metric_computes_value_for_dimension" target="_top">
<polygon fill="#ffffff" stroke="transparent" points="647,-38.2 647,-124.2 912,-124.2 912,-38.2 647,-38.2"/>
<polygon fill="#f5f5f5" stroke="transparent" points="647.5,-101.2 647.5,-124.2 912.5,-124.2 912.5,-101.2 647.5,-101.2"/>
<polygon fill="none" stroke="#000000" points="647.5,-101.2 647.5,-124.2 912.5,-124.2 912.5,-101.2 647.5,-101.2"/>
<text text-anchor="start" x="652.5" y="-109.8" font-family="Helvetica,sans-Serif" font-weight="bold" font-size="11.00" fill="#000000">metric_computes_value_for_dimension</text>
<text text-anchor="start" x="878.0219" y="-109.3" font-family="Helvetica,sans-Serif" font-size="11.00" fill="#000000">[table]</text>
<polygon fill="none" stroke="#000000" points="647.5,-79.2 647.5,-101.2 912.5,-101.2 912.5,-79.2 647.5,-79.2"/>
<image xlink:href="../../images/primaryKeys.png" width="11px" height="12px" preserveAspectRatio="xMinYMin meet" x="652.5" y="-96.2"/>
<text text-anchor="start" x="676.5" y="-86.3" font-family="Helvetica,sans-Serif" font-size="11.00" fill="#000000">metric_name</text>
<polygon fill="none" stroke="#000000" points="647.5,-57.2 647.5,-79.2 912.5,-79.2 912.5,-57.2 647.5,-57.2"/>
<image xlink:href="../../images/primaryKeys.png" width="11px" height="12px" preserveAspectRatio="xMinYMin meet" x="652.5" y="-74.2"/>
<text text-anchor="start" x="676.5" y="-64.3" font-family="Helvetica,sans-Serif" font-size="11.00" fill="#000000">dimension_name</text>
<polygon fill="#ffffff" stroke="transparent" points="647.5,-38.2 647.5,-57.2 778.5,-57.2 778.5,-38.2 647.5,-38.2"/>
<polygon fill="none" stroke="#000000" points="647.5,-38.2 647.5,-57.2 778.5,-57.2 778.5,-38.2 647.5,-38.2"/>
<text text-anchor="start" x="650.5" y="-44.3" font-family="Helvetica,sans-Serif" font-size="11.00" fill="#000000">&lt; 2</text>
<polygon fill="#ffffff" stroke="transparent" points="778.5,-38.2 778.5,-57.2 845.5,-57.2 845.5,-38.2 778.5,-38.2"/>
<polygon fill="none" stroke="#000000" points="778.5,-38.2 778.5,-57.2 845.5,-57.2 845.5,-38.2 778.5,-38.2"/>
<text text-anchor="start" x="836.3862" y="-44.3" font-family="Helvetica,sans-Serif" font-size="11.00" fill="#000000"> &#160;</text>
<polygon fill="#ffffff" stroke="transparent" points="845.5,-38.2 845.5,-57.2 912.5,-57.2 912.5,-38.2 845.5,-38.2"/>
<polygon fill="none" stroke="#000000" points="845.5,-38.2 845.5,-57.2 912.5,-57.2 912.5,-38.2 845.5,-38.2"/>
<text text-anchor="start" x="903.3862" y="-44.3" font-family="Helvetica,sans-Serif" font-size="11.00" fill="#000000"> &#160;</text>
</a>
</g>
</g>
<!-- metric_computes_value_for_dimension&#45;&gt;dq_metric -->
<g id="edge3" class="edge">
<title>metric_computes_value_for_dimension:w&#45;&gt;dq_metric:e</title>
<path fill="none" stroke="#000000" d="M633.4033,-95.1435C617.025,-109.9952 626.3329,-153.2 596.5,-153.2"/>
<polygon fill="#000000" stroke="#000000" points="639.9507,-92.8474 648.6913,-93.5972 643.7254,-91.5237 647.5,-90.2 647.5,-90.2 647.5,-90.2 643.7254,-91.5237 646.3087,-86.8028 639.9507,-92.8474 639.9507,-92.8474"/>
<ellipse fill="none" stroke="#000000" cx="636.931" cy="-93.9064" rx="3.2" ry="3.2"/>
</g>
</g>
</svg>
