<?xml version="1.0" encoding="UTF-8" standalone="no"?>
<!DOCTYPE svg PUBLIC "-//W3C//DTD SVG 1.1//EN"
 "http://www.w3.org/Graphics/SVG/1.1/DTD/svg11.dtd">
<!-- Generated by graphviz version 2.40.1 (20161225.0304)
 -->
<!-- Title: twoDegreesRelationshipsDiagram Pages: 1 -->
<svg width="928pt" height="595pt"
 viewBox="0.00 0.00 928.00 595.20" xmlns="http://www.w3.org/2000/svg" xmlns:xlink="http://www.w3.org/1999/xlink">
<g id="graph0" class="graph" transform="scale(1 1) rotate(0) translate(4 591.2)">
<title>twoDegreesRelationshipsDiagram</title>
<polygon fill="#ffffff" stroke="transparent" points="-4,4 -4,-591.2 924,-591.2 924,4 -4,4"/>
<text text-anchor="middle" x="72.4936" y="-7.3" font-family="Helvetica,sans-Serif" font-size="11.00" fill="#000000">Generated by SchemaSpy</text>
<!-- aggregation_constraint -->
<g id="node1" class="node">
<title>aggregation_constraint</title>
<g id="a_node1"><a xlink:href="../../tables/aggregation_constraint.html" xlink:title="aggregation_constraint" target="_top">
<polygon fill="#ffffff" stroke="transparent" points="336.5,-358.2 336.5,-419.2 508.5,-419.2 508.5,-358.2 336.5,-358.2"/>
<polygon fill="#f5f5f5" stroke="transparent" points="336.5,-395.7 336.5,-418.7 508.5,-418.7 508.5,-395.7 336.5,-395.7"/>
<polygon fill="none" stroke="#000000" points="336.5,-395.7 336.5,-418.7 508.5,-418.7 508.5,-395.7 336.5,-395.7"/>
<text text-anchor="start" x="341.5" y="-404.3" font-family="Helvetica,sans-Serif" font-weight="bold" font-size="11.00" fill="#000000">aggregation_constraint</text>
<text text-anchor="start" x="474.0219" y="-403.8" font-family="Helvetica,sans-Serif" font-size="11.00" fill="#000000">[table]</text>
<polygon fill="none" stroke="#000000" points="336.5,-376.7 336.5,-395.7 508.5,-395.7 508.5,-376.7 336.5,-376.7"/>
<text text-anchor="start" x="339.5" y="-382.8" font-family="Helvetica,sans-Serif" font-size="11.00" fill="#000000">...</text>
<polygon fill="#ffffff" stroke="transparent" points="336.5,-357.7 336.5,-376.7 416.5,-376.7 416.5,-357.7 336.5,-357.7"/>
<polygon fill="none" stroke="#000000" points="336.5,-357.7 336.5,-376.7 416.5,-376.7 416.5,-357.7 336.5,-357.7"/>
<text text-anchor="start" x="339.5" y="-363.8" font-family="Helvetica,sans-Serif" font-size="11.00" fill="#000000">&lt; 1</text>
<polygon fill="#ffffff" stroke="transparent" points="416.5,-357.7 416.5,-376.7 457.5,-376.7 457.5,-357.7 416.5,-357.7"/>
<polygon fill="none" stroke="#000000" points="416.5,-357.7 416.5,-376.7 457.5,-376.7 457.5,-357.7 416.5,-357.7"/>
<text text-anchor="start" x="448.3862" y="-363.8" font-family="Helvetica,sans-Serif" font-size="11.00" fill="#000000"> &#160;</text>
<polygon fill="#ffffff" stroke="transparent" points="457.5,-357.7 457.5,-376.7 508.5,-376.7 508.5,-357.7 457.5,-357.7"/>
<polygon fill="none" stroke="#000000" points="457.5,-357.7 457.5,-376.7 508.5,-376.7 508.5,-357.7 457.5,-357.7"/>
<text text-anchor="start" x="489.9053" y="-363.8" font-family="Helvetica,sans-Serif" font-size="11.00" fill="#000000">1 &gt;</text>
</a>
</g>
</g>
<!-- levels_of_data_granularity -->
<g id="node2" class="node">
<title>levels_of_data_granularity</title>
<g id="a_node2"><a xlink:href="../../tables/levels_of_data_granularity.html" xlink:title="levels_of_data_granularity" target="_top">
<polygon fill="#ffffff" stroke="transparent" points="8,-186.2 8,-269.2 198,-269.2 198,-186.2 8,-186.2"/>
<polygon fill="#f5f5f5" stroke="transparent" points="8,-245.7 8,-268.7 198,-268.7 198,-245.7 8,-245.7"/>
<polygon fill="none" stroke="#000000" points="8,-245.7 8,-268.7 198,-268.7 198,-245.7 8,-245.7"/>
<text text-anchor="start" x="13" y="-254.3" font-family="Helvetica,sans-Serif" font-weight="bold" font-size="11.00" fill="#000000">levels_of_data_granularity</text>
<text text-anchor="start" x="163.5219" y="-253.8" font-family="Helvetica,sans-Serif" font-size="11.00" fill="#000000">[table]</text>
<polygon fill="none" stroke="#000000" points="8,-223.7 8,-245.7 198,-245.7 198,-223.7 8,-223.7"/>
<image xlink:href="../../images/primaryKeys.png" width="11px" height="12px" preserveAspectRatio="xMinYMin meet" x="13" y="-240.7"/>
<text text-anchor="start" x="37" y="-230.8" font-family="Helvetica,sans-Serif" font-size="11.00" fill="#000000">level_name</text>
<polygon fill="none" stroke="#000000" points="8,-204.7 8,-223.7 198,-223.7 198,-204.7 8,-204.7"/>
<text text-anchor="start" x="11" y="-210.8" font-family="Helvetica,sans-Serif" font-size="11.00" fill="#000000">...</text>
<polygon fill="#ffffff" stroke="transparent" points="8,-185.7 8,-204.7 92,-204.7 92,-185.7 8,-185.7"/>
<polygon fill="none" stroke="#000000" points="8,-185.7 8,-204.7 92,-204.7 92,-185.7 8,-185.7"/>
<text text-anchor="start" x="11" y="-191.8" font-family="Helvetica,sans-Serif" font-size="11.00" fill="#000000"> &#160;</text>
<polygon fill="#ffffff" stroke="transparent" points="92,-185.7 92,-204.7 140,-204.7 140,-185.7 92,-185.7"/>
<polygon fill="none" stroke="#000000" points="92,-185.7 92,-204.7 140,-204.7 140,-185.7 92,-185.7"/>
<text text-anchor="start" x="130.8862" y="-191.8" font-family="Helvetica,sans-Serif" font-size="11.00" fill="#000000"> &#160;</text>
<polygon fill="#ffffff" stroke="transparent" points="140,-185.7 140,-204.7 198,-204.7 198,-185.7 140,-185.7"/>
<polygon fill="none" stroke="#000000" points="140,-185.7 140,-204.7 198,-204.7 198,-185.7 140,-185.7"/>
<text text-anchor="start" x="179.4053" y="-191.8" font-family="Helvetica,sans-Serif" font-size="11.00" fill="#000000">5 &gt;</text>
</a>
</g>
</g>
<!-- aggregation_constraint&#45;&gt;levels_of_data_granularity -->
<g id="edge1" class="edge">
<title>aggregation_constraint:w&#45;&gt;levels_of_data_granularity:e</title>
<path fill="none" stroke="#000000" d="M321.7118,-385.4833C285.6218,-384.2624 267.8151,-377.2025 239,-347.7 201.6701,-309.4796 251.4258,-234.7 198,-234.7"/>
<polygon fill="#000000" stroke="#000000" points="328.5009,-385.5828 336.4472,-389.2996 332.5004,-385.6414 336.5,-385.7 336.5,-385.7 336.5,-385.7 332.5004,-385.6414 336.5528,-382.1004 328.5009,-385.5828 328.5009,-385.5828"/>
<ellipse fill="none" stroke="#000000" cx="325.3012" cy="-385.5359" rx="3.2" ry="3.2"/>
</g>
<!-- aggregation_function -->
<g id="node3" class="node">
<title>aggregation_function</title>
<g id="a_node3"><a xlink:href="../../tables/aggregation_function.html" xlink:title="aggregation_function" target="_top">
<polygon fill="#ffffff" stroke="transparent" points="342,-120.2 342,-181.2 503,-181.2 503,-120.2 342,-120.2"/>
<polygon fill="#f5f5f5" stroke="transparent" points="342.5,-157.7 342.5,-180.7 503.5,-180.7 503.5,-157.7 342.5,-157.7"/>
<polygon fill="none" stroke="#000000" points="342.5,-157.7 342.5,-180.7 503.5,-180.7 503.5,-157.7 342.5,-157.7"/>
<text text-anchor="start" x="347.5" y="-166.3" font-family="Helvetica,sans-Serif" font-weight="bold" font-size="11.00" fill="#000000">aggregation_function</text>
<text text-anchor="start" x="469.0219" y="-165.8" font-family="Helvetica,sans-Serif" font-size="11.00" fill="#000000">[table]</text>
<polygon fill="none" stroke="#000000" points="342.5,-138.7 342.5,-157.7 503.5,-157.7 503.5,-138.7 342.5,-138.7"/>
<text text-anchor="start" x="345.5" y="-144.8" font-family="Helvetica,sans-Serif" font-size="11.00" fill="#000000">...</text>
<polygon fill="#ffffff" stroke="transparent" points="342.5,-119.7 342.5,-138.7 416.5,-138.7 416.5,-119.7 342.5,-119.7"/>
<polygon fill="none" stroke="#000000" points="342.5,-119.7 342.5,-138.7 416.5,-138.7 416.5,-119.7 342.5,-119.7"/>
<text text-anchor="start" x="345.5" y="-125.8" font-family="Helvetica,sans-Serif" font-size="11.00" fill="#000000">&lt; 2</text>
<polygon fill="#ffffff" stroke="transparent" points="416.5,-119.7 416.5,-138.7 455.5,-138.7 455.5,-119.7 416.5,-119.7"/>
<polygon fill="none" stroke="#000000" points="416.5,-119.7 416.5,-138.7 455.5,-138.7 455.5,-119.7 416.5,-119.7"/>
<text text-anchor="start" x="446.3862" y="-125.8" font-family="Helvetica,sans-Serif" font-size="11.00" fill="#000000"> &#160;</text>
<polygon fill="#ffffff" stroke="transparent" points="455.5,-119.7 455.5,-138.7 503.5,-138.7 503.5,-119.7 455.5,-119.7"/>
<polygon fill="none" stroke="#000000" points="455.5,-119.7 455.5,-138.7 503.5,-138.7 503.5,-119.7 455.5,-119.7"/>
<text text-anchor="start" x="484.9053" y="-125.8" font-family="Helvetica,sans-Serif" font-size="11.00" fill="#000000">1 &gt;</text>
</a>
</g>
</g>
<!-- aggregation_function&#45;&gt;levels_of_data_granularity -->
<g id="edge2" class="edge">
<title>aggregation_function:w&#45;&gt;levels_of_data_granularity:e</title>
<path fill="none" stroke="#000000" d="M328.0735,-146.549C289.5324,-145.2485 276.0168,-161.1691 239,-186.7 217.526,-201.5108 224.0863,-228.7 198,-234.7"/>
<polygon fill="#000000" stroke="#000000" points="334.5253,-147.0637 342.2137,-151.2886 338.5127,-147.3818 342.5,-147.7 342.5,-147.7 342.5,-147.7 338.5127,-147.3818 342.7863,-144.1114 334.5253,-147.0637 334.5253,-147.0637"/>
<ellipse fill="none" stroke="#000000" cx="331.3355" cy="-146.8092" rx="3.2" ry="3.2"/>
</g>
<!-- aggregation_function&#45;&gt;levels_of_data_granularity -->
<g id="edge3" class="edge">
<title>aggregation_function:w&#45;&gt;levels_of_data_granularity:e</title>
<path fill="none" stroke="#000000" d="M328.0735,-150.1826C289.5324,-158.2485 276.0168,-174.1691 239,-199.7 217.526,-214.5108 224.0863,-241.7 198,-234.7"/>
<polygon fill="#000000" stroke="#000000" points="334.6159,-149.0568 343.1106,-151.2479 338.5579,-148.3784 342.5,-147.7 342.5,-147.7 342.5,-147.7 338.5579,-148.3784 341.8894,-144.1521 334.6159,-149.0568 334.6159,-149.0568"/>
<ellipse fill="none" stroke="#000000" cx="331.4622" cy="-149.5995" rx="3.2" ry="3.2"/>
</g>
<!-- data_element -->
<g id="node4" class="node">
<title>data_element</title>
<g id="a_node4"><a xlink:href="../../tables/data_element.html" xlink:title="data_element" target="_top">
<polygon fill="#ffffff" stroke="transparent" points="365,-522.2 365,-583.2 480,-583.2 480,-522.2 365,-522.2"/>
<polygon fill="#f5f5f5" stroke="transparent" points="365.5,-559.7 365.5,-582.7 480.5,-582.7 480.5,-559.7 365.5,-559.7"/>
<polygon fill="none" stroke="#000000" points="365.5,-559.7 365.5,-582.7 480.5,-582.7 480.5,-559.7 365.5,-559.7"/>
<text text-anchor="start" x="370.5" y="-568.3" font-family="Helvetica,sans-Serif" font-weight="bold" font-size="11.00" fill="#000000">data_element</text>
<text text-anchor="start" x="446.0219" y="-567.8" font-family="Helvetica,sans-Serif" font-size="11.00" fill="#000000">[table]</text>
<polygon fill="none" stroke="#000000" points="365.5,-540.7 365.5,-559.7 480.5,-559.7 480.5,-540.7 365.5,-540.7"/>
<text text-anchor="start" x="368.5" y="-546.8" font-family="Helvetica,sans-Serif" font-size="11.00" fill="#000000">...</text>
<polygon fill="#ffffff" stroke="transparent" points="365.5,-521.7 365.5,-540.7 416.5,-540.7 416.5,-521.7 365.5,-521.7"/>
<polygon fill="none" stroke="#000000" points="365.5,-521.7 365.5,-540.7 416.5,-540.7 416.5,-521.7 365.5,-521.7"/>
<text text-anchor="start" x="368.5" y="-527.8" font-family="Helvetica,sans-Serif" font-size="11.00" fill="#000000">&lt; 2</text>
<polygon fill="#ffffff" stroke="transparent" points="416.5,-521.7 416.5,-540.7 443.5,-540.7 443.5,-521.7 416.5,-521.7"/>
<polygon fill="none" stroke="#000000" points="416.5,-521.7 416.5,-540.7 443.5,-540.7 443.5,-521.7 416.5,-521.7"/>
<text text-anchor="start" x="434.3862" y="-527.8" font-family="Helvetica,sans-Serif" font-size="11.00" fill="#000000"> &#160;</text>
<polygon fill="#ffffff" stroke="transparent" points="443.5,-521.7 443.5,-540.7 480.5,-540.7 480.5,-521.7 443.5,-521.7"/>
<polygon fill="none" stroke="#000000" points="443.5,-521.7 443.5,-540.7 480.5,-540.7 480.5,-521.7 443.5,-521.7"/>
<text text-anchor="start" x="461.9053" y="-527.8" font-family="Helvetica,sans-Serif" font-size="11.00" fill="#000000">2 &gt;</text>
</a>
</g>
</g>
<!-- data_element&#45;&gt;levels_of_data_granularity -->
<g id="edge4" class="edge">
<title>data_element:w&#45;&gt;levels_of_data_granularity:e</title>
<path fill="none" stroke="#000000" d="M350.9903,-549.8056C301.6765,-550.4257 274.0973,-552.2893 239,-511.7 198.2993,-464.6304 260.2262,-234.7 198,-234.7"/>
<polygon fill="#000000" stroke="#000000" points="357.5002,-549.7583 365.5262,-553.2999 361.5001,-549.7291 365.5,-549.7 365.5,-549.7 365.5,-549.7 361.5001,-549.7291 365.4738,-546.1001 357.5002,-549.7583 357.5002,-549.7583"/>
<ellipse fill="none" stroke="#000000" cx="354.3003" cy="-549.7816" rx="3.2" ry="3.2"/>
</g>
<!-- dq_metric -->
<g id="node5" class="node">
<title>dq_metric</title>
<g id="a_node5"><a xlink:href="../../tables/dq_metric.html" xlink:title="dq_metric" target="_top">
<polygon fill="#ffffff" stroke="transparent" points="247,-202.7 247,-336.7 598,-336.7 598,-202.7 247,-202.7"/>
<polygon fill="#f5f5f5" stroke="transparent" points="249.5,-311.7 249.5,-334.7 596.5,-334.7 596.5,-311.7 249.5,-311.7"/>
<polygon fill="none" stroke="#000000" points="249.5,-311.7 249.5,-334.7 596.5,-334.7 596.5,-311.7 249.5,-311.7"/>
<text text-anchor="start" x="254.5" y="-320.3" font-family="Helvetica,sans-Serif" font-weight="bold" font-size="11.00" fill="#000000">dq_metric</text>
<text text-anchor="start" x="561.5437" y="-319.8" font-family="Helvetica,sans-Serif" font-size="11.00" fill="#000000">[table]</text>
<polygon fill="none" stroke="#000000" points="249.5,-289.7 249.5,-311.7 496.5,-311.7 496.5,-289.7 249.5,-289.7"/>
<image xlink:href="../../images/primaryKeys.png" width="11px" height="12px" preserveAspectRatio="xMinYMin meet" x="254.5" y="-306.7"/>
<text text-anchor="start" x="269.5" y="-296.8" font-family="Helvetica,sans-Serif" font-size="11.00" fill="#000000">metric_name</text>
<polygon fill="none" stroke="#000000" points="496.5,-289.7 496.5,-311.7 596.5,-311.7 596.5,-289.7 496.5,-289.7"/>
<text text-anchor="start" x="499.5" y="-297.4" font-family="Helvetica,sans-Serif" font-size="11.00" fill="#000000">text[2147483647]</text>
<polygon fill="none" stroke="#000000" points="249.5,-267.7 249.5,-289.7 496.5,-289.7 496.5,-267.7 249.5,-267.7"/>
<text text-anchor="start" x="269.5" y="-274.8" font-family="Helvetica,sans-Serif" font-size="11.00" fill="#000000">metric_description</text>
<polygon fill="none" stroke="#000000" points="496.5,-267.7 496.5,-289.7 596.5,-289.7 596.5,-267.7 496.5,-267.7"/>
<text text-anchor="start" x="499.5" y="-275.4" font-family="Helvetica,sans-Serif" font-size="11.00" fill="#000000">text[2147483647]</text>
<polygon fill="none" stroke="#000000" points="249.5,-245.7 249.5,-267.7 496.5,-267.7 496.5,-245.7 249.5,-245.7"/>
<text text-anchor="start" x="269.5" y="-252.8" font-family="Helvetica,sans-Serif" font-size="11.00" fill="#000000">python_implementation</text>
<polygon fill="none" stroke="#000000" points="496.5,-245.7 496.5,-267.7 596.5,-267.7 596.5,-245.7 496.5,-245.7"/>
<text text-anchor="start" x="499.4178" y="-253.4" font-family="Helvetica,sans-Serif" font-size="11.00" fill="#000000">bytea[2147483647]</text>
<polygon fill="none" stroke="#000000" points="249.5,-223.7 249.5,-245.7 496.5,-245.7 496.5,-223.7 249.5,-223.7"/>
<image xlink:href="../../images/foreignKeys.png" width="11px" height="12px" preserveAspectRatio="xMinYMin meet" x="254.5" y="-240.7"/>
<text text-anchor="start" x="269.5" y="-230.8" font-family="Helvetica,sans-Serif" font-size="11.00" fill="#000000">designed_for_level_of_data_granularity</text>
<polygon fill="none" stroke="#000000" points="496.5,-223.7 496.5,-245.7 596.5,-245.7 596.5,-223.7 496.5,-223.7"/>
<text text-anchor="start" x="499.5" y="-231.4" font-family="Helvetica,sans-Serif" font-size="11.00" fill="#000000">text[2147483647]</text>
<polygon fill="#ffffff" stroke="transparent" points="249.5,-204.7 249.5,-223.7 377.5,-223.7 377.5,-204.7 249.5,-204.7"/>
<polygon fill="none" stroke="#000000" points="249.5,-204.7 249.5,-223.7 377.5,-223.7 377.5,-204.7 249.5,-204.7"/>
<text text-anchor="start" x="252.5" y="-210.8" font-family="Helvetica,sans-Serif" font-size="11.00" fill="#000000">&lt; 1</text>
<polygon fill="#ffffff" stroke="transparent" points="377.5,-204.7 377.5,-223.7 496.5,-223.7 496.5,-204.7 377.5,-204.7"/>
<polygon fill="none" stroke="#000000" points="377.5,-204.7 377.5,-223.7 496.5,-223.7 496.5,-204.7 377.5,-204.7"/>
<text text-anchor="start" x="487.3862" y="-210.8" font-family="Helvetica,sans-Serif" font-size="11.00" fill="#000000"> &#160;</text>
<polygon fill="#ffffff" stroke="transparent" points="496.5,-204.7 496.5,-223.7 596.5,-223.7 596.5,-204.7 496.5,-204.7"/>
<polygon fill="none" stroke="#000000" points="496.5,-204.7 496.5,-223.7 596.5,-223.7 596.5,-204.7 496.5,-204.7"/>
<text text-anchor="start" x="577.9053" y="-210.8" font-family="Helvetica,sans-Serif" font-size="11.00" fill="#000000">2 &gt;</text>
<polygon fill="none" stroke="#000000" stroke-width="2" points="248,-203.7 248,-335.7 597,-335.7 597,-203.7 248,-203.7"/>
</a>
</g>
</g>
<!-- dq_metric&#45;&gt;levels_of_data_granularity -->
<g id="edge5" class="edge">
<title>dq_metric:w&#45;&gt;levels_of_data_granularity:e</title>
<path fill="none" stroke="#000000" d="M235.0156,-234.7C222.6771,-234.7 215.1667,-234.7 198,-234.7"/>
<polygon fill="#000000" stroke="#000000" points="241.5,-234.7001 249.5,-238.3 245.5,-234.7 249.5,-234.7 249.5,-234.7 249.5,-234.7 245.5,-234.7 249.5,-231.1 241.5,-234.7001 241.5,-234.7001"/>
<ellipse fill="none" stroke="#000000" cx="238.3" cy="-234.7001" rx="3.2" ry="3.2"/>
</g>
<!-- dq_result -->
<g id="node6" class="node">
<title>dq_result</title>
<g id="a_node6"><a xlink:href="../../tables/dq_result.html" xlink:title="dq_result" target="_top">
<polygon fill="#ffffff" stroke="transparent" points="658.5,-419.2 658.5,-568.2 900.5,-568.2 900.5,-419.2 658.5,-419.2"/>
<polygon fill="#f5f5f5" stroke="transparent" points="658.5,-544.7 658.5,-567.7 900.5,-567.7 900.5,-544.7 658.5,-544.7"/>
<polygon fill="none" stroke="#000000" points="658.5,-544.7 658.5,-567.7 900.5,-567.7 900.5,-544.7 658.5,-544.7"/>
<text text-anchor="start" x="663.5" y="-553.3" font-family="Helvetica,sans-Serif" font-weight="bold" font-size="11.00" fill="#000000">dq_result</text>
<text text-anchor="start" x="865.5437" y="-552.8" font-family="Helvetica,sans-Serif" font-size="11.00" fill="#000000">[table]</text>
<polygon fill="#ffffff" stroke="transparent" points="658.5,-522.7 658.5,-544.7 900.5,-544.7 900.5,-522.7 658.5,-522.7"/>
<polygon fill="none" stroke="#000000" points="658.5,-522.7 658.5,-544.7 900.5,-544.7 900.5,-522.7 658.5,-522.7"/>
<text text-anchor="start" x="678.5" y="-529.8" font-family="Helvetica,sans-Serif" font-size="11.00" fill="#000000">creation_timestamp</text>
<polygon fill="#ffffff" stroke="transparent" points="658.5,-500.7 658.5,-522.7 900.5,-522.7 900.5,-500.7 658.5,-500.7"/>
<polygon fill="none" stroke="#000000" points="658.5,-500.7 658.5,-522.7 900.5,-522.7 900.5,-500.7 658.5,-500.7"/>
<image xlink:href="../../images/foreignKeys.png" width="11px" height="12px" preserveAspectRatio="xMinYMin meet" x="663.5" y="-517.7"/>
<text text-anchor="start" x="678.5" y="-507.8" font-family="Helvetica,sans-Serif" font-size="11.00" fill="#000000">computed_on_data_element_global_id</text>
<polygon fill="#ffffff" stroke="transparent" points="658.5,-478.7 658.5,-500.7 900.5,-500.7 900.5,-478.7 658.5,-478.7"/>
<polygon fill="none" stroke="#000000" points="658.5,-478.7 658.5,-500.7 900.5,-500.7 900.5,-478.7 658.5,-478.7"/>
<image xlink:href="../../images/foreignKeys.png" width="11px" height="12px" preserveAspectRatio="xMinYMin meet" x="663.5" y="-495.7"/>
<text text-anchor="start" x="678.5" y="-485.8" font-family="Helvetica,sans-Serif" font-size="11.00" fill="#000000">calculated_by_dq_metric</text>
<polygon fill="none" stroke="#000000" points="658.5,-456.7 658.5,-478.7 900.5,-478.7 900.5,-456.7 658.5,-456.7"/>
<image xlink:href="../../images/foreignKeys.png" width="11px" height="12px" preserveAspectRatio="xMinYMin meet" x="663.5" y="-473.7"/>
<text text-anchor="start" x="678.5" y="-463.8" font-family="Helvetica,sans-Serif" font-size="11.00" fill="#000000">calculated_by_aggregation_process</text>
<polygon fill="none" stroke="#000000" points="658.5,-437.7 658.5,-456.7 900.5,-456.7 900.5,-437.7 658.5,-437.7"/>
<text text-anchor="start" x="661.5" y="-443.8" font-family="Helvetica,sans-Serif" font-size="11.00" fill="#000000">...</text>
<polygon fill="#ffffff" stroke="transparent" points="658.5,-418.7 658.5,-437.7 777.5,-437.7 777.5,-418.7 658.5,-418.7"/>
<polygon fill="none" stroke="#000000" points="658.5,-418.7 658.5,-437.7 777.5,-437.7 777.5,-418.7 658.5,-418.7"/>
<text text-anchor="start" x="661.5" y="-424.8" font-family="Helvetica,sans-Serif" font-size="11.00" fill="#000000">&lt; 3</text>
<polygon fill="#ffffff" stroke="transparent" points="777.5,-418.7 777.5,-437.7 838.5,-437.7 838.5,-418.7 777.5,-418.7"/>
<polygon fill="none" stroke="#000000" points="777.5,-418.7 777.5,-437.7 838.5,-437.7 838.5,-418.7 777.5,-418.7"/>
<text text-anchor="start" x="829.3862" y="-424.8" font-family="Helvetica,sans-Serif" font-size="11.00" fill="#000000"> &#160;</text>
<polygon fill="#ffffff" stroke="transparent" points="838.5,-418.7 838.5,-437.7 900.5,-437.7 900.5,-418.7 838.5,-418.7"/>
<polygon fill="none" stroke="#000000" points="838.5,-418.7 838.5,-437.7 900.5,-437.7 900.5,-418.7 838.5,-418.7"/>
<text text-anchor="start" x="891.3862" y="-424.8" font-family="Helvetica,sans-Serif" font-size="11.00" fill="#000000"> &#160;</text>
</a>
</g>
</g>
<!-- dq_result&#45;&gt;data_element -->
<g id="edge8" class="edge">
<title>dq_result:w&#45;&gt;data_element:e</title>
<path fill="none" stroke="#000000" d="M644.0588,-512.1268C575.327,-516.3016 556.3379,-549.7 480.5,-549.7"/>
<polygon fill="#000000" stroke="#000000" points="650.5035,-511.9364 658.6064,-515.2984 654.5017,-511.8182 658.5,-511.7 658.5,-511.7 658.5,-511.7 654.5017,-511.8182 658.3936,-508.1016 650.5035,-511.9364 650.5035,-511.9364"/>
<ellipse fill="none" stroke="#000000" cx="647.3049" cy="-512.0309" rx="3.2" ry="3.2"/>
</g>
<!-- dq_result&#45;&gt;dq_metric -->
<g id="edge7" class="edge">
<title>dq_result:w&#45;&gt;dq_metric:e</title>
<path fill="none" stroke="#000000" d="M644.2064,-487.5774C583.653,-466.8133 679.379,-300.7 596.5,-300.7"/>
<polygon fill="#000000" stroke="#000000" points="650.5868,-488.5249 657.9712,-493.261 654.5434,-489.1124 658.5,-489.7 658.5,-489.7 658.5,-489.7 654.5434,-489.1124 659.0288,-486.139 650.5868,-488.5249 650.5868,-488.5249"/>
<ellipse fill="none" stroke="#000000" cx="647.4215" cy="-488.0548" rx="3.2" ry="3.2"/>
</g>
<!-- aggregation_process -->
<g id="node7" class="node">
<title>aggregation_process</title>
<g id="a_node7"><a xlink:href="../../tables/aggregation_process.html" xlink:title="aggregation_process" target="_top">
<polygon fill="#ffffff" stroke="transparent" points="342.5,-440.2 342.5,-501.2 502.5,-501.2 502.5,-440.2 342.5,-440.2"/>
<polygon fill="#f5f5f5" stroke="transparent" points="342.5,-477.7 342.5,-500.7 502.5,-500.7 502.5,-477.7 342.5,-477.7"/>
<polygon fill="none" stroke="#000000" points="342.5,-477.7 342.5,-500.7 502.5,-500.7 502.5,-477.7 342.5,-477.7"/>
<text text-anchor="start" x="347.5" y="-486.3" font-family="Helvetica,sans-Serif" font-weight="bold" font-size="11.00" fill="#000000">aggregation_process</text>
<text text-anchor="start" x="468.0219" y="-485.8" font-family="Helvetica,sans-Serif" font-size="11.00" fill="#000000">[table]</text>
<polygon fill="none" stroke="#000000" points="342.5,-458.7 342.5,-477.7 502.5,-477.7 502.5,-458.7 342.5,-458.7"/>
<text text-anchor="start" x="345.5" y="-464.8" font-family="Helvetica,sans-Serif" font-size="11.00" fill="#000000">...</text>
<polygon fill="#ffffff" stroke="transparent" points="342.5,-439.7 342.5,-458.7 411.5,-458.7 411.5,-439.7 342.5,-439.7"/>
<polygon fill="none" stroke="#000000" points="342.5,-439.7 342.5,-458.7 411.5,-458.7 411.5,-439.7 342.5,-439.7"/>
<text text-anchor="start" x="345.5" y="-445.8" font-family="Helvetica,sans-Serif" font-size="11.00" fill="#000000"> &#160;</text>
<polygon fill="#ffffff" stroke="transparent" points="411.5,-439.7 411.5,-458.7 452.5,-458.7 452.5,-439.7 411.5,-439.7"/>
<polygon fill="none" stroke="#000000" points="411.5,-439.7 411.5,-458.7 452.5,-458.7 452.5,-439.7 411.5,-439.7"/>
<text text-anchor="start" x="443.3862" y="-445.8" font-family="Helvetica,sans-Serif" font-size="11.00" fill="#000000"> &#160;</text>
<polygon fill="#ffffff" stroke="transparent" points="452.5,-439.7 452.5,-458.7 502.5,-458.7 502.5,-439.7 452.5,-439.7"/>
<polygon fill="none" stroke="#000000" points="452.5,-439.7 452.5,-458.7 502.5,-458.7 502.5,-439.7 452.5,-439.7"/>
<text text-anchor="start" x="483.9053" y="-445.8" font-family="Helvetica,sans-Serif" font-size="11.00" fill="#000000">3 &gt;</text>
</a>
</g>
</g>
<!-- dq_result&#45;&gt;aggregation_process -->
<g id="edge6" class="edge">
<title>dq_result:w&#45;&gt;aggregation_process:e</title>
<path fill="none" stroke="#000000" d="M643.8793,-467.7C586.3073,-467.7 566.6875,-467.7 502.5,-467.7"/>
<polygon fill="#000000" stroke="#000000" points="650.5,-467.7001 658.5,-471.3 654.5,-467.7 658.5,-467.7 658.5,-467.7 658.5,-467.7 654.5,-467.7 658.5,-464.1 650.5,-467.7001 650.5,-467.7001"/>
<ellipse fill="none" stroke="#000000" cx="647.3" cy="-467.7001" rx="3.2" ry="3.2"/>
</g>
<!-- metric_computes_value_for_dimension -->
<g id="node8" class="node">
<title>metric_computes_value_for_dimension</title>
<g id="a_node8"><a xlink:href="../../tables/metric_computes_value_for_dimension.html" xlink:title="metric_computes_value_for_dimension" target="_top">
<polygon fill="#ffffff" stroke="transparent" points="647,-141.7 647,-227.7 912,-227.7 912,-141.7 647,-141.7"/>
<polygon fill="#f5f5f5" stroke="transparent" points="647.5,-204.7 647.5,-227.7 912.5,-227.7 912.5,-204.7 647.5,-204.7"/>
<polygon fill="none" stroke="#000000" points="647.5,-204.7 647.5,-227.7 912.5,-227.7 912.5,-204.7 647.5,-204.7"/>
<text text-anchor="start" x="652.5" y="-213.3" font-family="Helvetica,sans-Serif" font-weight="bold" font-size="11.00" fill="#000000">metric_computes_value_for_dimension</text>
<text text-anchor="start" x="878.0219" y="-212.8" font-family="Helvetica,sans-Serif" font-size="11.00" fill="#000000">[table]</text>
<polygon fill="none" stroke="#000000" points="647.5,-182.7 647.5,-204.7 912.5,-204.7 912.5,-182.7 647.5,-182.7"/>
<image xlink:href="../../images/primaryKeys.png" width="11px" height="12px" preserveAspectRatio="xMinYMin meet" x="652.5" y="-199.7"/>
<text text-anchor="start" x="676.5" y="-189.8" font-family="Helvetica,sans-Serif" font-size="11.00" fill="#000000">metric_name</text>
<polygon fill="none" stroke="#000000" points="647.5,-160.7 647.5,-182.7 912.5,-182.7 912.5,-160.7 647.5,-160.7"/>
<image xlink:href="../../images/primaryKeys.png" width="11px" height="12px" preserveAspectRatio="xMinYMin meet" x="652.5" y="-177.7"/>
<text text-anchor="start" x="676.5" y="-167.8" font-family="Helvetica,sans-Serif" font-size="11.00" fill="#000000">dimension_name</text>
<polygon fill="#ffffff" stroke="transparent" points="647.5,-141.7 647.5,-160.7 778.5,-160.7 778.5,-141.7 647.5,-141.7"/>
<polygon fill="none" stroke="#000000" points="647.5,-141.7 647.5,-160.7 778.5,-160.7 778.5,-141.7 647.5,-141.7"/>
<text text-anchor="start" x="650.5" y="-147.8" font-family="Helvetica,sans-Serif" font-size="11.00" fill="#000000">&lt; 2</text>
<polygon fill="#ffffff" stroke="transparent" points="778.5,-141.7 778.5,-160.7 845.5,-160.7 845.5,-141.7 778.5,-141.7"/>
<polygon fill="none" stroke="#000000" points="778.5,-141.7 778.5,-160.7 845.5,-160.7 845.5,-141.7 778.5,-141.7"/>
<text text-anchor="start" x="836.3862" y="-147.8" font-family="Helvetica,sans-Serif" font-size="11.00" fill="#000000"> &#160;</text>
<polygon fill="#ffffff" stroke="transparent" points="845.5,-141.7 845.5,-160.7 912.5,-160.7 912.5,-141.7 845.5,-141.7"/>
<polygon fill="none" stroke="#000000" points="845.5,-141.7 845.5,-160.7 912.5,-160.7 912.5,-141.7 845.5,-141.7"/>
<text text-anchor="start" x="903.3862" y="-147.8" font-family="Helvetica,sans-Serif" font-size="11.00" fill="#000000"> &#160;</text>
</a>
</g>
</g>
<!-- metric_computes_value_for_dimension&#45;&gt;dq_metric -->
<g id="edge10" class="edge">
<title>metric_computes_value_for_dimension:w&#45;&gt;dq_metric:e</title>
<path fill="none" stroke="#000000" d="M633.4064,-197.5082C605.7616,-216.5691 643.2134,-300.7 596.5,-300.7"/>
<polygon fill="#000000" stroke="#000000" points="639.777,-195.7869 648.4391,-197.1754 643.6385,-194.7434 647.5,-193.7 647.5,-193.7 647.5,-193.7 643.6385,-194.7434 646.5609,-190.2246 639.777,-195.7869 639.777,-195.7869"/>
<ellipse fill="none" stroke="#000000" cx="636.6878" cy="-196.6216" rx="3.2" ry="3.2"/>
</g>
<!-- dq_dimension -->
<g id="node9" class="node">
<title>dq_dimension</title>
<g id="a_node9"><a xlink:href="../../tables/dq_dimension.html" xlink:title="dq_dimension" target="_top">
<polygon fill="#ffffff" stroke="transparent" points="362.5,-38.2 362.5,-99.2 482.5,-99.2 482.5,-38.2 362.5,-38.2"/>
<polygon fill="#f5f5f5" stroke="transparent" points="362.5,-75.7 362.5,-98.7 482.5,-98.7 482.5,-75.7 362.5,-75.7"/>
<polygon fill="none" stroke="#000000" points="362.5,-75.7 362.5,-98.7 482.5,-98.7 482.5,-75.7 362.5,-75.7"/>
<text text-anchor="start" x="367.5" y="-84.3" font-family="Helvetica,sans-Serif" font-weight="bold" font-size="11.00" fill="#000000">dq_dimension</text>
<text text-anchor="start" x="448.0219" y="-83.8" font-family="Helvetica,sans-Serif" font-size="11.00" fill="#000000">[table]</text>
<polygon fill="none" stroke="#000000" points="362.5,-56.7 362.5,-75.7 482.5,-75.7 482.5,-56.7 362.5,-56.7"/>
<text text-anchor="start" x="365.5" y="-62.8" font-family="Helvetica,sans-Serif" font-size="11.00" fill="#000000">...</text>
<polygon fill="#ffffff" stroke="transparent" points="362.5,-37.7 362.5,-56.7 416.5,-56.7 416.5,-37.7 362.5,-37.7"/>
<polygon fill="none" stroke="#000000" points="362.5,-37.7 362.5,-56.7 416.5,-56.7 416.5,-37.7 362.5,-37.7"/>
<text text-anchor="start" x="365.5" y="-43.8" font-family="Helvetica,sans-Serif" font-size="11.00" fill="#000000">&lt; 1</text>
<polygon fill="#ffffff" stroke="transparent" points="416.5,-37.7 416.5,-56.7 444.5,-56.7 444.5,-37.7 416.5,-37.7"/>
<polygon fill="none" stroke="#000000" points="416.5,-37.7 416.5,-56.7 444.5,-56.7 444.5,-37.7 416.5,-37.7"/>
<text text-anchor="start" x="435.3862" y="-43.8" font-family="Helvetica,sans-Serif" font-size="11.00" fill="#000000"> &#160;</text>
<polygon fill="#ffffff" stroke="transparent" points="444.5,-37.7 444.5,-56.7 482.5,-56.7 482.5,-37.7 444.5,-37.7"/>
<polygon fill="none" stroke="#000000" points="444.5,-37.7 444.5,-56.7 482.5,-56.7 482.5,-37.7 444.5,-37.7"/>
<text text-anchor="start" x="463.9053" y="-43.8" font-family="Helvetica,sans-Serif" font-size="11.00" fill="#000000">3 &gt;</text>
</a>
</g>
</g>
<!-- metric_computes_value_for_dimension&#45;&gt;dq_dimension -->
<g id="edge9" class="edge">
<title>metric_computes_value_for_dimension:w&#45;&gt;dq_dimension:e</title>
<path fill="none" stroke="#000000" d="M633.599,-167.7241C619.478,-156.8368 627.2572,-126.2522 606,-109.7 560.0254,-73.9013 540.7684,-65.7 482.5,-65.7"/>
<polygon fill="#000000" stroke="#000000" points="639.8084,-169.5 646.51,-175.1612 643.6542,-170.6 647.5,-171.7 647.5,-171.7 647.5,-171.7 643.6542,-170.6 648.49,-168.2388 639.8084,-169.5 639.8084,-169.5"/>
<ellipse fill="none" stroke="#000000" cx="636.7318" cy="-168.62" rx="3.2" ry="3.2"/>
</g>
</g>
</svg>
