<?xml version="1.0" encoding="UTF-8" standalone="no"?>
<!DOCTYPE svg PUBLIC "-//W3C//DTD SVG 1.1//EN"
 "http://www.w3.org/Graphics/SVG/1.1/DTD/svg11.dtd">
<!-- Generated by graphviz version 2.40.1 (20161225.0304)
 -->
<!-- Title: oneDegreeRelationshipsDiagram Pages: 1 -->
<svg width="661pt" height="281pt"
 viewBox="0.00 0.00 661.00 281.20" xmlns="http://www.w3.org/2000/svg" xmlns:xlink="http://www.w3.org/1999/xlink">
<g id="graph0" class="graph" transform="scale(1 1) rotate(0) translate(4 277.2)">
<title>oneDegreeRelationshipsDiagram</title>
<polygon fill="#ffffff" stroke="transparent" points="-4,4 -4,-277.2 657,-277.2 657,4 -4,4"/>
<text text-anchor="middle" x="72.4936" y="-7.3" font-family="Helvetica,sans-Serif" font-size="11.00" fill="#000000">Generated by SchemaSpy</text>
<!-- metric_computes_value_for_dimension -->
<g id="node1" class="node">
<title>metric_computes_value_for_dimension</title>
<g id="a_node1"><a xlink:href="../../tables/metric_computes_value_for_dimension.html" xlink:title="metric_computes_value_for_dimension" target="_top">
<polygon fill="#ffffff" stroke="transparent" points="304,-128.7 304,-218.7 645,-218.7 645,-128.7 304,-128.7"/>
<polygon fill="#f5f5f5" stroke="transparent" points="306.5,-193.7 306.5,-216.7 643.5,-216.7 643.5,-193.7 306.5,-193.7"/>
<polygon fill="none" stroke="#000000" points="306.5,-193.7 306.5,-216.7 643.5,-216.7 643.5,-193.7 306.5,-193.7"/>
<text text-anchor="start" x="311.5" y="-202.3" font-family="Helvetica,sans-Serif" font-weight="bold" font-size="11.00" fill="#000000">metric_computes_value_for_dimension</text>
<text text-anchor="start" x="608.5437" y="-201.8" font-family="Helvetica,sans-Serif" font-size="11.00" fill="#000000">[table]</text>
<polygon fill="none" stroke="#000000" points="306.5,-171.7 306.5,-193.7 553.5,-193.7 553.5,-171.7 306.5,-171.7"/>
<image xlink:href="../../images/primaryKeys.png" width="11px" height="12px" preserveAspectRatio="xMinYMin meet" x="311.5" y="-188.7"/>
<text text-anchor="start" x="326.5" y="-178.8" font-family="Helvetica,sans-Serif" font-size="11.00" fill="#000000">metric_name</text>
<polygon fill="none" stroke="#000000" points="553.5,-171.7 553.5,-193.7 643.5,-193.7 643.5,-171.7 553.5,-171.7"/>
<text text-anchor="start" x="556.0043" y="-179.4" font-family="Helvetica,sans-Serif" font-size="11.00" fill="#000000">text[2147483647]</text>
<polygon fill="none" stroke="#000000" points="306.5,-149.7 306.5,-171.7 553.5,-171.7 553.5,-149.7 306.5,-149.7"/>
<image xlink:href="../../images/primaryKeys.png" width="11px" height="12px" preserveAspectRatio="xMinYMin meet" x="311.5" y="-166.7"/>
<text text-anchor="start" x="326.5" y="-156.8" font-family="Helvetica,sans-Serif" font-size="11.00" fill="#000000">dimension_name</text>
<polygon fill="none" stroke="#000000" points="553.5,-149.7 553.5,-171.7 643.5,-171.7 643.5,-149.7 553.5,-149.7"/>
<text text-anchor="start" x="556.0043" y="-157.4" font-family="Helvetica,sans-Serif" font-size="11.00" fill="#000000">text[2147483647]</text>
<polygon fill="#ffffff" stroke="transparent" points="306.5,-130.7 306.5,-149.7 434.5,-149.7 434.5,-130.7 306.5,-130.7"/>
<polygon fill="none" stroke="#000000" points="306.5,-130.7 306.5,-149.7 434.5,-149.7 434.5,-130.7 306.5,-130.7"/>
<text text-anchor="start" x="309.5" y="-136.8" font-family="Helvetica,sans-Serif" font-size="11.00" fill="#000000">&lt; 2</text>
<polygon fill="#ffffff" stroke="transparent" points="434.5,-130.7 434.5,-149.7 553.5,-149.7 553.5,-130.7 434.5,-130.7"/>
<polygon fill="none" stroke="#000000" points="434.5,-130.7 434.5,-149.7 553.5,-149.7 553.5,-130.7 434.5,-130.7"/>
<text text-anchor="start" x="544.3862" y="-136.8" font-family="Helvetica,sans-Serif" font-size="11.00" fill="#000000"> &#160;</text>
<polygon fill="#ffffff" stroke="transparent" points="553.5,-130.7 553.5,-149.7 643.5,-149.7 643.5,-130.7 553.5,-130.7"/>
<polygon fill="none" stroke="#000000" points="553.5,-130.7 553.5,-149.7 643.5,-149.7 643.5,-130.7 553.5,-130.7"/>
<text text-anchor="start" x="624.9053" y="-136.8" font-family="Helvetica,sans-Serif" font-size="11.00" fill="#000000">0 &gt;</text>
<polygon fill="none" stroke="#000000" stroke-width="2" points="305,-129.7 305,-217.7 644,-217.7 644,-129.7 305,-129.7"/>
</a>
</g>
</g>
<!-- dq_dimension -->
<g id="node2" class="node">
<title>dq_dimension</title>
<g id="a_node2"><a xlink:href="../../tables/dq_dimension.html" xlink:title="dq_dimension" target="_top">
<polygon fill="#ffffff" stroke="transparent" points="55.5,-38.2 55.5,-143.2 207.5,-143.2 207.5,-38.2 55.5,-38.2"/>
<polygon fill="#f5f5f5" stroke="transparent" points="55.5,-119.7 55.5,-142.7 207.5,-142.7 207.5,-119.7 55.5,-119.7"/>
<polygon fill="none" stroke="#000000" points="55.5,-119.7 55.5,-142.7 207.5,-142.7 207.5,-119.7 55.5,-119.7"/>
<text text-anchor="start" x="60.5" y="-128.3" font-family="Helvetica,sans-Serif" font-weight="bold" font-size="11.00" fill="#000000">dq_dimension</text>
<text text-anchor="start" x="172.5437" y="-127.8" font-family="Helvetica,sans-Serif" font-size="11.00" fill="#000000">[table]</text>
<polygon fill="none" stroke="#000000" points="55.5,-97.7 55.5,-119.7 207.5,-119.7 207.5,-97.7 55.5,-97.7"/>
<image xlink:href="../../images/primaryKeys.png" width="11px" height="12px" preserveAspectRatio="xMinYMin meet" x="60.5" y="-114.7"/>
<text text-anchor="start" x="75.5" y="-104.8" font-family="Helvetica,sans-Serif" font-size="11.00" fill="#000000">dimension_name</text>
<polygon fill="none" stroke="#000000" points="55.5,-75.7 55.5,-97.7 207.5,-97.7 207.5,-75.7 55.5,-75.7"/>
<image xlink:href="../../images/foreignKeys.png" width="11px" height="12px" preserveAspectRatio="xMinYMin meet" x="60.5" y="-92.7"/>
<text text-anchor="start" x="75.5" y="-82.8" font-family="Helvetica,sans-Serif" font-size="11.00" fill="#000000">is_sub_dimension_of</text>
<polygon fill="none" stroke="#000000" points="55.5,-56.7 55.5,-75.7 207.5,-75.7 207.5,-56.7 55.5,-56.7"/>
<text text-anchor="start" x="58.5" y="-62.8" font-family="Helvetica,sans-Serif" font-size="11.00" fill="#000000">...</text>
<polygon fill="#ffffff" stroke="transparent" points="55.5,-37.7 55.5,-56.7 125.5,-56.7 125.5,-37.7 55.5,-37.7"/>
<polygon fill="none" stroke="#000000" points="55.5,-37.7 55.5,-56.7 125.5,-56.7 125.5,-37.7 55.5,-37.7"/>
<text text-anchor="start" x="58.5" y="-43.8" font-family="Helvetica,sans-Serif" font-size="11.00" fill="#000000">&lt; 1</text>
<polygon fill="#ffffff" stroke="transparent" points="125.5,-37.7 125.5,-56.7 161.5,-56.7 161.5,-37.7 125.5,-37.7"/>
<polygon fill="none" stroke="#000000" points="125.5,-37.7 125.5,-56.7 161.5,-56.7 161.5,-37.7 125.5,-37.7"/>
<text text-anchor="start" x="152.3862" y="-43.8" font-family="Helvetica,sans-Serif" font-size="11.00" fill="#000000"> &#160;</text>
<polygon fill="#ffffff" stroke="transparent" points="161.5,-37.7 161.5,-56.7 207.5,-56.7 207.5,-37.7 161.5,-37.7"/>
<polygon fill="none" stroke="#000000" points="161.5,-37.7 161.5,-56.7 207.5,-56.7 207.5,-37.7 161.5,-37.7"/>
<text text-anchor="start" x="188.9053" y="-43.8" font-family="Helvetica,sans-Serif" font-size="11.00" fill="#000000">3 &gt;</text>
</a>
</g>
</g>
<!-- metric_computes_value_for_dimension&#45;&gt;dq_dimension -->
<g id="edge1" class="edge">
<title>metric_computes_value_for_dimension:w&#45;&gt;dq_dimension:e</title>
<path fill="none" stroke="#000000" d="M291.859,-158.9699C256.288,-149.9471 251.7644,-108.7 207.5,-108.7"/>
<polygon fill="#000000" stroke="#000000" points="298.5553,-159.7611 306.0775,-164.2751 302.5276,-160.2306 306.5,-160.7 306.5,-160.7 306.5,-160.7 302.5276,-160.2306 306.9225,-157.1249 298.5553,-159.7611 298.5553,-159.7611"/>
<ellipse fill="none" stroke="#000000" cx="295.3774" cy="-159.3856" rx="3.2" ry="3.2"/>
</g>
<!-- dq_metric -->
<g id="node3" class="node">
<title>dq_metric</title>
<g id="a_node3"><a xlink:href="../../tables/dq_metric.html" xlink:title="dq_metric" target="_top">
<polygon fill="#ffffff" stroke="transparent" points="8,-164.2 8,-269.2 255,-269.2 255,-164.2 8,-164.2"/>
<polygon fill="#f5f5f5" stroke="transparent" points="8.5,-245.7 8.5,-268.7 255.5,-268.7 255.5,-245.7 8.5,-245.7"/>
<polygon fill="none" stroke="#000000" points="8.5,-245.7 8.5,-268.7 255.5,-268.7 255.5,-245.7 8.5,-245.7"/>
<text text-anchor="start" x="13.5" y="-254.3" font-family="Helvetica,sans-Serif" font-weight="bold" font-size="11.00" fill="#000000">dq_metric</text>
<text text-anchor="start" x="220.5437" y="-253.8" font-family="Helvetica,sans-Serif" font-size="11.00" fill="#000000">[table]</text>
<polygon fill="none" stroke="#000000" points="8.5,-223.7 8.5,-245.7 255.5,-245.7 255.5,-223.7 8.5,-223.7"/>
<image xlink:href="../../images/primaryKeys.png" width="11px" height="12px" preserveAspectRatio="xMinYMin meet" x="13.5" y="-240.7"/>
<text text-anchor="start" x="28.5" y="-230.8" font-family="Helvetica,sans-Serif" font-size="11.00" fill="#000000">metric_name</text>
<polygon fill="none" stroke="#000000" points="8.5,-201.7 8.5,-223.7 255.5,-223.7 255.5,-201.7 8.5,-201.7"/>
<image xlink:href="../../images/foreignKeys.png" width="11px" height="12px" preserveAspectRatio="xMinYMin meet" x="13.5" y="-218.7"/>
<text text-anchor="start" x="28.5" y="-208.8" font-family="Helvetica,sans-Serif" font-size="11.00" fill="#000000">designed_for_level_of_data_granularity</text>
<polygon fill="none" stroke="#000000" points="8.5,-182.7 8.5,-201.7 255.5,-201.7 255.5,-182.7 8.5,-182.7"/>
<text text-anchor="start" x="11.5" y="-188.8" font-family="Helvetica,sans-Serif" font-size="11.00" fill="#000000">...</text>
<polygon fill="#ffffff" stroke="transparent" points="8.5,-163.7 8.5,-182.7 125.5,-182.7 125.5,-163.7 8.5,-163.7"/>
<polygon fill="none" stroke="#000000" points="8.5,-163.7 8.5,-182.7 125.5,-182.7 125.5,-163.7 8.5,-163.7"/>
<text text-anchor="start" x="11.5" y="-169.8" font-family="Helvetica,sans-Serif" font-size="11.00" fill="#000000">&lt; 1</text>
<polygon fill="#ffffff" stroke="transparent" points="125.5,-163.7 125.5,-182.7 185.5,-182.7 185.5,-163.7 125.5,-163.7"/>
<polygon fill="none" stroke="#000000" points="125.5,-163.7 125.5,-182.7 185.5,-182.7 185.5,-163.7 125.5,-163.7"/>
<text text-anchor="start" x="176.3862" y="-169.8" font-family="Helvetica,sans-Serif" font-size="11.00" fill="#000000"> &#160;</text>
<polygon fill="#ffffff" stroke="transparent" points="185.5,-163.7 185.5,-182.7 255.5,-182.7 255.5,-163.7 185.5,-163.7"/>
<polygon fill="none" stroke="#000000" points="185.5,-163.7 185.5,-182.7 255.5,-182.7 255.5,-163.7 185.5,-163.7"/>
<text text-anchor="start" x="236.9053" y="-169.8" font-family="Helvetica,sans-Serif" font-size="11.00" fill="#000000">2 &gt;</text>
</a>
</g>
</g>
<!-- metric_computes_value_for_dimension&#45;&gt;dq_metric -->
<g id="edge2" class="edge">
<title>metric_computes_value_for_dimension:w&#45;&gt;dq_metric:e</title>
<path fill="none" stroke="#000000" d="M292.5468,-187.4988C277.661,-200.3719 281.8017,-234.7 255.5,-234.7"/>
<polygon fill="#000000" stroke="#000000" points="298.9349,-185.3018 307.6708,-186.1043 302.7175,-184.0009 306.5,-182.7 306.5,-182.7 306.5,-182.7 302.7175,-184.0009 305.3292,-179.2957 298.9349,-185.3018 298.9349,-185.3018"/>
<ellipse fill="none" stroke="#000000" cx="295.9089" cy="-186.3426" rx="3.2" ry="3.2"/>
</g>
</g>
</svg>
