<?xml version="1.0" encoding="UTF-8" standalone="no"?>
<!DOCTYPE svg PUBLIC "-//W3C//DTD SVG 1.1//EN"
 "http://www.w3.org/Graphics/SVG/1.1/DTD/svg11.dtd">
<!-- Generated by graphviz version 2.40.1 (20161225.0304)
 -->
<!-- Title: oneDegreeRelationshipsDiagram Pages: 1 -->
<svg width="712pt" height="259pt"
 viewBox="0.00 0.00 712.00 259.20" xmlns="http://www.w3.org/2000/svg" xmlns:xlink="http://www.w3.org/1999/xlink">
<g id="graph0" class="graph" transform="scale(1 1) rotate(0) translate(4 255.2)">
<title>oneDegreeRelationshipsDiagram</title>
<polygon fill="#ffffff" stroke="transparent" points="-4,4 -4,-255.2 708,-255.2 708,4 -4,4"/>
<text text-anchor="middle" x="72.4936" y="-7.3" font-family="Helvetica,sans-Serif" font-size="11.00" fill="#000000">Generated by SchemaSpy</text>
<!-- aggregation_process_computes_value_for_dimension -->
<g id="node1" class="node">
<title>aggregation_process_computes_value_for_dimension</title>
<g id="a_node1"><a xlink:href="../../tables/aggregation_process_computes_va_b73ff08c.html" xlink:title="aggregation_process_computes_value_for_dimension" target="_top">
<polygon fill="#ffffff" stroke="transparent" points="270,-117.7 270,-207.7 696,-207.7 696,-117.7 270,-117.7"/>
<polygon fill="#f5f5f5" stroke="transparent" points="272,-182.7 272,-205.7 694,-205.7 694,-182.7 272,-182.7"/>
<polygon fill="none" stroke="#000000" points="272,-182.7 272,-205.7 694,-205.7 694,-182.7 272,-182.7"/>
<text text-anchor="start" x="277" y="-191.3" font-family="Helvetica,sans-Serif" font-weight="bold" font-size="11.00" fill="#000000">aggregation_process_computes_value_for_dimension</text>
<text text-anchor="start" x="659.0437" y="-190.8" font-family="Helvetica,sans-Serif" font-size="11.00" fill="#000000">[table]</text>
<polygon fill="none" stroke="#000000" points="272,-160.7 272,-182.7 604,-182.7 604,-160.7 272,-160.7"/>
<image xlink:href="../../images/primaryKeys.png" width="11px" height="12px" preserveAspectRatio="xMinYMin meet" x="277" y="-177.7"/>
<text text-anchor="start" x="292" y="-167.8" font-family="Helvetica,sans-Serif" font-size="11.00" fill="#000000">aggregation_process_name</text>
<polygon fill="none" stroke="#000000" points="604,-160.7 604,-182.7 694,-182.7 694,-160.7 604,-160.7"/>
<text text-anchor="start" x="606.5043" y="-168.4" font-family="Helvetica,sans-Serif" font-size="11.00" fill="#000000">text[2147483647]</text>
<polygon fill="none" stroke="#000000" points="272,-138.7 272,-160.7 604,-160.7 604,-138.7 272,-138.7"/>
<image xlink:href="../../images/primaryKeys.png" width="11px" height="12px" preserveAspectRatio="xMinYMin meet" x="277" y="-155.7"/>
<text text-anchor="start" x="292" y="-145.8" font-family="Helvetica,sans-Serif" font-size="11.00" fill="#000000">dimension_name</text>
<polygon fill="none" stroke="#000000" points="604,-138.7 604,-160.7 694,-160.7 694,-138.7 604,-138.7"/>
<text text-anchor="start" x="606.5043" y="-146.4" font-family="Helvetica,sans-Serif" font-size="11.00" fill="#000000">text[2147483647]</text>
<polygon fill="#ffffff" stroke="transparent" points="272,-119.7 272,-138.7 442,-138.7 442,-119.7 272,-119.7"/>
<polygon fill="none" stroke="#000000" points="272,-119.7 272,-138.7 442,-138.7 442,-119.7 272,-119.7"/>
<text text-anchor="start" x="275" y="-125.8" font-family="Helvetica,sans-Serif" font-size="11.00" fill="#000000">&lt; 2</text>
<polygon fill="#ffffff" stroke="transparent" points="442,-119.7 442,-138.7 604,-138.7 604,-119.7 442,-119.7"/>
<polygon fill="none" stroke="#000000" points="442,-119.7 442,-138.7 604,-138.7 604,-119.7 442,-119.7"/>
<text text-anchor="start" x="594.8862" y="-125.8" font-family="Helvetica,sans-Serif" font-size="11.00" fill="#000000"> &#160;</text>
<polygon fill="#ffffff" stroke="transparent" points="604,-119.7 604,-138.7 694,-138.7 694,-119.7 604,-119.7"/>
<polygon fill="none" stroke="#000000" points="604,-119.7 604,-138.7 694,-138.7 694,-119.7 604,-119.7"/>
<text text-anchor="start" x="675.4053" y="-125.8" font-family="Helvetica,sans-Serif" font-size="11.00" fill="#000000">0 &gt;</text>
<polygon fill="none" stroke="#000000" stroke-width="2" points="271,-118.7 271,-206.7 695,-206.7 695,-118.7 271,-118.7"/>
</a>
</g>
</g>
<!-- aggregation_process -->
<g id="node2" class="node">
<title>aggregation_process</title>
<g id="a_node2"><a xlink:href="../../tables/aggregation_process.html" xlink:title="aggregation_process" target="_top">
<polygon fill="#ffffff" stroke="transparent" points="8,-164.2 8,-247.2 221,-247.2 221,-164.2 8,-164.2"/>
<polygon fill="#f5f5f5" stroke="transparent" points="8.5,-223.7 8.5,-246.7 221.5,-246.7 221.5,-223.7 8.5,-223.7"/>
<polygon fill="none" stroke="#000000" points="8.5,-223.7 8.5,-246.7 221.5,-246.7 221.5,-223.7 8.5,-223.7"/>
<text text-anchor="start" x="13.5" y="-232.3" font-family="Helvetica,sans-Serif" font-weight="bold" font-size="11.00" fill="#000000">aggregation_process</text>
<text text-anchor="start" x="186.5437" y="-231.8" font-family="Helvetica,sans-Serif" font-size="11.00" fill="#000000">[table]</text>
<polygon fill="none" stroke="#000000" points="8.5,-201.7 8.5,-223.7 221.5,-223.7 221.5,-201.7 8.5,-201.7"/>
<image xlink:href="../../images/primaryKeys.png" width="11px" height="12px" preserveAspectRatio="xMinYMin meet" x="13.5" y="-218.7"/>
<text text-anchor="start" x="28.5" y="-208.8" font-family="Helvetica,sans-Serif" font-size="11.00" fill="#000000">aggregation_process_name</text>
<polygon fill="none" stroke="#000000" points="8.5,-182.7 8.5,-201.7 221.5,-201.7 221.5,-182.7 8.5,-182.7"/>
<text text-anchor="start" x="11.5" y="-188.8" font-family="Helvetica,sans-Serif" font-size="11.00" fill="#000000">...</text>
<polygon fill="#ffffff" stroke="transparent" points="8.5,-163.7 8.5,-182.7 104.5,-182.7 104.5,-163.7 8.5,-163.7"/>
<polygon fill="none" stroke="#000000" points="8.5,-163.7 8.5,-182.7 104.5,-182.7 104.5,-163.7 8.5,-163.7"/>
<text text-anchor="start" x="11.5" y="-169.8" font-family="Helvetica,sans-Serif" font-size="11.00" fill="#000000"> &#160;</text>
<polygon fill="#ffffff" stroke="transparent" points="104.5,-163.7 104.5,-182.7 158.5,-182.7 158.5,-163.7 104.5,-163.7"/>
<polygon fill="none" stroke="#000000" points="104.5,-163.7 104.5,-182.7 158.5,-182.7 158.5,-163.7 104.5,-163.7"/>
<text text-anchor="start" x="149.3862" y="-169.8" font-family="Helvetica,sans-Serif" font-size="11.00" fill="#000000"> &#160;</text>
<polygon fill="#ffffff" stroke="transparent" points="158.5,-163.7 158.5,-182.7 221.5,-182.7 221.5,-163.7 158.5,-163.7"/>
<polygon fill="none" stroke="#000000" points="158.5,-163.7 158.5,-182.7 221.5,-182.7 221.5,-163.7 158.5,-163.7"/>
<text text-anchor="start" x="202.9053" y="-169.8" font-family="Helvetica,sans-Serif" font-size="11.00" fill="#000000">3 &gt;</text>
</a>
</g>
</g>
<!-- aggregation_process_computes_value_for_dimension&#45;&gt;aggregation_process -->
<g id="edge1" class="edge">
<title>aggregation_process_computes_value_for_dimension:w&#45;&gt;aggregation_process:e</title>
<path fill="none" stroke="#000000" d="M258.2601,-176.0877C244.5688,-186.6646 244.5379,-212.7 221.5,-212.7"/>
<polygon fill="#000000" stroke="#000000" points="264.3792,-174.1337 273.0952,-175.1294 268.1896,-172.9168 272,-171.7 272,-171.7 272,-171.7 268.1896,-172.9168 270.9048,-168.2706 264.3792,-174.1337 264.3792,-174.1337"/>
<ellipse fill="none" stroke="#000000" cx="261.3308" cy="-175.1072" rx="3.2" ry="3.2"/>
</g>
<!-- dq_dimension -->
<g id="node3" class="node">
<title>dq_dimension</title>
<g id="a_node3"><a xlink:href="../../tables/dq_dimension.html" xlink:title="dq_dimension" target="_top">
<polygon fill="#ffffff" stroke="transparent" points="38.5,-38.2 38.5,-143.2 190.5,-143.2 190.5,-38.2 38.5,-38.2"/>
<polygon fill="#f5f5f5" stroke="transparent" points="38.5,-119.7 38.5,-142.7 190.5,-142.7 190.5,-119.7 38.5,-119.7"/>
<polygon fill="none" stroke="#000000" points="38.5,-119.7 38.5,-142.7 190.5,-142.7 190.5,-119.7 38.5,-119.7"/>
<text text-anchor="start" x="43.5" y="-128.3" font-family="Helvetica,sans-Serif" font-weight="bold" font-size="11.00" fill="#000000">dq_dimension</text>
<text text-anchor="start" x="155.5437" y="-127.8" font-family="Helvetica,sans-Serif" font-size="11.00" fill="#000000">[table]</text>
<polygon fill="none" stroke="#000000" points="38.5,-97.7 38.5,-119.7 190.5,-119.7 190.5,-97.7 38.5,-97.7"/>
<image xlink:href="../../images/primaryKeys.png" width="11px" height="12px" preserveAspectRatio="xMinYMin meet" x="43.5" y="-114.7"/>
<text text-anchor="start" x="58.5" y="-104.8" font-family="Helvetica,sans-Serif" font-size="11.00" fill="#000000">dimension_name</text>
<polygon fill="none" stroke="#000000" points="38.5,-75.7 38.5,-97.7 190.5,-97.7 190.5,-75.7 38.5,-75.7"/>
<image xlink:href="../../images/foreignKeys.png" width="11px" height="12px" preserveAspectRatio="xMinYMin meet" x="43.5" y="-92.7"/>
<text text-anchor="start" x="58.5" y="-82.8" font-family="Helvetica,sans-Serif" font-size="11.00" fill="#000000">is_sub_dimension_of</text>
<polygon fill="none" stroke="#000000" points="38.5,-56.7 38.5,-75.7 190.5,-75.7 190.5,-56.7 38.5,-56.7"/>
<text text-anchor="start" x="41.5" y="-62.8" font-family="Helvetica,sans-Serif" font-size="11.00" fill="#000000">...</text>
<polygon fill="#ffffff" stroke="transparent" points="38.5,-37.7 38.5,-56.7 108.5,-56.7 108.5,-37.7 38.5,-37.7"/>
<polygon fill="none" stroke="#000000" points="38.5,-37.7 38.5,-56.7 108.5,-56.7 108.5,-37.7 38.5,-37.7"/>
<text text-anchor="start" x="41.5" y="-43.8" font-family="Helvetica,sans-Serif" font-size="11.00" fill="#000000">&lt; 1</text>
<polygon fill="#ffffff" stroke="transparent" points="108.5,-37.7 108.5,-56.7 144.5,-56.7 144.5,-37.7 108.5,-37.7"/>
<polygon fill="none" stroke="#000000" points="108.5,-37.7 108.5,-56.7 144.5,-56.7 144.5,-37.7 108.5,-37.7"/>
<text text-anchor="start" x="135.3862" y="-43.8" font-family="Helvetica,sans-Serif" font-size="11.00" fill="#000000"> &#160;</text>
<polygon fill="#ffffff" stroke="transparent" points="144.5,-37.7 144.5,-56.7 190.5,-56.7 190.5,-37.7 144.5,-37.7"/>
<polygon fill="none" stroke="#000000" points="144.5,-37.7 144.5,-56.7 190.5,-56.7 190.5,-37.7 144.5,-37.7"/>
<text text-anchor="start" x="171.9053" y="-43.8" font-family="Helvetica,sans-Serif" font-size="11.00" fill="#000000">3 &gt;</text>
</a>
</g>
</g>
<!-- aggregation_process_computes_value_for_dimension&#45;&gt;dq_dimension -->
<g id="edge2" class="edge">
<title>aggregation_process_computes_value_for_dimension:w&#45;&gt;dq_dimension:e</title>
<path fill="none" stroke="#000000" d="M257.4151,-147.6104C230.5914,-139.2554 225.5039,-108.7 190.5,-108.7"/>
<polygon fill="#000000" stroke="#000000" points="264.0809,-148.5654 271.4894,-153.2636 268.0404,-149.1327 272,-149.7 272,-149.7 272,-149.7 268.0404,-149.1327 272.5106,-146.1364 264.0809,-148.5654 264.0809,-148.5654"/>
<ellipse fill="none" stroke="#000000" cx="260.9132" cy="-148.1115" rx="3.2" ry="3.2"/>
</g>
</g>
</svg>
