<?xml version="1.0" encoding="UTF-8" standalone="no"?>
<!DOCTYPE svg PUBLIC "-//W3C//DTD SVG 1.1//EN"
 "http://www.w3.org/Graphics/SVG/1.1/DTD/svg11.dtd">
<!-- Generated by graphviz version 2.40.1 (20161225.0304)
 -->
<!-- Title: oneDegreeRelationshipsDiagram Pages: 1 -->
<svg width="730pt" height="436pt"
 viewBox="0.00 0.00 730.00 435.70" xmlns="http://www.w3.org/2000/svg" xmlns:xlink="http://www.w3.org/1999/xlink">
<g id="graph0" class="graph" transform="scale(1 1) rotate(0) translate(4 431.7)">
<title>oneDegreeRelationshipsDiagram</title>
<polygon fill="#ffffff" stroke="transparent" points="-4,4 -4,-431.7 726,-431.7 726,4 -4,4"/>
<text text-anchor="middle" x="72.4936" y="-7.3" font-family="Helvetica,sans-Serif" font-size="11.00" fill="#000000">Generated by SchemaSpy</text>
<!-- aggregation_process_computes_value_for_dimension -->
<g id="node1" class="node">
<title>aggregation_process_computes_value_for_dimension</title>
<g id="a_node1"><a xlink:href="../../tables/aggregation_process_computes_va_b73ff08c.html" xlink:title="aggregation_process_computes_value_for_dimension" target="_top">
<polygon fill="#ffffff" stroke="transparent" points="364,-337.7 364,-423.7 714,-423.7 714,-337.7 364,-337.7"/>
<polygon fill="#f5f5f5" stroke="transparent" points="364,-400.7 364,-423.7 714,-423.7 714,-400.7 364,-400.7"/>
<polygon fill="none" stroke="#000000" points="364,-400.7 364,-423.7 714,-423.7 714,-400.7 364,-400.7"/>
<text text-anchor="start" x="369" y="-409.3" font-family="Helvetica,sans-Serif" font-weight="bold" font-size="11.00" fill="#000000">aggregation_process_computes_value_for_dimension</text>
<text text-anchor="start" x="679.5219" y="-408.8" font-family="Helvetica,sans-Serif" font-size="11.00" fill="#000000">[table]</text>
<polygon fill="none" stroke="#000000" points="364,-378.7 364,-400.7 714,-400.7 714,-378.7 364,-378.7"/>
<image xlink:href="../../images/primaryKeys.png" width="11px" height="12px" preserveAspectRatio="xMinYMin meet" x="369" y="-395.7"/>
<text text-anchor="start" x="393" y="-385.8" font-family="Helvetica,sans-Serif" font-size="11.00" fill="#000000">aggregation_process_name</text>
<polygon fill="none" stroke="#000000" points="364,-356.7 364,-378.7 714,-378.7 714,-356.7 364,-356.7"/>
<image xlink:href="../../images/primaryKeys.png" width="11px" height="12px" preserveAspectRatio="xMinYMin meet" x="369" y="-373.7"/>
<text text-anchor="start" x="393" y="-363.8" font-family="Helvetica,sans-Serif" font-size="11.00" fill="#000000">dimension_name</text>
<polygon fill="#ffffff" stroke="transparent" points="364,-337.7 364,-356.7 537,-356.7 537,-337.7 364,-337.7"/>
<polygon fill="none" stroke="#000000" points="364,-337.7 364,-356.7 537,-356.7 537,-337.7 364,-337.7"/>
<text text-anchor="start" x="367" y="-343.8" font-family="Helvetica,sans-Serif" font-size="11.00" fill="#000000">&lt; 2</text>
<polygon fill="#ffffff" stroke="transparent" points="537,-337.7 537,-356.7 625,-356.7 625,-337.7 537,-337.7"/>
<polygon fill="none" stroke="#000000" points="537,-337.7 537,-356.7 625,-356.7 625,-337.7 537,-337.7"/>
<text text-anchor="start" x="615.8862" y="-343.8" font-family="Helvetica,sans-Serif" font-size="11.00" fill="#000000"> &#160;</text>
<polygon fill="#ffffff" stroke="transparent" points="625,-337.7 625,-356.7 714,-356.7 714,-337.7 625,-337.7"/>
<polygon fill="none" stroke="#000000" points="625,-337.7 625,-356.7 714,-356.7 714,-337.7 625,-337.7"/>
<text text-anchor="start" x="704.8862" y="-343.8" font-family="Helvetica,sans-Serif" font-size="11.00" fill="#000000"> &#160;</text>
</a>
</g>
</g>
<!-- aggregation_process -->
<g id="node2" class="node">
<title>aggregation_process</title>
<g id="a_node2"><a xlink:href="../../tables/aggregation_process.html" xlink:title="aggregation_process" target="_top">
<polygon fill="#ffffff" stroke="transparent" points="8,-206.7 8,-318.7 315,-318.7 315,-206.7 8,-206.7"/>
<polygon fill="#f5f5f5" stroke="transparent" points="10.5,-293.7 10.5,-316.7 313.5,-316.7 313.5,-293.7 10.5,-293.7"/>
<polygon fill="none" stroke="#000000" points="10.5,-293.7 10.5,-316.7 313.5,-316.7 313.5,-293.7 10.5,-293.7"/>
<text text-anchor="start" x="15.5" y="-302.3" font-family="Helvetica,sans-Serif" font-weight="bold" font-size="11.00" fill="#000000">aggregation_process</text>
<text text-anchor="start" x="278.5437" y="-301.8" font-family="Helvetica,sans-Serif" font-size="11.00" fill="#000000">[table]</text>
<polygon fill="none" stroke="#000000" points="10.5,-271.7 10.5,-293.7 223.5,-293.7 223.5,-271.7 10.5,-271.7"/>
<image xlink:href="../../images/primaryKeys.png" width="11px" height="12px" preserveAspectRatio="xMinYMin meet" x="15.5" y="-288.7"/>
<text text-anchor="start" x="30.5" y="-278.8" font-family="Helvetica,sans-Serif" font-size="11.00" fill="#000000">aggregation_process_name</text>
<polygon fill="none" stroke="#000000" points="223.5,-271.7 223.5,-293.7 313.5,-293.7 313.5,-271.7 223.5,-271.7"/>
<text text-anchor="start" x="226.0043" y="-279.4" font-family="Helvetica,sans-Serif" font-size="11.00" fill="#000000">text[2147483647]</text>
<polygon fill="none" stroke="#000000" points="10.5,-249.7 10.5,-271.7 223.5,-271.7 223.5,-249.7 10.5,-249.7"/>
<text text-anchor="start" x="30.5" y="-256.8" font-family="Helvetica,sans-Serif" font-size="11.00" fill="#000000">aggregation_process_description</text>
<polygon fill="none" stroke="#000000" points="223.5,-249.7 223.5,-271.7 313.5,-271.7 313.5,-249.7 223.5,-249.7"/>
<text text-anchor="start" x="226.0043" y="-257.4" font-family="Helvetica,sans-Serif" font-size="11.00" fill="#000000">text[2147483647]</text>
<polygon fill="none" stroke="#000000" points="10.5,-227.7 10.5,-249.7 223.5,-249.7 223.5,-227.7 10.5,-227.7"/>
<text text-anchor="start" x="30.5" y="-234.8" font-family="Helvetica,sans-Serif" font-size="11.00" fill="#000000">aggregation_query_for_values</text>
<polygon fill="none" stroke="#000000" points="223.5,-227.7 223.5,-249.7 313.5,-249.7 313.5,-227.7 223.5,-227.7"/>
<text text-anchor="start" x="226.0043" y="-235.4" font-family="Helvetica,sans-Serif" font-size="11.00" fill="#000000">text[2147483647]</text>
<polygon fill="#ffffff" stroke="transparent" points="10.5,-208.7 10.5,-227.7 121.5,-227.7 121.5,-208.7 10.5,-208.7"/>
<polygon fill="none" stroke="#000000" points="10.5,-208.7 10.5,-227.7 121.5,-227.7 121.5,-208.7 10.5,-208.7"/>
<text text-anchor="start" x="13.5" y="-214.8" font-family="Helvetica,sans-Serif" font-size="11.00" fill="#000000">&lt; 0</text>
<polygon fill="#ffffff" stroke="transparent" points="121.5,-208.7 121.5,-227.7 223.5,-227.7 223.5,-208.7 121.5,-208.7"/>
<polygon fill="none" stroke="#000000" points="121.5,-208.7 121.5,-227.7 223.5,-227.7 223.5,-208.7 121.5,-208.7"/>
<text text-anchor="start" x="214.3862" y="-214.8" font-family="Helvetica,sans-Serif" font-size="11.00" fill="#000000"> &#160;</text>
<polygon fill="#ffffff" stroke="transparent" points="223.5,-208.7 223.5,-227.7 313.5,-227.7 313.5,-208.7 223.5,-208.7"/>
<polygon fill="none" stroke="#000000" points="223.5,-208.7 223.5,-227.7 313.5,-227.7 313.5,-208.7 223.5,-208.7"/>
<text text-anchor="start" x="294.9053" y="-214.8" font-family="Helvetica,sans-Serif" font-size="11.00" fill="#000000">3 &gt;</text>
<polygon fill="none" stroke="#000000" stroke-width="2" points="9,-207.7 9,-317.7 314,-317.7 314,-207.7 9,-207.7"/>
</a>
</g>
</g>
<!-- aggregation_process_computes_value_for_dimension&#45;&gt;aggregation_process -->
<g id="edge1" class="edge">
<title>aggregation_process_computes_value_for_dimension:w&#45;&gt;aggregation_process:e</title>
<path fill="none" stroke="#000000" d="M349.9464,-385.8918C322.4242,-366.8309 360.129,-282.7 313.5,-282.7"/>
<polygon fill="#000000" stroke="#000000" points="356.2785,-387.6076 363.0584,-393.1747 360.1392,-388.6538 364,-389.7 364,-389.7 364,-389.7 360.1392,-388.6538 364.9416,-386.2253 356.2785,-387.6076 356.2785,-387.6076"/>
<ellipse fill="none" stroke="#000000" cx="353.1898" cy="-386.7707" rx="3.2" ry="3.2"/>
</g>
<!-- aggregation_process_is_based_on -->
<g id="node3" class="node">
<title>aggregation_process_is_based_on</title>
<g id="a_node3"><a xlink:href="../../tables/aggregation_process_is_based_on.html" xlink:title="aggregation_process_is_based_on" target="_top">
<polygon fill="#ffffff" stroke="transparent" points="419.5,-208.7 419.5,-316.7 658.5,-316.7 658.5,-208.7 419.5,-208.7"/>
<polygon fill="#f5f5f5" stroke="transparent" points="420,-293.7 420,-316.7 659,-316.7 659,-293.7 420,-293.7"/>
<polygon fill="none" stroke="#000000" points="420,-293.7 420,-316.7 659,-316.7 659,-293.7 420,-293.7"/>
<text text-anchor="start" x="425" y="-302.3" font-family="Helvetica,sans-Serif" font-weight="bold" font-size="11.00" fill="#000000">aggregation_process_is_based_on</text>
<text text-anchor="start" x="624.5219" y="-301.8" font-family="Helvetica,sans-Serif" font-size="11.00" fill="#000000">[table]</text>
<polygon fill="none" stroke="#000000" points="420,-271.7 420,-293.7 659,-293.7 659,-271.7 420,-271.7"/>
<image xlink:href="../../images/primaryKeys.png" width="11px" height="12px" preserveAspectRatio="xMinYMin meet" x="425" y="-288.7"/>
<text text-anchor="start" x="449" y="-278.8" font-family="Helvetica,sans-Serif" font-size="11.00" fill="#000000">aggregation_process_name</text>
<polygon fill="none" stroke="#000000" points="420,-249.7 420,-271.7 659,-271.7 659,-249.7 420,-249.7"/>
<image xlink:href="../../images/primaryKeys.png" width="11px" height="12px" preserveAspectRatio="xMinYMin meet" x="425" y="-266.7"/>
<text text-anchor="start" x="449" y="-256.8" font-family="Helvetica,sans-Serif" font-size="11.00" fill="#000000">aggregation_constraint_name</text>
<polygon fill="none" stroke="#000000" points="420,-227.7 420,-249.7 659,-249.7 659,-227.7 420,-227.7"/>
<image xlink:href="../../images/foreignKeys.png" width="11px" height="12px" preserveAspectRatio="xMinYMin meet" x="425" y="-244.7"/>
<text text-anchor="start" x="449" y="-234.8" font-family="Helvetica,sans-Serif" font-size="11.00" fill="#000000">aggregation_function_name</text>
<polygon fill="#ffffff" stroke="transparent" points="420,-208.7 420,-227.7 538,-227.7 538,-208.7 420,-208.7"/>
<polygon fill="none" stroke="#000000" points="420,-208.7 420,-227.7 538,-227.7 538,-208.7 420,-208.7"/>
<text text-anchor="start" x="423" y="-214.8" font-family="Helvetica,sans-Serif" font-size="11.00" fill="#000000">&lt; 3</text>
<polygon fill="#ffffff" stroke="transparent" points="538,-208.7 538,-227.7 598,-227.7 598,-208.7 538,-208.7"/>
<polygon fill="none" stroke="#000000" points="538,-208.7 538,-227.7 598,-227.7 598,-208.7 538,-208.7"/>
<text text-anchor="start" x="588.8862" y="-214.8" font-family="Helvetica,sans-Serif" font-size="11.00" fill="#000000"> &#160;</text>
<polygon fill="#ffffff" stroke="transparent" points="598,-208.7 598,-227.7 659,-227.7 659,-208.7 598,-208.7"/>
<polygon fill="none" stroke="#000000" points="598,-208.7 598,-227.7 659,-227.7 659,-208.7 598,-208.7"/>
<text text-anchor="start" x="649.8862" y="-214.8" font-family="Helvetica,sans-Serif" font-size="11.00" fill="#000000"> &#160;</text>
</a>
</g>
</g>
<!-- aggregation_process_is_based_on&#45;&gt;aggregation_process -->
<g id="edge2" class="edge">
<title>aggregation_process_is_based_on:w&#45;&gt;aggregation_process:e</title>
<path fill="none" stroke="#000000" d="M405.1775,-282.7C369.5301,-282.7 355.4714,-282.7 313.5,-282.7"/>
<polygon fill="#000000" stroke="#000000" points="412,-282.7001 420,-286.3 416,-282.7 420,-282.7 420,-282.7 420,-282.7 416,-282.7 420,-279.1 412,-282.7001 412,-282.7001"/>
<ellipse fill="none" stroke="#000000" cx="408.8" cy="-282.7001" rx="3.2" ry="3.2"/>
</g>
<!-- dq_result -->
<g id="node4" class="node">
<title>dq_result</title>
<g id="a_node4"><a xlink:href="../../tables/dq_result.html" xlink:title="dq_result" target="_top">
<polygon fill="#ffffff" stroke="transparent" points="418,-38.2 418,-187.2 660,-187.2 660,-38.2 418,-38.2"/>
<polygon fill="#f5f5f5" stroke="transparent" points="418,-163.7 418,-186.7 660,-186.7 660,-163.7 418,-163.7"/>
<polygon fill="none" stroke="#000000" points="418,-163.7 418,-186.7 660,-186.7 660,-163.7 418,-163.7"/>
<text text-anchor="start" x="423" y="-172.3" font-family="Helvetica,sans-Serif" font-weight="bold" font-size="11.00" fill="#000000">dq_result</text>
<text text-anchor="start" x="625.0437" y="-171.8" font-family="Helvetica,sans-Serif" font-size="11.00" fill="#000000">[table]</text>
<polygon fill="#ffffff" stroke="transparent" points="418,-141.7 418,-163.7 660,-163.7 660,-141.7 418,-141.7"/>
<polygon fill="none" stroke="#000000" points="418,-141.7 418,-163.7 660,-163.7 660,-141.7 418,-141.7"/>
<text text-anchor="start" x="438" y="-148.8" font-family="Helvetica,sans-Serif" font-size="11.00" fill="#000000">creation_timestamp</text>
<polygon fill="#ffffff" stroke="transparent" points="418,-119.7 418,-141.7 660,-141.7 660,-119.7 418,-119.7"/>
<polygon fill="none" stroke="#000000" points="418,-119.7 418,-141.7 660,-141.7 660,-119.7 418,-119.7"/>
<image xlink:href="../../images/foreignKeys.png" width="11px" height="12px" preserveAspectRatio="xMinYMin meet" x="423" y="-136.7"/>
<text text-anchor="start" x="438" y="-126.8" font-family="Helvetica,sans-Serif" font-size="11.00" fill="#000000">computed_on_data_element_global_id</text>
<polygon fill="#ffffff" stroke="transparent" points="418,-97.7 418,-119.7 660,-119.7 660,-97.7 418,-97.7"/>
<polygon fill="none" stroke="#000000" points="418,-97.7 418,-119.7 660,-119.7 660,-97.7 418,-97.7"/>
<image xlink:href="../../images/foreignKeys.png" width="11px" height="12px" preserveAspectRatio="xMinYMin meet" x="423" y="-114.7"/>
<text text-anchor="start" x="438" y="-104.8" font-family="Helvetica,sans-Serif" font-size="11.00" fill="#000000">calculated_by_dq_metric</text>
<polygon fill="none" stroke="#000000" points="418,-75.7 418,-97.7 660,-97.7 660,-75.7 418,-75.7"/>
<image xlink:href="../../images/foreignKeys.png" width="11px" height="12px" preserveAspectRatio="xMinYMin meet" x="423" y="-92.7"/>
<text text-anchor="start" x="438" y="-82.8" font-family="Helvetica,sans-Serif" font-size="11.00" fill="#000000">calculated_by_aggregation_process</text>
<polygon fill="none" stroke="#000000" points="418,-56.7 418,-75.7 660,-75.7 660,-56.7 418,-56.7"/>
<text text-anchor="start" x="421" y="-62.8" font-family="Helvetica,sans-Serif" font-size="11.00" fill="#000000">...</text>
<polygon fill="#ffffff" stroke="transparent" points="418,-37.7 418,-56.7 537,-56.7 537,-37.7 418,-37.7"/>
<polygon fill="none" stroke="#000000" points="418,-37.7 418,-56.7 537,-56.7 537,-37.7 418,-37.7"/>
<text text-anchor="start" x="421" y="-43.8" font-family="Helvetica,sans-Serif" font-size="11.00" fill="#000000">&lt; 3</text>
<polygon fill="#ffffff" stroke="transparent" points="537,-37.7 537,-56.7 598,-56.7 598,-37.7 537,-37.7"/>
<polygon fill="none" stroke="#000000" points="537,-37.7 537,-56.7 598,-56.7 598,-37.7 537,-37.7"/>
<text text-anchor="start" x="588.8862" y="-43.8" font-family="Helvetica,sans-Serif" font-size="11.00" fill="#000000"> &#160;</text>
<polygon fill="#ffffff" stroke="transparent" points="598,-37.7 598,-56.7 660,-56.7 660,-37.7 598,-37.7"/>
<polygon fill="none" stroke="#000000" points="598,-37.7 598,-56.7 660,-56.7 660,-37.7 598,-37.7"/>
<text text-anchor="start" x="650.8862" y="-43.8" font-family="Helvetica,sans-Serif" font-size="11.00" fill="#000000"> &#160;</text>
</a>
</g>
</g>
<!-- dq_result&#45;&gt;aggregation_process -->
<g id="edge3" class="edge">
<title>dq_result:w&#45;&gt;aggregation_process:e</title>
<path fill="none" stroke="#000000" d="M403.457,-88.3977C364.8484,-98.6453 380.0253,-153.3289 356,-198.7 336.4203,-235.6757 355.3398,-282.7 313.5,-282.7"/>
<polygon fill="#000000" stroke="#000000" points="410.054,-87.6276 418.4174,-90.2757 414.027,-87.1638 418,-86.7 418,-86.7 418,-86.7 414.027,-87.1638 417.5826,-83.1243 410.054,-87.6276 410.054,-87.6276"/>
<ellipse fill="none" stroke="#000000" cx="406.8755" cy="-87.9987" rx="3.2" ry="3.2"/>
</g>
</g>
</svg>
