<?xml version="1.0" encoding="UTF-8" standalone="no"?>
<!DOCTYPE svg PUBLIC "-//W3C//DTD SVG 1.1//EN"
 "http://www.w3.org/Graphics/SVG/1.1/DTD/svg11.dtd">
<!-- Generated by graphviz version 2.40.1 (20161225.0304)
 -->
<!-- Title: twoDegreesRelationshipsDiagram Pages: 1 -->
<svg width="730pt" height="573pt"
 viewBox="0.00 0.00 730.00 573.20" xmlns="http://www.w3.org/2000/svg" xmlns:xlink="http://www.w3.org/1999/xlink">
<g id="graph0" class="graph" transform="scale(1 1) rotate(0) translate(4 569.2)">
<title>twoDegreesRelationshipsDiagram</title>
<polygon fill="#ffffff" stroke="transparent" points="-4,4 -4,-569.2 726,-569.2 726,4 -4,4"/>
<text text-anchor="middle" x="72.4936" y="-7.3" font-family="Helvetica,sans-Serif" font-size="11.00" fill="#000000">Generated by SchemaSpy</text>
<!-- aggregation_process_computes_value_for_dimension -->
<g id="node1" class="node">
<title>aggregation_process_computes_value_for_dimension</title>
<g id="a_node1"><a xlink:href="../../tables/aggregation_process_computes_va_b73ff08c.html" xlink:title="aggregation_process_computes_value_for_dimension" target="_top">
<polygon fill="#ffffff" stroke="transparent" points="364,-267.7 364,-353.7 714,-353.7 714,-267.7 364,-267.7"/>
<polygon fill="#f5f5f5" stroke="transparent" points="364,-330.7 364,-353.7 714,-353.7 714,-330.7 364,-330.7"/>
<polygon fill="none" stroke="#000000" points="364,-330.7 364,-353.7 714,-353.7 714,-330.7 364,-330.7"/>
<text text-anchor="start" x="369" y="-339.3" font-family="Helvetica,sans-Serif" font-weight="bold" font-size="11.00" fill="#000000">aggregation_process_computes_value_for_dimension</text>
<text text-anchor="start" x="679.5219" y="-338.8" font-family="Helvetica,sans-Serif" font-size="11.00" fill="#000000">[table]</text>
<polygon fill="none" stroke="#000000" points="364,-308.7 364,-330.7 714,-330.7 714,-308.7 364,-308.7"/>
<image xlink:href="../../images/primaryKeys.png" width="11px" height="12px" preserveAspectRatio="xMinYMin meet" x="369" y="-325.7"/>
<text text-anchor="start" x="393" y="-315.8" font-family="Helvetica,sans-Serif" font-size="11.00" fill="#000000">aggregation_process_name</text>
<polygon fill="none" stroke="#000000" points="364,-286.7 364,-308.7 714,-308.7 714,-286.7 364,-286.7"/>
<image xlink:href="../../images/primaryKeys.png" width="11px" height="12px" preserveAspectRatio="xMinYMin meet" x="369" y="-303.7"/>
<text text-anchor="start" x="393" y="-293.8" font-family="Helvetica,sans-Serif" font-size="11.00" fill="#000000">dimension_name</text>
<polygon fill="#ffffff" stroke="transparent" points="364,-267.7 364,-286.7 537,-286.7 537,-267.7 364,-267.7"/>
<polygon fill="none" stroke="#000000" points="364,-267.7 364,-286.7 537,-286.7 537,-267.7 364,-267.7"/>
<text text-anchor="start" x="367" y="-273.8" font-family="Helvetica,sans-Serif" font-size="11.00" fill="#000000">&lt; 2</text>
<polygon fill="#ffffff" stroke="transparent" points="537,-267.7 537,-286.7 625,-286.7 625,-267.7 537,-267.7"/>
<polygon fill="none" stroke="#000000" points="537,-267.7 537,-286.7 625,-286.7 625,-267.7 537,-267.7"/>
<text text-anchor="start" x="615.8862" y="-273.8" font-family="Helvetica,sans-Serif" font-size="11.00" fill="#000000"> &#160;</text>
<polygon fill="#ffffff" stroke="transparent" points="625,-267.7 625,-286.7 714,-286.7 714,-267.7 625,-267.7"/>
<polygon fill="none" stroke="#000000" points="625,-267.7 625,-286.7 714,-286.7 714,-267.7 625,-267.7"/>
<text text-anchor="start" x="704.8862" y="-273.8" font-family="Helvetica,sans-Serif" font-size="11.00" fill="#000000"> &#160;</text>
</a>
</g>
</g>
<!-- aggregation_process -->
<g id="node2" class="node">
<title>aggregation_process</title>
<g id="a_node2"><a xlink:href="../../tables/aggregation_process.html" xlink:title="aggregation_process" target="_top">
<polygon fill="#ffffff" stroke="transparent" points="8,-284.7 8,-396.7 315,-396.7 315,-284.7 8,-284.7"/>
<polygon fill="#f5f5f5" stroke="transparent" points="10.5,-371.7 10.5,-394.7 313.5,-394.7 313.5,-371.7 10.5,-371.7"/>
<polygon fill="none" stroke="#000000" points="10.5,-371.7 10.5,-394.7 313.5,-394.7 313.5,-371.7 10.5,-371.7"/>
<text text-anchor="start" x="15.5" y="-380.3" font-family="Helvetica,sans-Serif" font-weight="bold" font-size="11.00" fill="#000000">aggregation_process</text>
<text text-anchor="start" x="278.5437" y="-379.8" font-family="Helvetica,sans-Serif" font-size="11.00" fill="#000000">[table]</text>
<polygon fill="none" stroke="#000000" points="10.5,-349.7 10.5,-371.7 223.5,-371.7 223.5,-349.7 10.5,-349.7"/>
<image xlink:href="../../images/primaryKeys.png" width="11px" height="12px" preserveAspectRatio="xMinYMin meet" x="15.5" y="-366.7"/>
<text text-anchor="start" x="30.5" y="-356.8" font-family="Helvetica,sans-Serif" font-size="11.00" fill="#000000">aggregation_process_name</text>
<polygon fill="none" stroke="#000000" points="223.5,-349.7 223.5,-371.7 313.5,-371.7 313.5,-349.7 223.5,-349.7"/>
<text text-anchor="start" x="226.0043" y="-357.4" font-family="Helvetica,sans-Serif" font-size="11.00" fill="#000000">text[2147483647]</text>
<polygon fill="none" stroke="#000000" points="10.5,-327.7 10.5,-349.7 223.5,-349.7 223.5,-327.7 10.5,-327.7"/>
<text text-anchor="start" x="30.5" y="-334.8" font-family="Helvetica,sans-Serif" font-size="11.00" fill="#000000">aggregation_process_description</text>
<polygon fill="none" stroke="#000000" points="223.5,-327.7 223.5,-349.7 313.5,-349.7 313.5,-327.7 223.5,-327.7"/>
<text text-anchor="start" x="226.0043" y="-335.4" font-family="Helvetica,sans-Serif" font-size="11.00" fill="#000000">text[2147483647]</text>
<polygon fill="none" stroke="#000000" points="10.5,-305.7 10.5,-327.7 223.5,-327.7 223.5,-305.7 10.5,-305.7"/>
<text text-anchor="start" x="30.5" y="-312.8" font-family="Helvetica,sans-Serif" font-size="11.00" fill="#000000">aggregation_query_for_values</text>
<polygon fill="none" stroke="#000000" points="223.5,-305.7 223.5,-327.7 313.5,-327.7 313.5,-305.7 223.5,-305.7"/>
<text text-anchor="start" x="226.0043" y="-313.4" font-family="Helvetica,sans-Serif" font-size="11.00" fill="#000000">text[2147483647]</text>
<polygon fill="#ffffff" stroke="transparent" points="10.5,-286.7 10.5,-305.7 121.5,-305.7 121.5,-286.7 10.5,-286.7"/>
<polygon fill="none" stroke="#000000" points="10.5,-286.7 10.5,-305.7 121.5,-305.7 121.5,-286.7 10.5,-286.7"/>
<text text-anchor="start" x="13.5" y="-292.8" font-family="Helvetica,sans-Serif" font-size="11.00" fill="#000000">&lt; 0</text>
<polygon fill="#ffffff" stroke="transparent" points="121.5,-286.7 121.5,-305.7 223.5,-305.7 223.5,-286.7 121.5,-286.7"/>
<polygon fill="none" stroke="#000000" points="121.5,-286.7 121.5,-305.7 223.5,-305.7 223.5,-286.7 121.5,-286.7"/>
<text text-anchor="start" x="214.3862" y="-292.8" font-family="Helvetica,sans-Serif" font-size="11.00" fill="#000000"> &#160;</text>
<polygon fill="#ffffff" stroke="transparent" points="223.5,-286.7 223.5,-305.7 313.5,-305.7 313.5,-286.7 223.5,-286.7"/>
<polygon fill="none" stroke="#000000" points="223.5,-286.7 223.5,-305.7 313.5,-305.7 313.5,-286.7 223.5,-286.7"/>
<text text-anchor="start" x="294.9053" y="-292.8" font-family="Helvetica,sans-Serif" font-size="11.00" fill="#000000">3 &gt;</text>
<polygon fill="none" stroke="#000000" stroke-width="2" points="9,-285.7 9,-395.7 314,-395.7 314,-285.7 9,-285.7"/>
</a>
</g>
</g>
<!-- aggregation_process_computes_value_for_dimension&#45;&gt;aggregation_process -->
<g id="edge1" class="edge">
<title>aggregation_process_computes_value_for_dimension:w&#45;&gt;aggregation_process:e</title>
<path fill="none" stroke="#000000" d="M350.2601,-324.0877C336.5688,-334.6646 336.5379,-360.7 313.5,-360.7"/>
<polygon fill="#000000" stroke="#000000" points="356.3792,-322.1337 365.0952,-323.1294 360.1896,-320.9168 364,-319.7 364,-319.7 364,-319.7 360.1896,-320.9168 362.9048,-316.2706 356.3792,-322.1337 356.3792,-322.1337"/>
<ellipse fill="none" stroke="#000000" cx="353.3308" cy="-323.1072" rx="3.2" ry="3.2"/>
</g>
<!-- dq_dimension -->
<g id="node3" class="node">
<title>dq_dimension</title>
<g id="a_node3"><a xlink:href="../../tables/dq_dimension.html" xlink:title="dq_dimension" target="_top">
<polygon fill="#ffffff" stroke="transparent" points="101.5,-202.2 101.5,-263.2 221.5,-263.2 221.5,-202.2 101.5,-202.2"/>
<polygon fill="#f5f5f5" stroke="transparent" points="101.5,-239.7 101.5,-262.7 221.5,-262.7 221.5,-239.7 101.5,-239.7"/>
<polygon fill="none" stroke="#000000" points="101.5,-239.7 101.5,-262.7 221.5,-262.7 221.5,-239.7 101.5,-239.7"/>
<text text-anchor="start" x="106.5" y="-248.3" font-family="Helvetica,sans-Serif" font-weight="bold" font-size="11.00" fill="#000000">dq_dimension</text>
<text text-anchor="start" x="187.0219" y="-247.8" font-family="Helvetica,sans-Serif" font-size="11.00" fill="#000000">[table]</text>
<polygon fill="none" stroke="#000000" points="101.5,-220.7 101.5,-239.7 221.5,-239.7 221.5,-220.7 101.5,-220.7"/>
<text text-anchor="start" x="104.5" y="-226.8" font-family="Helvetica,sans-Serif" font-size="11.00" fill="#000000">...</text>
<polygon fill="#ffffff" stroke="transparent" points="101.5,-201.7 101.5,-220.7 155.5,-220.7 155.5,-201.7 101.5,-201.7"/>
<polygon fill="none" stroke="#000000" points="101.5,-201.7 101.5,-220.7 155.5,-220.7 155.5,-201.7 101.5,-201.7"/>
<text text-anchor="start" x="104.5" y="-207.8" font-family="Helvetica,sans-Serif" font-size="11.00" fill="#000000">&lt; 1</text>
<polygon fill="#ffffff" stroke="transparent" points="155.5,-201.7 155.5,-220.7 183.5,-220.7 183.5,-201.7 155.5,-201.7"/>
<polygon fill="none" stroke="#000000" points="155.5,-201.7 155.5,-220.7 183.5,-220.7 183.5,-201.7 155.5,-201.7"/>
<text text-anchor="start" x="174.3862" y="-207.8" font-family="Helvetica,sans-Serif" font-size="11.00" fill="#000000"> &#160;</text>
<polygon fill="#ffffff" stroke="transparent" points="183.5,-201.7 183.5,-220.7 221.5,-220.7 221.5,-201.7 183.5,-201.7"/>
<polygon fill="none" stroke="#000000" points="183.5,-201.7 183.5,-220.7 221.5,-220.7 221.5,-201.7 183.5,-201.7"/>
<text text-anchor="start" x="202.9053" y="-207.8" font-family="Helvetica,sans-Serif" font-size="11.00" fill="#000000">3 &gt;</text>
</a>
</g>
</g>
<!-- aggregation_process_computes_value_for_dimension&#45;&gt;dq_dimension -->
<g id="edge2" class="edge">
<title>aggregation_process_computes_value_for_dimension:w&#45;&gt;dq_dimension:e</title>
<path fill="none" stroke="#000000" d="M349.8746,-294.7129C340.8409,-290.1702 336.2817,-281.3512 323,-274.7 278.8775,-252.6044 270.8458,-229.7 221.5,-229.7"/>
<polygon fill="#000000" stroke="#000000" points="356.1731,-296.0448 363.2552,-301.2221 360.0865,-296.8724 364,-297.7 364,-297.7 364,-297.7 360.0865,-296.8724 364.7448,-294.1779 356.1731,-296.0448 356.1731,-296.0448"/>
<ellipse fill="none" stroke="#000000" cx="353.0423" cy="-295.3827" rx="3.2" ry="3.2"/>
</g>
<!-- aggregation_process_is_based_on -->
<g id="node4" class="node">
<title>aggregation_process_is_based_on</title>
<g id="a_node4"><a xlink:href="../../tables/aggregation_process_is_based_on.html" xlink:title="aggregation_process_is_based_on" target="_top">
<polygon fill="#ffffff" stroke="transparent" points="419.5,-415.7 419.5,-523.7 658.5,-523.7 658.5,-415.7 419.5,-415.7"/>
<polygon fill="#f5f5f5" stroke="transparent" points="420,-500.7 420,-523.7 659,-523.7 659,-500.7 420,-500.7"/>
<polygon fill="none" stroke="#000000" points="420,-500.7 420,-523.7 659,-523.7 659,-500.7 420,-500.7"/>
<text text-anchor="start" x="425" y="-509.3" font-family="Helvetica,sans-Serif" font-weight="bold" font-size="11.00" fill="#000000">aggregation_process_is_based_on</text>
<text text-anchor="start" x="624.5219" y="-508.8" font-family="Helvetica,sans-Serif" font-size="11.00" fill="#000000">[table]</text>
<polygon fill="none" stroke="#000000" points="420,-478.7 420,-500.7 659,-500.7 659,-478.7 420,-478.7"/>
<image xlink:href="../../images/primaryKeys.png" width="11px" height="12px" preserveAspectRatio="xMinYMin meet" x="425" y="-495.7"/>
<text text-anchor="start" x="449" y="-485.8" font-family="Helvetica,sans-Serif" font-size="11.00" fill="#000000">aggregation_process_name</text>
<polygon fill="none" stroke="#000000" points="420,-456.7 420,-478.7 659,-478.7 659,-456.7 420,-456.7"/>
<image xlink:href="../../images/primaryKeys.png" width="11px" height="12px" preserveAspectRatio="xMinYMin meet" x="425" y="-473.7"/>
<text text-anchor="start" x="449" y="-463.8" font-family="Helvetica,sans-Serif" font-size="11.00" fill="#000000">aggregation_constraint_name</text>
<polygon fill="none" stroke="#000000" points="420,-434.7 420,-456.7 659,-456.7 659,-434.7 420,-434.7"/>
<image xlink:href="../../images/foreignKeys.png" width="11px" height="12px" preserveAspectRatio="xMinYMin meet" x="425" y="-451.7"/>
<text text-anchor="start" x="449" y="-441.8" font-family="Helvetica,sans-Serif" font-size="11.00" fill="#000000">aggregation_function_name</text>
<polygon fill="#ffffff" stroke="transparent" points="420,-415.7 420,-434.7 538,-434.7 538,-415.7 420,-415.7"/>
<polygon fill="none" stroke="#000000" points="420,-415.7 420,-434.7 538,-434.7 538,-415.7 420,-415.7"/>
<text text-anchor="start" x="423" y="-421.8" font-family="Helvetica,sans-Serif" font-size="11.00" fill="#000000">&lt; 3</text>
<polygon fill="#ffffff" stroke="transparent" points="538,-415.7 538,-434.7 598,-434.7 598,-415.7 538,-415.7"/>
<polygon fill="none" stroke="#000000" points="538,-415.7 538,-434.7 598,-434.7 598,-415.7 538,-415.7"/>
<text text-anchor="start" x="588.8862" y="-421.8" font-family="Helvetica,sans-Serif" font-size="11.00" fill="#000000"> &#160;</text>
<polygon fill="#ffffff" stroke="transparent" points="598,-415.7 598,-434.7 659,-434.7 659,-415.7 598,-415.7"/>
<polygon fill="none" stroke="#000000" points="598,-415.7 598,-434.7 659,-434.7 659,-415.7 598,-415.7"/>
<text text-anchor="start" x="649.8862" y="-421.8" font-family="Helvetica,sans-Serif" font-size="11.00" fill="#000000"> &#160;</text>
</a>
</g>
</g>
<!-- aggregation_process_is_based_on&#45;&gt;aggregation_process -->
<g id="edge5" class="edge">
<title>aggregation_process_is_based_on:w&#45;&gt;aggregation_process:e</title>
<path fill="none" stroke="#000000" d="M405.6196,-487.7763C351.1424,-471.7291 382.4748,-360.7 313.5,-360.7"/>
<polygon fill="#000000" stroke="#000000" points="412.0706,-488.6392 419.5227,-493.2682 416.0353,-489.1696 420,-489.7 420,-489.7 420,-489.7 416.0353,-489.1696 420.4773,-486.1318 412.0706,-488.6392 412.0706,-488.6392"/>
<ellipse fill="none" stroke="#000000" cx="408.8989" cy="-488.2149" rx="3.2" ry="3.2"/>
</g>
<!-- aggregation_constraint -->
<g id="node5" class="node">
<title>aggregation_constraint</title>
<g id="a_node5"><a xlink:href="../../tables/aggregation_constraint.html" xlink:title="aggregation_constraint" target="_top">
<polygon fill="#ffffff" stroke="transparent" points="75.5,-500.2 75.5,-561.2 247.5,-561.2 247.5,-500.2 75.5,-500.2"/>
<polygon fill="#f5f5f5" stroke="transparent" points="75.5,-537.7 75.5,-560.7 247.5,-560.7 247.5,-537.7 75.5,-537.7"/>
<polygon fill="none" stroke="#000000" points="75.5,-537.7 75.5,-560.7 247.5,-560.7 247.5,-537.7 75.5,-537.7"/>
<text text-anchor="start" x="80.5" y="-546.3" font-family="Helvetica,sans-Serif" font-weight="bold" font-size="11.00" fill="#000000">aggregation_constraint</text>
<text text-anchor="start" x="213.0219" y="-545.8" font-family="Helvetica,sans-Serif" font-size="11.00" fill="#000000">[table]</text>
<polygon fill="none" stroke="#000000" points="75.5,-518.7 75.5,-537.7 247.5,-537.7 247.5,-518.7 75.5,-518.7"/>
<text text-anchor="start" x="78.5" y="-524.8" font-family="Helvetica,sans-Serif" font-size="11.00" fill="#000000">...</text>
<polygon fill="#ffffff" stroke="transparent" points="75.5,-499.7 75.5,-518.7 155.5,-518.7 155.5,-499.7 75.5,-499.7"/>
<polygon fill="none" stroke="#000000" points="75.5,-499.7 75.5,-518.7 155.5,-518.7 155.5,-499.7 75.5,-499.7"/>
<text text-anchor="start" x="78.5" y="-505.8" font-family="Helvetica,sans-Serif" font-size="11.00" fill="#000000">&lt; 1</text>
<polygon fill="#ffffff" stroke="transparent" points="155.5,-499.7 155.5,-518.7 196.5,-518.7 196.5,-499.7 155.5,-499.7"/>
<polygon fill="none" stroke="#000000" points="155.5,-499.7 155.5,-518.7 196.5,-518.7 196.5,-499.7 155.5,-499.7"/>
<text text-anchor="start" x="187.3862" y="-505.8" font-family="Helvetica,sans-Serif" font-size="11.00" fill="#000000"> &#160;</text>
<polygon fill="#ffffff" stroke="transparent" points="196.5,-499.7 196.5,-518.7 247.5,-518.7 247.5,-499.7 196.5,-499.7"/>
<polygon fill="none" stroke="#000000" points="196.5,-499.7 196.5,-518.7 247.5,-518.7 247.5,-499.7 196.5,-499.7"/>
<text text-anchor="start" x="228.9053" y="-505.8" font-family="Helvetica,sans-Serif" font-size="11.00" fill="#000000">1 &gt;</text>
</a>
</g>
</g>
<!-- aggregation_process_is_based_on&#45;&gt;aggregation_constraint -->
<g id="edge3" class="edge">
<title>aggregation_process_is_based_on:w&#45;&gt;aggregation_constraint:e</title>
<path fill="none" stroke="#000000" d="M405.5778,-468.3738C337.2811,-474.9656 323.5987,-527.7 247.5,-527.7"/>
<polygon fill="#000000" stroke="#000000" points="412.0087,-468.0734 420.168,-471.2961 416.0044,-467.8867 420,-467.7 420,-467.7 420,-467.7 416.0044,-467.8867 419.832,-464.1039 412.0087,-468.0734 412.0087,-468.0734"/>
<ellipse fill="none" stroke="#000000" cx="408.8122" cy="-468.2228" rx="3.2" ry="3.2"/>
</g>
<!-- aggregation_function -->
<g id="node6" class="node">
<title>aggregation_function</title>
<g id="a_node6"><a xlink:href="../../tables/aggregation_function.html" xlink:title="aggregation_function" target="_top">
<polygon fill="#ffffff" stroke="transparent" points="81,-418.2 81,-479.2 242,-479.2 242,-418.2 81,-418.2"/>
<polygon fill="#f5f5f5" stroke="transparent" points="81.5,-455.7 81.5,-478.7 242.5,-478.7 242.5,-455.7 81.5,-455.7"/>
<polygon fill="none" stroke="#000000" points="81.5,-455.7 81.5,-478.7 242.5,-478.7 242.5,-455.7 81.5,-455.7"/>
<text text-anchor="start" x="86.5" y="-464.3" font-family="Helvetica,sans-Serif" font-weight="bold" font-size="11.00" fill="#000000">aggregation_function</text>
<text text-anchor="start" x="208.0219" y="-463.8" font-family="Helvetica,sans-Serif" font-size="11.00" fill="#000000">[table]</text>
<polygon fill="none" stroke="#000000" points="81.5,-436.7 81.5,-455.7 242.5,-455.7 242.5,-436.7 81.5,-436.7"/>
<text text-anchor="start" x="84.5" y="-442.8" font-family="Helvetica,sans-Serif" font-size="11.00" fill="#000000">...</text>
<polygon fill="#ffffff" stroke="transparent" points="81.5,-417.7 81.5,-436.7 155.5,-436.7 155.5,-417.7 81.5,-417.7"/>
<polygon fill="none" stroke="#000000" points="81.5,-417.7 81.5,-436.7 155.5,-436.7 155.5,-417.7 81.5,-417.7"/>
<text text-anchor="start" x="84.5" y="-423.8" font-family="Helvetica,sans-Serif" font-size="11.00" fill="#000000">&lt; 2</text>
<polygon fill="#ffffff" stroke="transparent" points="155.5,-417.7 155.5,-436.7 194.5,-436.7 194.5,-417.7 155.5,-417.7"/>
<polygon fill="none" stroke="#000000" points="155.5,-417.7 155.5,-436.7 194.5,-436.7 194.5,-417.7 155.5,-417.7"/>
<text text-anchor="start" x="185.3862" y="-423.8" font-family="Helvetica,sans-Serif" font-size="11.00" fill="#000000"> &#160;</text>
<polygon fill="#ffffff" stroke="transparent" points="194.5,-417.7 194.5,-436.7 242.5,-436.7 242.5,-417.7 194.5,-417.7"/>
<polygon fill="none" stroke="#000000" points="194.5,-417.7 194.5,-436.7 242.5,-436.7 242.5,-417.7 194.5,-417.7"/>
<text text-anchor="start" x="223.9053" y="-423.8" font-family="Helvetica,sans-Serif" font-size="11.00" fill="#000000">1 &gt;</text>
</a>
</g>
</g>
<!-- aggregation_process_is_based_on&#45;&gt;aggregation_function -->
<g id="edge4" class="edge">
<title>aggregation_process_is_based_on:w&#45;&gt;aggregation_function:e</title>
<path fill="none" stroke="#000000" d="M405.4518,-445.7C338.323,-445.7 316.3043,-445.7 242.5,-445.7"/>
<polygon fill="#000000" stroke="#000000" points="412,-445.7001 420,-449.3 416,-445.7 420,-445.7 420,-445.7 420,-445.7 416,-445.7 420,-442.1 412,-445.7001 412,-445.7001"/>
<ellipse fill="none" stroke="#000000" cx="408.8" cy="-445.7001" rx="3.2" ry="3.2"/>
</g>
<!-- dq_result -->
<g id="node7" class="node">
<title>dq_result</title>
<g id="a_node7"><a xlink:href="../../tables/dq_result.html" xlink:title="dq_result" target="_top">
<polygon fill="#ffffff" stroke="transparent" points="418,-55.2 418,-204.2 660,-204.2 660,-55.2 418,-55.2"/>
<polygon fill="#f5f5f5" stroke="transparent" points="418,-180.7 418,-203.7 660,-203.7 660,-180.7 418,-180.7"/>
<polygon fill="none" stroke="#000000" points="418,-180.7 418,-203.7 660,-203.7 660,-180.7 418,-180.7"/>
<text text-anchor="start" x="423" y="-189.3" font-family="Helvetica,sans-Serif" font-weight="bold" font-size="11.00" fill="#000000">dq_result</text>
<text text-anchor="start" x="625.0437" y="-188.8" font-family="Helvetica,sans-Serif" font-size="11.00" fill="#000000">[table]</text>
<polygon fill="#ffffff" stroke="transparent" points="418,-158.7 418,-180.7 660,-180.7 660,-158.7 418,-158.7"/>
<polygon fill="none" stroke="#000000" points="418,-158.7 418,-180.7 660,-180.7 660,-158.7 418,-158.7"/>
<text text-anchor="start" x="438" y="-165.8" font-family="Helvetica,sans-Serif" font-size="11.00" fill="#000000">creation_timestamp</text>
<polygon fill="#ffffff" stroke="transparent" points="418,-136.7 418,-158.7 660,-158.7 660,-136.7 418,-136.7"/>
<polygon fill="none" stroke="#000000" points="418,-136.7 418,-158.7 660,-158.7 660,-136.7 418,-136.7"/>
<image xlink:href="../../images/foreignKeys.png" width="11px" height="12px" preserveAspectRatio="xMinYMin meet" x="423" y="-153.7"/>
<text text-anchor="start" x="438" y="-143.8" font-family="Helvetica,sans-Serif" font-size="11.00" fill="#000000">computed_on_data_element_global_id</text>
<polygon fill="#ffffff" stroke="transparent" points="418,-114.7 418,-136.7 660,-136.7 660,-114.7 418,-114.7"/>
<polygon fill="none" stroke="#000000" points="418,-114.7 418,-136.7 660,-136.7 660,-114.7 418,-114.7"/>
<image xlink:href="../../images/foreignKeys.png" width="11px" height="12px" preserveAspectRatio="xMinYMin meet" x="423" y="-131.7"/>
<text text-anchor="start" x="438" y="-121.8" font-family="Helvetica,sans-Serif" font-size="11.00" fill="#000000">calculated_by_dq_metric</text>
<polygon fill="none" stroke="#000000" points="418,-92.7 418,-114.7 660,-114.7 660,-92.7 418,-92.7"/>
<image xlink:href="../../images/foreignKeys.png" width="11px" height="12px" preserveAspectRatio="xMinYMin meet" x="423" y="-109.7"/>
<text text-anchor="start" x="438" y="-99.8" font-family="Helvetica,sans-Serif" font-size="11.00" fill="#000000">calculated_by_aggregation_process</text>
<polygon fill="none" stroke="#000000" points="418,-73.7 418,-92.7 660,-92.7 660,-73.7 418,-73.7"/>
<text text-anchor="start" x="421" y="-79.8" font-family="Helvetica,sans-Serif" font-size="11.00" fill="#000000">...</text>
<polygon fill="#ffffff" stroke="transparent" points="418,-54.7 418,-73.7 537,-73.7 537,-54.7 418,-54.7"/>
<polygon fill="none" stroke="#000000" points="418,-54.7 418,-73.7 537,-73.7 537,-54.7 418,-54.7"/>
<text text-anchor="start" x="421" y="-60.8" font-family="Helvetica,sans-Serif" font-size="11.00" fill="#000000">&lt; 3</text>
<polygon fill="#ffffff" stroke="transparent" points="537,-54.7 537,-73.7 598,-73.7 598,-54.7 537,-54.7"/>
<polygon fill="none" stroke="#000000" points="537,-54.7 537,-73.7 598,-73.7 598,-54.7 537,-54.7"/>
<text text-anchor="start" x="588.8862" y="-60.8" font-family="Helvetica,sans-Serif" font-size="11.00" fill="#000000"> &#160;</text>
<polygon fill="#ffffff" stroke="transparent" points="598,-54.7 598,-73.7 660,-73.7 660,-54.7 598,-54.7"/>
<polygon fill="none" stroke="#000000" points="598,-54.7 598,-73.7 660,-73.7 660,-54.7 598,-54.7"/>
<text text-anchor="start" x="650.8862" y="-60.8" font-family="Helvetica,sans-Serif" font-size="11.00" fill="#000000"> &#160;</text>
</a>
</g>
</g>
<!-- dq_result&#45;&gt;aggregation_process -->
<g id="edge6" class="edge">
<title>dq_result:w&#45;&gt;aggregation_process:e</title>
<path fill="none" stroke="#000000" d="M411.6829,-116.798C389.417,-169.1696 316.8264,-360.7 313.5,-360.7"/>
<polygon fill="#000000" stroke="#000000" points="414.5247,-110.9057 421.2426,-105.2639 416.2623,-107.3029 418,-103.7 418,-103.7 418,-103.7 416.2623,-107.3029 414.7574,-102.1361 414.5247,-110.9057 414.5247,-110.9057"/>
<ellipse fill="none" stroke="#000000" cx="413.1345" cy="-113.788" rx="3.2" ry="3.2"/>
</g>
<!-- dq_metric -->
<g id="node8" class="node">
<title>dq_metric</title>
<g id="a_node8"><a xlink:href="../../tables/dq_metric.html" xlink:title="dq_metric" target="_top">
<polygon fill="#ffffff" stroke="transparent" points="113.5,-38.2 113.5,-99.2 209.5,-99.2 209.5,-38.2 113.5,-38.2"/>
<polygon fill="#f5f5f5" stroke="transparent" points="113.5,-75.7 113.5,-98.7 209.5,-98.7 209.5,-75.7 113.5,-75.7"/>
<polygon fill="none" stroke="#000000" points="113.5,-75.7 113.5,-98.7 209.5,-98.7 209.5,-75.7 113.5,-75.7"/>
<text text-anchor="start" x="118.5" y="-84.3" font-family="Helvetica,sans-Serif" font-weight="bold" font-size="11.00" fill="#000000">dq_metric</text>
<text text-anchor="start" x="175.0219" y="-83.8" font-family="Helvetica,sans-Serif" font-size="11.00" fill="#000000">[table]</text>
<polygon fill="none" stroke="#000000" points="113.5,-56.7 113.5,-75.7 209.5,-75.7 209.5,-56.7 113.5,-56.7"/>
<text text-anchor="start" x="116.5" y="-62.8" font-family="Helvetica,sans-Serif" font-size="11.00" fill="#000000">...</text>
<polygon fill="#ffffff" stroke="transparent" points="113.5,-37.7 113.5,-56.7 155.5,-56.7 155.5,-37.7 113.5,-37.7"/>
<polygon fill="none" stroke="#000000" points="113.5,-37.7 113.5,-56.7 155.5,-56.7 155.5,-37.7 113.5,-37.7"/>
<text text-anchor="start" x="116.5" y="-43.8" font-family="Helvetica,sans-Serif" font-size="11.00" fill="#000000">&lt; 1</text>
<polygon fill="#ffffff" stroke="transparent" points="155.5,-37.7 155.5,-56.7 177.5,-56.7 177.5,-37.7 155.5,-37.7"/>
<polygon fill="none" stroke="#000000" points="155.5,-37.7 155.5,-56.7 177.5,-56.7 177.5,-37.7 155.5,-37.7"/>
<text text-anchor="start" x="168.3862" y="-43.8" font-family="Helvetica,sans-Serif" font-size="11.00" fill="#000000"> &#160;</text>
<polygon fill="#ffffff" stroke="transparent" points="177.5,-37.7 177.5,-56.7 209.5,-56.7 209.5,-37.7 177.5,-37.7"/>
<polygon fill="none" stroke="#000000" points="177.5,-37.7 177.5,-56.7 209.5,-56.7 209.5,-37.7 177.5,-37.7"/>
<text text-anchor="start" x="190.9053" y="-43.8" font-family="Helvetica,sans-Serif" font-size="11.00" fill="#000000">2 &gt;</text>
</a>
</g>
</g>
<!-- dq_result&#45;&gt;dq_metric -->
<g id="edge7" class="edge">
<title>dq_result:w&#45;&gt;dq_metric:e</title>
<path fill="none" stroke="#000000" d="M403.3952,-125.217C319.698,-119.5387 300.8423,-65.7 209.5,-65.7"/>
<polygon fill="#000000" stroke="#000000" points="410.0044,-125.4355 417.881,-129.298 414.0022,-125.5678 418,-125.7 418,-125.7 418,-125.7 414.0022,-125.5678 418.119,-122.102 410.0044,-125.4355 410.0044,-125.4355"/>
<ellipse fill="none" stroke="#000000" cx="406.8061" cy="-125.3298" rx="3.2" ry="3.2"/>
</g>
<!-- data_element -->
<g id="node9" class="node">
<title>data_element</title>
<g id="a_node9"><a xlink:href="../../tables/data_element.html" xlink:title="data_element" target="_top">
<polygon fill="#ffffff" stroke="transparent" points="104,-120.2 104,-181.2 219,-181.2 219,-120.2 104,-120.2"/>
<polygon fill="#f5f5f5" stroke="transparent" points="104.5,-157.7 104.5,-180.7 219.5,-180.7 219.5,-157.7 104.5,-157.7"/>
<polygon fill="none" stroke="#000000" points="104.5,-157.7 104.5,-180.7 219.5,-180.7 219.5,-157.7 104.5,-157.7"/>
<text text-anchor="start" x="109.5" y="-166.3" font-family="Helvetica,sans-Serif" font-weight="bold" font-size="11.00" fill="#000000">data_element</text>
<text text-anchor="start" x="185.0219" y="-165.8" font-family="Helvetica,sans-Serif" font-size="11.00" fill="#000000">[table]</text>
<polygon fill="none" stroke="#000000" points="104.5,-138.7 104.5,-157.7 219.5,-157.7 219.5,-138.7 104.5,-138.7"/>
<text text-anchor="start" x="107.5" y="-144.8" font-family="Helvetica,sans-Serif" font-size="11.00" fill="#000000">...</text>
<polygon fill="#ffffff" stroke="transparent" points="104.5,-119.7 104.5,-138.7 155.5,-138.7 155.5,-119.7 104.5,-119.7"/>
<polygon fill="none" stroke="#000000" points="104.5,-119.7 104.5,-138.7 155.5,-138.7 155.5,-119.7 104.5,-119.7"/>
<text text-anchor="start" x="107.5" y="-125.8" font-family="Helvetica,sans-Serif" font-size="11.00" fill="#000000">&lt; 2</text>
<polygon fill="#ffffff" stroke="transparent" points="155.5,-119.7 155.5,-138.7 182.5,-138.7 182.5,-119.7 155.5,-119.7"/>
<polygon fill="none" stroke="#000000" points="155.5,-119.7 155.5,-138.7 182.5,-138.7 182.5,-119.7 155.5,-119.7"/>
<text text-anchor="start" x="173.3862" y="-125.8" font-family="Helvetica,sans-Serif" font-size="11.00" fill="#000000"> &#160;</text>
<polygon fill="#ffffff" stroke="transparent" points="182.5,-119.7 182.5,-138.7 219.5,-138.7 219.5,-119.7 182.5,-119.7"/>
<polygon fill="none" stroke="#000000" points="182.5,-119.7 182.5,-138.7 219.5,-138.7 219.5,-119.7 182.5,-119.7"/>
<text text-anchor="start" x="200.9053" y="-125.8" font-family="Helvetica,sans-Serif" font-size="11.00" fill="#000000">2 &gt;</text>
</a>
</g>
</g>
<!-- dq_result&#45;&gt;data_element -->
<g id="edge8" class="edge">
<title>dq_result:w&#45;&gt;data_element:e</title>
<path fill="none" stroke="#000000" d="M403.1471,-147.7C326.966,-147.7 302.553,-147.7 219.5,-147.7"/>
<polygon fill="#000000" stroke="#000000" points="410,-147.7001 418,-151.3 414,-147.7 418,-147.7 418,-147.7 418,-147.7 414,-147.7 418,-144.1 410,-147.7001 410,-147.7001"/>
<ellipse fill="none" stroke="#000000" cx="406.8" cy="-147.7001" rx="3.2" ry="3.2"/>
</g>
</g>
</svg>
