<?xml version="1.0" encoding="UTF-8" standalone="no"?>
<!DOCTYPE svg PUBLIC "-//W3C//DTD SVG 1.1//EN"
 "http://www.w3.org/Graphics/SVG/1.1/DTD/svg11.dtd">
<!-- Generated by graphviz version 2.40.1 (20161225.0304)
 -->
<!-- Title: oneDegreeRelationshipsDiagram Pages: 1 -->
<svg width="613pt" height="407pt"
 viewBox="0.00 0.00 613.00 407.20" xmlns="http://www.w3.org/2000/svg" xmlns:xlink="http://www.w3.org/1999/xlink">
<g id="graph0" class="graph" transform="scale(1 1) rotate(0) translate(4 403.2)">
<title>oneDegreeRelationshipsDiagram</title>
<polygon fill="#ffffff" stroke="transparent" points="-4,4 -4,-403.2 609,-403.2 609,4 -4,4"/>
<text text-anchor="middle" x="72.4936" y="-7.3" font-family="Helvetica,sans-Serif" font-size="11.00" fill="#000000">Generated by SchemaSpy</text>
<!-- aggregation_process_is_based_on -->
<g id="node1" class="node">
<title>aggregation_process_is_based_on</title>
<g id="a_node1"><a xlink:href="../../tables/aggregation_process_is_based_on.html" xlink:title="aggregation_process_is_based_on" target="_top">
<polygon fill="#ffffff" stroke="transparent" points="282,-202.7 282,-314.7 597,-314.7 597,-202.7 282,-202.7"/>
<polygon fill="#f5f5f5" stroke="transparent" points="284.5,-289.7 284.5,-312.7 595.5,-312.7 595.5,-289.7 284.5,-289.7"/>
<polygon fill="none" stroke="#000000" points="284.5,-289.7 284.5,-312.7 595.5,-312.7 595.5,-289.7 284.5,-289.7"/>
<text text-anchor="start" x="289.5" y="-298.3" font-family="Helvetica,sans-Serif" font-weight="bold" font-size="11.00" fill="#000000">aggregation_process_is_based_on</text>
<text text-anchor="start" x="560.5437" y="-297.8" font-family="Helvetica,sans-Serif" font-size="11.00" fill="#000000">[table]</text>
<polygon fill="none" stroke="#000000" points="284.5,-267.7 284.5,-289.7 505.5,-289.7 505.5,-267.7 284.5,-267.7"/>
<image xlink:href="../../images/primaryKeys.png" width="11px" height="12px" preserveAspectRatio="xMinYMin meet" x="289.5" y="-284.7"/>
<text text-anchor="start" x="304.5" y="-274.8" font-family="Helvetica,sans-Serif" font-size="11.00" fill="#000000">aggregation_process_name</text>
<polygon fill="none" stroke="#000000" points="505.5,-267.7 505.5,-289.7 595.5,-289.7 595.5,-267.7 505.5,-267.7"/>
<text text-anchor="start" x="508.0043" y="-275.4" font-family="Helvetica,sans-Serif" font-size="11.00" fill="#000000">text[2147483647]</text>
<polygon fill="none" stroke="#000000" points="284.5,-245.7 284.5,-267.7 505.5,-267.7 505.5,-245.7 284.5,-245.7"/>
<image xlink:href="../../images/primaryKeys.png" width="11px" height="12px" preserveAspectRatio="xMinYMin meet" x="289.5" y="-262.7"/>
<text text-anchor="start" x="304.5" y="-252.8" font-family="Helvetica,sans-Serif" font-size="11.00" fill="#000000">aggregation_constraint_name</text>
<polygon fill="none" stroke="#000000" points="505.5,-245.7 505.5,-267.7 595.5,-267.7 595.5,-245.7 505.5,-245.7"/>
<text text-anchor="start" x="508.0043" y="-253.4" font-family="Helvetica,sans-Serif" font-size="11.00" fill="#000000">text[2147483647]</text>
<polygon fill="none" stroke="#000000" points="284.5,-223.7 284.5,-245.7 505.5,-245.7 505.5,-223.7 284.5,-223.7"/>
<image xlink:href="../../images/foreignKeys.png" width="11px" height="12px" preserveAspectRatio="xMinYMin meet" x="289.5" y="-240.7"/>
<text text-anchor="start" x="304.5" y="-230.8" font-family="Helvetica,sans-Serif" font-size="11.00" fill="#000000">aggregation_function_name</text>
<polygon fill="none" stroke="#000000" points="505.5,-223.7 505.5,-245.7 595.5,-245.7 595.5,-223.7 505.5,-223.7"/>
<text text-anchor="start" x="508.0043" y="-231.4" font-family="Helvetica,sans-Serif" font-size="11.00" fill="#000000">text[2147483647]</text>
<polygon fill="#ffffff" stroke="transparent" points="284.5,-204.7 284.5,-223.7 399.5,-223.7 399.5,-204.7 284.5,-204.7"/>
<polygon fill="none" stroke="#000000" points="284.5,-204.7 284.5,-223.7 399.5,-223.7 399.5,-204.7 284.5,-204.7"/>
<text text-anchor="start" x="287.5" y="-210.8" font-family="Helvetica,sans-Serif" font-size="11.00" fill="#000000">&lt; 3</text>
<polygon fill="#ffffff" stroke="transparent" points="399.5,-204.7 399.5,-223.7 505.5,-223.7 505.5,-204.7 399.5,-204.7"/>
<polygon fill="none" stroke="#000000" points="399.5,-204.7 399.5,-223.7 505.5,-223.7 505.5,-204.7 399.5,-204.7"/>
<text text-anchor="start" x="496.3862" y="-210.8" font-family="Helvetica,sans-Serif" font-size="11.00" fill="#000000"> &#160;</text>
<polygon fill="#ffffff" stroke="transparent" points="505.5,-204.7 505.5,-223.7 595.5,-223.7 595.5,-204.7 505.5,-204.7"/>
<polygon fill="none" stroke="#000000" points="505.5,-204.7 505.5,-223.7 595.5,-223.7 595.5,-204.7 505.5,-204.7"/>
<text text-anchor="start" x="576.9053" y="-210.8" font-family="Helvetica,sans-Serif" font-size="11.00" fill="#000000">0 &gt;</text>
<polygon fill="none" stroke="#000000" stroke-width="2" points="283,-203.7 283,-313.7 596,-313.7 596,-203.7 283,-203.7"/>
</a>
</g>
</g>
<!-- aggregation_constraint -->
<g id="node2" class="node">
<title>aggregation_constraint</title>
<g id="a_node2"><a xlink:href="../../tables/aggregation_constraint.html" xlink:title="aggregation_constraint" target="_top">
<polygon fill="#ffffff" stroke="transparent" points="8,-186.2 8,-291.2 233,-291.2 233,-186.2 8,-186.2"/>
<polygon fill="#f5f5f5" stroke="transparent" points="8.5,-267.7 8.5,-290.7 233.5,-290.7 233.5,-267.7 8.5,-267.7"/>
<polygon fill="none" stroke="#000000" points="8.5,-267.7 8.5,-290.7 233.5,-290.7 233.5,-267.7 8.5,-267.7"/>
<text text-anchor="start" x="13.5" y="-276.3" font-family="Helvetica,sans-Serif" font-weight="bold" font-size="11.00" fill="#000000">aggregation_constraint</text>
<text text-anchor="start" x="198.5437" y="-275.8" font-family="Helvetica,sans-Serif" font-size="11.00" fill="#000000">[table]</text>
<polygon fill="none" stroke="#000000" points="8.5,-245.7 8.5,-267.7 233.5,-267.7 233.5,-245.7 8.5,-245.7"/>
<image xlink:href="../../images/primaryKeys.png" width="11px" height="12px" preserveAspectRatio="xMinYMin meet" x="13.5" y="-262.7"/>
<text text-anchor="start" x="28.5" y="-252.8" font-family="Helvetica,sans-Serif" font-size="11.00" fill="#000000">aggregation_constraint_name</text>
<polygon fill="none" stroke="#000000" points="8.5,-223.7 8.5,-245.7 233.5,-245.7 233.5,-223.7 8.5,-223.7"/>
<image xlink:href="../../images/foreignKeys.png" width="11px" height="12px" preserveAspectRatio="xMinYMin meet" x="13.5" y="-240.7"/>
<text text-anchor="start" x="28.5" y="-230.8" font-family="Helvetica,sans-Serif" font-size="11.00" fill="#000000">covers_level_of_data_granularity</text>
<polygon fill="none" stroke="#000000" points="8.5,-204.7 8.5,-223.7 233.5,-223.7 233.5,-204.7 8.5,-204.7"/>
<text text-anchor="start" x="11.5" y="-210.8" font-family="Helvetica,sans-Serif" font-size="11.00" fill="#000000">...</text>
<polygon fill="#ffffff" stroke="transparent" points="8.5,-185.7 8.5,-204.7 114.5,-204.7 114.5,-185.7 8.5,-185.7"/>
<polygon fill="none" stroke="#000000" points="8.5,-185.7 8.5,-204.7 114.5,-204.7 114.5,-185.7 8.5,-185.7"/>
<text text-anchor="start" x="11.5" y="-191.8" font-family="Helvetica,sans-Serif" font-size="11.00" fill="#000000">&lt; 1</text>
<polygon fill="#ffffff" stroke="transparent" points="114.5,-185.7 114.5,-204.7 169.5,-204.7 169.5,-185.7 114.5,-185.7"/>
<polygon fill="none" stroke="#000000" points="114.5,-185.7 114.5,-204.7 169.5,-204.7 169.5,-185.7 114.5,-185.7"/>
<text text-anchor="start" x="160.3862" y="-191.8" font-family="Helvetica,sans-Serif" font-size="11.00" fill="#000000"> &#160;</text>
<polygon fill="#ffffff" stroke="transparent" points="169.5,-185.7 169.5,-204.7 233.5,-204.7 233.5,-185.7 169.5,-185.7"/>
<polygon fill="none" stroke="#000000" points="169.5,-185.7 169.5,-204.7 233.5,-204.7 233.5,-185.7 169.5,-185.7"/>
<text text-anchor="start" x="214.9053" y="-191.8" font-family="Helvetica,sans-Serif" font-size="11.00" fill="#000000">1 &gt;</text>
</a>
</g>
</g>
<!-- aggregation_process_is_based_on&#45;&gt;aggregation_constraint -->
<g id="edge1" class="edge">
<title>aggregation_process_is_based_on:w&#45;&gt;aggregation_constraint:e</title>
<path fill="none" stroke="#000000" d="M269.776,-256.7C257.7815,-256.7 250.3229,-256.7 233.5,-256.7"/>
<polygon fill="#000000" stroke="#000000" points="276.5,-256.7001 284.5,-260.3 280.5,-256.7 284.5,-256.7 284.5,-256.7 284.5,-256.7 280.5,-256.7 284.5,-253.1 276.5,-256.7001 276.5,-256.7001"/>
<ellipse fill="none" stroke="#000000" cx="273.3" cy="-256.7001" rx="3.2" ry="3.2"/>
</g>
<!-- aggregation_function -->
<g id="node3" class="node">
<title>aggregation_function</title>
<g id="a_node3"><a xlink:href="../../tables/aggregation_function.html" xlink:title="aggregation_function" target="_top">
<polygon fill="#ffffff" stroke="transparent" points="13,-38.2 13,-165.2 228,-165.2 228,-38.2 13,-38.2"/>
<polygon fill="#f5f5f5" stroke="transparent" points="13.5,-141.7 13.5,-164.7 228.5,-164.7 228.5,-141.7 13.5,-141.7"/>
<polygon fill="none" stroke="#000000" points="13.5,-141.7 13.5,-164.7 228.5,-164.7 228.5,-141.7 13.5,-141.7"/>
<text text-anchor="start" x="18.5" y="-150.3" font-family="Helvetica,sans-Serif" font-weight="bold" font-size="11.00" fill="#000000">aggregation_function</text>
<text text-anchor="start" x="193.5437" y="-149.8" font-family="Helvetica,sans-Serif" font-size="11.00" fill="#000000">[table]</text>
<polygon fill="none" stroke="#000000" points="13.5,-119.7 13.5,-141.7 228.5,-141.7 228.5,-119.7 13.5,-119.7"/>
<image xlink:href="../../images/primaryKeys.png" width="11px" height="12px" preserveAspectRatio="xMinYMin meet" x="18.5" y="-136.7"/>
<text text-anchor="start" x="33.5" y="-126.8" font-family="Helvetica,sans-Serif" font-size="11.00" fill="#000000">aggregation_function_name</text>
<polygon fill="none" stroke="#000000" points="13.5,-97.7 13.5,-119.7 228.5,-119.7 228.5,-97.7 13.5,-97.7"/>
<image xlink:href="../../images/foreignKeys.png" width="11px" height="12px" preserveAspectRatio="xMinYMin meet" x="18.5" y="-114.7"/>
<text text-anchor="start" x="33.5" y="-104.8" font-family="Helvetica,sans-Serif" font-size="11.00" fill="#000000">source_level_of_data_granularity</text>
<polygon fill="none" stroke="#000000" points="13.5,-75.7 13.5,-97.7 228.5,-97.7 228.5,-75.7 13.5,-75.7"/>
<image xlink:href="../../images/foreignKeys.png" width="11px" height="12px" preserveAspectRatio="xMinYMin meet" x="18.5" y="-92.7"/>
<text text-anchor="start" x="33.5" y="-82.8" font-family="Helvetica,sans-Serif" font-size="11.00" fill="#000000">target_level_of_data_granularity</text>
<polygon fill="none" stroke="#000000" points="13.5,-56.7 13.5,-75.7 228.5,-75.7 228.5,-56.7 13.5,-56.7"/>
<text text-anchor="start" x="16.5" y="-62.8" font-family="Helvetica,sans-Serif" font-size="11.00" fill="#000000">...</text>
<polygon fill="#ffffff" stroke="transparent" points="13.5,-37.7 13.5,-56.7 114.5,-56.7 114.5,-37.7 13.5,-37.7"/>
<polygon fill="none" stroke="#000000" points="13.5,-37.7 13.5,-56.7 114.5,-56.7 114.5,-37.7 13.5,-37.7"/>
<text text-anchor="start" x="16.5" y="-43.8" font-family="Helvetica,sans-Serif" font-size="11.00" fill="#000000">&lt; 2</text>
<polygon fill="#ffffff" stroke="transparent" points="114.5,-37.7 114.5,-56.7 166.5,-56.7 166.5,-37.7 114.5,-37.7"/>
<polygon fill="none" stroke="#000000" points="114.5,-37.7 114.5,-56.7 166.5,-56.7 166.5,-37.7 114.5,-37.7"/>
<text text-anchor="start" x="157.3862" y="-43.8" font-family="Helvetica,sans-Serif" font-size="11.00" fill="#000000"> &#160;</text>
<polygon fill="#ffffff" stroke="transparent" points="166.5,-37.7 166.5,-56.7 228.5,-56.7 228.5,-37.7 166.5,-37.7"/>
<polygon fill="none" stroke="#000000" points="166.5,-37.7 166.5,-56.7 228.5,-56.7 228.5,-37.7 166.5,-37.7"/>
<text text-anchor="start" x="209.9053" y="-43.8" font-family="Helvetica,sans-Serif" font-size="11.00" fill="#000000">1 &gt;</text>
</a>
</g>
</g>
<!-- aggregation_process_is_based_on&#45;&gt;aggregation_function -->
<g id="edge2" class="edge">
<title>aggregation_process_is_based_on:w&#45;&gt;aggregation_function:e</title>
<path fill="none" stroke="#000000" d="M270.2713,-230.9986C241.8007,-212.4721 275.0502,-130.7 228.5,-130.7"/>
<polygon fill="#000000" stroke="#000000" points="276.7577,-232.6859 283.5937,-238.184 280.6288,-233.6929 284.5,-234.7 284.5,-234.7 284.5,-234.7 280.6288,-233.6929 285.4063,-231.216 276.7577,-232.6859 276.7577,-232.6859"/>
<ellipse fill="none" stroke="#000000" cx="273.6607" cy="-231.8802" rx="3.2" ry="3.2"/>
</g>
<!-- aggregation_process -->
<g id="node4" class="node">
<title>aggregation_process</title>
<g id="a_node4"><a xlink:href="../../tables/aggregation_process.html" xlink:title="aggregation_process" target="_top">
<polygon fill="#ffffff" stroke="transparent" points="14,-312.2 14,-395.2 227,-395.2 227,-312.2 14,-312.2"/>
<polygon fill="#f5f5f5" stroke="transparent" points="14.5,-371.7 14.5,-394.7 227.5,-394.7 227.5,-371.7 14.5,-371.7"/>
<polygon fill="none" stroke="#000000" points="14.5,-371.7 14.5,-394.7 227.5,-394.7 227.5,-371.7 14.5,-371.7"/>
<text text-anchor="start" x="19.5" y="-380.3" font-family="Helvetica,sans-Serif" font-weight="bold" font-size="11.00" fill="#000000">aggregation_process</text>
<text text-anchor="start" x="192.5437" y="-379.8" font-family="Helvetica,sans-Serif" font-size="11.00" fill="#000000">[table]</text>
<polygon fill="none" stroke="#000000" points="14.5,-349.7 14.5,-371.7 227.5,-371.7 227.5,-349.7 14.5,-349.7"/>
<image xlink:href="../../images/primaryKeys.png" width="11px" height="12px" preserveAspectRatio="xMinYMin meet" x="19.5" y="-366.7"/>
<text text-anchor="start" x="34.5" y="-356.8" font-family="Helvetica,sans-Serif" font-size="11.00" fill="#000000">aggregation_process_name</text>
<polygon fill="none" stroke="#000000" points="14.5,-330.7 14.5,-349.7 227.5,-349.7 227.5,-330.7 14.5,-330.7"/>
<text text-anchor="start" x="17.5" y="-336.8" font-family="Helvetica,sans-Serif" font-size="11.00" fill="#000000">...</text>
<polygon fill="#ffffff" stroke="transparent" points="14.5,-311.7 14.5,-330.7 110.5,-330.7 110.5,-311.7 14.5,-311.7"/>
<polygon fill="none" stroke="#000000" points="14.5,-311.7 14.5,-330.7 110.5,-330.7 110.5,-311.7 14.5,-311.7"/>
<text text-anchor="start" x="17.5" y="-317.8" font-family="Helvetica,sans-Serif" font-size="11.00" fill="#000000"> &#160;</text>
<polygon fill="#ffffff" stroke="transparent" points="110.5,-311.7 110.5,-330.7 164.5,-330.7 164.5,-311.7 110.5,-311.7"/>
<polygon fill="none" stroke="#000000" points="110.5,-311.7 110.5,-330.7 164.5,-330.7 164.5,-311.7 110.5,-311.7"/>
<text text-anchor="start" x="155.3862" y="-317.8" font-family="Helvetica,sans-Serif" font-size="11.00" fill="#000000"> &#160;</text>
<polygon fill="#ffffff" stroke="transparent" points="164.5,-311.7 164.5,-330.7 227.5,-330.7 227.5,-311.7 164.5,-311.7"/>
<polygon fill="none" stroke="#000000" points="164.5,-311.7 164.5,-330.7 227.5,-330.7 227.5,-311.7 164.5,-311.7"/>
<text text-anchor="start" x="208.9053" y="-317.8" font-family="Helvetica,sans-Serif" font-size="11.00" fill="#000000">3 &gt;</text>
</a>
</g>
</g>
<!-- aggregation_process_is_based_on&#45;&gt;aggregation_process -->
<g id="edge3" class="edge">
<title>aggregation_process_is_based_on:w&#45;&gt;aggregation_process:e</title>
<path fill="none" stroke="#000000" d="M270.4886,-282.655C247.2109,-299.0348 265.9896,-360.7 227.5,-360.7"/>
<polygon fill="#000000" stroke="#000000" points="276.8008,-280.8733 285.478,-282.1646 280.6504,-279.7867 284.5,-278.7 284.5,-278.7 284.5,-278.7 280.6504,-279.7867 283.522,-275.2354 276.8008,-280.8733 276.8008,-280.8733"/>
<ellipse fill="none" stroke="#000000" cx="273.7212" cy="-281.7426" rx="3.2" ry="3.2"/>
</g>
</g>
</svg>
