<?xml version="1.0" encoding="UTF-8" standalone="no"?>
<!DOCTYPE svg PUBLIC "-//W3C//DTD SVG 1.1//EN"
 "http://www.w3.org/Graphics/SVG/1.1/DTD/svg11.dtd">
<!-- Generated by graphviz version 2.40.1 (20161225.0304)
 -->
<!-- Title: oneDegreeRelationshipsDiagram Pages: 1 -->
<svg width="860pt" height="254pt"
 viewBox="0.00 0.00 860.00 253.70" xmlns="http://www.w3.org/2000/svg" xmlns:xlink="http://www.w3.org/1999/xlink">
<g id="graph0" class="graph" transform="scale(1 1) rotate(0) translate(4 249.7)">
<title>oneDegreeRelationshipsDiagram</title>
<polygon fill="#ffffff" stroke="transparent" points="-4,4 -4,-249.7 856,-249.7 856,4 -4,4"/>
<text text-anchor="middle" x="72.4936" y="-7.3" font-family="Helvetica,sans-Serif" font-size="11.00" fill="#000000">Generated by SchemaSpy</text>
<!-- aggregation_function -->
<g id="node1" class="node">
<title>aggregation_function</title>
<g id="a_node1"><a xlink:href="../../tables/aggregation_function.html" xlink:title="aggregation_function" target="_top">
<polygon fill="#ffffff" stroke="transparent" points="247,-43.7 247,-199.7 556,-199.7 556,-43.7 247,-43.7"/>
<polygon fill="#f5f5f5" stroke="transparent" points="249.5,-174.7 249.5,-197.7 554.5,-197.7 554.5,-174.7 249.5,-174.7"/>
<polygon fill="none" stroke="#000000" points="249.5,-174.7 249.5,-197.7 554.5,-197.7 554.5,-174.7 249.5,-174.7"/>
<text text-anchor="start" x="254.5" y="-183.3" font-family="Helvetica,sans-Serif" font-weight="bold" font-size="11.00" fill="#000000">aggregation_function</text>
<text text-anchor="start" x="519.5437" y="-182.8" font-family="Helvetica,sans-Serif" font-size="11.00" fill="#000000">[table]</text>
<polygon fill="none" stroke="#000000" points="249.5,-152.7 249.5,-174.7 464.5,-174.7 464.5,-152.7 249.5,-152.7"/>
<image xlink:href="../../images/primaryKeys.png" width="11px" height="12px" preserveAspectRatio="xMinYMin meet" x="254.5" y="-169.7"/>
<text text-anchor="start" x="269.5" y="-159.8" font-family="Helvetica,sans-Serif" font-size="11.00" fill="#000000">aggregation_function_name</text>
<polygon fill="none" stroke="#000000" points="464.5,-152.7 464.5,-174.7 554.5,-174.7 554.5,-152.7 464.5,-152.7"/>
<text text-anchor="start" x="467.0043" y="-160.4" font-family="Helvetica,sans-Serif" font-size="11.00" fill="#000000">text[2147483647]</text>
<polygon fill="none" stroke="#000000" points="249.5,-130.7 249.5,-152.7 464.5,-152.7 464.5,-130.7 249.5,-130.7"/>
<text text-anchor="start" x="269.5" y="-137.8" font-family="Helvetica,sans-Serif" font-size="11.00" fill="#000000">aggregation_function_description</text>
<polygon fill="none" stroke="#000000" points="464.5,-130.7 464.5,-152.7 554.5,-152.7 554.5,-130.7 464.5,-130.7"/>
<text text-anchor="start" x="467.0043" y="-138.4" font-family="Helvetica,sans-Serif" font-size="11.00" fill="#000000">text[2147483647]</text>
<polygon fill="none" stroke="#000000" points="249.5,-108.7 249.5,-130.7 464.5,-130.7 464.5,-108.7 249.5,-108.7"/>
<text text-anchor="start" x="269.5" y="-115.8" font-family="Helvetica,sans-Serif" font-size="11.00" fill="#000000">aggregation_function_expression</text>
<polygon fill="none" stroke="#000000" points="464.5,-108.7 464.5,-130.7 554.5,-130.7 554.5,-108.7 464.5,-108.7"/>
<text text-anchor="start" x="467.0043" y="-116.4" font-family="Helvetica,sans-Serif" font-size="11.00" fill="#000000">text[2147483647]</text>
<polygon fill="none" stroke="#000000" points="249.5,-86.7 249.5,-108.7 464.5,-108.7 464.5,-86.7 249.5,-86.7"/>
<image xlink:href="../../images/foreignKeys.png" width="11px" height="12px" preserveAspectRatio="xMinYMin meet" x="254.5" y="-103.7"/>
<text text-anchor="start" x="269.5" y="-93.8" font-family="Helvetica,sans-Serif" font-size="11.00" fill="#000000">source_level_of_data_granularity</text>
<polygon fill="none" stroke="#000000" points="464.5,-86.7 464.5,-108.7 554.5,-108.7 554.5,-86.7 464.5,-86.7"/>
<text text-anchor="start" x="467.0043" y="-94.4" font-family="Helvetica,sans-Serif" font-size="11.00" fill="#000000">text[2147483647]</text>
<polygon fill="none" stroke="#000000" points="249.5,-64.7 249.5,-86.7 464.5,-86.7 464.5,-64.7 249.5,-64.7"/>
<image xlink:href="../../images/foreignKeys.png" width="11px" height="12px" preserveAspectRatio="xMinYMin meet" x="254.5" y="-81.7"/>
<text text-anchor="start" x="269.5" y="-71.8" font-family="Helvetica,sans-Serif" font-size="11.00" fill="#000000">target_level_of_data_granularity</text>
<polygon fill="none" stroke="#000000" points="464.5,-64.7 464.5,-86.7 554.5,-86.7 554.5,-64.7 464.5,-64.7"/>
<text text-anchor="start" x="467.0043" y="-72.4" font-family="Helvetica,sans-Serif" font-size="11.00" fill="#000000">text[2147483647]</text>
<polygon fill="#ffffff" stroke="transparent" points="249.5,-45.7 249.5,-64.7 361.5,-64.7 361.5,-45.7 249.5,-45.7"/>
<polygon fill="none" stroke="#000000" points="249.5,-45.7 249.5,-64.7 361.5,-64.7 361.5,-45.7 249.5,-45.7"/>
<text text-anchor="start" x="252.5" y="-51.8" font-family="Helvetica,sans-Serif" font-size="11.00" fill="#000000">&lt; 2</text>
<polygon fill="#ffffff" stroke="transparent" points="361.5,-45.7 361.5,-64.7 464.5,-64.7 464.5,-45.7 361.5,-45.7"/>
<polygon fill="none" stroke="#000000" points="361.5,-45.7 361.5,-64.7 464.5,-64.7 464.5,-45.7 361.5,-45.7"/>
<text text-anchor="start" x="455.3862" y="-51.8" font-family="Helvetica,sans-Serif" font-size="11.00" fill="#000000"> &#160;</text>
<polygon fill="#ffffff" stroke="transparent" points="464.5,-45.7 464.5,-64.7 554.5,-64.7 554.5,-45.7 464.5,-45.7"/>
<polygon fill="none" stroke="#000000" points="464.5,-45.7 464.5,-64.7 554.5,-64.7 554.5,-45.7 464.5,-45.7"/>
<text text-anchor="start" x="535.9053" y="-51.8" font-family="Helvetica,sans-Serif" font-size="11.00" fill="#000000">1 &gt;</text>
<polygon fill="none" stroke="#000000" stroke-width="2" points="248,-44.7 248,-198.7 555,-198.7 555,-44.7 248,-44.7"/>
</a>
</g>
</g>
<!-- levels_of_data_granularity -->
<g id="node2" class="node">
<title>levels_of_data_granularity</title>
<g id="a_node2"><a xlink:href="../../tables/levels_of_data_granularity.html" xlink:title="levels_of_data_granularity" target="_top">
<polygon fill="#ffffff" stroke="transparent" points="8,-38.2 8,-121.2 198,-121.2 198,-38.2 8,-38.2"/>
<polygon fill="#f5f5f5" stroke="transparent" points="8,-97.7 8,-120.7 198,-120.7 198,-97.7 8,-97.7"/>
<polygon fill="none" stroke="#000000" points="8,-97.7 8,-120.7 198,-120.7 198,-97.7 8,-97.7"/>
<text text-anchor="start" x="13" y="-106.3" font-family="Helvetica,sans-Serif" font-weight="bold" font-size="11.00" fill="#000000">levels_of_data_granularity</text>
<text text-anchor="start" x="163.5219" y="-105.8" font-family="Helvetica,sans-Serif" font-size="11.00" fill="#000000">[table]</text>
<polygon fill="none" stroke="#000000" points="8,-75.7 8,-97.7 198,-97.7 198,-75.7 8,-75.7"/>
<image xlink:href="../../images/primaryKeys.png" width="11px" height="12px" preserveAspectRatio="xMinYMin meet" x="13" y="-92.7"/>
<text text-anchor="start" x="37" y="-82.8" font-family="Helvetica,sans-Serif" font-size="11.00" fill="#000000">level_name</text>
<polygon fill="none" stroke="#000000" points="8,-56.7 8,-75.7 198,-75.7 198,-56.7 8,-56.7"/>
<text text-anchor="start" x="11" y="-62.8" font-family="Helvetica,sans-Serif" font-size="11.00" fill="#000000">...</text>
<polygon fill="#ffffff" stroke="transparent" points="8,-37.7 8,-56.7 92,-56.7 92,-37.7 8,-37.7"/>
<polygon fill="none" stroke="#000000" points="8,-37.7 8,-56.7 92,-56.7 92,-37.7 8,-37.7"/>
<text text-anchor="start" x="11" y="-43.8" font-family="Helvetica,sans-Serif" font-size="11.00" fill="#000000"> &#160;</text>
<polygon fill="#ffffff" stroke="transparent" points="92,-37.7 92,-56.7 140,-56.7 140,-37.7 92,-37.7"/>
<polygon fill="none" stroke="#000000" points="92,-37.7 92,-56.7 140,-56.7 140,-37.7 92,-37.7"/>
<text text-anchor="start" x="130.8862" y="-43.8" font-family="Helvetica,sans-Serif" font-size="11.00" fill="#000000"> &#160;</text>
<polygon fill="#ffffff" stroke="transparent" points="140,-37.7 140,-56.7 198,-56.7 198,-37.7 140,-37.7"/>
<polygon fill="none" stroke="#000000" points="140,-37.7 140,-56.7 198,-56.7 198,-37.7 140,-37.7"/>
<text text-anchor="start" x="179.4053" y="-43.8" font-family="Helvetica,sans-Serif" font-size="11.00" fill="#000000">5 &gt;</text>
</a>
</g>
</g>
<!-- aggregation_function&#45;&gt;levels_of_data_granularity -->
<g id="edge1" class="edge">
<title>aggregation_function:w&#45;&gt;levels_of_data_granularity:e</title>
<path fill="none" stroke="#000000" d="M234.8704,-95.9813C222.5803,-92.8875 215.5539,-86.7 198,-86.7"/>
<polygon fill="#000000" stroke="#000000" points="241.5546,-96.7665 249.0799,-101.2754 245.5273,-97.2332 249.5,-97.7 249.5,-97.7 249.5,-97.7 245.5273,-97.2332 249.9201,-94.1246 241.5546,-96.7665 241.5546,-96.7665"/>
<ellipse fill="none" stroke="#000000" cx="238.3765" cy="-96.3931" rx="3.2" ry="3.2"/>
</g>
<!-- aggregation_function&#45;&gt;levels_of_data_granularity -->
<g id="edge2" class="edge">
<title>aggregation_function:w&#45;&gt;levels_of_data_granularity:e</title>
<path fill="none" stroke="#000000" d="M234.8704,-77.4188C222.5803,-80.5125 215.5539,-86.7 198,-86.7"/>
<polygon fill="#000000" stroke="#000000" points="241.5546,-76.6335 249.9201,-79.2754 245.5273,-76.1668 249.5,-75.7 249.5,-75.7 249.5,-75.7 245.5273,-76.1668 249.0799,-72.1246 241.5546,-76.6335 241.5546,-76.6335"/>
<ellipse fill="none" stroke="#000000" cx="238.3765" cy="-77.0069" rx="3.2" ry="3.2"/>
</g>
<!-- aggregation_process_is_based_on -->
<g id="node3" class="node">
<title>aggregation_process_is_based_on</title>
<g id="a_node3"><a xlink:href="../../tables/aggregation_process_is_based_on.html" xlink:title="aggregation_process_is_based_on" target="_top">
<polygon fill="#ffffff" stroke="transparent" points="605,-133.7 605,-241.7 844,-241.7 844,-133.7 605,-133.7"/>
<polygon fill="#f5f5f5" stroke="transparent" points="605.5,-218.7 605.5,-241.7 844.5,-241.7 844.5,-218.7 605.5,-218.7"/>
<polygon fill="none" stroke="#000000" points="605.5,-218.7 605.5,-241.7 844.5,-241.7 844.5,-218.7 605.5,-218.7"/>
<text text-anchor="start" x="610.5" y="-227.3" font-family="Helvetica,sans-Serif" font-weight="bold" font-size="11.00" fill="#000000">aggregation_process_is_based_on</text>
<text text-anchor="start" x="810.0219" y="-226.8" font-family="Helvetica,sans-Serif" font-size="11.00" fill="#000000">[table]</text>
<polygon fill="none" stroke="#000000" points="605.5,-196.7 605.5,-218.7 844.5,-218.7 844.5,-196.7 605.5,-196.7"/>
<image xlink:href="../../images/primaryKeys.png" width="11px" height="12px" preserveAspectRatio="xMinYMin meet" x="610.5" y="-213.7"/>
<text text-anchor="start" x="634.5" y="-203.8" font-family="Helvetica,sans-Serif" font-size="11.00" fill="#000000">aggregation_process_name</text>
<polygon fill="none" stroke="#000000" points="605.5,-174.7 605.5,-196.7 844.5,-196.7 844.5,-174.7 605.5,-174.7"/>
<image xlink:href="../../images/primaryKeys.png" width="11px" height="12px" preserveAspectRatio="xMinYMin meet" x="610.5" y="-191.7"/>
<text text-anchor="start" x="634.5" y="-181.8" font-family="Helvetica,sans-Serif" font-size="11.00" fill="#000000">aggregation_constraint_name</text>
<polygon fill="none" stroke="#000000" points="605.5,-152.7 605.5,-174.7 844.5,-174.7 844.5,-152.7 605.5,-152.7"/>
<image xlink:href="../../images/foreignKeys.png" width="11px" height="12px" preserveAspectRatio="xMinYMin meet" x="610.5" y="-169.7"/>
<text text-anchor="start" x="634.5" y="-159.8" font-family="Helvetica,sans-Serif" font-size="11.00" fill="#000000">aggregation_function_name</text>
<polygon fill="#ffffff" stroke="transparent" points="605.5,-133.7 605.5,-152.7 723.5,-152.7 723.5,-133.7 605.5,-133.7"/>
<polygon fill="none" stroke="#000000" points="605.5,-133.7 605.5,-152.7 723.5,-152.7 723.5,-133.7 605.5,-133.7"/>
<text text-anchor="start" x="608.5" y="-139.8" font-family="Helvetica,sans-Serif" font-size="11.00" fill="#000000">&lt; 3</text>
<polygon fill="#ffffff" stroke="transparent" points="723.5,-133.7 723.5,-152.7 783.5,-152.7 783.5,-133.7 723.5,-133.7"/>
<polygon fill="none" stroke="#000000" points="723.5,-133.7 723.5,-152.7 783.5,-152.7 783.5,-133.7 723.5,-133.7"/>
<text text-anchor="start" x="774.3862" y="-139.8" font-family="Helvetica,sans-Serif" font-size="11.00" fill="#000000"> &#160;</text>
<polygon fill="#ffffff" stroke="transparent" points="783.5,-133.7 783.5,-152.7 844.5,-152.7 844.5,-133.7 783.5,-133.7"/>
<polygon fill="none" stroke="#000000" points="783.5,-133.7 783.5,-152.7 844.5,-152.7 844.5,-133.7 783.5,-133.7"/>
<text text-anchor="start" x="835.3862" y="-139.8" font-family="Helvetica,sans-Serif" font-size="11.00" fill="#000000"> &#160;</text>
</a>
</g>
</g>
<!-- aggregation_process_is_based_on&#45;&gt;aggregation_function -->
<g id="edge3" class="edge">
<title>aggregation_process_is_based_on:w&#45;&gt;aggregation_function:e</title>
<path fill="none" stroke="#000000" d="M590.776,-163.7C578.7815,-163.7 571.3229,-163.7 554.5,-163.7"/>
<polygon fill="#000000" stroke="#000000" points="597.5,-163.7001 605.5,-167.3 601.5,-163.7 605.5,-163.7 605.5,-163.7 605.5,-163.7 601.5,-163.7 605.5,-160.1 597.5,-163.7001 597.5,-163.7001"/>
<ellipse fill="none" stroke="#000000" cx="594.3" cy="-163.7001" rx="3.2" ry="3.2"/>
</g>
</g>
</svg>
