<?xml version="1.0" encoding="UTF-8" standalone="no"?>
<!DOCTYPE svg PUBLIC "-//W3C//DTD SVG 1.1//EN"
 "http://www.w3.org/Graphics/SVG/1.1/DTD/svg11.dtd">
<!-- Generated by graphviz version 2.40.1 (20161225.0304)
 -->
<!-- Title: twoDegreesRelationshipsDiagram Pages: 1 -->
<svg width="888pt" height="531pt"
 viewBox="0.00 0.00 888.00 531.20" xmlns="http://www.w3.org/2000/svg" xmlns:xlink="http://www.w3.org/1999/xlink">
<g id="graph0" class="graph" transform="scale(1 1) rotate(0) translate(4 527.2)">
<title>twoDegreesRelationshipsDiagram</title>
<polygon fill="#ffffff" stroke="transparent" points="-4,4 -4,-527.2 884,-527.2 884,4 -4,4"/>
<text text-anchor="middle" x="72.4936" y="-7.3" font-family="Helvetica,sans-Serif" font-size="11.00" fill="#000000">Generated by SchemaSpy</text>
<!-- aggregation_constraint -->
<g id="node1" class="node">
<title>aggregation_constraint</title>
<g id="a_node1"><a xlink:href="../../tables/aggregation_constraint.html" xlink:title="aggregation_constraint" target="_top">
<polygon fill="#ffffff" stroke="transparent" points="328,-458.2 328,-519.2 500,-519.2 500,-458.2 328,-458.2"/>
<polygon fill="#f5f5f5" stroke="transparent" points="328,-495.7 328,-518.7 500,-518.7 500,-495.7 328,-495.7"/>
<polygon fill="none" stroke="#000000" points="328,-495.7 328,-518.7 500,-518.7 500,-495.7 328,-495.7"/>
<text text-anchor="start" x="333" y="-504.3" font-family="Helvetica,sans-Serif" font-weight="bold" font-size="11.00" fill="#000000">aggregation_constraint</text>
<text text-anchor="start" x="465.5219" y="-503.8" font-family="Helvetica,sans-Serif" font-size="11.00" fill="#000000">[table]</text>
<polygon fill="none" stroke="#000000" points="328,-476.7 328,-495.7 500,-495.7 500,-476.7 328,-476.7"/>
<text text-anchor="start" x="331" y="-482.8" font-family="Helvetica,sans-Serif" font-size="11.00" fill="#000000">...</text>
<polygon fill="#ffffff" stroke="transparent" points="328,-457.7 328,-476.7 408,-476.7 408,-457.7 328,-457.7"/>
<polygon fill="none" stroke="#000000" points="328,-457.7 328,-476.7 408,-476.7 408,-457.7 328,-457.7"/>
<text text-anchor="start" x="331" y="-463.8" font-family="Helvetica,sans-Serif" font-size="11.00" fill="#000000">&lt; 1</text>
<polygon fill="#ffffff" stroke="transparent" points="408,-457.7 408,-476.7 449,-476.7 449,-457.7 408,-457.7"/>
<polygon fill="none" stroke="#000000" points="408,-457.7 408,-476.7 449,-476.7 449,-457.7 408,-457.7"/>
<text text-anchor="start" x="439.8862" y="-463.8" font-family="Helvetica,sans-Serif" font-size="11.00" fill="#000000"> &#160;</text>
<polygon fill="#ffffff" stroke="transparent" points="449,-457.7 449,-476.7 500,-476.7 500,-457.7 449,-457.7"/>
<polygon fill="none" stroke="#000000" points="449,-457.7 449,-476.7 500,-476.7 500,-457.7 449,-457.7"/>
<text text-anchor="start" x="481.4053" y="-463.8" font-family="Helvetica,sans-Serif" font-size="11.00" fill="#000000">1 &gt;</text>
</a>
</g>
</g>
<!-- levels_of_data_granularity -->
<g id="node2" class="node">
<title>levels_of_data_granularity</title>
<g id="a_node2"><a xlink:href="../../tables/levels_of_data_granularity.html" xlink:title="levels_of_data_granularity" target="_top">
<polygon fill="#ffffff" stroke="transparent" points="8,-355.2 8,-438.2 198,-438.2 198,-355.2 8,-355.2"/>
<polygon fill="#f5f5f5" stroke="transparent" points="8,-414.7 8,-437.7 198,-437.7 198,-414.7 8,-414.7"/>
<polygon fill="none" stroke="#000000" points="8,-414.7 8,-437.7 198,-437.7 198,-414.7 8,-414.7"/>
<text text-anchor="start" x="13" y="-423.3" font-family="Helvetica,sans-Serif" font-weight="bold" font-size="11.00" fill="#000000">levels_of_data_granularity</text>
<text text-anchor="start" x="163.5219" y="-422.8" font-family="Helvetica,sans-Serif" font-size="11.00" fill="#000000">[table]</text>
<polygon fill="none" stroke="#000000" points="8,-392.7 8,-414.7 198,-414.7 198,-392.7 8,-392.7"/>
<image xlink:href="../../images/primaryKeys.png" width="11px" height="12px" preserveAspectRatio="xMinYMin meet" x="13" y="-409.7"/>
<text text-anchor="start" x="37" y="-399.8" font-family="Helvetica,sans-Serif" font-size="11.00" fill="#000000">level_name</text>
<polygon fill="none" stroke="#000000" points="8,-373.7 8,-392.7 198,-392.7 198,-373.7 8,-373.7"/>
<text text-anchor="start" x="11" y="-379.8" font-family="Helvetica,sans-Serif" font-size="11.00" fill="#000000">...</text>
<polygon fill="#ffffff" stroke="transparent" points="8,-354.7 8,-373.7 92,-373.7 92,-354.7 8,-354.7"/>
<polygon fill="none" stroke="#000000" points="8,-354.7 8,-373.7 92,-373.7 92,-354.7 8,-354.7"/>
<text text-anchor="start" x="11" y="-360.8" font-family="Helvetica,sans-Serif" font-size="11.00" fill="#000000"> &#160;</text>
<polygon fill="#ffffff" stroke="transparent" points="92,-354.7 92,-373.7 140,-373.7 140,-354.7 92,-354.7"/>
<polygon fill="none" stroke="#000000" points="92,-354.7 92,-373.7 140,-373.7 140,-354.7 92,-354.7"/>
<text text-anchor="start" x="130.8862" y="-360.8" font-family="Helvetica,sans-Serif" font-size="11.00" fill="#000000"> &#160;</text>
<polygon fill="#ffffff" stroke="transparent" points="140,-354.7 140,-373.7 198,-373.7 198,-354.7 140,-354.7"/>
<polygon fill="none" stroke="#000000" points="140,-354.7 140,-373.7 198,-373.7 198,-354.7 140,-354.7"/>
<text text-anchor="start" x="179.4053" y="-360.8" font-family="Helvetica,sans-Serif" font-size="11.00" fill="#000000">5 &gt;</text>
</a>
</g>
</g>
<!-- aggregation_constraint&#45;&gt;levels_of_data_granularity -->
<g id="edge1" class="edge">
<title>aggregation_constraint:w&#45;&gt;levels_of_data_granularity:e</title>
<path fill="none" stroke="#000000" d="M313.271,-485.0808C281.9112,-482.1998 269.8011,-469.3242 239,-447.7 217.1235,-432.3414 224.7296,-403.7 198,-403.7"/>
<polygon fill="#000000" stroke="#000000" points="320.0071,-485.3639 327.8488,-489.2968 324.0035,-485.532 328,-485.7 328,-485.7 328,-485.7 324.0035,-485.532 328.1512,-482.1032 320.0071,-485.3639 320.0071,-485.3639"/>
<ellipse fill="none" stroke="#000000" cx="316.8099" cy="-485.2295" rx="3.2" ry="3.2"/>
</g>
<!-- aggregation_function -->
<g id="node3" class="node">
<title>aggregation_function</title>
<g id="a_node3"><a xlink:href="../../tables/aggregation_function.html" xlink:title="aggregation_function" target="_top">
<polygon fill="#ffffff" stroke="transparent" points="333.5,-376.2 333.5,-437.2 494.5,-437.2 494.5,-376.2 333.5,-376.2"/>
<polygon fill="#f5f5f5" stroke="transparent" points="334,-413.7 334,-436.7 495,-436.7 495,-413.7 334,-413.7"/>
<polygon fill="none" stroke="#000000" points="334,-413.7 334,-436.7 495,-436.7 495,-413.7 334,-413.7"/>
<text text-anchor="start" x="339" y="-422.3" font-family="Helvetica,sans-Serif" font-weight="bold" font-size="11.00" fill="#000000">aggregation_function</text>
<text text-anchor="start" x="460.5219" y="-421.8" font-family="Helvetica,sans-Serif" font-size="11.00" fill="#000000">[table]</text>
<polygon fill="none" stroke="#000000" points="334,-394.7 334,-413.7 495,-413.7 495,-394.7 334,-394.7"/>
<text text-anchor="start" x="337" y="-400.8" font-family="Helvetica,sans-Serif" font-size="11.00" fill="#000000">...</text>
<polygon fill="#ffffff" stroke="transparent" points="334,-375.7 334,-394.7 408,-394.7 408,-375.7 334,-375.7"/>
<polygon fill="none" stroke="#000000" points="334,-375.7 334,-394.7 408,-394.7 408,-375.7 334,-375.7"/>
<text text-anchor="start" x="337" y="-381.8" font-family="Helvetica,sans-Serif" font-size="11.00" fill="#000000">&lt; 2</text>
<polygon fill="#ffffff" stroke="transparent" points="408,-375.7 408,-394.7 447,-394.7 447,-375.7 408,-375.7"/>
<polygon fill="none" stroke="#000000" points="408,-375.7 408,-394.7 447,-394.7 447,-375.7 408,-375.7"/>
<text text-anchor="start" x="437.8862" y="-381.8" font-family="Helvetica,sans-Serif" font-size="11.00" fill="#000000"> &#160;</text>
<polygon fill="#ffffff" stroke="transparent" points="447,-375.7 447,-394.7 495,-394.7 495,-375.7 447,-375.7"/>
<polygon fill="none" stroke="#000000" points="447,-375.7 447,-394.7 495,-394.7 495,-375.7 447,-375.7"/>
<text text-anchor="start" x="476.4053" y="-381.8" font-family="Helvetica,sans-Serif" font-size="11.00" fill="#000000">1 &gt;</text>
</a>
</g>
</g>
<!-- aggregation_function&#45;&gt;levels_of_data_granularity -->
<g id="edge2" class="edge">
<title>aggregation_function:w&#45;&gt;levels_of_data_granularity:e</title>
<path fill="none" stroke="#000000" d="M319.3635,-402.2861C270.6235,-397.7443 253.25,-398.2156 198,-403.7"/>
<polygon fill="#000000" stroke="#000000" points="326.0371,-402.9307 333.6538,-407.2833 330.0185,-403.3154 334,-403.7 334,-403.7 334,-403.7 330.0185,-403.3154 334.3462,-400.1167 326.0371,-402.9307 326.0371,-402.9307"/>
<ellipse fill="none" stroke="#000000" cx="322.8519" cy="-402.623" rx="3.2" ry="3.2"/>
</g>
<!-- aggregation_function&#45;&gt;levels_of_data_granularity -->
<g id="edge3" class="edge">
<title>aggregation_function:w&#45;&gt;levels_of_data_granularity:e</title>
<path fill="none" stroke="#000000" d="M319.6764,-405.3156C270.6976,-410.6506 253.3681,-410.1121 198,-403.7"/>
<polygon fill="#000000" stroke="#000000" points="326.0504,-404.5967 334.4035,-407.2773 330.0252,-404.1483 334,-403.7 334,-403.7 334,-403.7 330.0252,-404.1483 333.5965,-400.1227 326.0504,-404.5967 326.0504,-404.5967"/>
<ellipse fill="none" stroke="#000000" cx="322.8706" cy="-404.9554" rx="3.2" ry="3.2"/>
</g>
<!-- data_element -->
<g id="node4" class="node">
<title>data_element</title>
<g id="a_node4"><a xlink:href="../../tables/data_element.html" xlink:title="data_element" target="_top">
<polygon fill="#ffffff" stroke="transparent" points="247,-202.7 247,-336.7 581,-336.7 581,-202.7 247,-202.7"/>
<polygon fill="#f5f5f5" stroke="transparent" points="249,-311.7 249,-334.7 579,-334.7 579,-311.7 249,-311.7"/>
<polygon fill="none" stroke="#000000" points="249,-311.7 249,-334.7 579,-334.7 579,-311.7 249,-311.7"/>
<text text-anchor="start" x="254" y="-320.3" font-family="Helvetica,sans-Serif" font-weight="bold" font-size="11.00" fill="#000000">data_element</text>
<text text-anchor="start" x="544.0437" y="-319.8" font-family="Helvetica,sans-Serif" font-size="11.00" fill="#000000">[table]</text>
<polygon fill="none" stroke="#000000" points="249,-289.7 249,-311.7 489,-311.7 489,-289.7 249,-289.7"/>
<image xlink:href="../../images/primaryKeys.png" width="11px" height="12px" preserveAspectRatio="xMinYMin meet" x="254" y="-306.7"/>
<text text-anchor="start" x="269" y="-296.8" font-family="Helvetica,sans-Serif" font-size="11.00" fill="#000000">data_element_global_identifier</text>
<polygon fill="none" stroke="#000000" points="489,-289.7 489,-311.7 579,-311.7 579,-289.7 489,-289.7"/>
<text text-anchor="start" x="491.5043" y="-297.4" font-family="Helvetica,sans-Serif" font-size="11.00" fill="#000000">text[2147483647]</text>
<polygon fill="none" stroke="#000000" points="249,-267.7 249,-289.7 489,-289.7 489,-267.7 249,-267.7"/>
<text text-anchor="start" x="269" y="-274.8" font-family="Helvetica,sans-Serif" font-size="11.00" fill="#000000">data_element_local_identifier</text>
<polygon fill="none" stroke="#000000" points="489,-267.7 489,-289.7 579,-289.7 579,-267.7 489,-267.7"/>
<text text-anchor="start" x="491.5043" y="-275.4" font-family="Helvetica,sans-Serif" font-size="11.00" fill="#000000">text[2147483647]</text>
<polygon fill="none" stroke="#000000" points="249,-245.7 249,-267.7 489,-267.7 489,-245.7 249,-245.7"/>
<image xlink:href="../../images/foreignKeys.png" width="11px" height="12px" preserveAspectRatio="xMinYMin meet" x="254" y="-262.7"/>
<text text-anchor="start" x="269" y="-252.8" font-family="Helvetica,sans-Serif" font-size="11.00" fill="#000000">is_of_level_of_data_granularity</text>
<polygon fill="none" stroke="#000000" points="489,-245.7 489,-267.7 579,-267.7 579,-245.7 489,-245.7"/>
<text text-anchor="start" x="491.5043" y="-253.4" font-family="Helvetica,sans-Serif" font-size="11.00" fill="#000000">text[2147483647]</text>
<polygon fill="none" stroke="#000000" points="249,-223.7 249,-245.7 489,-245.7 489,-223.7 249,-223.7"/>
<image xlink:href="../../images/foreignKeys.png" width="11px" height="12px" preserveAspectRatio="xMinYMin meet" x="254" y="-240.7"/>
<text text-anchor="start" x="269" y="-230.8" font-family="Helvetica,sans-Serif" font-size="11.00" fill="#000000">parent_data_element_global_identifier</text>
<polygon fill="none" stroke="#000000" points="489,-223.7 489,-245.7 579,-245.7 579,-223.7 489,-223.7"/>
<text text-anchor="start" x="491.5043" y="-231.4" font-family="Helvetica,sans-Serif" font-size="11.00" fill="#000000">text[2147483647]</text>
<polygon fill="#ffffff" stroke="transparent" points="249,-204.7 249,-223.7 373,-223.7 373,-204.7 249,-204.7"/>
<polygon fill="none" stroke="#000000" points="249,-204.7 249,-223.7 373,-223.7 373,-204.7 249,-204.7"/>
<text text-anchor="start" x="252" y="-210.8" font-family="Helvetica,sans-Serif" font-size="11.00" fill="#000000">&lt; 2</text>
<polygon fill="#ffffff" stroke="transparent" points="373,-204.7 373,-223.7 489,-223.7 489,-204.7 373,-204.7"/>
<polygon fill="none" stroke="#000000" points="373,-204.7 373,-223.7 489,-223.7 489,-204.7 373,-204.7"/>
<text text-anchor="start" x="479.8862" y="-210.8" font-family="Helvetica,sans-Serif" font-size="11.00" fill="#000000"> &#160;</text>
<polygon fill="#ffffff" stroke="transparent" points="489,-204.7 489,-223.7 579,-223.7 579,-204.7 489,-204.7"/>
<polygon fill="none" stroke="#000000" points="489,-204.7 489,-223.7 579,-223.7 579,-204.7 489,-204.7"/>
<text text-anchor="start" x="560.4053" y="-210.8" font-family="Helvetica,sans-Serif" font-size="11.00" fill="#000000">2 &gt;</text>
<polygon fill="none" stroke="#000000" stroke-width="2" points="248,-203.7 248,-335.7 580,-335.7 580,-203.7 248,-203.7"/>
</a>
</g>
</g>
<!-- data_element&#45;&gt;levels_of_data_granularity -->
<g id="edge4" class="edge">
<title>data_element:w&#45;&gt;levels_of_data_granularity:e</title>
<path fill="none" stroke="#000000" d="M234.7019,-259.6364C193.4077,-280.3546 261.3458,-403.7 198,-403.7"/>
<polygon fill="#000000" stroke="#000000" points="241.1635,-258.3094 249.7242,-260.2264 245.0818,-257.5047 249,-256.7 249,-256.7 249,-256.7 245.0818,-257.5047 248.2758,-253.1736 241.1635,-258.3094 241.1635,-258.3094"/>
<ellipse fill="none" stroke="#000000" cx="238.029" cy="-258.9532" rx="3.2" ry="3.2"/>
</g>
<!-- data_element&#45;&gt;data_element -->
<g id="edge5" class="edge">
<title>data_element:w&#45;&gt;data_element:e</title>
<path fill="none" stroke="#000000" d="M235.4172,-240.6507C172.4473,-273.7195 186.6563,-353.7 414,-353.7 656.5,-353.7 656.5,-328.7 579,-300.7"/>
<polygon fill="#000000" stroke="#000000" points="241.6724,-237.9103 250.4446,-237.9974 245.3362,-236.3052 249,-234.7 249,-234.7 249,-234.7 245.3362,-236.3052 247.5554,-231.4026 241.6724,-237.9103 241.6724,-237.9103"/>
<ellipse fill="none" stroke="#000000" cx="238.7413" cy="-239.1944" rx="3.2" ry="3.2"/>
</g>
<!-- dq_metric -->
<g id="node5" class="node">
<title>dq_metric</title>
<g id="a_node5"><a xlink:href="../../tables/dq_metric.html" xlink:title="dq_metric" target="_top">
<polygon fill="#ffffff" stroke="transparent" points="366,-120.2 366,-181.2 462,-181.2 462,-120.2 366,-120.2"/>
<polygon fill="#f5f5f5" stroke="transparent" points="366,-157.7 366,-180.7 462,-180.7 462,-157.7 366,-157.7"/>
<polygon fill="none" stroke="#000000" points="366,-157.7 366,-180.7 462,-180.7 462,-157.7 366,-157.7"/>
<text text-anchor="start" x="371" y="-166.3" font-family="Helvetica,sans-Serif" font-weight="bold" font-size="11.00" fill="#000000">dq_metric</text>
<text text-anchor="start" x="427.5219" y="-165.8" font-family="Helvetica,sans-Serif" font-size="11.00" fill="#000000">[table]</text>
<polygon fill="none" stroke="#000000" points="366,-138.7 366,-157.7 462,-157.7 462,-138.7 366,-138.7"/>
<text text-anchor="start" x="369" y="-144.8" font-family="Helvetica,sans-Serif" font-size="11.00" fill="#000000">...</text>
<polygon fill="#ffffff" stroke="transparent" points="366,-119.7 366,-138.7 408,-138.7 408,-119.7 366,-119.7"/>
<polygon fill="none" stroke="#000000" points="366,-119.7 366,-138.7 408,-138.7 408,-119.7 366,-119.7"/>
<text text-anchor="start" x="369" y="-125.8" font-family="Helvetica,sans-Serif" font-size="11.00" fill="#000000">&lt; 1</text>
<polygon fill="#ffffff" stroke="transparent" points="408,-119.7 408,-138.7 430,-138.7 430,-119.7 408,-119.7"/>
<polygon fill="none" stroke="#000000" points="408,-119.7 408,-138.7 430,-138.7 430,-119.7 408,-119.7"/>
<text text-anchor="start" x="420.8862" y="-125.8" font-family="Helvetica,sans-Serif" font-size="11.00" fill="#000000"> &#160;</text>
<polygon fill="#ffffff" stroke="transparent" points="430,-119.7 430,-138.7 462,-138.7 462,-119.7 430,-119.7"/>
<polygon fill="none" stroke="#000000" points="430,-119.7 430,-138.7 462,-138.7 462,-119.7 430,-119.7"/>
<text text-anchor="start" x="443.4053" y="-125.8" font-family="Helvetica,sans-Serif" font-size="11.00" fill="#000000">2 &gt;</text>
</a>
</g>
</g>
<!-- dq_metric&#45;&gt;levels_of_data_granularity -->
<g id="edge6" class="edge">
<title>dq_metric:w&#45;&gt;levels_of_data_granularity:e</title>
<path fill="none" stroke="#000000" d="M351.5608,-147.7195C301.3303,-147.9604 274.8011,-151.1402 239,-192.7 176.6499,-265.0794 293.5318,-403.7 198,-403.7"/>
<polygon fill="#000000" stroke="#000000" points="358,-147.7108 366.0049,-151.3 362,-147.7054 366,-147.7 366,-147.7 366,-147.7 362,-147.7054 365.9951,-144.1 358,-147.7108 358,-147.7108"/>
<ellipse fill="none" stroke="#000000" cx="354.8" cy="-147.7152" rx="3.2" ry="3.2"/>
</g>
<!-- dq_result -->
<g id="node6" class="node">
<title>dq_result</title>
<g id="a_node6"><a xlink:href="../../tables/dq_result.html" xlink:title="dq_result" target="_top">
<polygon fill="#ffffff" stroke="transparent" points="630,-77.2 630,-226.2 872,-226.2 872,-77.2 630,-77.2"/>
<polygon fill="#f5f5f5" stroke="transparent" points="630,-202.7 630,-225.7 872,-225.7 872,-202.7 630,-202.7"/>
<polygon fill="none" stroke="#000000" points="630,-202.7 630,-225.7 872,-225.7 872,-202.7 630,-202.7"/>
<text text-anchor="start" x="635" y="-211.3" font-family="Helvetica,sans-Serif" font-weight="bold" font-size="11.00" fill="#000000">dq_result</text>
<text text-anchor="start" x="837.0437" y="-210.8" font-family="Helvetica,sans-Serif" font-size="11.00" fill="#000000">[table]</text>
<polygon fill="#ffffff" stroke="transparent" points="630,-180.7 630,-202.7 872,-202.7 872,-180.7 630,-180.7"/>
<polygon fill="none" stroke="#000000" points="630,-180.7 630,-202.7 872,-202.7 872,-180.7 630,-180.7"/>
<text text-anchor="start" x="650" y="-187.8" font-family="Helvetica,sans-Serif" font-size="11.00" fill="#000000">creation_timestamp</text>
<polygon fill="#ffffff" stroke="transparent" points="630,-158.7 630,-180.7 872,-180.7 872,-158.7 630,-158.7"/>
<polygon fill="none" stroke="#000000" points="630,-158.7 630,-180.7 872,-180.7 872,-158.7 630,-158.7"/>
<image xlink:href="../../images/foreignKeys.png" width="11px" height="12px" preserveAspectRatio="xMinYMin meet" x="635" y="-175.7"/>
<text text-anchor="start" x="650" y="-165.8" font-family="Helvetica,sans-Serif" font-size="11.00" fill="#000000">computed_on_data_element_global_id</text>
<polygon fill="#ffffff" stroke="transparent" points="630,-136.7 630,-158.7 872,-158.7 872,-136.7 630,-136.7"/>
<polygon fill="none" stroke="#000000" points="630,-136.7 630,-158.7 872,-158.7 872,-136.7 630,-136.7"/>
<image xlink:href="../../images/foreignKeys.png" width="11px" height="12px" preserveAspectRatio="xMinYMin meet" x="635" y="-153.7"/>
<text text-anchor="start" x="650" y="-143.8" font-family="Helvetica,sans-Serif" font-size="11.00" fill="#000000">calculated_by_dq_metric</text>
<polygon fill="none" stroke="#000000" points="630,-114.7 630,-136.7 872,-136.7 872,-114.7 630,-114.7"/>
<image xlink:href="../../images/foreignKeys.png" width="11px" height="12px" preserveAspectRatio="xMinYMin meet" x="635" y="-131.7"/>
<text text-anchor="start" x="650" y="-121.8" font-family="Helvetica,sans-Serif" font-size="11.00" fill="#000000">calculated_by_aggregation_process</text>
<polygon fill="none" stroke="#000000" points="630,-95.7 630,-114.7 872,-114.7 872,-95.7 630,-95.7"/>
<text text-anchor="start" x="633" y="-101.8" font-family="Helvetica,sans-Serif" font-size="11.00" fill="#000000">...</text>
<polygon fill="#ffffff" stroke="transparent" points="630,-76.7 630,-95.7 749,-95.7 749,-76.7 630,-76.7"/>
<polygon fill="none" stroke="#000000" points="630,-76.7 630,-95.7 749,-95.7 749,-76.7 630,-76.7"/>
<text text-anchor="start" x="633" y="-82.8" font-family="Helvetica,sans-Serif" font-size="11.00" fill="#000000">&lt; 3</text>
<polygon fill="#ffffff" stroke="transparent" points="749,-76.7 749,-95.7 810,-95.7 810,-76.7 749,-76.7"/>
<polygon fill="none" stroke="#000000" points="749,-76.7 749,-95.7 810,-95.7 810,-76.7 749,-76.7"/>
<text text-anchor="start" x="800.8862" y="-82.8" font-family="Helvetica,sans-Serif" font-size="11.00" fill="#000000"> &#160;</text>
<polygon fill="#ffffff" stroke="transparent" points="810,-76.7 810,-95.7 872,-95.7 872,-76.7 810,-76.7"/>
<polygon fill="none" stroke="#000000" points="810,-76.7 810,-95.7 872,-95.7 872,-76.7 810,-76.7"/>
<text text-anchor="start" x="862.8862" y="-82.8" font-family="Helvetica,sans-Serif" font-size="11.00" fill="#000000"> &#160;</text>
</a>
</g>
</g>
<!-- dq_result&#45;&gt;data_element -->
<g id="edge9" class="edge">
<title>dq_result:w&#45;&gt;data_element:e</title>
<path fill="none" stroke="#000000" d="M615.8004,-172.9382C580.1891,-193.1111 635.6214,-300.7 579,-300.7"/>
<polygon fill="#000000" stroke="#000000" points="622.2002,-171.4788 630.8005,-173.2099 626.1001,-170.5894 630,-169.7 630,-169.7 630,-169.7 626.1001,-170.5894 629.1995,-166.1901 622.2002,-171.4788 622.2002,-171.4788"/>
<ellipse fill="none" stroke="#000000" cx="619.0803" cy="-172.1903" rx="3.2" ry="3.2"/>
</g>
<!-- dq_result&#45;&gt;dq_metric -->
<g id="edge8" class="edge">
<title>dq_result:w&#45;&gt;dq_metric:e</title>
<path fill="none" stroke="#000000" d="M615.4368,-147.7C552.5196,-147.7 531.5625,-147.7 462,-147.7"/>
<polygon fill="#000000" stroke="#000000" points="622,-147.7001 630,-151.3 626,-147.7 630,-147.7 630,-147.7 630,-147.7 626,-147.7 630,-144.1 622,-147.7001 622,-147.7001"/>
<ellipse fill="none" stroke="#000000" cx="618.8" cy="-147.7001" rx="3.2" ry="3.2"/>
</g>
<!-- aggregation_process -->
<g id="node7" class="node">
<title>aggregation_process</title>
<g id="a_node7"><a xlink:href="../../tables/aggregation_process.html" xlink:title="aggregation_process" target="_top">
<polygon fill="#ffffff" stroke="transparent" points="334,-38.2 334,-99.2 494,-99.2 494,-38.2 334,-38.2"/>
<polygon fill="#f5f5f5" stroke="transparent" points="334,-75.7 334,-98.7 494,-98.7 494,-75.7 334,-75.7"/>
<polygon fill="none" stroke="#000000" points="334,-75.7 334,-98.7 494,-98.7 494,-75.7 334,-75.7"/>
<text text-anchor="start" x="339" y="-84.3" font-family="Helvetica,sans-Serif" font-weight="bold" font-size="11.00" fill="#000000">aggregation_process</text>
<text text-anchor="start" x="459.5219" y="-83.8" font-family="Helvetica,sans-Serif" font-size="11.00" fill="#000000">[table]</text>
<polygon fill="none" stroke="#000000" points="334,-56.7 334,-75.7 494,-75.7 494,-56.7 334,-56.7"/>
<text text-anchor="start" x="337" y="-62.8" font-family="Helvetica,sans-Serif" font-size="11.00" fill="#000000">...</text>
<polygon fill="#ffffff" stroke="transparent" points="334,-37.7 334,-56.7 403,-56.7 403,-37.7 334,-37.7"/>
<polygon fill="none" stroke="#000000" points="334,-37.7 334,-56.7 403,-56.7 403,-37.7 334,-37.7"/>
<text text-anchor="start" x="337" y="-43.8" font-family="Helvetica,sans-Serif" font-size="11.00" fill="#000000"> &#160;</text>
<polygon fill="#ffffff" stroke="transparent" points="403,-37.7 403,-56.7 444,-56.7 444,-37.7 403,-37.7"/>
<polygon fill="none" stroke="#000000" points="403,-37.7 403,-56.7 444,-56.7 444,-37.7 403,-37.7"/>
<text text-anchor="start" x="434.8862" y="-43.8" font-family="Helvetica,sans-Serif" font-size="11.00" fill="#000000"> &#160;</text>
<polygon fill="#ffffff" stroke="transparent" points="444,-37.7 444,-56.7 494,-56.7 494,-37.7 444,-37.7"/>
<polygon fill="none" stroke="#000000" points="444,-37.7 444,-56.7 494,-56.7 494,-37.7 444,-37.7"/>
<text text-anchor="start" x="475.4053" y="-43.8" font-family="Helvetica,sans-Serif" font-size="11.00" fill="#000000">3 &gt;</text>
</a>
</g>
</g>
<!-- dq_result&#45;&gt;aggregation_process -->
<g id="edge7" class="edge">
<title>dq_result:w&#45;&gt;aggregation_process:e</title>
<path fill="none" stroke="#000000" d="M616.1223,-121.576C582.7194,-108.0203 507.8712,-65.7 494,-65.7"/>
<polygon fill="#000000" stroke="#000000" points="622.3314,-123.4211 628.9745,-129.1509 626.1657,-124.5605 630,-125.7 630,-125.7 630,-125.7 626.1657,-124.5605 631.0255,-122.2491 622.3314,-123.4211 622.3314,-123.4211"/>
<ellipse fill="none" stroke="#000000" cx="619.264" cy="-122.5095" rx="3.2" ry="3.2"/>
</g>
</g>
</svg>
