<?xml version="1.0" encoding="UTF-8" standalone="no"?>
<!DOCTYPE svg PUBLIC "-//W3C//DTD SVG 1.1//EN"
 "http://www.w3.org/Graphics/SVG/1.1/DTD/svg11.dtd">
<!-- Generated by graphviz version 2.40.1 (20161225.0304)
 -->
<!-- Title: twoDegreesRelationshipsDiagram Pages: 1 -->
<svg width="909pt" height="504pt"
 viewBox="0.00 0.00 909.00 504.20" xmlns="http://www.w3.org/2000/svg" xmlns:xlink="http://www.w3.org/1999/xlink">
<g id="graph0" class="graph" transform="scale(1 1) rotate(0) translate(4 500.2)">
<title>twoDegreesRelationshipsDiagram</title>
<polygon fill="#ffffff" stroke="transparent" points="-4,4 -4,-500.2 905,-500.2 905,4 -4,4"/>
<text text-anchor="middle" x="72.4936" y="-7.3" font-family="Helvetica,sans-Serif" font-size="11.00" fill="#000000">Generated by SchemaSpy</text>
<!-- aggregation_process_computes_value_for_dimension -->
<g id="node1" class="node">
<title>aggregation_process_computes_value_for_dimension</title>
<g id="a_node1"><a xlink:href="../../tables/aggregation_process_computes_va_b73ff08c.html" xlink:title="aggregation_process_computes_value_for_dimension" target="_top">
<polygon fill="#ffffff" stroke="transparent" points="543,-431.2 543,-492.2 893,-492.2 893,-431.2 543,-431.2"/>
<polygon fill="#f5f5f5" stroke="transparent" points="543,-468.7 543,-491.7 893,-491.7 893,-468.7 543,-468.7"/>
<polygon fill="none" stroke="#000000" points="543,-468.7 543,-491.7 893,-491.7 893,-468.7 543,-468.7"/>
<text text-anchor="start" x="548" y="-477.3" font-family="Helvetica,sans-Serif" font-weight="bold" font-size="11.00" fill="#000000">aggregation_process_computes_value_for_dimension</text>
<text text-anchor="start" x="858.5219" y="-476.8" font-family="Helvetica,sans-Serif" font-size="11.00" fill="#000000">[table]</text>
<polygon fill="none" stroke="#000000" points="543,-449.7 543,-468.7 893,-468.7 893,-449.7 543,-449.7"/>
<text text-anchor="start" x="546" y="-455.8" font-family="Helvetica,sans-Serif" font-size="11.00" fill="#000000">...</text>
<polygon fill="#ffffff" stroke="transparent" points="543,-430.7 543,-449.7 716,-449.7 716,-430.7 543,-430.7"/>
<polygon fill="none" stroke="#000000" points="543,-430.7 543,-449.7 716,-449.7 716,-430.7 543,-430.7"/>
<text text-anchor="start" x="546" y="-436.8" font-family="Helvetica,sans-Serif" font-size="11.00" fill="#000000">&lt; 2</text>
<polygon fill="#ffffff" stroke="transparent" points="716,-430.7 716,-449.7 804,-449.7 804,-430.7 716,-430.7"/>
<polygon fill="none" stroke="#000000" points="716,-430.7 716,-449.7 804,-449.7 804,-430.7 716,-430.7"/>
<text text-anchor="start" x="794.8862" y="-436.8" font-family="Helvetica,sans-Serif" font-size="11.00" fill="#000000"> &#160;</text>
<polygon fill="#ffffff" stroke="transparent" points="804,-430.7 804,-449.7 893,-449.7 893,-430.7 804,-430.7"/>
<polygon fill="none" stroke="#000000" points="804,-430.7 804,-449.7 893,-449.7 893,-430.7 804,-430.7"/>
<text text-anchor="start" x="883.8862" y="-436.8" font-family="Helvetica,sans-Serif" font-size="11.00" fill="#000000"> &#160;</text>
</a>
</g>
</g>
<!-- aggregation_process -->
<g id="node2" class="node">
<title>aggregation_process</title>
<g id="a_node2"><a xlink:href="../../tables/aggregation_process.html" xlink:title="aggregation_process" target="_top">
<polygon fill="#ffffff" stroke="transparent" points="264,-328.2 264,-411.2 477,-411.2 477,-328.2 264,-328.2"/>
<polygon fill="#f5f5f5" stroke="transparent" points="264.5,-387.7 264.5,-410.7 477.5,-410.7 477.5,-387.7 264.5,-387.7"/>
<polygon fill="none" stroke="#000000" points="264.5,-387.7 264.5,-410.7 477.5,-410.7 477.5,-387.7 264.5,-387.7"/>
<text text-anchor="start" x="269.5" y="-396.3" font-family="Helvetica,sans-Serif" font-weight="bold" font-size="11.00" fill="#000000">aggregation_process</text>
<text text-anchor="start" x="442.5437" y="-395.8" font-family="Helvetica,sans-Serif" font-size="11.00" fill="#000000">[table]</text>
<polygon fill="none" stroke="#000000" points="264.5,-365.7 264.5,-387.7 477.5,-387.7 477.5,-365.7 264.5,-365.7"/>
<image xlink:href="../../images/primaryKeys.png" width="11px" height="12px" preserveAspectRatio="xMinYMin meet" x="269.5" y="-382.7"/>
<text text-anchor="start" x="284.5" y="-372.8" font-family="Helvetica,sans-Serif" font-size="11.00" fill="#000000">aggregation_process_name</text>
<polygon fill="none" stroke="#000000" points="264.5,-346.7 264.5,-365.7 477.5,-365.7 477.5,-346.7 264.5,-346.7"/>
<text text-anchor="start" x="267.5" y="-352.8" font-family="Helvetica,sans-Serif" font-size="11.00" fill="#000000">...</text>
<polygon fill="#ffffff" stroke="transparent" points="264.5,-327.7 264.5,-346.7 360.5,-346.7 360.5,-327.7 264.5,-327.7"/>
<polygon fill="none" stroke="#000000" points="264.5,-327.7 264.5,-346.7 360.5,-346.7 360.5,-327.7 264.5,-327.7"/>
<text text-anchor="start" x="267.5" y="-333.8" font-family="Helvetica,sans-Serif" font-size="11.00" fill="#000000"> &#160;</text>
<polygon fill="#ffffff" stroke="transparent" points="360.5,-327.7 360.5,-346.7 414.5,-346.7 414.5,-327.7 360.5,-327.7"/>
<polygon fill="none" stroke="#000000" points="360.5,-327.7 360.5,-346.7 414.5,-346.7 414.5,-327.7 360.5,-327.7"/>
<text text-anchor="start" x="405.3862" y="-333.8" font-family="Helvetica,sans-Serif" font-size="11.00" fill="#000000"> &#160;</text>
<polygon fill="#ffffff" stroke="transparent" points="414.5,-327.7 414.5,-346.7 477.5,-346.7 477.5,-327.7 414.5,-327.7"/>
<polygon fill="none" stroke="#000000" points="414.5,-327.7 414.5,-346.7 477.5,-346.7 477.5,-327.7 414.5,-327.7"/>
<text text-anchor="start" x="458.9053" y="-333.8" font-family="Helvetica,sans-Serif" font-size="11.00" fill="#000000">3 &gt;</text>
</a>
</g>
</g>
<!-- aggregation_process_computes_value_for_dimension&#45;&gt;aggregation_process -->
<g id="edge1" class="edge">
<title>aggregation_process_computes_value_for_dimension:w&#45;&gt;aggregation_process:e</title>
<path fill="none" stroke="#000000" d="M528.7068,-455.1766C502.14,-439.4813 518.3134,-376.7 477.5,-376.7"/>
<polygon fill="#000000" stroke="#000000" points="535.2325,-456.7852 542.1383,-462.1954 539.1163,-457.7426 543,-458.7 543,-458.7 543,-458.7 539.1163,-457.7426 543.8617,-455.2046 535.2325,-456.7852 535.2325,-456.7852"/>
<ellipse fill="none" stroke="#000000" cx="532.1255" cy="-456.0193" rx="3.2" ry="3.2"/>
</g>
<!-- aggregation_process_is_based_on -->
<g id="node3" class="node">
<title>aggregation_process_is_based_on</title>
<g id="a_node3"><a xlink:href="../../tables/aggregation_process_is_based_on.html" xlink:title="aggregation_process_is_based_on" target="_top">
<polygon fill="#ffffff" stroke="transparent" points="598.5,-349.2 598.5,-410.2 837.5,-410.2 837.5,-349.2 598.5,-349.2"/>
<polygon fill="#f5f5f5" stroke="transparent" points="599,-386.7 599,-409.7 838,-409.7 838,-386.7 599,-386.7"/>
<polygon fill="none" stroke="#000000" points="599,-386.7 599,-409.7 838,-409.7 838,-386.7 599,-386.7"/>
<text text-anchor="start" x="604" y="-395.3" font-family="Helvetica,sans-Serif" font-weight="bold" font-size="11.00" fill="#000000">aggregation_process_is_based_on</text>
<text text-anchor="start" x="803.5219" y="-394.8" font-family="Helvetica,sans-Serif" font-size="11.00" fill="#000000">[table]</text>
<polygon fill="none" stroke="#000000" points="599,-367.7 599,-386.7 838,-386.7 838,-367.7 599,-367.7"/>
<text text-anchor="start" x="602" y="-373.8" font-family="Helvetica,sans-Serif" font-size="11.00" fill="#000000">...</text>
<polygon fill="#ffffff" stroke="transparent" points="599,-348.7 599,-367.7 717,-367.7 717,-348.7 599,-348.7"/>
<polygon fill="none" stroke="#000000" points="599,-348.7 599,-367.7 717,-367.7 717,-348.7 599,-348.7"/>
<text text-anchor="start" x="602" y="-354.8" font-family="Helvetica,sans-Serif" font-size="11.00" fill="#000000">&lt; 3</text>
<polygon fill="#ffffff" stroke="transparent" points="717,-348.7 717,-367.7 777,-367.7 777,-348.7 717,-348.7"/>
<polygon fill="none" stroke="#000000" points="717,-348.7 717,-367.7 777,-367.7 777,-348.7 717,-348.7"/>
<text text-anchor="start" x="767.8862" y="-354.8" font-family="Helvetica,sans-Serif" font-size="11.00" fill="#000000"> &#160;</text>
<polygon fill="#ffffff" stroke="transparent" points="777,-348.7 777,-367.7 838,-367.7 838,-348.7 777,-348.7"/>
<polygon fill="none" stroke="#000000" points="777,-348.7 777,-367.7 838,-367.7 838,-348.7 777,-348.7"/>
<text text-anchor="start" x="828.8862" y="-354.8" font-family="Helvetica,sans-Serif" font-size="11.00" fill="#000000"> &#160;</text>
</a>
</g>
</g>
<!-- aggregation_process_is_based_on&#45;&gt;aggregation_process -->
<g id="edge2" class="edge">
<title>aggregation_process_is_based_on:w&#45;&gt;aggregation_process:e</title>
<path fill="none" stroke="#000000" d="M584.5379,-376.7C542.0451,-376.7 526.332,-376.7 477.5,-376.7"/>
<polygon fill="#000000" stroke="#000000" points="591,-376.7001 599,-380.3 595,-376.7 599,-376.7 599,-376.7 599,-376.7 595,-376.7 599,-373.1 591,-376.7001 591,-376.7001"/>
<ellipse fill="none" stroke="#000000" cx="587.8" cy="-376.7001" rx="3.2" ry="3.2"/>
</g>
<!-- data_element -->
<g id="node4" class="node">
<title>data_element</title>
<g id="a_node4"><a xlink:href="../../tables/data_element.html" xlink:title="data_element" target="_top">
<polygon fill="#ffffff" stroke="transparent" points="250.5,-164.2 250.5,-291.2 490.5,-291.2 490.5,-164.2 250.5,-164.2"/>
<polygon fill="#f5f5f5" stroke="transparent" points="250.5,-267.7 250.5,-290.7 490.5,-290.7 490.5,-267.7 250.5,-267.7"/>
<polygon fill="none" stroke="#000000" points="250.5,-267.7 250.5,-290.7 490.5,-290.7 490.5,-267.7 250.5,-267.7"/>
<text text-anchor="start" x="255.5" y="-276.3" font-family="Helvetica,sans-Serif" font-weight="bold" font-size="11.00" fill="#000000">data_element</text>
<text text-anchor="start" x="455.5437" y="-275.8" font-family="Helvetica,sans-Serif" font-size="11.00" fill="#000000">[table]</text>
<polygon fill="none" stroke="#000000" points="250.5,-245.7 250.5,-267.7 490.5,-267.7 490.5,-245.7 250.5,-245.7"/>
<image xlink:href="../../images/primaryKeys.png" width="11px" height="12px" preserveAspectRatio="xMinYMin meet" x="255.5" y="-262.7"/>
<text text-anchor="start" x="270.5" y="-252.8" font-family="Helvetica,sans-Serif" font-size="11.00" fill="#000000">data_element_global_identifier</text>
<polygon fill="none" stroke="#000000" points="250.5,-223.7 250.5,-245.7 490.5,-245.7 490.5,-223.7 250.5,-223.7"/>
<image xlink:href="../../images/foreignKeys.png" width="11px" height="12px" preserveAspectRatio="xMinYMin meet" x="255.5" y="-240.7"/>
<text text-anchor="start" x="270.5" y="-230.8" font-family="Helvetica,sans-Serif" font-size="11.00" fill="#000000">is_of_level_of_data_granularity</text>
<polygon fill="none" stroke="#000000" points="250.5,-201.7 250.5,-223.7 490.5,-223.7 490.5,-201.7 250.5,-201.7"/>
<image xlink:href="../../images/foreignKeys.png" width="11px" height="12px" preserveAspectRatio="xMinYMin meet" x="255.5" y="-218.7"/>
<text text-anchor="start" x="270.5" y="-208.8" font-family="Helvetica,sans-Serif" font-size="11.00" fill="#000000">parent_data_element_global_identifier</text>
<polygon fill="none" stroke="#000000" points="250.5,-182.7 250.5,-201.7 490.5,-201.7 490.5,-182.7 250.5,-182.7"/>
<text text-anchor="start" x="253.5" y="-188.8" font-family="Helvetica,sans-Serif" font-size="11.00" fill="#000000">...</text>
<polygon fill="#ffffff" stroke="transparent" points="250.5,-163.7 250.5,-182.7 364.5,-182.7 364.5,-163.7 250.5,-163.7"/>
<polygon fill="none" stroke="#000000" points="250.5,-163.7 250.5,-182.7 364.5,-182.7 364.5,-163.7 250.5,-163.7"/>
<text text-anchor="start" x="253.5" y="-169.8" font-family="Helvetica,sans-Serif" font-size="11.00" fill="#000000">&lt; 2</text>
<polygon fill="#ffffff" stroke="transparent" points="364.5,-163.7 364.5,-182.7 422.5,-182.7 422.5,-163.7 364.5,-163.7"/>
<polygon fill="none" stroke="#000000" points="364.5,-163.7 364.5,-182.7 422.5,-182.7 422.5,-163.7 364.5,-163.7"/>
<text text-anchor="start" x="413.3862" y="-169.8" font-family="Helvetica,sans-Serif" font-size="11.00" fill="#000000"> &#160;</text>
<polygon fill="#ffffff" stroke="transparent" points="422.5,-163.7 422.5,-182.7 490.5,-182.7 490.5,-163.7 422.5,-163.7"/>
<polygon fill="none" stroke="#000000" points="422.5,-163.7 422.5,-182.7 490.5,-182.7 490.5,-163.7 422.5,-163.7"/>
<text text-anchor="start" x="471.9053" y="-169.8" font-family="Helvetica,sans-Serif" font-size="11.00" fill="#000000">2 &gt;</text>
</a>
</g>
</g>
<!-- levels_of_data_granularity -->
<g id="node5" class="node">
<title>levels_of_data_granularity</title>
<g id="a_node5"><a xlink:href="../../tables/levels_of_data_granularity.html" xlink:title="levels_of_data_granularity" target="_top">
<polygon fill="#ffffff" stroke="transparent" points="8,-133.2 8,-194.2 198,-194.2 198,-133.2 8,-133.2"/>
<polygon fill="#f5f5f5" stroke="transparent" points="8,-170.7 8,-193.7 198,-193.7 198,-170.7 8,-170.7"/>
<polygon fill="none" stroke="#000000" points="8,-170.7 8,-193.7 198,-193.7 198,-170.7 8,-170.7"/>
<text text-anchor="start" x="13" y="-179.3" font-family="Helvetica,sans-Serif" font-weight="bold" font-size="11.00" fill="#000000">levels_of_data_granularity</text>
<text text-anchor="start" x="163.5219" y="-178.8" font-family="Helvetica,sans-Serif" font-size="11.00" fill="#000000">[table]</text>
<polygon fill="none" stroke="#000000" points="8,-151.7 8,-170.7 198,-170.7 198,-151.7 8,-151.7"/>
<text text-anchor="start" x="11" y="-157.8" font-family="Helvetica,sans-Serif" font-size="11.00" fill="#000000">...</text>
<polygon fill="#ffffff" stroke="transparent" points="8,-132.7 8,-151.7 92,-151.7 92,-132.7 8,-132.7"/>
<polygon fill="none" stroke="#000000" points="8,-132.7 8,-151.7 92,-151.7 92,-132.7 8,-132.7"/>
<text text-anchor="start" x="11" y="-138.8" font-family="Helvetica,sans-Serif" font-size="11.00" fill="#000000"> &#160;</text>
<polygon fill="#ffffff" stroke="transparent" points="92,-132.7 92,-151.7 140,-151.7 140,-132.7 92,-132.7"/>
<polygon fill="none" stroke="#000000" points="92,-132.7 92,-151.7 140,-151.7 140,-132.7 92,-132.7"/>
<text text-anchor="start" x="130.8862" y="-138.8" font-family="Helvetica,sans-Serif" font-size="11.00" fill="#000000"> &#160;</text>
<polygon fill="#ffffff" stroke="transparent" points="140,-132.7 140,-151.7 198,-151.7 198,-132.7 140,-132.7"/>
<polygon fill="none" stroke="#000000" points="140,-132.7 140,-151.7 198,-151.7 198,-132.7 140,-132.7"/>
<text text-anchor="start" x="179.4053" y="-138.8" font-family="Helvetica,sans-Serif" font-size="11.00" fill="#000000">5 &gt;</text>
</a>
</g>
</g>
<!-- data_element&#45;&gt;levels_of_data_granularity -->
<g id="edge3" class="edge">
<title>data_element:w&#45;&gt;levels_of_data_granularity:e</title>
<path fill="none" stroke="#000000" d="M236.6211,-230.2926C217.0232,-214.3617 232.3394,-160.7 198,-160.7"/>
<polygon fill="#000000" stroke="#000000" points="242.8752,-232.2786 249.4104,-238.1311 246.6876,-233.4893 250.5,-234.7 250.5,-234.7 250.5,-234.7 246.6876,-233.4893 251.5896,-231.2689 242.8752,-232.2786 242.8752,-232.2786"/>
<ellipse fill="none" stroke="#000000" cx="239.8253" cy="-231.3101" rx="3.2" ry="3.2"/>
</g>
<!-- dq_metric -->
<g id="node6" class="node">
<title>dq_metric</title>
<g id="a_node6"><a xlink:href="../../tables/dq_metric.html" xlink:title="dq_metric" target="_top">
<polygon fill="#ffffff" stroke="transparent" points="247,-38.2 247,-143.2 494,-143.2 494,-38.2 247,-38.2"/>
<polygon fill="#f5f5f5" stroke="transparent" points="247.5,-119.7 247.5,-142.7 494.5,-142.7 494.5,-119.7 247.5,-119.7"/>
<polygon fill="none" stroke="#000000" points="247.5,-119.7 247.5,-142.7 494.5,-142.7 494.5,-119.7 247.5,-119.7"/>
<text text-anchor="start" x="252.5" y="-128.3" font-family="Helvetica,sans-Serif" font-weight="bold" font-size="11.00" fill="#000000">dq_metric</text>
<text text-anchor="start" x="459.5437" y="-127.8" font-family="Helvetica,sans-Serif" font-size="11.00" fill="#000000">[table]</text>
<polygon fill="none" stroke="#000000" points="247.5,-97.7 247.5,-119.7 494.5,-119.7 494.5,-97.7 247.5,-97.7"/>
<image xlink:href="../../images/primaryKeys.png" width="11px" height="12px" preserveAspectRatio="xMinYMin meet" x="252.5" y="-114.7"/>
<text text-anchor="start" x="267.5" y="-104.8" font-family="Helvetica,sans-Serif" font-size="11.00" fill="#000000">metric_name</text>
<polygon fill="none" stroke="#000000" points="247.5,-75.7 247.5,-97.7 494.5,-97.7 494.5,-75.7 247.5,-75.7"/>
<image xlink:href="../../images/foreignKeys.png" width="11px" height="12px" preserveAspectRatio="xMinYMin meet" x="252.5" y="-92.7"/>
<text text-anchor="start" x="267.5" y="-82.8" font-family="Helvetica,sans-Serif" font-size="11.00" fill="#000000">designed_for_level_of_data_granularity</text>
<polygon fill="none" stroke="#000000" points="247.5,-56.7 247.5,-75.7 494.5,-75.7 494.5,-56.7 247.5,-56.7"/>
<text text-anchor="start" x="250.5" y="-62.8" font-family="Helvetica,sans-Serif" font-size="11.00" fill="#000000">...</text>
<polygon fill="#ffffff" stroke="transparent" points="247.5,-37.7 247.5,-56.7 364.5,-56.7 364.5,-37.7 247.5,-37.7"/>
<polygon fill="none" stroke="#000000" points="247.5,-37.7 247.5,-56.7 364.5,-56.7 364.5,-37.7 247.5,-37.7"/>
<text text-anchor="start" x="250.5" y="-43.8" font-family="Helvetica,sans-Serif" font-size="11.00" fill="#000000">&lt; 1</text>
<polygon fill="#ffffff" stroke="transparent" points="364.5,-37.7 364.5,-56.7 424.5,-56.7 424.5,-37.7 364.5,-37.7"/>
<polygon fill="none" stroke="#000000" points="364.5,-37.7 364.5,-56.7 424.5,-56.7 424.5,-37.7 364.5,-37.7"/>
<text text-anchor="start" x="415.3862" y="-43.8" font-family="Helvetica,sans-Serif" font-size="11.00" fill="#000000"> &#160;</text>
<polygon fill="#ffffff" stroke="transparent" points="424.5,-37.7 424.5,-56.7 494.5,-56.7 494.5,-37.7 424.5,-37.7"/>
<polygon fill="none" stroke="#000000" points="424.5,-37.7 424.5,-56.7 494.5,-56.7 494.5,-37.7 424.5,-37.7"/>
<text text-anchor="start" x="475.9053" y="-43.8" font-family="Helvetica,sans-Serif" font-size="11.00" fill="#000000">2 &gt;</text>
</a>
</g>
</g>
<!-- dq_metric&#45;&gt;levels_of_data_granularity -->
<g id="edge4" class="edge">
<title>dq_metric:w&#45;&gt;levels_of_data_granularity:e</title>
<path fill="none" stroke="#000000" d="M233.745,-91.329C215.3553,-107.5294 231.5406,-160.7 198,-160.7"/>
<polygon fill="#000000" stroke="#000000" points="239.9178,-89.2517 248.6483,-90.112 243.7089,-87.9758 247.5,-86.7 247.5,-86.7 247.5,-86.7 243.7089,-87.9758 246.3517,-83.288 239.9178,-89.2517 239.9178,-89.2517"/>
<ellipse fill="none" stroke="#000000" cx="236.885" cy="-90.2724" rx="3.2" ry="3.2"/>
</g>
<!-- dq_result -->
<g id="node7" class="node">
<title>dq_result</title>
<g id="a_node7"><a xlink:href="../../tables/dq_result.html" xlink:title="dq_result" target="_top">
<polygon fill="#ffffff" stroke="transparent" points="550,-171.7 550,-327.7 886,-327.7 886,-171.7 550,-171.7"/>
<polygon fill="#f5f5f5" stroke="transparent" points="552,-302.7 552,-325.7 884,-325.7 884,-302.7 552,-302.7"/>
<polygon fill="none" stroke="#000000" points="552,-302.7 552,-325.7 884,-325.7 884,-302.7 552,-302.7"/>
<text text-anchor="start" x="557" y="-311.3" font-family="Helvetica,sans-Serif" font-weight="bold" font-size="11.00" fill="#000000">dq_result</text>
<text text-anchor="start" x="849.0437" y="-310.8" font-family="Helvetica,sans-Serif" font-size="11.00" fill="#000000">[table]</text>
<polygon fill="#ffffff" stroke="transparent" points="552,-280.7 552,-302.7 794,-302.7 794,-280.7 552,-280.7"/>
<polygon fill="none" stroke="#000000" points="552,-280.7 552,-302.7 794,-302.7 794,-280.7 552,-280.7"/>
<text text-anchor="start" x="572" y="-287.8" font-family="Helvetica,sans-Serif" font-size="11.00" fill="#000000">creation_timestamp</text>
<polygon fill="none" stroke="#000000" points="794,-280.7 794,-302.7 884,-302.7 884,-280.7 794,-280.7"/>
<text text-anchor="start" x="797" y="-288.4" font-family="Helvetica,sans-Serif" font-size="11.00" fill="#000000">timestamp[29,6]</text>
<polygon fill="none" stroke="#000000" points="552,-258.7 552,-280.7 794,-280.7 794,-258.7 552,-258.7"/>
<text text-anchor="start" x="572" y="-265.8" font-family="Helvetica,sans-Serif" font-size="11.00" fill="#000000">result_value</text>
<polygon fill="none" stroke="#000000" points="794,-258.7 794,-280.7 884,-280.7 884,-258.7 794,-258.7"/>
<text text-anchor="start" x="797" y="-266.4" font-family="Helvetica,sans-Serif" font-size="11.00" fill="#000000">numeric[0]</text>
<polygon fill="#ffffff" stroke="transparent" points="552,-236.7 552,-258.7 794,-258.7 794,-236.7 552,-236.7"/>
<polygon fill="none" stroke="#000000" points="552,-236.7 552,-258.7 794,-258.7 794,-236.7 552,-236.7"/>
<image xlink:href="../../images/foreignKeys.png" width="11px" height="12px" preserveAspectRatio="xMinYMin meet" x="557" y="-253.7"/>
<text text-anchor="start" x="572" y="-243.8" font-family="Helvetica,sans-Serif" font-size="11.00" fill="#000000">computed_on_data_element_global_id</text>
<polygon fill="none" stroke="#000000" points="794,-236.7 794,-258.7 884,-258.7 884,-236.7 794,-236.7"/>
<text text-anchor="start" x="796.5043" y="-244.4" font-family="Helvetica,sans-Serif" font-size="11.00" fill="#000000">text[2147483647]</text>
<polygon fill="#ffffff" stroke="transparent" points="552,-214.7 552,-236.7 794,-236.7 794,-214.7 552,-214.7"/>
<polygon fill="none" stroke="#000000" points="552,-214.7 552,-236.7 794,-236.7 794,-214.7 552,-214.7"/>
<image xlink:href="../../images/foreignKeys.png" width="11px" height="12px" preserveAspectRatio="xMinYMin meet" x="557" y="-231.7"/>
<text text-anchor="start" x="572" y="-221.8" font-family="Helvetica,sans-Serif" font-size="11.00" fill="#000000">calculated_by_dq_metric</text>
<polygon fill="none" stroke="#000000" points="794,-214.7 794,-236.7 884,-236.7 884,-214.7 794,-214.7"/>
<text text-anchor="start" x="796.5043" y="-222.4" font-family="Helvetica,sans-Serif" font-size="11.00" fill="#000000">text[2147483647]</text>
<polygon fill="none" stroke="#000000" points="552,-192.7 552,-214.7 794,-214.7 794,-192.7 552,-192.7"/>
<image xlink:href="../../images/foreignKeys.png" width="11px" height="12px" preserveAspectRatio="xMinYMin meet" x="557" y="-209.7"/>
<text text-anchor="start" x="572" y="-199.8" font-family="Helvetica,sans-Serif" font-size="11.00" fill="#000000">calculated_by_aggregation_process</text>
<polygon fill="none" stroke="#000000" points="794,-192.7 794,-214.7 884,-214.7 884,-192.7 794,-192.7"/>
<text text-anchor="start" x="796.5043" y="-200.4" font-family="Helvetica,sans-Serif" font-size="11.00" fill="#000000">text[2147483647]</text>
<polygon fill="#ffffff" stroke="transparent" points="552,-173.7 552,-192.7 677,-192.7 677,-173.7 552,-173.7"/>
<polygon fill="none" stroke="#000000" points="552,-173.7 552,-192.7 677,-192.7 677,-173.7 552,-173.7"/>
<text text-anchor="start" x="555" y="-179.8" font-family="Helvetica,sans-Serif" font-size="11.00" fill="#000000">&lt; 3</text>
<polygon fill="#ffffff" stroke="transparent" points="677,-173.7 677,-192.7 794,-192.7 794,-173.7 677,-173.7"/>
<polygon fill="none" stroke="#000000" points="677,-173.7 677,-192.7 794,-192.7 794,-173.7 677,-173.7"/>
<text text-anchor="start" x="784.8862" y="-179.8" font-family="Helvetica,sans-Serif" font-size="11.00" fill="#000000"> &#160;</text>
<polygon fill="#ffffff" stroke="transparent" points="794,-173.7 794,-192.7 884,-192.7 884,-173.7 794,-173.7"/>
<polygon fill="none" stroke="#000000" points="794,-173.7 794,-192.7 884,-192.7 884,-173.7 794,-173.7"/>
<text text-anchor="start" x="865.4053" y="-179.8" font-family="Helvetica,sans-Serif" font-size="11.00" fill="#000000">0 &gt;</text>
<polygon fill="none" stroke="#000000" stroke-width="2" points="551,-172.7 551,-326.7 885,-326.7 885,-172.7 551,-172.7"/>
</a>
</g>
</g>
<!-- dq_result&#45;&gt;aggregation_process -->
<g id="edge5" class="edge">
<title>dq_result:w&#45;&gt;aggregation_process:e</title>
<path fill="none" stroke="#000000" d="M537.5558,-205.8874C479.8481,-225.9137 555.6561,-376.7 477.5,-376.7"/>
<polygon fill="#000000" stroke="#000000" points="544.0902,-204.8979 552.539,-207.2594 548.0451,-204.2989 552,-203.7 552,-203.7 552,-203.7 548.0451,-204.2989 551.461,-200.1406 544.0902,-204.8979 544.0902,-204.8979"/>
<ellipse fill="none" stroke="#000000" cx="540.9263" cy="-205.377" rx="3.2" ry="3.2"/>
</g>
<!-- dq_result&#45;&gt;data_element -->
<g id="edge7" class="edge">
<title>dq_result:w&#45;&gt;data_element:e</title>
<path fill="none" stroke="#000000" d="M537.4537,-248.6632C520.9542,-250.9849 512.5132,-256.7 490.5,-256.7"/>
<polygon fill="#000000" stroke="#000000" points="544.0175,-248.2286 552.2379,-251.2921 548.0087,-247.9643 552,-247.7 552,-247.7 552,-247.7 548.0087,-247.9643 551.7621,-244.1079 544.0175,-248.2286 544.0175,-248.2286"/>
<ellipse fill="none" stroke="#000000" cx="540.8245" cy="-248.44" rx="3.2" ry="3.2"/>
</g>
<!-- dq_result&#45;&gt;dq_metric -->
<g id="edge6" class="edge">
<title>dq_result:w&#45;&gt;dq_metric:e</title>
<path fill="none" stroke="#000000" d="M537.7021,-222.3246C504.7184,-203.1412 546.5558,-108.7 494.5,-108.7"/>
<polygon fill="#000000" stroke="#000000" points="544.214,-223.8619 551.1728,-229.2037 548.107,-224.7809 552,-225.7 552,-225.7 552,-225.7 548.107,-224.7809 552.8272,-222.1963 544.214,-223.8619 544.214,-223.8619"/>
<ellipse fill="none" stroke="#000000" cx="541.0996" cy="-223.1266" rx="3.2" ry="3.2"/>
</g>
<!-- metric_computes_value_for_dimension -->
<g id="node8" class="node">
<title>metric_computes_value_for_dimension</title>
<g id="a_node8"><a xlink:href="../../tables/metric_computes_value_for_dimension.html" xlink:title="metric_computes_value_for_dimension" target="_top">
<polygon fill="#ffffff" stroke="transparent" points="585.5,-81.2 585.5,-142.2 850.5,-142.2 850.5,-81.2 585.5,-81.2"/>
<polygon fill="#f5f5f5" stroke="transparent" points="586,-118.7 586,-141.7 851,-141.7 851,-118.7 586,-118.7"/>
<polygon fill="none" stroke="#000000" points="586,-118.7 586,-141.7 851,-141.7 851,-118.7 586,-118.7"/>
<text text-anchor="start" x="591" y="-127.3" font-family="Helvetica,sans-Serif" font-weight="bold" font-size="11.00" fill="#000000">metric_computes_value_for_dimension</text>
<text text-anchor="start" x="816.5219" y="-126.8" font-family="Helvetica,sans-Serif" font-size="11.00" fill="#000000">[table]</text>
<polygon fill="none" stroke="#000000" points="586,-99.7 586,-118.7 851,-118.7 851,-99.7 586,-99.7"/>
<text text-anchor="start" x="589" y="-105.8" font-family="Helvetica,sans-Serif" font-size="11.00" fill="#000000">...</text>
<polygon fill="#ffffff" stroke="transparent" points="586,-80.7 586,-99.7 717,-99.7 717,-80.7 586,-80.7"/>
<polygon fill="none" stroke="#000000" points="586,-80.7 586,-99.7 717,-99.7 717,-80.7 586,-80.7"/>
<text text-anchor="start" x="589" y="-86.8" font-family="Helvetica,sans-Serif" font-size="11.00" fill="#000000">&lt; 2</text>
<polygon fill="#ffffff" stroke="transparent" points="717,-80.7 717,-99.7 784,-99.7 784,-80.7 717,-80.7"/>
<polygon fill="none" stroke="#000000" points="717,-80.7 717,-99.7 784,-99.7 784,-80.7 717,-80.7"/>
<text text-anchor="start" x="774.8862" y="-86.8" font-family="Helvetica,sans-Serif" font-size="11.00" fill="#000000"> &#160;</text>
<polygon fill="#ffffff" stroke="transparent" points="784,-80.7 784,-99.7 851,-99.7 851,-80.7 784,-80.7"/>
<polygon fill="none" stroke="#000000" points="784,-80.7 784,-99.7 851,-99.7 851,-80.7 784,-80.7"/>
<text text-anchor="start" x="841.8862" y="-86.8" font-family="Helvetica,sans-Serif" font-size="11.00" fill="#000000"> &#160;</text>
</a>
</g>
</g>
<!-- metric_computes_value_for_dimension&#45;&gt;dq_metric -->
<g id="edge8" class="edge">
<title>metric_computes_value_for_dimension:w&#45;&gt;dq_metric:e</title>
<path fill="none" stroke="#000000" d="M571.268,-108.7C542.0948,-108.7 529.7656,-108.7 494.5,-108.7"/>
<polygon fill="#000000" stroke="#000000" points="578,-108.7001 586,-112.3 582,-108.7 586,-108.7 586,-108.7 586,-108.7 582,-108.7 586,-105.1 578,-108.7001 578,-108.7001"/>
<ellipse fill="none" stroke="#000000" cx="574.8" cy="-108.7001" rx="3.2" ry="3.2"/>
</g>
</g>
</svg>
