<?xml version="1.0" encoding="UTF-8" standalone="no"?>
<!DOCTYPE svg PUBLIC "-//W3C//DTD SVG 1.1//EN"
 "http://www.w3.org/Graphics/SVG/1.1/DTD/svg11.dtd">
<!-- Generated by graphviz version 2.40.1 (20161225.0304)
 -->
<!-- Title: oneDegreeRelationshipsDiagram Pages: 1 -->
<svg width="656pt" height="407pt"
 viewBox="0.00 0.00 656.00 407.20" xmlns="http://www.w3.org/2000/svg" xmlns:xlink="http://www.w3.org/1999/xlink">
<g id="graph0" class="graph" transform="scale(1 1) rotate(0) translate(4 403.2)">
<title>oneDegreeRelationshipsDiagram</title>
<polygon fill="#ffffff" stroke="transparent" points="-4,4 -4,-403.2 652,-403.2 652,4 -4,4"/>
<text text-anchor="middle" x="72.4936" y="-7.3" font-family="Helvetica,sans-Serif" font-size="11.00" fill="#000000">Generated by SchemaSpy</text>
<!-- dq_result -->
<g id="node1" class="node">
<title>dq_result</title>
<g id="a_node1"><a xlink:href="../../tables/dq_result.html" xlink:title="dq_result" target="_top">
<polygon fill="#ffffff" stroke="transparent" points="304,-158.7 304,-314.7 640,-314.7 640,-158.7 304,-158.7"/>
<polygon fill="#f5f5f5" stroke="transparent" points="306,-289.7 306,-312.7 638,-312.7 638,-289.7 306,-289.7"/>
<polygon fill="none" stroke="#000000" points="306,-289.7 306,-312.7 638,-312.7 638,-289.7 306,-289.7"/>
<text text-anchor="start" x="311" y="-298.3" font-family="Helvetica,sans-Serif" font-weight="bold" font-size="11.00" fill="#000000">dq_result</text>
<text text-anchor="start" x="603.0437" y="-297.8" font-family="Helvetica,sans-Serif" font-size="11.00" fill="#000000">[table]</text>
<polygon fill="#ffffff" stroke="transparent" points="306,-267.7 306,-289.7 548,-289.7 548,-267.7 306,-267.7"/>
<polygon fill="none" stroke="#000000" points="306,-267.7 306,-289.7 548,-289.7 548,-267.7 306,-267.7"/>
<text text-anchor="start" x="326" y="-274.8" font-family="Helvetica,sans-Serif" font-size="11.00" fill="#000000">creation_timestamp</text>
<polygon fill="none" stroke="#000000" points="548,-267.7 548,-289.7 638,-289.7 638,-267.7 548,-267.7"/>
<text text-anchor="start" x="551" y="-275.4" font-family="Helvetica,sans-Serif" font-size="11.00" fill="#000000">timestamp[29,6]</text>
<polygon fill="none" stroke="#000000" points="306,-245.7 306,-267.7 548,-267.7 548,-245.7 306,-245.7"/>
<text text-anchor="start" x="326" y="-252.8" font-family="Helvetica,sans-Serif" font-size="11.00" fill="#000000">result_value</text>
<polygon fill="none" stroke="#000000" points="548,-245.7 548,-267.7 638,-267.7 638,-245.7 548,-245.7"/>
<text text-anchor="start" x="551" y="-253.4" font-family="Helvetica,sans-Serif" font-size="11.00" fill="#000000">numeric[0]</text>
<polygon fill="#ffffff" stroke="transparent" points="306,-223.7 306,-245.7 548,-245.7 548,-223.7 306,-223.7"/>
<polygon fill="none" stroke="#000000" points="306,-223.7 306,-245.7 548,-245.7 548,-223.7 306,-223.7"/>
<image xlink:href="../../images/foreignKeys.png" width="11px" height="12px" preserveAspectRatio="xMinYMin meet" x="311" y="-240.7"/>
<text text-anchor="start" x="326" y="-230.8" font-family="Helvetica,sans-Serif" font-size="11.00" fill="#000000">computed_on_data_element_global_id</text>
<polygon fill="none" stroke="#000000" points="548,-223.7 548,-245.7 638,-245.7 638,-223.7 548,-223.7"/>
<text text-anchor="start" x="550.5043" y="-231.4" font-family="Helvetica,sans-Serif" font-size="11.00" fill="#000000">text[2147483647]</text>
<polygon fill="#ffffff" stroke="transparent" points="306,-201.7 306,-223.7 548,-223.7 548,-201.7 306,-201.7"/>
<polygon fill="none" stroke="#000000" points="306,-201.7 306,-223.7 548,-223.7 548,-201.7 306,-201.7"/>
<image xlink:href="../../images/foreignKeys.png" width="11px" height="12px" preserveAspectRatio="xMinYMin meet" x="311" y="-218.7"/>
<text text-anchor="start" x="326" y="-208.8" font-family="Helvetica,sans-Serif" font-size="11.00" fill="#000000">calculated_by_dq_metric</text>
<polygon fill="none" stroke="#000000" points="548,-201.7 548,-223.7 638,-223.7 638,-201.7 548,-201.7"/>
<text text-anchor="start" x="550.5043" y="-209.4" font-family="Helvetica,sans-Serif" font-size="11.00" fill="#000000">text[2147483647]</text>
<polygon fill="none" stroke="#000000" points="306,-179.7 306,-201.7 548,-201.7 548,-179.7 306,-179.7"/>
<image xlink:href="../../images/foreignKeys.png" width="11px" height="12px" preserveAspectRatio="xMinYMin meet" x="311" y="-196.7"/>
<text text-anchor="start" x="326" y="-186.8" font-family="Helvetica,sans-Serif" font-size="11.00" fill="#000000">calculated_by_aggregation_process</text>
<polygon fill="none" stroke="#000000" points="548,-179.7 548,-201.7 638,-201.7 638,-179.7 548,-179.7"/>
<text text-anchor="start" x="550.5043" y="-187.4" font-family="Helvetica,sans-Serif" font-size="11.00" fill="#000000">text[2147483647]</text>
<polygon fill="#ffffff" stroke="transparent" points="306,-160.7 306,-179.7 431,-179.7 431,-160.7 306,-160.7"/>
<polygon fill="none" stroke="#000000" points="306,-160.7 306,-179.7 431,-179.7 431,-160.7 306,-160.7"/>
<text text-anchor="start" x="309" y="-166.8" font-family="Helvetica,sans-Serif" font-size="11.00" fill="#000000">&lt; 3</text>
<polygon fill="#ffffff" stroke="transparent" points="431,-160.7 431,-179.7 548,-179.7 548,-160.7 431,-160.7"/>
<polygon fill="none" stroke="#000000" points="431,-160.7 431,-179.7 548,-179.7 548,-160.7 431,-160.7"/>
<text text-anchor="start" x="538.8862" y="-166.8" font-family="Helvetica,sans-Serif" font-size="11.00" fill="#000000"> &#160;</text>
<polygon fill="#ffffff" stroke="transparent" points="548,-160.7 548,-179.7 638,-179.7 638,-160.7 548,-160.7"/>
<polygon fill="none" stroke="#000000" points="548,-160.7 548,-179.7 638,-179.7 638,-160.7 548,-160.7"/>
<text text-anchor="start" x="619.4053" y="-166.8" font-family="Helvetica,sans-Serif" font-size="11.00" fill="#000000">0 &gt;</text>
<polygon fill="none" stroke="#000000" stroke-width="2" points="305,-159.7 305,-313.7 639,-313.7 639,-159.7 305,-159.7"/>
</a>
</g>
</g>
<!-- aggregation_process -->
<g id="node2" class="node">
<title>aggregation_process</title>
<g id="a_node2"><a xlink:href="../../tables/aggregation_process.html" xlink:title="aggregation_process" target="_top">
<polygon fill="#ffffff" stroke="transparent" points="25,-38.2 25,-121.2 238,-121.2 238,-38.2 25,-38.2"/>
<polygon fill="#f5f5f5" stroke="transparent" points="25.5,-97.7 25.5,-120.7 238.5,-120.7 238.5,-97.7 25.5,-97.7"/>
<polygon fill="none" stroke="#000000" points="25.5,-97.7 25.5,-120.7 238.5,-120.7 238.5,-97.7 25.5,-97.7"/>
<text text-anchor="start" x="30.5" y="-106.3" font-family="Helvetica,sans-Serif" font-weight="bold" font-size="11.00" fill="#000000">aggregation_process</text>
<text text-anchor="start" x="203.5437" y="-105.8" font-family="Helvetica,sans-Serif" font-size="11.00" fill="#000000">[table]</text>
<polygon fill="none" stroke="#000000" points="25.5,-75.7 25.5,-97.7 238.5,-97.7 238.5,-75.7 25.5,-75.7"/>
<image xlink:href="../../images/primaryKeys.png" width="11px" height="12px" preserveAspectRatio="xMinYMin meet" x="30.5" y="-92.7"/>
<text text-anchor="start" x="45.5" y="-82.8" font-family="Helvetica,sans-Serif" font-size="11.00" fill="#000000">aggregation_process_name</text>
<polygon fill="none" stroke="#000000" points="25.5,-56.7 25.5,-75.7 238.5,-75.7 238.5,-56.7 25.5,-56.7"/>
<text text-anchor="start" x="28.5" y="-62.8" font-family="Helvetica,sans-Serif" font-size="11.00" fill="#000000">...</text>
<polygon fill="#ffffff" stroke="transparent" points="25.5,-37.7 25.5,-56.7 121.5,-56.7 121.5,-37.7 25.5,-37.7"/>
<polygon fill="none" stroke="#000000" points="25.5,-37.7 25.5,-56.7 121.5,-56.7 121.5,-37.7 25.5,-37.7"/>
<text text-anchor="start" x="28.5" y="-43.8" font-family="Helvetica,sans-Serif" font-size="11.00" fill="#000000"> &#160;</text>
<polygon fill="#ffffff" stroke="transparent" points="121.5,-37.7 121.5,-56.7 175.5,-56.7 175.5,-37.7 121.5,-37.7"/>
<polygon fill="none" stroke="#000000" points="121.5,-37.7 121.5,-56.7 175.5,-56.7 175.5,-37.7 121.5,-37.7"/>
<text text-anchor="start" x="166.3862" y="-43.8" font-family="Helvetica,sans-Serif" font-size="11.00" fill="#000000"> &#160;</text>
<polygon fill="#ffffff" stroke="transparent" points="175.5,-37.7 175.5,-56.7 238.5,-56.7 238.5,-37.7 175.5,-37.7"/>
<polygon fill="none" stroke="#000000" points="175.5,-37.7 175.5,-56.7 238.5,-56.7 238.5,-37.7 175.5,-37.7"/>
<text text-anchor="start" x="219.9053" y="-43.8" font-family="Helvetica,sans-Serif" font-size="11.00" fill="#000000">3 &gt;</text>
</a>
</g>
</g>
<!-- dq_result&#45;&gt;aggregation_process -->
<g id="edge1" class="edge">
<title>dq_result:w&#45;&gt;aggregation_process:e</title>
<path fill="none" stroke="#000000" d="M291.5992,-187.4734C258.8165,-169.9194 287.7926,-86.7 238.5,-86.7"/>
<polygon fill="#000000" stroke="#000000" points="298.1935,-188.9509 305.2129,-194.2129 302.0968,-189.8254 306,-190.7 306,-190.7 306,-190.7 302.0968,-189.8254 306.7871,-187.1871 298.1935,-188.9509 298.1935,-188.9509"/>
<ellipse fill="none" stroke="#000000" cx="295.071" cy="-188.2512" rx="3.2" ry="3.2"/>
</g>
<!-- dq_metric -->
<g id="node3" class="node">
<title>dq_metric</title>
<g id="a_node3"><a xlink:href="../../tables/dq_metric.html" xlink:title="dq_metric" target="_top">
<polygon fill="#ffffff" stroke="transparent" points="8,-142.2 8,-247.2 255,-247.2 255,-142.2 8,-142.2"/>
<polygon fill="#f5f5f5" stroke="transparent" points="8.5,-223.7 8.5,-246.7 255.5,-246.7 255.5,-223.7 8.5,-223.7"/>
<polygon fill="none" stroke="#000000" points="8.5,-223.7 8.5,-246.7 255.5,-246.7 255.5,-223.7 8.5,-223.7"/>
<text text-anchor="start" x="13.5" y="-232.3" font-family="Helvetica,sans-Serif" font-weight="bold" font-size="11.00" fill="#000000">dq_metric</text>
<text text-anchor="start" x="220.5437" y="-231.8" font-family="Helvetica,sans-Serif" font-size="11.00" fill="#000000">[table]</text>
<polygon fill="none" stroke="#000000" points="8.5,-201.7 8.5,-223.7 255.5,-223.7 255.5,-201.7 8.5,-201.7"/>
<image xlink:href="../../images/primaryKeys.png" width="11px" height="12px" preserveAspectRatio="xMinYMin meet" x="13.5" y="-218.7"/>
<text text-anchor="start" x="28.5" y="-208.8" font-family="Helvetica,sans-Serif" font-size="11.00" fill="#000000">metric_name</text>
<polygon fill="none" stroke="#000000" points="8.5,-179.7 8.5,-201.7 255.5,-201.7 255.5,-179.7 8.5,-179.7"/>
<image xlink:href="../../images/foreignKeys.png" width="11px" height="12px" preserveAspectRatio="xMinYMin meet" x="13.5" y="-196.7"/>
<text text-anchor="start" x="28.5" y="-186.8" font-family="Helvetica,sans-Serif" font-size="11.00" fill="#000000">designed_for_level_of_data_granularity</text>
<polygon fill="none" stroke="#000000" points="8.5,-160.7 8.5,-179.7 255.5,-179.7 255.5,-160.7 8.5,-160.7"/>
<text text-anchor="start" x="11.5" y="-166.8" font-family="Helvetica,sans-Serif" font-size="11.00" fill="#000000">...</text>
<polygon fill="#ffffff" stroke="transparent" points="8.5,-141.7 8.5,-160.7 125.5,-160.7 125.5,-141.7 8.5,-141.7"/>
<polygon fill="none" stroke="#000000" points="8.5,-141.7 8.5,-160.7 125.5,-160.7 125.5,-141.7 8.5,-141.7"/>
<text text-anchor="start" x="11.5" y="-147.8" font-family="Helvetica,sans-Serif" font-size="11.00" fill="#000000">&lt; 1</text>
<polygon fill="#ffffff" stroke="transparent" points="125.5,-141.7 125.5,-160.7 185.5,-160.7 185.5,-141.7 125.5,-141.7"/>
<polygon fill="none" stroke="#000000" points="125.5,-141.7 125.5,-160.7 185.5,-160.7 185.5,-141.7 125.5,-141.7"/>
<text text-anchor="start" x="176.3862" y="-147.8" font-family="Helvetica,sans-Serif" font-size="11.00" fill="#000000"> &#160;</text>
<polygon fill="#ffffff" stroke="transparent" points="185.5,-141.7 185.5,-160.7 255.5,-160.7 255.5,-141.7 185.5,-141.7"/>
<polygon fill="none" stroke="#000000" points="185.5,-141.7 185.5,-160.7 255.5,-160.7 255.5,-141.7 185.5,-141.7"/>
<text text-anchor="start" x="236.9053" y="-147.8" font-family="Helvetica,sans-Serif" font-size="11.00" fill="#000000">2 &gt;</text>
</a>
</g>
</g>
<!-- dq_result&#45;&gt;dq_metric -->
<g id="edge2" class="edge">
<title>dq_result:w&#45;&gt;dq_metric:e</title>
<path fill="none" stroke="#000000" d="M291.4203,-212.7C279.5435,-212.7 272.158,-212.7 255.5,-212.7"/>
<polygon fill="#000000" stroke="#000000" points="298,-212.7001 306,-216.3 302,-212.7 306,-212.7 306,-212.7 306,-212.7 302,-212.7 306,-209.1 298,-212.7001 298,-212.7001"/>
<ellipse fill="none" stroke="#000000" cx="294.8" cy="-212.7001" rx="3.2" ry="3.2"/>
</g>
<!-- data_element -->
<g id="node4" class="node">
<title>data_element</title>
<g id="a_node4"><a xlink:href="../../tables/data_element.html" xlink:title="data_element" target="_top">
<polygon fill="#ffffff" stroke="transparent" points="11.5,-268.2 11.5,-395.2 251.5,-395.2 251.5,-268.2 11.5,-268.2"/>
<polygon fill="#f5f5f5" stroke="transparent" points="11.5,-371.7 11.5,-394.7 251.5,-394.7 251.5,-371.7 11.5,-371.7"/>
<polygon fill="none" stroke="#000000" points="11.5,-371.7 11.5,-394.7 251.5,-394.7 251.5,-371.7 11.5,-371.7"/>
<text text-anchor="start" x="16.5" y="-380.3" font-family="Helvetica,sans-Serif" font-weight="bold" font-size="11.00" fill="#000000">data_element</text>
<text text-anchor="start" x="216.5437" y="-379.8" font-family="Helvetica,sans-Serif" font-size="11.00" fill="#000000">[table]</text>
<polygon fill="none" stroke="#000000" points="11.5,-349.7 11.5,-371.7 251.5,-371.7 251.5,-349.7 11.5,-349.7"/>
<image xlink:href="../../images/primaryKeys.png" width="11px" height="12px" preserveAspectRatio="xMinYMin meet" x="16.5" y="-366.7"/>
<text text-anchor="start" x="31.5" y="-356.8" font-family="Helvetica,sans-Serif" font-size="11.00" fill="#000000">data_element_global_identifier</text>
<polygon fill="none" stroke="#000000" points="11.5,-327.7 11.5,-349.7 251.5,-349.7 251.5,-327.7 11.5,-327.7"/>
<image xlink:href="../../images/foreignKeys.png" width="11px" height="12px" preserveAspectRatio="xMinYMin meet" x="16.5" y="-344.7"/>
<text text-anchor="start" x="31.5" y="-334.8" font-family="Helvetica,sans-Serif" font-size="11.00" fill="#000000">is_of_level_of_data_granularity</text>
<polygon fill="none" stroke="#000000" points="11.5,-305.7 11.5,-327.7 251.5,-327.7 251.5,-305.7 11.5,-305.7"/>
<image xlink:href="../../images/foreignKeys.png" width="11px" height="12px" preserveAspectRatio="xMinYMin meet" x="16.5" y="-322.7"/>
<text text-anchor="start" x="31.5" y="-312.8" font-family="Helvetica,sans-Serif" font-size="11.00" fill="#000000">parent_data_element_global_identifier</text>
<polygon fill="none" stroke="#000000" points="11.5,-286.7 11.5,-305.7 251.5,-305.7 251.5,-286.7 11.5,-286.7"/>
<text text-anchor="start" x="14.5" y="-292.8" font-family="Helvetica,sans-Serif" font-size="11.00" fill="#000000">...</text>
<polygon fill="#ffffff" stroke="transparent" points="11.5,-267.7 11.5,-286.7 125.5,-286.7 125.5,-267.7 11.5,-267.7"/>
<polygon fill="none" stroke="#000000" points="11.5,-267.7 11.5,-286.7 125.5,-286.7 125.5,-267.7 11.5,-267.7"/>
<text text-anchor="start" x="14.5" y="-273.8" font-family="Helvetica,sans-Serif" font-size="11.00" fill="#000000">&lt; 2</text>
<polygon fill="#ffffff" stroke="transparent" points="125.5,-267.7 125.5,-286.7 183.5,-286.7 183.5,-267.7 125.5,-267.7"/>
<polygon fill="none" stroke="#000000" points="125.5,-267.7 125.5,-286.7 183.5,-286.7 183.5,-267.7 125.5,-267.7"/>
<text text-anchor="start" x="174.3862" y="-273.8" font-family="Helvetica,sans-Serif" font-size="11.00" fill="#000000"> &#160;</text>
<polygon fill="#ffffff" stroke="transparent" points="183.5,-267.7 183.5,-286.7 251.5,-286.7 251.5,-267.7 183.5,-267.7"/>
<polygon fill="none" stroke="#000000" points="183.5,-267.7 183.5,-286.7 251.5,-286.7 251.5,-267.7 183.5,-267.7"/>
<text text-anchor="start" x="232.9053" y="-273.8" font-family="Helvetica,sans-Serif" font-size="11.00" fill="#000000">2 &gt;</text>
</a>
</g>
</g>
<!-- dq_result&#45;&gt;data_element -->
<g id="edge3" class="edge">
<title>dq_result:w&#45;&gt;data_element:e</title>
<path fill="none" stroke="#000000" d="M291.563,-238.0702C256.9491,-258.1077 306.5557,-360.7 251.5,-360.7"/>
<polygon fill="#000000" stroke="#000000" points="298.2095,-236.5187 306.8184,-238.2057 302.1047,-235.6093 306,-234.7 306,-234.7 306,-234.7 302.1047,-235.6093 305.1816,-231.1943 298.2095,-236.5187 298.2095,-236.5187"/>
<ellipse fill="none" stroke="#000000" cx="295.0932" cy="-237.2461" rx="3.2" ry="3.2"/>
</g>
</g>
</svg>
