<?xml version="1.0" encoding="UTF-8" standalone="no"?>
<!DOCTYPE svg PUBLIC "-//W3C//DTD SVG 1.1//EN"
 "http://www.w3.org/Graphics/SVG/1.1/DTD/svg11.dtd">
<!-- Generated by graphviz version 2.40.1 (20161225.0304)
 -->
<!-- Title: twoDegreesRelationshipsDiagram Pages: 1 -->
<svg width="900pt" height="577pt"
 viewBox="0.00 0.00 900.00 577.20" xmlns="http://www.w3.org/2000/svg" xmlns:xlink="http://www.w3.org/1999/xlink">
<g id="graph0" class="graph" transform="scale(1 1) rotate(0) translate(4 573.2)">
<title>twoDegreesRelationshipsDiagram</title>
<polygon fill="#ffffff" stroke="transparent" points="-4,4 -4,-573.2 896,-573.2 896,4 -4,4"/>
<text text-anchor="middle" x="72.4936" y="-7.3" font-family="Helvetica,sans-Serif" font-size="11.00" fill="#000000">Generated by SchemaSpy</text>
<!-- aggregation_constraint -->
<g id="node1" class="node">
<title>aggregation_constraint</title>
<g id="a_node1"><a xlink:href="../../tables/aggregation_constraint.html" xlink:title="aggregation_constraint" target="_top">
<polygon fill="#ffffff" stroke="transparent" points="334,-460.2 334,-565.2 559,-565.2 559,-460.2 334,-460.2"/>
<polygon fill="#f5f5f5" stroke="transparent" points="334.5,-541.7 334.5,-564.7 559.5,-564.7 559.5,-541.7 334.5,-541.7"/>
<polygon fill="none" stroke="#000000" points="334.5,-541.7 334.5,-564.7 559.5,-564.7 559.5,-541.7 334.5,-541.7"/>
<text text-anchor="start" x="339.5" y="-550.3" font-family="Helvetica,sans-Serif" font-weight="bold" font-size="11.00" fill="#000000">aggregation_constraint</text>
<text text-anchor="start" x="524.5437" y="-549.8" font-family="Helvetica,sans-Serif" font-size="11.00" fill="#000000">[table]</text>
<polygon fill="none" stroke="#000000" points="334.5,-519.7 334.5,-541.7 559.5,-541.7 559.5,-519.7 334.5,-519.7"/>
<image xlink:href="../../images/primaryKeys.png" width="11px" height="12px" preserveAspectRatio="xMinYMin meet" x="339.5" y="-536.7"/>
<text text-anchor="start" x="354.5" y="-526.8" font-family="Helvetica,sans-Serif" font-size="11.00" fill="#000000">aggregation_constraint_name</text>
<polygon fill="none" stroke="#000000" points="334.5,-497.7 334.5,-519.7 559.5,-519.7 559.5,-497.7 334.5,-497.7"/>
<image xlink:href="../../images/foreignKeys.png" width="11px" height="12px" preserveAspectRatio="xMinYMin meet" x="339.5" y="-514.7"/>
<text text-anchor="start" x="354.5" y="-504.8" font-family="Helvetica,sans-Serif" font-size="11.00" fill="#000000">covers_level_of_data_granularity</text>
<polygon fill="none" stroke="#000000" points="334.5,-478.7 334.5,-497.7 559.5,-497.7 559.5,-478.7 334.5,-478.7"/>
<text text-anchor="start" x="337.5" y="-484.8" font-family="Helvetica,sans-Serif" font-size="11.00" fill="#000000">...</text>
<polygon fill="#ffffff" stroke="transparent" points="334.5,-459.7 334.5,-478.7 440.5,-478.7 440.5,-459.7 334.5,-459.7"/>
<polygon fill="none" stroke="#000000" points="334.5,-459.7 334.5,-478.7 440.5,-478.7 440.5,-459.7 334.5,-459.7"/>
<text text-anchor="start" x="337.5" y="-465.8" font-family="Helvetica,sans-Serif" font-size="11.00" fill="#000000">&lt; 1</text>
<polygon fill="#ffffff" stroke="transparent" points="440.5,-459.7 440.5,-478.7 495.5,-478.7 495.5,-459.7 440.5,-459.7"/>
<polygon fill="none" stroke="#000000" points="440.5,-459.7 440.5,-478.7 495.5,-478.7 495.5,-459.7 440.5,-459.7"/>
<text text-anchor="start" x="486.3862" y="-465.8" font-family="Helvetica,sans-Serif" font-size="11.00" fill="#000000"> &#160;</text>
<polygon fill="#ffffff" stroke="transparent" points="495.5,-459.7 495.5,-478.7 559.5,-478.7 559.5,-459.7 495.5,-459.7"/>
<polygon fill="none" stroke="#000000" points="495.5,-459.7 495.5,-478.7 559.5,-478.7 559.5,-459.7 495.5,-459.7"/>
<text text-anchor="start" x="540.9053" y="-465.8" font-family="Helvetica,sans-Serif" font-size="11.00" fill="#000000">1 &gt;</text>
</a>
</g>
</g>
<!-- levels_of_data_granularity -->
<g id="node2" class="node">
<title>levels_of_data_granularity</title>
<g id="a_node2"><a xlink:href="../../tables/levels_of_data_granularity.html" xlink:title="levels_of_data_granularity" target="_top">
<polygon fill="#ffffff" stroke="transparent" points="8,-306.7 8,-396.7 274,-396.7 274,-306.7 8,-306.7"/>
<polygon fill="#f5f5f5" stroke="transparent" points="10,-371.7 10,-394.7 272,-394.7 272,-371.7 10,-371.7"/>
<polygon fill="none" stroke="#000000" points="10,-371.7 10,-394.7 272,-394.7 272,-371.7 10,-371.7"/>
<text text-anchor="start" x="15" y="-380.3" font-family="Helvetica,sans-Serif" font-weight="bold" font-size="11.00" fill="#000000">levels_of_data_granularity</text>
<text text-anchor="start" x="237.0437" y="-379.8" font-family="Helvetica,sans-Serif" font-size="11.00" fill="#000000">[table]</text>
<polygon fill="none" stroke="#000000" points="10,-349.7 10,-371.7 182,-371.7 182,-349.7 10,-349.7"/>
<image xlink:href="../../images/primaryKeys.png" width="11px" height="12px" preserveAspectRatio="xMinYMin meet" x="15" y="-366.7"/>
<text text-anchor="start" x="30" y="-356.8" font-family="Helvetica,sans-Serif" font-size="11.00" fill="#000000">level_name</text>
<polygon fill="none" stroke="#000000" points="182,-349.7 182,-371.7 272,-371.7 272,-349.7 182,-349.7"/>
<text text-anchor="start" x="184.5042" y="-357.4" font-family="Helvetica,sans-Serif" font-size="11.00" fill="#000000">text[2147483647]</text>
<polygon fill="none" stroke="#000000" points="10,-327.7 10,-349.7 182,-349.7 182,-327.7 10,-327.7"/>
<text text-anchor="start" x="30" y="-334.8" font-family="Helvetica,sans-Serif" font-size="11.00" fill="#000000">ordering</text>
<polygon fill="none" stroke="#000000" points="182,-327.7 182,-349.7 272,-349.7 272,-327.7 182,-327.7"/>
<text text-anchor="start" x="185" y="-335.4" font-family="Helvetica,sans-Serif" font-size="11.00" fill="#000000">int2[5]</text>
<polygon fill="#ffffff" stroke="transparent" points="10,-308.7 10,-327.7 100,-327.7 100,-308.7 10,-308.7"/>
<polygon fill="none" stroke="#000000" points="10,-308.7 10,-327.7 100,-327.7 100,-308.7 10,-308.7"/>
<text text-anchor="start" x="13" y="-314.8" font-family="Helvetica,sans-Serif" font-size="11.00" fill="#000000">&lt; 0</text>
<polygon fill="#ffffff" stroke="transparent" points="100,-308.7 100,-327.7 182,-327.7 182,-308.7 100,-308.7"/>
<polygon fill="none" stroke="#000000" points="100,-308.7 100,-327.7 182,-327.7 182,-308.7 100,-308.7"/>
<text text-anchor="start" x="172.8862" y="-314.8" font-family="Helvetica,sans-Serif" font-size="11.00" fill="#000000"> &#160;</text>
<polygon fill="#ffffff" stroke="transparent" points="182,-308.7 182,-327.7 272,-327.7 272,-308.7 182,-308.7"/>
<polygon fill="none" stroke="#000000" points="182,-308.7 182,-327.7 272,-327.7 272,-308.7 182,-308.7"/>
<text text-anchor="start" x="253.4053" y="-314.8" font-family="Helvetica,sans-Serif" font-size="11.00" fill="#000000">5 &gt;</text>
<polygon fill="none" stroke="#000000" stroke-width="2" points="9,-307.7 9,-395.7 273,-395.7 273,-307.7 9,-307.7"/>
</a>
</g>
</g>
<!-- aggregation_constraint&#45;&gt;levels_of_data_granularity -->
<g id="edge1" class="edge">
<title>aggregation_constraint:w&#45;&gt;levels_of_data_granularity:e</title>
<path fill="none" stroke="#000000" d="M320.1093,-506.0048C274.986,-485.9459 337.6847,-360.7 272,-360.7"/>
<polygon fill="#000000" stroke="#000000" points="326.6367,-507.2273 333.8373,-512.2385 330.5684,-507.9636 334.5,-508.7 334.5,-508.7 334.5,-508.7 330.5684,-507.9636 335.1627,-505.1615 326.6367,-507.2273 326.6367,-507.2273"/>
<ellipse fill="none" stroke="#000000" cx="323.4914" cy="-506.6382" rx="3.2" ry="3.2"/>
</g>
<!-- aggregation_function -->
<g id="node3" class="node">
<title>aggregation_function</title>
<g id="a_node3"><a xlink:href="../../tables/aggregation_function.html" xlink:title="aggregation_function" target="_top">
<polygon fill="#ffffff" stroke="transparent" points="339,-312.2 339,-439.2 554,-439.2 554,-312.2 339,-312.2"/>
<polygon fill="#f5f5f5" stroke="transparent" points="339.5,-415.7 339.5,-438.7 554.5,-438.7 554.5,-415.7 339.5,-415.7"/>
<polygon fill="none" stroke="#000000" points="339.5,-415.7 339.5,-438.7 554.5,-438.7 554.5,-415.7 339.5,-415.7"/>
<text text-anchor="start" x="344.5" y="-424.3" font-family="Helvetica,sans-Serif" font-weight="bold" font-size="11.00" fill="#000000">aggregation_function</text>
<text text-anchor="start" x="519.5437" y="-423.8" font-family="Helvetica,sans-Serif" font-size="11.00" fill="#000000">[table]</text>
<polygon fill="none" stroke="#000000" points="339.5,-393.7 339.5,-415.7 554.5,-415.7 554.5,-393.7 339.5,-393.7"/>
<image xlink:href="../../images/primaryKeys.png" width="11px" height="12px" preserveAspectRatio="xMinYMin meet" x="344.5" y="-410.7"/>
<text text-anchor="start" x="359.5" y="-400.8" font-family="Helvetica,sans-Serif" font-size="11.00" fill="#000000">aggregation_function_name</text>
<polygon fill="none" stroke="#000000" points="339.5,-371.7 339.5,-393.7 554.5,-393.7 554.5,-371.7 339.5,-371.7"/>
<image xlink:href="../../images/foreignKeys.png" width="11px" height="12px" preserveAspectRatio="xMinYMin meet" x="344.5" y="-388.7"/>
<text text-anchor="start" x="359.5" y="-378.8" font-family="Helvetica,sans-Serif" font-size="11.00" fill="#000000">source_level_of_data_granularity</text>
<polygon fill="none" stroke="#000000" points="339.5,-349.7 339.5,-371.7 554.5,-371.7 554.5,-349.7 339.5,-349.7"/>
<image xlink:href="../../images/foreignKeys.png" width="11px" height="12px" preserveAspectRatio="xMinYMin meet" x="344.5" y="-366.7"/>
<text text-anchor="start" x="359.5" y="-356.8" font-family="Helvetica,sans-Serif" font-size="11.00" fill="#000000">target_level_of_data_granularity</text>
<polygon fill="none" stroke="#000000" points="339.5,-330.7 339.5,-349.7 554.5,-349.7 554.5,-330.7 339.5,-330.7"/>
<text text-anchor="start" x="342.5" y="-336.8" font-family="Helvetica,sans-Serif" font-size="11.00" fill="#000000">...</text>
<polygon fill="#ffffff" stroke="transparent" points="339.5,-311.7 339.5,-330.7 440.5,-330.7 440.5,-311.7 339.5,-311.7"/>
<polygon fill="none" stroke="#000000" points="339.5,-311.7 339.5,-330.7 440.5,-330.7 440.5,-311.7 339.5,-311.7"/>
<text text-anchor="start" x="342.5" y="-317.8" font-family="Helvetica,sans-Serif" font-size="11.00" fill="#000000">&lt; 2</text>
<polygon fill="#ffffff" stroke="transparent" points="440.5,-311.7 440.5,-330.7 492.5,-330.7 492.5,-311.7 440.5,-311.7"/>
<polygon fill="none" stroke="#000000" points="440.5,-311.7 440.5,-330.7 492.5,-330.7 492.5,-311.7 440.5,-311.7"/>
<text text-anchor="start" x="483.3862" y="-317.8" font-family="Helvetica,sans-Serif" font-size="11.00" fill="#000000"> &#160;</text>
<polygon fill="#ffffff" stroke="transparent" points="492.5,-311.7 492.5,-330.7 554.5,-330.7 554.5,-311.7 492.5,-311.7"/>
<polygon fill="none" stroke="#000000" points="492.5,-311.7 492.5,-330.7 554.5,-330.7 554.5,-311.7 492.5,-311.7"/>
<text text-anchor="start" x="535.9053" y="-317.8" font-family="Helvetica,sans-Serif" font-size="11.00" fill="#000000">1 &gt;</text>
</a>
</g>
</g>
<!-- aggregation_function&#45;&gt;levels_of_data_granularity -->
<g id="edge2" class="edge">
<title>aggregation_function:w&#45;&gt;levels_of_data_granularity:e</title>
<path fill="none" stroke="#000000" d="M325.0832,-380.8996C305.563,-375.6454 298.0067,-360.7 272,-360.7"/>
<polygon fill="#000000" stroke="#000000" points="331.5617,-381.7086 339.0539,-386.2723 335.5308,-382.2043 339.5,-382.7 339.5,-382.7 339.5,-382.7 335.5308,-382.2043 339.9461,-379.1277 331.5617,-381.7086 331.5617,-381.7086"/>
<ellipse fill="none" stroke="#000000" cx="328.3863" cy="-381.3121" rx="3.2" ry="3.2"/>
</g>
<!-- aggregation_function&#45;&gt;levels_of_data_granularity -->
<g id="edge3" class="edge">
<title>aggregation_function:w&#45;&gt;levels_of_data_granularity:e</title>
<path fill="none" stroke="#000000" d="M324.9733,-360.7C305.9877,-360.7 296.4922,-360.7 272,-360.7"/>
<polygon fill="#000000" stroke="#000000" points="331.5,-360.7001 339.5,-364.3 335.5,-360.7 339.5,-360.7 339.5,-360.7 339.5,-360.7 335.5,-360.7 339.5,-357.1 331.5,-360.7001 331.5,-360.7001"/>
<ellipse fill="none" stroke="#000000" cx="328.3" cy="-360.7001" rx="3.2" ry="3.2"/>
</g>
<!-- aggregation_process_is_based_on -->
<g id="node4" class="node">
<title>aggregation_process_is_based_on</title>
<g id="a_node4"><a xlink:href="../../tables/aggregation_process_is_based_on.html" xlink:title="aggregation_process_is_based_on" target="_top">
<polygon fill="#ffffff" stroke="transparent" points="632,-440.2 632,-501.2 871,-501.2 871,-440.2 632,-440.2"/>
<polygon fill="#f5f5f5" stroke="transparent" points="632.5,-477.7 632.5,-500.7 871.5,-500.7 871.5,-477.7 632.5,-477.7"/>
<polygon fill="none" stroke="#000000" points="632.5,-477.7 632.5,-500.7 871.5,-500.7 871.5,-477.7 632.5,-477.7"/>
<text text-anchor="start" x="637.5" y="-486.3" font-family="Helvetica,sans-Serif" font-weight="bold" font-size="11.00" fill="#000000">aggregation_process_is_based_on</text>
<text text-anchor="start" x="837.0219" y="-485.8" font-family="Helvetica,sans-Serif" font-size="11.00" fill="#000000">[table]</text>
<polygon fill="none" stroke="#000000" points="632.5,-458.7 632.5,-477.7 871.5,-477.7 871.5,-458.7 632.5,-458.7"/>
<text text-anchor="start" x="635.5" y="-464.8" font-family="Helvetica,sans-Serif" font-size="11.00" fill="#000000">...</text>
<polygon fill="#ffffff" stroke="transparent" points="632.5,-439.7 632.5,-458.7 750.5,-458.7 750.5,-439.7 632.5,-439.7"/>
<polygon fill="none" stroke="#000000" points="632.5,-439.7 632.5,-458.7 750.5,-458.7 750.5,-439.7 632.5,-439.7"/>
<text text-anchor="start" x="635.5" y="-445.8" font-family="Helvetica,sans-Serif" font-size="11.00" fill="#000000">&lt; 3</text>
<polygon fill="#ffffff" stroke="transparent" points="750.5,-439.7 750.5,-458.7 810.5,-458.7 810.5,-439.7 750.5,-439.7"/>
<polygon fill="none" stroke="#000000" points="750.5,-439.7 750.5,-458.7 810.5,-458.7 810.5,-439.7 750.5,-439.7"/>
<text text-anchor="start" x="801.3862" y="-445.8" font-family="Helvetica,sans-Serif" font-size="11.00" fill="#000000"> &#160;</text>
<polygon fill="#ffffff" stroke="transparent" points="810.5,-439.7 810.5,-458.7 871.5,-458.7 871.5,-439.7 810.5,-439.7"/>
<polygon fill="none" stroke="#000000" points="810.5,-439.7 810.5,-458.7 871.5,-458.7 871.5,-439.7 810.5,-439.7"/>
<text text-anchor="start" x="862.3862" y="-445.8" font-family="Helvetica,sans-Serif" font-size="11.00" fill="#000000"> &#160;</text>
</a>
</g>
</g>
<!-- aggregation_process_is_based_on&#45;&gt;aggregation_constraint -->
<g id="edge4" class="edge">
<title>aggregation_process_is_based_on:w&#45;&gt;aggregation_constraint:e</title>
<path fill="none" stroke="#000000" d="M618.1047,-470.7386C592.0404,-483.3231 596.6642,-530.7 559.5,-530.7"/>
<polygon fill="#000000" stroke="#000000" points="624.6725,-469.3523 633.2435,-471.2224 628.5862,-468.5262 632.5,-467.7 632.5,-467.7 632.5,-467.7 628.5862,-468.5262 631.7565,-464.1776 624.6725,-469.3523 624.6725,-469.3523"/>
<ellipse fill="none" stroke="#000000" cx="621.5415" cy="-470.0132" rx="3.2" ry="3.2"/>
</g>
<!-- aggregation_process_is_based_on&#45;&gt;aggregation_function -->
<g id="edge5" class="edge">
<title>aggregation_process_is_based_on:w&#45;&gt;aggregation_function:e</title>
<path fill="none" stroke="#000000" d="M618.182,-464.993C589.8489,-452.9344 593.4918,-404.7 554.5,-404.7"/>
<polygon fill="#000000" stroke="#000000" points="624.6393,-466.2138 631.8312,-471.2373 628.5696,-466.9569 632.5,-467.7 632.5,-467.7 632.5,-467.7 628.5696,-466.9569 633.1688,-464.1627 624.6393,-466.2138 624.6393,-466.2138"/>
<ellipse fill="none" stroke="#000000" cx="621.495" cy="-465.6193" rx="3.2" ry="3.2"/>
</g>
<!-- data_element -->
<g id="node5" class="node">
<title>data_element</title>
<g id="a_node5"><a xlink:href="../../tables/data_element.html" xlink:title="data_element" target="_top">
<polygon fill="#ffffff" stroke="transparent" points="326.5,-164.2 326.5,-291.2 566.5,-291.2 566.5,-164.2 326.5,-164.2"/>
<polygon fill="#f5f5f5" stroke="transparent" points="326.5,-267.7 326.5,-290.7 566.5,-290.7 566.5,-267.7 326.5,-267.7"/>
<polygon fill="none" stroke="#000000" points="326.5,-267.7 326.5,-290.7 566.5,-290.7 566.5,-267.7 326.5,-267.7"/>
<text text-anchor="start" x="331.5" y="-276.3" font-family="Helvetica,sans-Serif" font-weight="bold" font-size="11.00" fill="#000000">data_element</text>
<text text-anchor="start" x="531.5437" y="-275.8" font-family="Helvetica,sans-Serif" font-size="11.00" fill="#000000">[table]</text>
<polygon fill="none" stroke="#000000" points="326.5,-245.7 326.5,-267.7 566.5,-267.7 566.5,-245.7 326.5,-245.7"/>
<image xlink:href="../../images/primaryKeys.png" width="11px" height="12px" preserveAspectRatio="xMinYMin meet" x="331.5" y="-262.7"/>
<text text-anchor="start" x="346.5" y="-252.8" font-family="Helvetica,sans-Serif" font-size="11.00" fill="#000000">data_element_global_identifier</text>
<polygon fill="none" stroke="#000000" points="326.5,-223.7 326.5,-245.7 566.5,-245.7 566.5,-223.7 326.5,-223.7"/>
<image xlink:href="../../images/foreignKeys.png" width="11px" height="12px" preserveAspectRatio="xMinYMin meet" x="331.5" y="-240.7"/>
<text text-anchor="start" x="346.5" y="-230.8" font-family="Helvetica,sans-Serif" font-size="11.00" fill="#000000">is_of_level_of_data_granularity</text>
<polygon fill="none" stroke="#000000" points="326.5,-201.7 326.5,-223.7 566.5,-223.7 566.5,-201.7 326.5,-201.7"/>
<image xlink:href="../../images/foreignKeys.png" width="11px" height="12px" preserveAspectRatio="xMinYMin meet" x="331.5" y="-218.7"/>
<text text-anchor="start" x="346.5" y="-208.8" font-family="Helvetica,sans-Serif" font-size="11.00" fill="#000000">parent_data_element_global_identifier</text>
<polygon fill="none" stroke="#000000" points="326.5,-182.7 326.5,-201.7 566.5,-201.7 566.5,-182.7 326.5,-182.7"/>
<text text-anchor="start" x="329.5" y="-188.8" font-family="Helvetica,sans-Serif" font-size="11.00" fill="#000000">...</text>
<polygon fill="#ffffff" stroke="transparent" points="326.5,-163.7 326.5,-182.7 440.5,-182.7 440.5,-163.7 326.5,-163.7"/>
<polygon fill="none" stroke="#000000" points="326.5,-163.7 326.5,-182.7 440.5,-182.7 440.5,-163.7 326.5,-163.7"/>
<text text-anchor="start" x="329.5" y="-169.8" font-family="Helvetica,sans-Serif" font-size="11.00" fill="#000000">&lt; 2</text>
<polygon fill="#ffffff" stroke="transparent" points="440.5,-163.7 440.5,-182.7 498.5,-182.7 498.5,-163.7 440.5,-163.7"/>
<polygon fill="none" stroke="#000000" points="440.5,-163.7 440.5,-182.7 498.5,-182.7 498.5,-163.7 440.5,-163.7"/>
<text text-anchor="start" x="489.3862" y="-169.8" font-family="Helvetica,sans-Serif" font-size="11.00" fill="#000000"> &#160;</text>
<polygon fill="#ffffff" stroke="transparent" points="498.5,-163.7 498.5,-182.7 566.5,-182.7 566.5,-163.7 498.5,-163.7"/>
<polygon fill="none" stroke="#000000" points="498.5,-163.7 498.5,-182.7 566.5,-182.7 566.5,-163.7 498.5,-163.7"/>
<text text-anchor="start" x="547.9053" y="-169.8" font-family="Helvetica,sans-Serif" font-size="11.00" fill="#000000">2 &gt;</text>
</a>
</g>
</g>
<!-- data_element&#45;&gt;levels_of_data_granularity -->
<g id="edge6" class="edge">
<title>data_element:w&#45;&gt;levels_of_data_granularity:e</title>
<path fill="none" stroke="#000000" d="M312.063,-238.0702C277.4491,-258.1077 327.0557,-360.7 272,-360.7"/>
<polygon fill="#000000" stroke="#000000" points="318.7095,-236.5187 327.3184,-238.2057 322.6047,-235.6093 326.5,-234.7 326.5,-234.7 326.5,-234.7 322.6047,-235.6093 325.6816,-231.1943 318.7095,-236.5187 318.7095,-236.5187"/>
<ellipse fill="none" stroke="#000000" cx="315.5932" cy="-237.2461" rx="3.2" ry="3.2"/>
</g>
<!-- dq_metric -->
<g id="node6" class="node">
<title>dq_metric</title>
<g id="a_node6"><a xlink:href="../../tables/dq_metric.html" xlink:title="dq_metric" target="_top">
<polygon fill="#ffffff" stroke="transparent" points="323,-38.2 323,-143.2 570,-143.2 570,-38.2 323,-38.2"/>
<polygon fill="#f5f5f5" stroke="transparent" points="323.5,-119.7 323.5,-142.7 570.5,-142.7 570.5,-119.7 323.5,-119.7"/>
<polygon fill="none" stroke="#000000" points="323.5,-119.7 323.5,-142.7 570.5,-142.7 570.5,-119.7 323.5,-119.7"/>
<text text-anchor="start" x="328.5" y="-128.3" font-family="Helvetica,sans-Serif" font-weight="bold" font-size="11.00" fill="#000000">dq_metric</text>
<text text-anchor="start" x="535.5437" y="-127.8" font-family="Helvetica,sans-Serif" font-size="11.00" fill="#000000">[table]</text>
<polygon fill="none" stroke="#000000" points="323.5,-97.7 323.5,-119.7 570.5,-119.7 570.5,-97.7 323.5,-97.7"/>
<image xlink:href="../../images/primaryKeys.png" width="11px" height="12px" preserveAspectRatio="xMinYMin meet" x="328.5" y="-114.7"/>
<text text-anchor="start" x="343.5" y="-104.8" font-family="Helvetica,sans-Serif" font-size="11.00" fill="#000000">metric_name</text>
<polygon fill="none" stroke="#000000" points="323.5,-75.7 323.5,-97.7 570.5,-97.7 570.5,-75.7 323.5,-75.7"/>
<image xlink:href="../../images/foreignKeys.png" width="11px" height="12px" preserveAspectRatio="xMinYMin meet" x="328.5" y="-92.7"/>
<text text-anchor="start" x="343.5" y="-82.8" font-family="Helvetica,sans-Serif" font-size="11.00" fill="#000000">designed_for_level_of_data_granularity</text>
<polygon fill="none" stroke="#000000" points="323.5,-56.7 323.5,-75.7 570.5,-75.7 570.5,-56.7 323.5,-56.7"/>
<text text-anchor="start" x="326.5" y="-62.8" font-family="Helvetica,sans-Serif" font-size="11.00" fill="#000000">...</text>
<polygon fill="#ffffff" stroke="transparent" points="323.5,-37.7 323.5,-56.7 440.5,-56.7 440.5,-37.7 323.5,-37.7"/>
<polygon fill="none" stroke="#000000" points="323.5,-37.7 323.5,-56.7 440.5,-56.7 440.5,-37.7 323.5,-37.7"/>
<text text-anchor="start" x="326.5" y="-43.8" font-family="Helvetica,sans-Serif" font-size="11.00" fill="#000000">&lt; 1</text>
<polygon fill="#ffffff" stroke="transparent" points="440.5,-37.7 440.5,-56.7 500.5,-56.7 500.5,-37.7 440.5,-37.7"/>
<polygon fill="none" stroke="#000000" points="440.5,-37.7 440.5,-56.7 500.5,-56.7 500.5,-37.7 440.5,-37.7"/>
<text text-anchor="start" x="491.3862" y="-43.8" font-family="Helvetica,sans-Serif" font-size="11.00" fill="#000000"> &#160;</text>
<polygon fill="#ffffff" stroke="transparent" points="500.5,-37.7 500.5,-56.7 570.5,-56.7 570.5,-37.7 500.5,-37.7"/>
<polygon fill="none" stroke="#000000" points="500.5,-37.7 500.5,-56.7 570.5,-56.7 570.5,-37.7 500.5,-37.7"/>
<text text-anchor="start" x="551.9053" y="-43.8" font-family="Helvetica,sans-Serif" font-size="11.00" fill="#000000">2 &gt;</text>
</a>
</g>
</g>
<!-- dq_metric&#45;&gt;levels_of_data_granularity -->
<g id="edge7" class="edge">
<title>dq_metric:w&#45;&gt;levels_of_data_granularity:e</title>
<path fill="none" stroke="#000000" d="M308.9651,-88.2409C216.2261,-110.2529 390.4649,-360.7 272,-360.7"/>
<polygon fill="#000000" stroke="#000000" points="315.5446,-87.5435 323.8796,-90.2799 319.5223,-87.1217 323.5,-86.7 323.5,-86.7 323.5,-86.7 319.5223,-87.1217 323.1204,-83.1201 315.5446,-87.5435 315.5446,-87.5435"/>
<ellipse fill="none" stroke="#000000" cx="312.3624" cy="-87.8808" rx="3.2" ry="3.2"/>
</g>
<!-- dq_result -->
<g id="node7" class="node">
<title>dq_result</title>
<g id="a_node7"><a xlink:href="../../tables/dq_result.html" xlink:title="dq_result" target="_top">
<polygon fill="#ffffff" stroke="transparent" points="705,-196.2 705,-257.2 798,-257.2 798,-196.2 705,-196.2"/>
<polygon fill="#f5f5f5" stroke="transparent" points="705.5,-233.7 705.5,-256.7 798.5,-256.7 798.5,-233.7 705.5,-233.7"/>
<polygon fill="none" stroke="#000000" points="705.5,-233.7 705.5,-256.7 798.5,-256.7 798.5,-233.7 705.5,-233.7"/>
<text text-anchor="start" x="710.5" y="-242.3" font-family="Helvetica,sans-Serif" font-weight="bold" font-size="11.00" fill="#000000">dq_result</text>
<text text-anchor="start" x="764.0219" y="-241.8" font-family="Helvetica,sans-Serif" font-size="11.00" fill="#000000">[table]</text>
<polygon fill="none" stroke="#000000" points="705.5,-214.7 705.5,-233.7 798.5,-233.7 798.5,-214.7 705.5,-214.7"/>
<text text-anchor="start" x="708.5" y="-220.8" font-family="Helvetica,sans-Serif" font-size="11.00" fill="#000000">...</text>
<polygon fill="#ffffff" stroke="transparent" points="705.5,-195.7 705.5,-214.7 750.5,-214.7 750.5,-195.7 705.5,-195.7"/>
<polygon fill="none" stroke="#000000" points="705.5,-195.7 705.5,-214.7 750.5,-214.7 750.5,-195.7 705.5,-195.7"/>
<text text-anchor="start" x="708.5" y="-201.8" font-family="Helvetica,sans-Serif" font-size="11.00" fill="#000000">&lt; 3</text>
<polygon fill="#ffffff" stroke="transparent" points="750.5,-195.7 750.5,-214.7 774.5,-214.7 774.5,-195.7 750.5,-195.7"/>
<polygon fill="none" stroke="#000000" points="750.5,-195.7 750.5,-214.7 774.5,-214.7 774.5,-195.7 750.5,-195.7"/>
<text text-anchor="start" x="765.3862" y="-201.8" font-family="Helvetica,sans-Serif" font-size="11.00" fill="#000000"> &#160;</text>
<polygon fill="#ffffff" stroke="transparent" points="774.5,-195.7 774.5,-214.7 798.5,-214.7 798.5,-195.7 774.5,-195.7"/>
<polygon fill="none" stroke="#000000" points="774.5,-195.7 774.5,-214.7 798.5,-214.7 798.5,-195.7 774.5,-195.7"/>
<text text-anchor="start" x="789.3862" y="-201.8" font-family="Helvetica,sans-Serif" font-size="11.00" fill="#000000"> &#160;</text>
</a>
</g>
</g>
<!-- dq_result&#45;&gt;data_element -->
<g id="edge9" class="edge">
<title>dq_result:w&#45;&gt;data_element:e</title>
<path fill="none" stroke="#000000" d="M690.8568,-224.3298C639.6882,-228.892 624.7864,-256.7 566.5,-256.7"/>
<polygon fill="#000000" stroke="#000000" points="697.5074,-224.0438 705.6547,-227.2967 701.5037,-223.8719 705.5,-223.7 705.5,-223.7 705.5,-223.7 701.5037,-223.8719 705.3453,-220.1033 697.5074,-224.0438 697.5074,-224.0438"/>
<ellipse fill="none" stroke="#000000" cx="694.3103" cy="-224.1813" rx="3.2" ry="3.2"/>
</g>
<!-- dq_result&#45;&gt;dq_metric -->
<g id="edge8" class="edge">
<title>dq_result:w&#45;&gt;dq_metric:e</title>
<path fill="none" stroke="#000000" d="M690.9365,-222.6317C651.9834,-216.4435 645.9948,-184.3703 611,-152.7 591.2934,-134.8655 597.0786,-108.7 570.5,-108.7"/>
<polygon fill="#000000" stroke="#000000" points="697.5214,-223.1147 705.2366,-227.2904 701.5107,-223.4073 705.5,-223.7 705.5,-223.7 705.5,-223.7 701.5107,-223.4073 705.7634,-220.1096 697.5214,-223.1147 697.5214,-223.1147"/>
<ellipse fill="none" stroke="#000000" cx="694.33" cy="-222.8806" rx="3.2" ry="3.2"/>
</g>
<!-- metric_computes_value_for_dimension -->
<g id="node8" class="node">
<title>metric_computes_value_for_dimension</title>
<g id="a_node8"><a xlink:href="../../tables/metric_computes_value_for_dimension.html" xlink:title="metric_computes_value_for_dimension" target="_top">
<polygon fill="#ffffff" stroke="transparent" points="619,-81.2 619,-142.2 884,-142.2 884,-81.2 619,-81.2"/>
<polygon fill="#f5f5f5" stroke="transparent" points="619.5,-118.7 619.5,-141.7 884.5,-141.7 884.5,-118.7 619.5,-118.7"/>
<polygon fill="none" stroke="#000000" points="619.5,-118.7 619.5,-141.7 884.5,-141.7 884.5,-118.7 619.5,-118.7"/>
<text text-anchor="start" x="624.5" y="-127.3" font-family="Helvetica,sans-Serif" font-weight="bold" font-size="11.00" fill="#000000">metric_computes_value_for_dimension</text>
<text text-anchor="start" x="850.0219" y="-126.8" font-family="Helvetica,sans-Serif" font-size="11.00" fill="#000000">[table]</text>
<polygon fill="none" stroke="#000000" points="619.5,-99.7 619.5,-118.7 884.5,-118.7 884.5,-99.7 619.5,-99.7"/>
<text text-anchor="start" x="622.5" y="-105.8" font-family="Helvetica,sans-Serif" font-size="11.00" fill="#000000">...</text>
<polygon fill="#ffffff" stroke="transparent" points="619.5,-80.7 619.5,-99.7 750.5,-99.7 750.5,-80.7 619.5,-80.7"/>
<polygon fill="none" stroke="#000000" points="619.5,-80.7 619.5,-99.7 750.5,-99.7 750.5,-80.7 619.5,-80.7"/>
<text text-anchor="start" x="622.5" y="-86.8" font-family="Helvetica,sans-Serif" font-size="11.00" fill="#000000">&lt; 2</text>
<polygon fill="#ffffff" stroke="transparent" points="750.5,-80.7 750.5,-99.7 817.5,-99.7 817.5,-80.7 750.5,-80.7"/>
<polygon fill="none" stroke="#000000" points="750.5,-80.7 750.5,-99.7 817.5,-99.7 817.5,-80.7 750.5,-80.7"/>
<text text-anchor="start" x="808.3862" y="-86.8" font-family="Helvetica,sans-Serif" font-size="11.00" fill="#000000"> &#160;</text>
<polygon fill="#ffffff" stroke="transparent" points="817.5,-80.7 817.5,-99.7 884.5,-99.7 884.5,-80.7 817.5,-80.7"/>
<polygon fill="none" stroke="#000000" points="817.5,-80.7 817.5,-99.7 884.5,-99.7 884.5,-80.7 817.5,-80.7"/>
<text text-anchor="start" x="875.3862" y="-86.8" font-family="Helvetica,sans-Serif" font-size="11.00" fill="#000000"> &#160;</text>
</a>
</g>
</g>
<!-- metric_computes_value_for_dimension&#45;&gt;dq_metric -->
<g id="edge10" class="edge">
<title>metric_computes_value_for_dimension:w&#45;&gt;dq_metric:e</title>
<path fill="none" stroke="#000000" d="M604.9909,-108.7C593.6774,-108.7 586.4931,-108.7 570.5,-108.7"/>
<polygon fill="#000000" stroke="#000000" points="611.5,-108.7001 619.5,-112.3 615.5,-108.7 619.5,-108.7 619.5,-108.7 619.5,-108.7 615.5,-108.7 619.5,-105.1 611.5,-108.7001 611.5,-108.7001"/>
<ellipse fill="none" stroke="#000000" cx="608.3" cy="-108.7001" rx="3.2" ry="3.2"/>
</g>
</g>
</svg>
