<?xml version="1.0" encoding="UTF-8" standalone="no"?>
<!DOCTYPE svg PUBLIC "-//W3C//DTD SVG 1.1//EN"
 "http://www.w3.org/Graphics/SVG/1.1/DTD/svg11.dtd">
<!-- Generated by graphviz version 2.40.1 (20161225.0304)
 -->
<!-- Title: oneDegreeRelationshipsDiagram Pages: 1 -->
<svg width="586pt" height="577pt"
 viewBox="0.00 0.00 586.00 577.20" xmlns="http://www.w3.org/2000/svg" xmlns:xlink="http://www.w3.org/1999/xlink">
<g id="graph0" class="graph" transform="scale(1 1) rotate(0) translate(4 573.2)">
<title>oneDegreeRelationshipsDiagram</title>
<polygon fill="#ffffff" stroke="transparent" points="-4,4 -4,-573.2 582,-573.2 582,4 -4,4"/>
<text text-anchor="middle" x="72.4936" y="-7.3" font-family="Helvetica,sans-Serif" font-size="11.00" fill="#000000">Generated by SchemaSpy</text>
<!-- aggregation_constraint -->
<g id="node1" class="node">
<title>aggregation_constraint</title>
<g id="a_node1"><a xlink:href="../../tables/aggregation_constraint.html" xlink:title="aggregation_constraint" target="_top">
<polygon fill="#ffffff" stroke="transparent" points="334,-460.2 334,-565.2 559,-565.2 559,-460.2 334,-460.2"/>
<polygon fill="#f5f5f5" stroke="transparent" points="334.5,-541.7 334.5,-564.7 559.5,-564.7 559.5,-541.7 334.5,-541.7"/>
<polygon fill="none" stroke="#000000" points="334.5,-541.7 334.5,-564.7 559.5,-564.7 559.5,-541.7 334.5,-541.7"/>
<text text-anchor="start" x="339.5" y="-550.3" font-family="Helvetica,sans-Serif" font-weight="bold" font-size="11.00" fill="#000000">aggregation_constraint</text>
<text text-anchor="start" x="524.5437" y="-549.8" font-family="Helvetica,sans-Serif" font-size="11.00" fill="#000000">[table]</text>
<polygon fill="none" stroke="#000000" points="334.5,-519.7 334.5,-541.7 559.5,-541.7 559.5,-519.7 334.5,-519.7"/>
<image xlink:href="../../images/primaryKeys.png" width="11px" height="12px" preserveAspectRatio="xMinYMin meet" x="339.5" y="-536.7"/>
<text text-anchor="start" x="354.5" y="-526.8" font-family="Helvetica,sans-Serif" font-size="11.00" fill="#000000">aggregation_constraint_name</text>
<polygon fill="none" stroke="#000000" points="334.5,-497.7 334.5,-519.7 559.5,-519.7 559.5,-497.7 334.5,-497.7"/>
<image xlink:href="../../images/foreignKeys.png" width="11px" height="12px" preserveAspectRatio="xMinYMin meet" x="339.5" y="-514.7"/>
<text text-anchor="start" x="354.5" y="-504.8" font-family="Helvetica,sans-Serif" font-size="11.00" fill="#000000">covers_level_of_data_granularity</text>
<polygon fill="none" stroke="#000000" points="334.5,-478.7 334.5,-497.7 559.5,-497.7 559.5,-478.7 334.5,-478.7"/>
<text text-anchor="start" x="337.5" y="-484.8" font-family="Helvetica,sans-Serif" font-size="11.00" fill="#000000">...</text>
<polygon fill="#ffffff" stroke="transparent" points="334.5,-459.7 334.5,-478.7 440.5,-478.7 440.5,-459.7 334.5,-459.7"/>
<polygon fill="none" stroke="#000000" points="334.5,-459.7 334.5,-478.7 440.5,-478.7 440.5,-459.7 334.5,-459.7"/>
<text text-anchor="start" x="337.5" y="-465.8" font-family="Helvetica,sans-Serif" font-size="11.00" fill="#000000">&lt; 1</text>
<polygon fill="#ffffff" stroke="transparent" points="440.5,-459.7 440.5,-478.7 495.5,-478.7 495.5,-459.7 440.5,-459.7"/>
<polygon fill="none" stroke="#000000" points="440.5,-459.7 440.5,-478.7 495.5,-478.7 495.5,-459.7 440.5,-459.7"/>
<text text-anchor="start" x="486.3862" y="-465.8" font-family="Helvetica,sans-Serif" font-size="11.00" fill="#000000"> &#160;</text>
<polygon fill="#ffffff" stroke="transparent" points="495.5,-459.7 495.5,-478.7 559.5,-478.7 559.5,-459.7 495.5,-459.7"/>
<polygon fill="none" stroke="#000000" points="495.5,-459.7 495.5,-478.7 559.5,-478.7 559.5,-459.7 495.5,-459.7"/>
<text text-anchor="start" x="540.9053" y="-465.8" font-family="Helvetica,sans-Serif" font-size="11.00" fill="#000000">1 &gt;</text>
</a>
</g>
</g>
<!-- levels_of_data_granularity -->
<g id="node2" class="node">
<title>levels_of_data_granularity</title>
<g id="a_node2"><a xlink:href="../../tables/levels_of_data_granularity.html" xlink:title="levels_of_data_granularity" target="_top">
<polygon fill="#ffffff" stroke="transparent" points="8,-306.7 8,-396.7 274,-396.7 274,-306.7 8,-306.7"/>
<polygon fill="#f5f5f5" stroke="transparent" points="10,-371.7 10,-394.7 272,-394.7 272,-371.7 10,-371.7"/>
<polygon fill="none" stroke="#000000" points="10,-371.7 10,-394.7 272,-394.7 272,-371.7 10,-371.7"/>
<text text-anchor="start" x="15" y="-380.3" font-family="Helvetica,sans-Serif" font-weight="bold" font-size="11.00" fill="#000000">levels_of_data_granularity</text>
<text text-anchor="start" x="237.0437" y="-379.8" font-family="Helvetica,sans-Serif" font-size="11.00" fill="#000000">[table]</text>
<polygon fill="none" stroke="#000000" points="10,-349.7 10,-371.7 182,-371.7 182,-349.7 10,-349.7"/>
<image xlink:href="../../images/primaryKeys.png" width="11px" height="12px" preserveAspectRatio="xMinYMin meet" x="15" y="-366.7"/>
<text text-anchor="start" x="30" y="-356.8" font-family="Helvetica,sans-Serif" font-size="11.00" fill="#000000">level_name</text>
<polygon fill="none" stroke="#000000" points="182,-349.7 182,-371.7 272,-371.7 272,-349.7 182,-349.7"/>
<text text-anchor="start" x="184.5042" y="-357.4" font-family="Helvetica,sans-Serif" font-size="11.00" fill="#000000">text[2147483647]</text>
<polygon fill="none" stroke="#000000" points="10,-327.7 10,-349.7 182,-349.7 182,-327.7 10,-327.7"/>
<text text-anchor="start" x="30" y="-334.8" font-family="Helvetica,sans-Serif" font-size="11.00" fill="#000000">ordering</text>
<polygon fill="none" stroke="#000000" points="182,-327.7 182,-349.7 272,-349.7 272,-327.7 182,-327.7"/>
<text text-anchor="start" x="185" y="-335.4" font-family="Helvetica,sans-Serif" font-size="11.00" fill="#000000">int2[5]</text>
<polygon fill="#ffffff" stroke="transparent" points="10,-308.7 10,-327.7 100,-327.7 100,-308.7 10,-308.7"/>
<polygon fill="none" stroke="#000000" points="10,-308.7 10,-327.7 100,-327.7 100,-308.7 10,-308.7"/>
<text text-anchor="start" x="13" y="-314.8" font-family="Helvetica,sans-Serif" font-size="11.00" fill="#000000">&lt; 0</text>
<polygon fill="#ffffff" stroke="transparent" points="100,-308.7 100,-327.7 182,-327.7 182,-308.7 100,-308.7"/>
<polygon fill="none" stroke="#000000" points="100,-308.7 100,-327.7 182,-327.7 182,-308.7 100,-308.7"/>
<text text-anchor="start" x="172.8862" y="-314.8" font-family="Helvetica,sans-Serif" font-size="11.00" fill="#000000"> &#160;</text>
<polygon fill="#ffffff" stroke="transparent" points="182,-308.7 182,-327.7 272,-327.7 272,-308.7 182,-308.7"/>
<polygon fill="none" stroke="#000000" points="182,-308.7 182,-327.7 272,-327.7 272,-308.7 182,-308.7"/>
<text text-anchor="start" x="253.4053" y="-314.8" font-family="Helvetica,sans-Serif" font-size="11.00" fill="#000000">5 &gt;</text>
<polygon fill="none" stroke="#000000" stroke-width="2" points="9,-307.7 9,-395.7 273,-395.7 273,-307.7 9,-307.7"/>
</a>
</g>
</g>
<!-- aggregation_constraint&#45;&gt;levels_of_data_granularity -->
<g id="edge1" class="edge">
<title>aggregation_constraint:w&#45;&gt;levels_of_data_granularity:e</title>
<path fill="none" stroke="#000000" d="M320.1093,-506.0048C274.986,-485.9459 337.6847,-360.7 272,-360.7"/>
<polygon fill="#000000" stroke="#000000" points="326.6367,-507.2273 333.8373,-512.2385 330.5684,-507.9636 334.5,-508.7 334.5,-508.7 334.5,-508.7 330.5684,-507.9636 335.1627,-505.1615 326.6367,-507.2273 326.6367,-507.2273"/>
<ellipse fill="none" stroke="#000000" cx="323.4914" cy="-506.6382" rx="3.2" ry="3.2"/>
</g>
<!-- aggregation_function -->
<g id="node3" class="node">
<title>aggregation_function</title>
<g id="a_node3"><a xlink:href="../../tables/aggregation_function.html" xlink:title="aggregation_function" target="_top">
<polygon fill="#ffffff" stroke="transparent" points="339,-312.2 339,-439.2 554,-439.2 554,-312.2 339,-312.2"/>
<polygon fill="#f5f5f5" stroke="transparent" points="339.5,-415.7 339.5,-438.7 554.5,-438.7 554.5,-415.7 339.5,-415.7"/>
<polygon fill="none" stroke="#000000" points="339.5,-415.7 339.5,-438.7 554.5,-438.7 554.5,-415.7 339.5,-415.7"/>
<text text-anchor="start" x="344.5" y="-424.3" font-family="Helvetica,sans-Serif" font-weight="bold" font-size="11.00" fill="#000000">aggregation_function</text>
<text text-anchor="start" x="519.5437" y="-423.8" font-family="Helvetica,sans-Serif" font-size="11.00" fill="#000000">[table]</text>
<polygon fill="none" stroke="#000000" points="339.5,-393.7 339.5,-415.7 554.5,-415.7 554.5,-393.7 339.5,-393.7"/>
<image xlink:href="../../images/primaryKeys.png" width="11px" height="12px" preserveAspectRatio="xMinYMin meet" x="344.5" y="-410.7"/>
<text text-anchor="start" x="359.5" y="-400.8" font-family="Helvetica,sans-Serif" font-size="11.00" fill="#000000">aggregation_function_name</text>
<polygon fill="none" stroke="#000000" points="339.5,-371.7 339.5,-393.7 554.5,-393.7 554.5,-371.7 339.5,-371.7"/>
<image xlink:href="../../images/foreignKeys.png" width="11px" height="12px" preserveAspectRatio="xMinYMin meet" x="344.5" y="-388.7"/>
<text text-anchor="start" x="359.5" y="-378.8" font-family="Helvetica,sans-Serif" font-size="11.00" fill="#000000">source_level_of_data_granularity</text>
<polygon fill="none" stroke="#000000" points="339.5,-349.7 339.5,-371.7 554.5,-371.7 554.5,-349.7 339.5,-349.7"/>
<image xlink:href="../../images/foreignKeys.png" width="11px" height="12px" preserveAspectRatio="xMinYMin meet" x="344.5" y="-366.7"/>
<text text-anchor="start" x="359.5" y="-356.8" font-family="Helvetica,sans-Serif" font-size="11.00" fill="#000000">target_level_of_data_granularity</text>
<polygon fill="none" stroke="#000000" points="339.5,-330.7 339.5,-349.7 554.5,-349.7 554.5,-330.7 339.5,-330.7"/>
<text text-anchor="start" x="342.5" y="-336.8" font-family="Helvetica,sans-Serif" font-size="11.00" fill="#000000">...</text>
<polygon fill="#ffffff" stroke="transparent" points="339.5,-311.7 339.5,-330.7 440.5,-330.7 440.5,-311.7 339.5,-311.7"/>
<polygon fill="none" stroke="#000000" points="339.5,-311.7 339.5,-330.7 440.5,-330.7 440.5,-311.7 339.5,-311.7"/>
<text text-anchor="start" x="342.5" y="-317.8" font-family="Helvetica,sans-Serif" font-size="11.00" fill="#000000">&lt; 2</text>
<polygon fill="#ffffff" stroke="transparent" points="440.5,-311.7 440.5,-330.7 492.5,-330.7 492.5,-311.7 440.5,-311.7"/>
<polygon fill="none" stroke="#000000" points="440.5,-311.7 440.5,-330.7 492.5,-330.7 492.5,-311.7 440.5,-311.7"/>
<text text-anchor="start" x="483.3862" y="-317.8" font-family="Helvetica,sans-Serif" font-size="11.00" fill="#000000"> &#160;</text>
<polygon fill="#ffffff" stroke="transparent" points="492.5,-311.7 492.5,-330.7 554.5,-330.7 554.5,-311.7 492.5,-311.7"/>
<polygon fill="none" stroke="#000000" points="492.5,-311.7 492.5,-330.7 554.5,-330.7 554.5,-311.7 492.5,-311.7"/>
<text text-anchor="start" x="535.9053" y="-317.8" font-family="Helvetica,sans-Serif" font-size="11.00" fill="#000000">1 &gt;</text>
</a>
</g>
</g>
<!-- aggregation_function&#45;&gt;levels_of_data_granularity -->
<g id="edge2" class="edge">
<title>aggregation_function:w&#45;&gt;levels_of_data_granularity:e</title>
<path fill="none" stroke="#000000" d="M325.0832,-380.8996C305.563,-375.6454 298.0067,-360.7 272,-360.7"/>
<polygon fill="#000000" stroke="#000000" points="331.5617,-381.7086 339.0539,-386.2723 335.5308,-382.2043 339.5,-382.7 339.5,-382.7 339.5,-382.7 335.5308,-382.2043 339.9461,-379.1277 331.5617,-381.7086 331.5617,-381.7086"/>
<ellipse fill="none" stroke="#000000" cx="328.3863" cy="-381.3121" rx="3.2" ry="3.2"/>
</g>
<!-- aggregation_function&#45;&gt;levels_of_data_granularity -->
<g id="edge3" class="edge">
<title>aggregation_function:w&#45;&gt;levels_of_data_granularity:e</title>
<path fill="none" stroke="#000000" d="M324.9733,-360.7C305.9877,-360.7 296.4922,-360.7 272,-360.7"/>
<polygon fill="#000000" stroke="#000000" points="331.5,-360.7001 339.5,-364.3 335.5,-360.7 339.5,-360.7 339.5,-360.7 339.5,-360.7 335.5,-360.7 339.5,-357.1 331.5,-360.7001 331.5,-360.7001"/>
<ellipse fill="none" stroke="#000000" cx="328.3" cy="-360.7001" rx="3.2" ry="3.2"/>
</g>
<!-- data_element -->
<g id="node4" class="node">
<title>data_element</title>
<g id="a_node4"><a xlink:href="../../tables/data_element.html" xlink:title="data_element" target="_top">
<polygon fill="#ffffff" stroke="transparent" points="326.5,-164.2 326.5,-291.2 566.5,-291.2 566.5,-164.2 326.5,-164.2"/>
<polygon fill="#f5f5f5" stroke="transparent" points="326.5,-267.7 326.5,-290.7 566.5,-290.7 566.5,-267.7 326.5,-267.7"/>
<polygon fill="none" stroke="#000000" points="326.5,-267.7 326.5,-290.7 566.5,-290.7 566.5,-267.7 326.5,-267.7"/>
<text text-anchor="start" x="331.5" y="-276.3" font-family="Helvetica,sans-Serif" font-weight="bold" font-size="11.00" fill="#000000">data_element</text>
<text text-anchor="start" x="531.5437" y="-275.8" font-family="Helvetica,sans-Serif" font-size="11.00" fill="#000000">[table]</text>
<polygon fill="none" stroke="#000000" points="326.5,-245.7 326.5,-267.7 566.5,-267.7 566.5,-245.7 326.5,-245.7"/>
<image xlink:href="../../images/primaryKeys.png" width="11px" height="12px" preserveAspectRatio="xMinYMin meet" x="331.5" y="-262.7"/>
<text text-anchor="start" x="346.5" y="-252.8" font-family="Helvetica,sans-Serif" font-size="11.00" fill="#000000">data_element_global_identifier</text>
<polygon fill="none" stroke="#000000" points="326.5,-223.7 326.5,-245.7 566.5,-245.7 566.5,-223.7 326.5,-223.7"/>
<image xlink:href="../../images/foreignKeys.png" width="11px" height="12px" preserveAspectRatio="xMinYMin meet" x="331.5" y="-240.7"/>
<text text-anchor="start" x="346.5" y="-230.8" font-family="Helvetica,sans-Serif" font-size="11.00" fill="#000000">is_of_level_of_data_granularity</text>
<polygon fill="none" stroke="#000000" points="326.5,-201.7 326.5,-223.7 566.5,-223.7 566.5,-201.7 326.5,-201.7"/>
<image xlink:href="../../images/foreignKeys.png" width="11px" height="12px" preserveAspectRatio="xMinYMin meet" x="331.5" y="-218.7"/>
<text text-anchor="start" x="346.5" y="-208.8" font-family="Helvetica,sans-Serif" font-size="11.00" fill="#000000">parent_data_element_global_identifier</text>
<polygon fill="none" stroke="#000000" points="326.5,-182.7 326.5,-201.7 566.5,-201.7 566.5,-182.7 326.5,-182.7"/>
<text text-anchor="start" x="329.5" y="-188.8" font-family="Helvetica,sans-Serif" font-size="11.00" fill="#000000">...</text>
<polygon fill="#ffffff" stroke="transparent" points="326.5,-163.7 326.5,-182.7 440.5,-182.7 440.5,-163.7 326.5,-163.7"/>
<polygon fill="none" stroke="#000000" points="326.5,-163.7 326.5,-182.7 440.5,-182.7 440.5,-163.7 326.5,-163.7"/>
<text text-anchor="start" x="329.5" y="-169.8" font-family="Helvetica,sans-Serif" font-size="11.00" fill="#000000">&lt; 2</text>
<polygon fill="#ffffff" stroke="transparent" points="440.5,-163.7 440.5,-182.7 498.5,-182.7 498.5,-163.7 440.5,-163.7"/>
<polygon fill="none" stroke="#000000" points="440.5,-163.7 440.5,-182.7 498.5,-182.7 498.5,-163.7 440.5,-163.7"/>
<text text-anchor="start" x="489.3862" y="-169.8" font-family="Helvetica,sans-Serif" font-size="11.00" fill="#000000"> &#160;</text>
<polygon fill="#ffffff" stroke="transparent" points="498.5,-163.7 498.5,-182.7 566.5,-182.7 566.5,-163.7 498.5,-163.7"/>
<polygon fill="none" stroke="#000000" points="498.5,-163.7 498.5,-182.7 566.5,-182.7 566.5,-163.7 498.5,-163.7"/>
<text text-anchor="start" x="547.9053" y="-169.8" font-family="Helvetica,sans-Serif" font-size="11.00" fill="#000000">2 &gt;</text>
</a>
</g>
</g>
<!-- data_element&#45;&gt;levels_of_data_granularity -->
<g id="edge4" class="edge">
<title>data_element:w&#45;&gt;levels_of_data_granularity:e</title>
<path fill="none" stroke="#000000" d="M312.063,-238.0702C277.4491,-258.1077 327.0557,-360.7 272,-360.7"/>
<polygon fill="#000000" stroke="#000000" points="318.7095,-236.5187 327.3184,-238.2057 322.6047,-235.6093 326.5,-234.7 326.5,-234.7 326.5,-234.7 322.6047,-235.6093 325.6816,-231.1943 318.7095,-236.5187 318.7095,-236.5187"/>
<ellipse fill="none" stroke="#000000" cx="315.5932" cy="-237.2461" rx="3.2" ry="3.2"/>
</g>
<!-- dq_metric -->
<g id="node5" class="node">
<title>dq_metric</title>
<g id="a_node5"><a xlink:href="../../tables/dq_metric.html" xlink:title="dq_metric" target="_top">
<polygon fill="#ffffff" stroke="transparent" points="323,-38.2 323,-143.2 570,-143.2 570,-38.2 323,-38.2"/>
<polygon fill="#f5f5f5" stroke="transparent" points="323.5,-119.7 323.5,-142.7 570.5,-142.7 570.5,-119.7 323.5,-119.7"/>
<polygon fill="none" stroke="#000000" points="323.5,-119.7 323.5,-142.7 570.5,-142.7 570.5,-119.7 323.5,-119.7"/>
<text text-anchor="start" x="328.5" y="-128.3" font-family="Helvetica,sans-Serif" font-weight="bold" font-size="11.00" fill="#000000">dq_metric</text>
<text text-anchor="start" x="535.5437" y="-127.8" font-family="Helvetica,sans-Serif" font-size="11.00" fill="#000000">[table]</text>
<polygon fill="none" stroke="#000000" points="323.5,-97.7 323.5,-119.7 570.5,-119.7 570.5,-97.7 323.5,-97.7"/>
<image xlink:href="../../images/primaryKeys.png" width="11px" height="12px" preserveAspectRatio="xMinYMin meet" x="328.5" y="-114.7"/>
<text text-anchor="start" x="343.5" y="-104.8" font-family="Helvetica,sans-Serif" font-size="11.00" fill="#000000">metric_name</text>
<polygon fill="none" stroke="#000000" points="323.5,-75.7 323.5,-97.7 570.5,-97.7 570.5,-75.7 323.5,-75.7"/>
<image xlink:href="../../images/foreignKeys.png" width="11px" height="12px" preserveAspectRatio="xMinYMin meet" x="328.5" y="-92.7"/>
<text text-anchor="start" x="343.5" y="-82.8" font-family="Helvetica,sans-Serif" font-size="11.00" fill="#000000">designed_for_level_of_data_granularity</text>
<polygon fill="none" stroke="#000000" points="323.5,-56.7 323.5,-75.7 570.5,-75.7 570.5,-56.7 323.5,-56.7"/>
<text text-anchor="start" x="326.5" y="-62.8" font-family="Helvetica,sans-Serif" font-size="11.00" fill="#000000">...</text>
<polygon fill="#ffffff" stroke="transparent" points="323.5,-37.7 323.5,-56.7 440.5,-56.7 440.5,-37.7 323.5,-37.7"/>
<polygon fill="none" stroke="#000000" points="323.5,-37.7 323.5,-56.7 440.5,-56.7 440.5,-37.7 323.5,-37.7"/>
<text text-anchor="start" x="326.5" y="-43.8" font-family="Helvetica,sans-Serif" font-size="11.00" fill="#000000">&lt; 1</text>
<polygon fill="#ffffff" stroke="transparent" points="440.5,-37.7 440.5,-56.7 500.5,-56.7 500.5,-37.7 440.5,-37.7"/>
<polygon fill="none" stroke="#000000" points="440.5,-37.7 440.5,-56.7 500.5,-56.7 500.5,-37.7 440.5,-37.7"/>
<text text-anchor="start" x="491.3862" y="-43.8" font-family="Helvetica,sans-Serif" font-size="11.00" fill="#000000"> &#160;</text>
<polygon fill="#ffffff" stroke="transparent" points="500.5,-37.7 500.5,-56.7 570.5,-56.7 570.5,-37.7 500.5,-37.7"/>
<polygon fill="none" stroke="#000000" points="500.5,-37.7 500.5,-56.7 570.5,-56.7 570.5,-37.7 500.5,-37.7"/>
<text text-anchor="start" x="551.9053" y="-43.8" font-family="Helvetica,sans-Serif" font-size="11.00" fill="#000000">2 &gt;</text>
</a>
</g>
</g>
<!-- dq_metric&#45;&gt;levels_of_data_granularity -->
<g id="edge5" class="edge">
<title>dq_metric:w&#45;&gt;levels_of_data_granularity:e</title>
<path fill="none" stroke="#000000" d="M308.9651,-88.2409C216.2261,-110.2529 390.4649,-360.7 272,-360.7"/>
<polygon fill="#000000" stroke="#000000" points="315.5446,-87.5435 323.8796,-90.2799 319.5223,-87.1217 323.5,-86.7 323.5,-86.7 323.5,-86.7 319.5223,-87.1217 323.1204,-83.1201 315.5446,-87.5435 315.5446,-87.5435"/>
<ellipse fill="none" stroke="#000000" cx="312.3624" cy="-87.8808" rx="3.2" ry="3.2"/>
</g>
</g>
</svg>
