<?xml version="1.0" encoding="UTF-8" standalone="no"?>
<!DOCTYPE svg PUBLIC "-//W3C//DTD SVG 1.1//EN"
 "http://www.w3.org/Graphics/SVG/1.1/DTD/svg11.dtd">
<!-- Generated by graphviz version 2.40.1 (20161225.0304)
 -->
<!-- Title: twoDegreesRelationshipsDiagram Pages: 1 -->
<svg width="909pt" height="331pt"
 viewBox="0.00 0.00 909.00 331.20" xmlns="http://www.w3.org/2000/svg" xmlns:xlink="http://www.w3.org/1999/xlink">
<g id="graph0" class="graph" transform="scale(1 1) rotate(0) translate(4 327.2)">
<title>twoDegreesRelationshipsDiagram</title>
<polygon fill="#ffffff" stroke="transparent" points="-4,4 -4,-327.2 905,-327.2 905,4 -4,4"/>
<text text-anchor="middle" x="72.4936" y="-7.3" font-family="Helvetica,sans-Serif" font-size="11.00" fill="#000000">Generated by SchemaSpy</text>
<!-- aggregation_process_computes_value_for_dimension -->
<g id="node1" class="node">
<title>aggregation_process_computes_value_for_dimension</title>
<g id="a_node1"><a xlink:href="../../tables/aggregation_process_computes_va_b73ff08c.html" xlink:title="aggregation_process_computes_value_for_dimension" target="_top">
<polygon fill="#ffffff" stroke="transparent" points="543,-258.2 543,-319.2 893,-319.2 893,-258.2 543,-258.2"/>
<polygon fill="#f5f5f5" stroke="transparent" points="543,-295.7 543,-318.7 893,-318.7 893,-295.7 543,-295.7"/>
<polygon fill="none" stroke="#000000" points="543,-295.7 543,-318.7 893,-318.7 893,-295.7 543,-295.7"/>
<text text-anchor="start" x="548" y="-304.3" font-family="Helvetica,sans-Serif" font-weight="bold" font-size="11.00" fill="#000000">aggregation_process_computes_value_for_dimension</text>
<text text-anchor="start" x="858.5219" y="-303.8" font-family="Helvetica,sans-Serif" font-size="11.00" fill="#000000">[table]</text>
<polygon fill="none" stroke="#000000" points="543,-276.7 543,-295.7 893,-295.7 893,-276.7 543,-276.7"/>
<text text-anchor="start" x="546" y="-282.8" font-family="Helvetica,sans-Serif" font-size="11.00" fill="#000000">...</text>
<polygon fill="#ffffff" stroke="transparent" points="543,-257.7 543,-276.7 716,-276.7 716,-257.7 543,-257.7"/>
<polygon fill="none" stroke="#000000" points="543,-257.7 543,-276.7 716,-276.7 716,-257.7 543,-257.7"/>
<text text-anchor="start" x="546" y="-263.8" font-family="Helvetica,sans-Serif" font-size="11.00" fill="#000000">&lt; 2</text>
<polygon fill="#ffffff" stroke="transparent" points="716,-257.7 716,-276.7 804,-276.7 804,-257.7 716,-257.7"/>
<polygon fill="none" stroke="#000000" points="716,-257.7 716,-276.7 804,-276.7 804,-257.7 716,-257.7"/>
<text text-anchor="start" x="794.8862" y="-263.8" font-family="Helvetica,sans-Serif" font-size="11.00" fill="#000000"> &#160;</text>
<polygon fill="#ffffff" stroke="transparent" points="804,-257.7 804,-276.7 893,-276.7 893,-257.7 804,-257.7"/>
<polygon fill="none" stroke="#000000" points="804,-257.7 804,-276.7 893,-276.7 893,-257.7 804,-257.7"/>
<text text-anchor="start" x="883.8862" y="-263.8" font-family="Helvetica,sans-Serif" font-size="11.00" fill="#000000"> &#160;</text>
</a>
</g>
</g>
<!-- dq_dimension -->
<g id="node2" class="node">
<title>dq_dimension</title>
<g id="a_node2"><a xlink:href="../../tables/dq_dimension.html" xlink:title="dq_dimension" target="_top">
<polygon fill="#ffffff" stroke="transparent" points="294.5,-198.2 294.5,-303.2 446.5,-303.2 446.5,-198.2 294.5,-198.2"/>
<polygon fill="#f5f5f5" stroke="transparent" points="294.5,-279.7 294.5,-302.7 446.5,-302.7 446.5,-279.7 294.5,-279.7"/>
<polygon fill="none" stroke="#000000" points="294.5,-279.7 294.5,-302.7 446.5,-302.7 446.5,-279.7 294.5,-279.7"/>
<text text-anchor="start" x="299.5" y="-288.3" font-family="Helvetica,sans-Serif" font-weight="bold" font-size="11.00" fill="#000000">dq_dimension</text>
<text text-anchor="start" x="411.5437" y="-287.8" font-family="Helvetica,sans-Serif" font-size="11.00" fill="#000000">[table]</text>
<polygon fill="none" stroke="#000000" points="294.5,-257.7 294.5,-279.7 446.5,-279.7 446.5,-257.7 294.5,-257.7"/>
<image xlink:href="../../images/primaryKeys.png" width="11px" height="12px" preserveAspectRatio="xMinYMin meet" x="299.5" y="-274.7"/>
<text text-anchor="start" x="314.5" y="-264.8" font-family="Helvetica,sans-Serif" font-size="11.00" fill="#000000">dimension_name</text>
<polygon fill="none" stroke="#000000" points="294.5,-235.7 294.5,-257.7 446.5,-257.7 446.5,-235.7 294.5,-235.7"/>
<image xlink:href="../../images/foreignKeys.png" width="11px" height="12px" preserveAspectRatio="xMinYMin meet" x="299.5" y="-252.7"/>
<text text-anchor="start" x="314.5" y="-242.8" font-family="Helvetica,sans-Serif" font-size="11.00" fill="#000000">is_sub_dimension_of</text>
<polygon fill="none" stroke="#000000" points="294.5,-216.7 294.5,-235.7 446.5,-235.7 446.5,-216.7 294.5,-216.7"/>
<text text-anchor="start" x="297.5" y="-222.8" font-family="Helvetica,sans-Serif" font-size="11.00" fill="#000000">...</text>
<polygon fill="#ffffff" stroke="transparent" points="294.5,-197.7 294.5,-216.7 364.5,-216.7 364.5,-197.7 294.5,-197.7"/>
<polygon fill="none" stroke="#000000" points="294.5,-197.7 294.5,-216.7 364.5,-216.7 364.5,-197.7 294.5,-197.7"/>
<text text-anchor="start" x="297.5" y="-203.8" font-family="Helvetica,sans-Serif" font-size="11.00" fill="#000000">&lt; 1</text>
<polygon fill="#ffffff" stroke="transparent" points="364.5,-197.7 364.5,-216.7 400.5,-216.7 400.5,-197.7 364.5,-197.7"/>
<polygon fill="none" stroke="#000000" points="364.5,-197.7 364.5,-216.7 400.5,-216.7 400.5,-197.7 364.5,-197.7"/>
<text text-anchor="start" x="391.3862" y="-203.8" font-family="Helvetica,sans-Serif" font-size="11.00" fill="#000000"> &#160;</text>
<polygon fill="#ffffff" stroke="transparent" points="400.5,-197.7 400.5,-216.7 446.5,-216.7 446.5,-197.7 400.5,-197.7"/>
<polygon fill="none" stroke="#000000" points="400.5,-197.7 400.5,-216.7 446.5,-216.7 446.5,-197.7 400.5,-197.7"/>
<text text-anchor="start" x="427.9053" y="-203.8" font-family="Helvetica,sans-Serif" font-size="11.00" fill="#000000">3 &gt;</text>
</a>
</g>
</g>
<!-- aggregation_process_computes_value_for_dimension&#45;&gt;dq_dimension -->
<g id="edge1" class="edge">
<title>aggregation_process_computes_value_for_dimension:w&#45;&gt;dq_dimension:e</title>
<path fill="none" stroke="#000000" d="M528.5603,-285.0125C496.6731,-281.8321 484.7758,-268.7 446.5,-268.7"/>
<polygon fill="#000000" stroke="#000000" points="535.0091,-285.3195 542.8288,-289.2959 539.0045,-285.5097 543,-285.7 543,-285.7 543,-285.7 539.0045,-285.5097 543.1712,-282.1041 535.0091,-285.3195 535.0091,-285.3195"/>
<ellipse fill="none" stroke="#000000" cx="531.8127" cy="-285.1673" rx="3.2" ry="3.2"/>
</g>
<!-- dq_metric -->
<g id="node3" class="node">
<title>dq_metric</title>
<g id="a_node3"><a xlink:href="../../tables/dq_metric.html" xlink:title="dq_metric" target="_top">
<polygon fill="#ffffff" stroke="transparent" points="247,-38.2 247,-143.2 494,-143.2 494,-38.2 247,-38.2"/>
<polygon fill="#f5f5f5" stroke="transparent" points="247.5,-119.7 247.5,-142.7 494.5,-142.7 494.5,-119.7 247.5,-119.7"/>
<polygon fill="none" stroke="#000000" points="247.5,-119.7 247.5,-142.7 494.5,-142.7 494.5,-119.7 247.5,-119.7"/>
<text text-anchor="start" x="252.5" y="-128.3" font-family="Helvetica,sans-Serif" font-weight="bold" font-size="11.00" fill="#000000">dq_metric</text>
<text text-anchor="start" x="459.5437" y="-127.8" font-family="Helvetica,sans-Serif" font-size="11.00" fill="#000000">[table]</text>
<polygon fill="none" stroke="#000000" points="247.5,-97.7 247.5,-119.7 494.5,-119.7 494.5,-97.7 247.5,-97.7"/>
<image xlink:href="../../images/primaryKeys.png" width="11px" height="12px" preserveAspectRatio="xMinYMin meet" x="252.5" y="-114.7"/>
<text text-anchor="start" x="267.5" y="-104.8" font-family="Helvetica,sans-Serif" font-size="11.00" fill="#000000">metric_name</text>
<polygon fill="none" stroke="#000000" points="247.5,-75.7 247.5,-97.7 494.5,-97.7 494.5,-75.7 247.5,-75.7"/>
<image xlink:href="../../images/foreignKeys.png" width="11px" height="12px" preserveAspectRatio="xMinYMin meet" x="252.5" y="-92.7"/>
<text text-anchor="start" x="267.5" y="-82.8" font-family="Helvetica,sans-Serif" font-size="11.00" fill="#000000">designed_for_level_of_data_granularity</text>
<polygon fill="none" stroke="#000000" points="247.5,-56.7 247.5,-75.7 494.5,-75.7 494.5,-56.7 247.5,-56.7"/>
<text text-anchor="start" x="250.5" y="-62.8" font-family="Helvetica,sans-Serif" font-size="11.00" fill="#000000">...</text>
<polygon fill="#ffffff" stroke="transparent" points="247.5,-37.7 247.5,-56.7 364.5,-56.7 364.5,-37.7 247.5,-37.7"/>
<polygon fill="none" stroke="#000000" points="247.5,-37.7 247.5,-56.7 364.5,-56.7 364.5,-37.7 247.5,-37.7"/>
<text text-anchor="start" x="250.5" y="-43.8" font-family="Helvetica,sans-Serif" font-size="11.00" fill="#000000">&lt; 1</text>
<polygon fill="#ffffff" stroke="transparent" points="364.5,-37.7 364.5,-56.7 424.5,-56.7 424.5,-37.7 364.5,-37.7"/>
<polygon fill="none" stroke="#000000" points="364.5,-37.7 364.5,-56.7 424.5,-56.7 424.5,-37.7 364.5,-37.7"/>
<text text-anchor="start" x="415.3862" y="-43.8" font-family="Helvetica,sans-Serif" font-size="11.00" fill="#000000"> &#160;</text>
<polygon fill="#ffffff" stroke="transparent" points="424.5,-37.7 424.5,-56.7 494.5,-56.7 494.5,-37.7 424.5,-37.7"/>
<polygon fill="none" stroke="#000000" points="424.5,-37.7 424.5,-56.7 494.5,-56.7 494.5,-37.7 424.5,-37.7"/>
<text text-anchor="start" x="475.9053" y="-43.8" font-family="Helvetica,sans-Serif" font-size="11.00" fill="#000000">2 &gt;</text>
</a>
</g>
</g>
<!-- levels_of_data_granularity -->
<g id="node4" class="node">
<title>levels_of_data_granularity</title>
<g id="a_node4"><a xlink:href="../../tables/levels_of_data_granularity.html" xlink:title="levels_of_data_granularity" target="_top">
<polygon fill="#ffffff" stroke="transparent" points="8,-59.2 8,-120.2 198,-120.2 198,-59.2 8,-59.2"/>
<polygon fill="#f5f5f5" stroke="transparent" points="8,-96.7 8,-119.7 198,-119.7 198,-96.7 8,-96.7"/>
<polygon fill="none" stroke="#000000" points="8,-96.7 8,-119.7 198,-119.7 198,-96.7 8,-96.7"/>
<text text-anchor="start" x="13" y="-105.3" font-family="Helvetica,sans-Serif" font-weight="bold" font-size="11.00" fill="#000000">levels_of_data_granularity</text>
<text text-anchor="start" x="163.5219" y="-104.8" font-family="Helvetica,sans-Serif" font-size="11.00" fill="#000000">[table]</text>
<polygon fill="none" stroke="#000000" points="8,-77.7 8,-96.7 198,-96.7 198,-77.7 8,-77.7"/>
<text text-anchor="start" x="11" y="-83.8" font-family="Helvetica,sans-Serif" font-size="11.00" fill="#000000">...</text>
<polygon fill="#ffffff" stroke="transparent" points="8,-58.7 8,-77.7 92,-77.7 92,-58.7 8,-58.7"/>
<polygon fill="none" stroke="#000000" points="8,-58.7 8,-77.7 92,-77.7 92,-58.7 8,-58.7"/>
<text text-anchor="start" x="11" y="-64.8" font-family="Helvetica,sans-Serif" font-size="11.00" fill="#000000"> &#160;</text>
<polygon fill="#ffffff" stroke="transparent" points="92,-58.7 92,-77.7 140,-77.7 140,-58.7 92,-58.7"/>
<polygon fill="none" stroke="#000000" points="92,-58.7 92,-77.7 140,-77.7 140,-58.7 92,-58.7"/>
<text text-anchor="start" x="130.8862" y="-64.8" font-family="Helvetica,sans-Serif" font-size="11.00" fill="#000000"> &#160;</text>
<polygon fill="#ffffff" stroke="transparent" points="140,-58.7 140,-77.7 198,-77.7 198,-58.7 140,-58.7"/>
<polygon fill="none" stroke="#000000" points="140,-58.7 140,-77.7 198,-77.7 198,-58.7 140,-58.7"/>
<text text-anchor="start" x="179.4053" y="-64.8" font-family="Helvetica,sans-Serif" font-size="11.00" fill="#000000">5 &gt;</text>
</a>
</g>
</g>
<!-- dq_metric&#45;&gt;levels_of_data_granularity -->
<g id="edge2" class="edge">
<title>dq_metric:w&#45;&gt;levels_of_data_granularity:e</title>
<path fill="none" stroke="#000000" d="M232.8428,-86.7C221.4139,-86.7 214.1563,-86.7 198,-86.7"/>
<polygon fill="#000000" stroke="#000000" points="239.5,-86.7001 247.5,-90.3 243.5,-86.7 247.5,-86.7 247.5,-86.7 247.5,-86.7 243.5,-86.7 247.5,-83.1 239.5,-86.7001 239.5,-86.7001"/>
<ellipse fill="none" stroke="#000000" cx="236.3" cy="-86.7001" rx="3.2" ry="3.2"/>
</g>
<!-- dq_result -->
<g id="node5" class="node">
<title>dq_result</title>
<g id="a_node5"><a xlink:href="../../tables/dq_result.html" xlink:title="dq_result" target="_top">
<polygon fill="#ffffff" stroke="transparent" points="671.5,-64.2 671.5,-125.2 764.5,-125.2 764.5,-64.2 671.5,-64.2"/>
<polygon fill="#f5f5f5" stroke="transparent" points="672,-101.7 672,-124.7 765,-124.7 765,-101.7 672,-101.7"/>
<polygon fill="none" stroke="#000000" points="672,-101.7 672,-124.7 765,-124.7 765,-101.7 672,-101.7"/>
<text text-anchor="start" x="677" y="-110.3" font-family="Helvetica,sans-Serif" font-weight="bold" font-size="11.00" fill="#000000">dq_result</text>
<text text-anchor="start" x="730.5219" y="-109.8" font-family="Helvetica,sans-Serif" font-size="11.00" fill="#000000">[table]</text>
<polygon fill="none" stroke="#000000" points="672,-82.7 672,-101.7 765,-101.7 765,-82.7 672,-82.7"/>
<text text-anchor="start" x="675" y="-88.8" font-family="Helvetica,sans-Serif" font-size="11.00" fill="#000000">...</text>
<polygon fill="#ffffff" stroke="transparent" points="672,-63.7 672,-82.7 717,-82.7 717,-63.7 672,-63.7"/>
<polygon fill="none" stroke="#000000" points="672,-63.7 672,-82.7 717,-82.7 717,-63.7 672,-63.7"/>
<text text-anchor="start" x="675" y="-69.8" font-family="Helvetica,sans-Serif" font-size="11.00" fill="#000000">&lt; 3</text>
<polygon fill="#ffffff" stroke="transparent" points="717,-63.7 717,-82.7 741,-82.7 741,-63.7 717,-63.7"/>
<polygon fill="none" stroke="#000000" points="717,-63.7 717,-82.7 741,-82.7 741,-63.7 717,-63.7"/>
<text text-anchor="start" x="731.8862" y="-69.8" font-family="Helvetica,sans-Serif" font-size="11.00" fill="#000000"> &#160;</text>
<polygon fill="#ffffff" stroke="transparent" points="741,-63.7 741,-82.7 765,-82.7 765,-63.7 741,-63.7"/>
<polygon fill="none" stroke="#000000" points="741,-63.7 741,-82.7 765,-82.7 765,-63.7 741,-63.7"/>
<text text-anchor="start" x="755.8862" y="-69.8" font-family="Helvetica,sans-Serif" font-size="11.00" fill="#000000"> &#160;</text>
</a>
</g>
</g>
<!-- dq_result&#45;&gt;dq_metric -->
<g id="edge3" class="edge">
<title>dq_result:w&#45;&gt;dq_metric:e</title>
<path fill="none" stroke="#000000" d="M657.3949,-91.9028C590.0506,-93.8208 568.642,-108.7 494.5,-108.7"/>
<polygon fill="#000000" stroke="#000000" points="664.0008,-91.8111 672.05,-95.2997 668.0004,-91.7556 672,-91.7 672,-91.7 672,-91.7 668.0004,-91.7556 671.95,-88.1003 664.0008,-91.8111 664.0008,-91.8111"/>
<ellipse fill="none" stroke="#000000" cx="660.8011" cy="-91.8555" rx="3.2" ry="3.2"/>
</g>
<!-- metric_computes_value_for_dimension -->
<g id="node6" class="node">
<title>metric_computes_value_for_dimension</title>
<g id="a_node6"><a xlink:href="../../tables/metric_computes_value_for_dimension.html" xlink:title="metric_computes_value_for_dimension" target="_top">
<polygon fill="#ffffff" stroke="transparent" points="547.5,-146.7 547.5,-236.7 888.5,-236.7 888.5,-146.7 547.5,-146.7"/>
<polygon fill="#f5f5f5" stroke="transparent" points="550,-211.7 550,-234.7 887,-234.7 887,-211.7 550,-211.7"/>
<polygon fill="none" stroke="#000000" points="550,-211.7 550,-234.7 887,-234.7 887,-211.7 550,-211.7"/>
<text text-anchor="start" x="555" y="-220.3" font-family="Helvetica,sans-Serif" font-weight="bold" font-size="11.00" fill="#000000">metric_computes_value_for_dimension</text>
<text text-anchor="start" x="852.0437" y="-219.8" font-family="Helvetica,sans-Serif" font-size="11.00" fill="#000000">[table]</text>
<polygon fill="none" stroke="#000000" points="550,-189.7 550,-211.7 797,-211.7 797,-189.7 550,-189.7"/>
<image xlink:href="../../images/primaryKeys.png" width="11px" height="12px" preserveAspectRatio="xMinYMin meet" x="555" y="-206.7"/>
<text text-anchor="start" x="570" y="-196.8" font-family="Helvetica,sans-Serif" font-size="11.00" fill="#000000">metric_name</text>
<polygon fill="none" stroke="#000000" points="797,-189.7 797,-211.7 887,-211.7 887,-189.7 797,-189.7"/>
<text text-anchor="start" x="799.5043" y="-197.4" font-family="Helvetica,sans-Serif" font-size="11.00" fill="#000000">text[2147483647]</text>
<polygon fill="none" stroke="#000000" points="550,-167.7 550,-189.7 797,-189.7 797,-167.7 550,-167.7"/>
<image xlink:href="../../images/primaryKeys.png" width="11px" height="12px" preserveAspectRatio="xMinYMin meet" x="555" y="-184.7"/>
<text text-anchor="start" x="570" y="-174.8" font-family="Helvetica,sans-Serif" font-size="11.00" fill="#000000">dimension_name</text>
<polygon fill="none" stroke="#000000" points="797,-167.7 797,-189.7 887,-189.7 887,-167.7 797,-167.7"/>
<text text-anchor="start" x="799.5043" y="-175.4" font-family="Helvetica,sans-Serif" font-size="11.00" fill="#000000">text[2147483647]</text>
<polygon fill="#ffffff" stroke="transparent" points="550,-148.7 550,-167.7 678,-167.7 678,-148.7 550,-148.7"/>
<polygon fill="none" stroke="#000000" points="550,-148.7 550,-167.7 678,-167.7 678,-148.7 550,-148.7"/>
<text text-anchor="start" x="553" y="-154.8" font-family="Helvetica,sans-Serif" font-size="11.00" fill="#000000">&lt; 2</text>
<polygon fill="#ffffff" stroke="transparent" points="678,-148.7 678,-167.7 797,-167.7 797,-148.7 678,-148.7"/>
<polygon fill="none" stroke="#000000" points="678,-148.7 678,-167.7 797,-167.7 797,-148.7 678,-148.7"/>
<text text-anchor="start" x="787.8862" y="-154.8" font-family="Helvetica,sans-Serif" font-size="11.00" fill="#000000"> &#160;</text>
<polygon fill="#ffffff" stroke="transparent" points="797,-148.7 797,-167.7 887,-167.7 887,-148.7 797,-148.7"/>
<polygon fill="none" stroke="#000000" points="797,-148.7 797,-167.7 887,-167.7 887,-148.7 797,-148.7"/>
<text text-anchor="start" x="868.4053" y="-154.8" font-family="Helvetica,sans-Serif" font-size="11.00" fill="#000000">0 &gt;</text>
<polygon fill="none" stroke="#000000" stroke-width="2" points="548.5,-147.7 548.5,-235.7 887.5,-235.7 887.5,-147.7 548.5,-147.7"/>
</a>
</g>
</g>
<!-- metric_computes_value_for_dimension&#45;&gt;dq_dimension -->
<g id="edge4" class="edge">
<title>metric_computes_value_for_dimension:w&#45;&gt;dq_dimension:e</title>
<path fill="none" stroke="#000000" d="M535.6585,-180.6635C491.6654,-193.8251 502.1013,-268.7 446.5,-268.7"/>
<polygon fill="#000000" stroke="#000000" points="542.0739,-179.7852 550.4883,-182.2667 546.037,-179.2426 550,-178.7 550,-178.7 550,-178.7 546.037,-179.2426 549.5117,-175.1333 542.0739,-179.7852 542.0739,-179.7852"/>
<ellipse fill="none" stroke="#000000" cx="538.9035" cy="-180.2193" rx="3.2" ry="3.2"/>
</g>
<!-- metric_computes_value_for_dimension&#45;&gt;dq_metric -->
<g id="edge5" class="edge">
<title>metric_computes_value_for_dimension:w&#45;&gt;dq_metric:e</title>
<path fill="none" stroke="#000000" d="M535.8635,-196.7469C510.8773,-179.1375 536.2838,-108.7 494.5,-108.7"/>
<polygon fill="#000000" stroke="#000000" points="542.2956,-198.5455 549.0305,-204.167 546.1478,-199.6227 550,-200.7 550,-200.7 550,-200.7 546.1478,-199.6227 550.9695,-197.233 542.2956,-198.5455 542.2956,-198.5455"/>
<ellipse fill="none" stroke="#000000" cx="539.2138" cy="-197.6837" rx="3.2" ry="3.2"/>
</g>
</g>
</svg>
