<?xml version="1.0" encoding="UTF-8" standalone="no"?>
<!DOCTYPE svg PUBLIC "-//W3C//DTD SVG 1.1//EN"
 "http://www.w3.org/Graphics/SVG/1.1/DTD/svg11.dtd">
<!-- Generated by graphviz version 2.40.1 (20161225.0304)
 -->
<!-- Title: largeRelationshipsDiagram Pages: 1 -->
<svg width="909pt" height="949pt"
 viewBox="0.00 0.00 909.00 949.20" xmlns="http://www.w3.org/2000/svg" xmlns:xlink="http://www.w3.org/1999/xlink">
<g id="graph0" class="graph" transform="scale(1 1) rotate(0) translate(4 945.2)">
<title>largeRelationshipsDiagram</title>
<polygon fill="#ffffff" stroke="transparent" points="-4,4 -4,-945.2 905,-945.2 905,4 -4,4"/>
<text text-anchor="middle" x="72.4936" y="-7.3" font-family="Helvetica,sans-Serif" font-size="11.00" fill="#000000">Generated by SchemaSpy</text>
<!-- aggregation_constraint -->
<g id="node1" class="node">
<title>aggregation_constraint</title>
<g id="a_node1"><a xlink:href="../../tables/aggregation_constraint.html" xlink:title="aggregation_constraint" target="_top">
<polygon fill="#ffffff" stroke="transparent" points="258,-211.2 258,-341.2 483,-341.2 483,-211.2 258,-211.2"/>
<polygon fill="#f5f5f5" stroke="transparent" points="258.5,-318.2 258.5,-341.2 483.5,-341.2 483.5,-318.2 258.5,-318.2"/>
<polygon fill="none" stroke="#000000" points="258.5,-318.2 258.5,-341.2 483.5,-341.2 483.5,-318.2 258.5,-318.2"/>
<text text-anchor="start" x="263.5" y="-326.8" font-family="Helvetica,sans-Serif" font-weight="bold" font-size="11.00" fill="#000000">aggregation_constraint</text>
<text text-anchor="start" x="448.5437" y="-326.3" font-family="Helvetica,sans-Serif" font-size="11.00" fill="#000000">[table]</text>
<polygon fill="none" stroke="#000000" points="258.5,-296.2 258.5,-318.2 483.5,-318.2 483.5,-296.2 258.5,-296.2"/>
<image xlink:href="../../images/primaryKeys.png" width="11px" height="12px" preserveAspectRatio="xMinYMin meet" x="263.5" y="-313.2"/>
<text text-anchor="start" x="278.5" y="-303.3" font-family="Helvetica,sans-Serif" font-size="11.00" fill="#000000">aggregation_constraint_name</text>
<polygon fill="none" stroke="#000000" points="258.5,-274.2 258.5,-296.2 483.5,-296.2 483.5,-274.2 258.5,-274.2"/>
<text text-anchor="start" x="278.5" y="-281.3" font-family="Helvetica,sans-Serif" font-size="11.00" fill="#000000">aggregation_constraint_description</text>
<polygon fill="none" stroke="#000000" points="258.5,-252.2 258.5,-274.2 483.5,-274.2 483.5,-252.2 258.5,-252.2"/>
<text text-anchor="start" x="278.5" y="-259.3" font-family="Helvetica,sans-Serif" font-size="11.00" fill="#000000">aggregation_constraint_formula</text>
<polygon fill="none" stroke="#000000" points="258.5,-230.2 258.5,-252.2 483.5,-252.2 483.5,-230.2 258.5,-230.2"/>
<image xlink:href="../../images/foreignKeys.png" width="11px" height="12px" preserveAspectRatio="xMinYMin meet" x="263.5" y="-247.2"/>
<text text-anchor="start" x="278.5" y="-237.3" font-family="Helvetica,sans-Serif" font-size="11.00" fill="#000000">covers_level_of_data_granularity</text>
<polygon fill="#ffffff" stroke="transparent" points="258.5,-211.2 258.5,-230.2 364.5,-230.2 364.5,-211.2 258.5,-211.2"/>
<polygon fill="none" stroke="#000000" points="258.5,-211.2 258.5,-230.2 364.5,-230.2 364.5,-211.2 258.5,-211.2"/>
<text text-anchor="start" x="261.5" y="-217.3" font-family="Helvetica,sans-Serif" font-size="11.00" fill="#000000">&lt; 1</text>
<polygon fill="#ffffff" stroke="transparent" points="364.5,-211.2 364.5,-230.2 419.5,-230.2 419.5,-211.2 364.5,-211.2"/>
<polygon fill="none" stroke="#000000" points="364.5,-211.2 364.5,-230.2 419.5,-230.2 419.5,-211.2 364.5,-211.2"/>
<text text-anchor="start" x="410.3862" y="-217.3" font-family="Helvetica,sans-Serif" font-size="11.00" fill="#000000"> &#160;</text>
<polygon fill="#ffffff" stroke="transparent" points="419.5,-211.2 419.5,-230.2 483.5,-230.2 483.5,-211.2 419.5,-211.2"/>
<polygon fill="none" stroke="#000000" points="419.5,-211.2 419.5,-230.2 483.5,-230.2 483.5,-211.2 419.5,-211.2"/>
<text text-anchor="start" x="464.9053" y="-217.3" font-family="Helvetica,sans-Serif" font-size="11.00" fill="#000000">1 &gt;</text>
</a>
</g>
</g>
<!-- levels_of_data_granularity -->
<g id="node3" class="node">
<title>levels_of_data_granularity</title>
<g id="a_node3"><a xlink:href="../../tables/levels_of_data_granularity.html" xlink:title="levels_of_data_granularity" target="_top">
<polygon fill="#ffffff" stroke="transparent" points="8,-189.2 8,-275.2 198,-275.2 198,-189.2 8,-189.2"/>
<polygon fill="#f5f5f5" stroke="transparent" points="8,-252.2 8,-275.2 198,-275.2 198,-252.2 8,-252.2"/>
<polygon fill="none" stroke="#000000" points="8,-252.2 8,-275.2 198,-275.2 198,-252.2 8,-252.2"/>
<text text-anchor="start" x="13" y="-260.8" font-family="Helvetica,sans-Serif" font-weight="bold" font-size="11.00" fill="#000000">levels_of_data_granularity</text>
<text text-anchor="start" x="163.5219" y="-260.3" font-family="Helvetica,sans-Serif" font-size="11.00" fill="#000000">[table]</text>
<polygon fill="none" stroke="#000000" points="8,-230.2 8,-252.2 198,-252.2 198,-230.2 8,-230.2"/>
<image xlink:href="../../images/primaryKeys.png" width="11px" height="12px" preserveAspectRatio="xMinYMin meet" x="13" y="-247.2"/>
<text text-anchor="start" x="37" y="-237.3" font-family="Helvetica,sans-Serif" font-size="11.00" fill="#000000">level_name</text>
<polygon fill="none" stroke="#000000" points="8,-208.2 8,-230.2 198,-230.2 198,-208.2 8,-208.2"/>
<text text-anchor="start" x="37" y="-215.3" font-family="Helvetica,sans-Serif" font-size="11.00" fill="#000000">ordering</text>
<polygon fill="#ffffff" stroke="transparent" points="8,-189.2 8,-208.2 92,-208.2 92,-189.2 8,-189.2"/>
<polygon fill="none" stroke="#000000" points="8,-189.2 8,-208.2 92,-208.2 92,-189.2 8,-189.2"/>
<text text-anchor="start" x="11" y="-195.3" font-family="Helvetica,sans-Serif" font-size="11.00" fill="#000000"> &#160;</text>
<polygon fill="#ffffff" stroke="transparent" points="92,-189.2 92,-208.2 140,-208.2 140,-189.2 92,-189.2"/>
<polygon fill="none" stroke="#000000" points="92,-189.2 92,-208.2 140,-208.2 140,-189.2 92,-189.2"/>
<text text-anchor="start" x="130.8862" y="-195.3" font-family="Helvetica,sans-Serif" font-size="11.00" fill="#000000"> &#160;</text>
<polygon fill="#ffffff" stroke="transparent" points="140,-189.2 140,-208.2 198,-208.2 198,-189.2 140,-189.2"/>
<polygon fill="none" stroke="#000000" points="140,-189.2 140,-208.2 198,-208.2 198,-189.2 140,-189.2"/>
<text text-anchor="start" x="179.4053" y="-195.3" font-family="Helvetica,sans-Serif" font-size="11.00" fill="#000000">5 &gt;</text>
</a>
</g>
</g>
<!-- aggregation_constraint&#45;&gt;levels_of_data_granularity -->
<g id="edge1" class="edge">
<title>aggregation_constraint:w&#45;&gt;levels_of_data_granularity:e</title>
<path fill="none" stroke="#000000" d="M243.7977,-241.2C227.8779,-241.2 219.217,-241.2 198,-241.2"/>
<polygon fill="#000000" stroke="#000000" points="250.5,-241.2001 258.5,-244.8 254.5,-241.2 258.5,-241.2 258.5,-241.2 258.5,-241.2 254.5,-241.2 258.5,-237.6 250.5,-241.2001 250.5,-241.2001"/>
<ellipse fill="none" stroke="#000000" cx="247.3" cy="-241.2001" rx="3.2" ry="3.2"/>
</g>
<!-- aggregation_process_computes_value_for_dimension -->
<g id="node2" class="node">
<title>aggregation_process_computes_value_for_dimension</title>
<g id="a_node2"><a xlink:href="../../tables/aggregation_process_computes_va_b73ff08c.html" xlink:title="aggregation_process_computes_value_for_dimension" target="_top">
<polygon fill="#ffffff" stroke="transparent" points="543,-406.2 543,-492.2 893,-492.2 893,-406.2 543,-406.2"/>
<polygon fill="#f5f5f5" stroke="transparent" points="543,-469.2 543,-492.2 893,-492.2 893,-469.2 543,-469.2"/>
<polygon fill="none" stroke="#000000" points="543,-469.2 543,-492.2 893,-492.2 893,-469.2 543,-469.2"/>
<text text-anchor="start" x="548" y="-477.8" font-family="Helvetica,sans-Serif" font-weight="bold" font-size="11.00" fill="#000000">aggregation_process_computes_value_for_dimension</text>
<text text-anchor="start" x="858.5219" y="-477.3" font-family="Helvetica,sans-Serif" font-size="11.00" fill="#000000">[table]</text>
<polygon fill="none" stroke="#000000" points="543,-447.2 543,-469.2 893,-469.2 893,-447.2 543,-447.2"/>
<image xlink:href="../../images/primaryKeys.png" width="11px" height="12px" preserveAspectRatio="xMinYMin meet" x="548" y="-464.2"/>
<text text-anchor="start" x="572" y="-454.3" font-family="Helvetica,sans-Serif" font-size="11.00" fill="#000000">aggregation_process_name</text>
<polygon fill="none" stroke="#000000" points="543,-425.2 543,-447.2 893,-447.2 893,-425.2 543,-425.2"/>
<image xlink:href="../../images/primaryKeys.png" width="11px" height="12px" preserveAspectRatio="xMinYMin meet" x="548" y="-442.2"/>
<text text-anchor="start" x="572" y="-432.3" font-family="Helvetica,sans-Serif" font-size="11.00" fill="#000000">dimension_name</text>
<polygon fill="#ffffff" stroke="transparent" points="543,-406.2 543,-425.2 716,-425.2 716,-406.2 543,-406.2"/>
<polygon fill="none" stroke="#000000" points="543,-406.2 543,-425.2 716,-425.2 716,-406.2 543,-406.2"/>
<text text-anchor="start" x="546" y="-412.3" font-family="Helvetica,sans-Serif" font-size="11.00" fill="#000000">&lt; 2</text>
<polygon fill="#ffffff" stroke="transparent" points="716,-406.2 716,-425.2 804,-425.2 804,-406.2 716,-406.2"/>
<polygon fill="none" stroke="#000000" points="716,-406.2 716,-425.2 804,-425.2 804,-406.2 716,-406.2"/>
<text text-anchor="start" x="794.8862" y="-412.3" font-family="Helvetica,sans-Serif" font-size="11.00" fill="#000000"> &#160;</text>
<polygon fill="#ffffff" stroke="transparent" points="804,-406.2 804,-425.2 893,-425.2 893,-406.2 804,-406.2"/>
<polygon fill="none" stroke="#000000" points="804,-406.2 804,-425.2 893,-425.2 893,-406.2 804,-406.2"/>
<text text-anchor="start" x="883.8862" y="-412.3" font-family="Helvetica,sans-Serif" font-size="11.00" fill="#000000"> &#160;</text>
</a>
</g>
</g>
<!-- dq_dimension -->
<g id="node6" class="node">
<title>dq_dimension</title>
<g id="a_node6"><a xlink:href="../../tables/dq_dimension.html" xlink:title="dq_dimension" target="_top">
<polygon fill="#ffffff" stroke="transparent" points="294.5,-491.2 294.5,-599.2 446.5,-599.2 446.5,-491.2 294.5,-491.2"/>
<polygon fill="#f5f5f5" stroke="transparent" points="294.5,-576.2 294.5,-599.2 446.5,-599.2 446.5,-576.2 294.5,-576.2"/>
<polygon fill="none" stroke="#000000" points="294.5,-576.2 294.5,-599.2 446.5,-599.2 446.5,-576.2 294.5,-576.2"/>
<text text-anchor="start" x="299.5" y="-584.8" font-family="Helvetica,sans-Serif" font-weight="bold" font-size="11.00" fill="#000000">dq_dimension</text>
<text text-anchor="start" x="411.5437" y="-584.3" font-family="Helvetica,sans-Serif" font-size="11.00" fill="#000000">[table]</text>
<polygon fill="none" stroke="#000000" points="294.5,-554.2 294.5,-576.2 446.5,-576.2 446.5,-554.2 294.5,-554.2"/>
<image xlink:href="../../images/primaryKeys.png" width="11px" height="12px" preserveAspectRatio="xMinYMin meet" x="299.5" y="-571.2"/>
<text text-anchor="start" x="314.5" y="-561.3" font-family="Helvetica,sans-Serif" font-size="11.00" fill="#000000">dimension_name</text>
<polygon fill="none" stroke="#000000" points="294.5,-532.2 294.5,-554.2 446.5,-554.2 446.5,-532.2 294.5,-532.2"/>
<text text-anchor="start" x="314.5" y="-539.3" font-family="Helvetica,sans-Serif" font-size="11.00" fill="#000000">dimension_description</text>
<polygon fill="none" stroke="#000000" points="294.5,-510.2 294.5,-532.2 446.5,-532.2 446.5,-510.2 294.5,-510.2"/>
<image xlink:href="../../images/foreignKeys.png" width="11px" height="12px" preserveAspectRatio="xMinYMin meet" x="299.5" y="-527.2"/>
<text text-anchor="start" x="314.5" y="-517.3" font-family="Helvetica,sans-Serif" font-size="11.00" fill="#000000">is_sub_dimension_of</text>
<polygon fill="#ffffff" stroke="transparent" points="294.5,-491.2 294.5,-510.2 364.5,-510.2 364.5,-491.2 294.5,-491.2"/>
<polygon fill="none" stroke="#000000" points="294.5,-491.2 294.5,-510.2 364.5,-510.2 364.5,-491.2 294.5,-491.2"/>
<text text-anchor="start" x="297.5" y="-497.3" font-family="Helvetica,sans-Serif" font-size="11.00" fill="#000000">&lt; 1</text>
<polygon fill="#ffffff" stroke="transparent" points="364.5,-491.2 364.5,-510.2 400.5,-510.2 400.5,-491.2 364.5,-491.2"/>
<polygon fill="none" stroke="#000000" points="364.5,-491.2 364.5,-510.2 400.5,-510.2 400.5,-491.2 364.5,-491.2"/>
<text text-anchor="start" x="391.3862" y="-497.3" font-family="Helvetica,sans-Serif" font-size="11.00" fill="#000000"> &#160;</text>
<polygon fill="#ffffff" stroke="transparent" points="400.5,-491.2 400.5,-510.2 446.5,-510.2 446.5,-491.2 400.5,-491.2"/>
<polygon fill="none" stroke="#000000" points="400.5,-491.2 400.5,-510.2 446.5,-510.2 446.5,-491.2 400.5,-491.2"/>
<text text-anchor="start" x="427.9053" y="-497.3" font-family="Helvetica,sans-Serif" font-size="11.00" fill="#000000">3 &gt;</text>
</a>
</g>
</g>
<!-- aggregation_process_computes_value_for_dimension&#45;&gt;dq_dimension -->
<g id="edge5" class="edge">
<title>aggregation_process_computes_value_for_dimension:w&#45;&gt;dq_dimension:e</title>
<path fill="none" stroke="#000000" d="M529.6521,-442.0781C500.5993,-467.3142 477.6852,-565.2 446.5,-565.2"/>
<polygon fill="#000000" stroke="#000000" points="535.6785,-439.4242 544.4509,-439.4947 539.3392,-437.8121 543,-436.2 543,-436.2 543,-436.2 539.3392,-437.8121 541.5491,-432.9053 535.6785,-439.4242 535.6785,-439.4242"/>
<ellipse fill="none" stroke="#000000" cx="532.7499" cy="-440.7139" rx="3.2" ry="3.2"/>
</g>
<!-- aggregation_process -->
<g id="node7" class="node">
<title>aggregation_process</title>
<g id="a_node7"><a xlink:href="../../tables/aggregation_process.html" xlink:title="aggregation_process" target="_top">
<polygon fill="#ffffff" stroke="transparent" points="264,-362.2 264,-470.2 477,-470.2 477,-362.2 264,-362.2"/>
<polygon fill="#f5f5f5" stroke="transparent" points="264.5,-447.2 264.5,-470.2 477.5,-470.2 477.5,-447.2 264.5,-447.2"/>
<polygon fill="none" stroke="#000000" points="264.5,-447.2 264.5,-470.2 477.5,-470.2 477.5,-447.2 264.5,-447.2"/>
<text text-anchor="start" x="269.5" y="-455.8" font-family="Helvetica,sans-Serif" font-weight="bold" font-size="11.00" fill="#000000">aggregation_process</text>
<text text-anchor="start" x="442.5437" y="-455.3" font-family="Helvetica,sans-Serif" font-size="11.00" fill="#000000">[table]</text>
<polygon fill="none" stroke="#000000" points="264.5,-425.2 264.5,-447.2 477.5,-447.2 477.5,-425.2 264.5,-425.2"/>
<image xlink:href="../../images/primaryKeys.png" width="11px" height="12px" preserveAspectRatio="xMinYMin meet" x="269.5" y="-442.2"/>
<text text-anchor="start" x="284.5" y="-432.3" font-family="Helvetica,sans-Serif" font-size="11.00" fill="#000000">aggregation_process_name</text>
<polygon fill="none" stroke="#000000" points="264.5,-403.2 264.5,-425.2 477.5,-425.2 477.5,-403.2 264.5,-403.2"/>
<text text-anchor="start" x="284.5" y="-410.3" font-family="Helvetica,sans-Serif" font-size="11.00" fill="#000000">aggregation_process_description</text>
<polygon fill="none" stroke="#000000" points="264.5,-381.2 264.5,-403.2 477.5,-403.2 477.5,-381.2 264.5,-381.2"/>
<text text-anchor="start" x="284.5" y="-388.3" font-family="Helvetica,sans-Serif" font-size="11.00" fill="#000000">aggregation_query_for_values</text>
<polygon fill="#ffffff" stroke="transparent" points="264.5,-362.2 264.5,-381.2 360.5,-381.2 360.5,-362.2 264.5,-362.2"/>
<polygon fill="none" stroke="#000000" points="264.5,-362.2 264.5,-381.2 360.5,-381.2 360.5,-362.2 264.5,-362.2"/>
<text text-anchor="start" x="267.5" y="-368.3" font-family="Helvetica,sans-Serif" font-size="11.00" fill="#000000"> &#160;</text>
<polygon fill="#ffffff" stroke="transparent" points="360.5,-362.2 360.5,-381.2 414.5,-381.2 414.5,-362.2 360.5,-362.2"/>
<polygon fill="none" stroke="#000000" points="360.5,-362.2 360.5,-381.2 414.5,-381.2 414.5,-362.2 360.5,-362.2"/>
<text text-anchor="start" x="405.3862" y="-368.3" font-family="Helvetica,sans-Serif" font-size="11.00" fill="#000000"> &#160;</text>
<polygon fill="#ffffff" stroke="transparent" points="414.5,-362.2 414.5,-381.2 477.5,-381.2 477.5,-362.2 414.5,-362.2"/>
<polygon fill="none" stroke="#000000" points="414.5,-362.2 414.5,-381.2 477.5,-381.2 477.5,-362.2 414.5,-362.2"/>
<text text-anchor="start" x="458.9053" y="-368.3" font-family="Helvetica,sans-Serif" font-size="11.00" fill="#000000">3 &gt;</text>
</a>
</g>
</g>
<!-- aggregation_process_computes_value_for_dimension&#45;&gt;aggregation_process -->
<g id="edge4" class="edge">
<title>aggregation_process_computes_value_for_dimension:w&#45;&gt;aggregation_process:e</title>
<path fill="none" stroke="#000000" d="M528.716,-456.3243C509.9642,-451.0041 502.6912,-436.2 477.5,-436.2"/>
<polygon fill="#000000" stroke="#000000" points="535.0681,-457.1584 542.5313,-461.7694 539.034,-457.6792 543,-458.2 543,-458.2 543,-458.2 539.034,-457.6792 543.4687,-454.6306 535.0681,-457.1584 535.0681,-457.1584"/>
<ellipse fill="none" stroke="#000000" cx="531.8953" cy="-456.7417" rx="3.2" ry="3.2"/>
</g>
<!-- aggregation_function -->
<g id="node4" class="node">
<title>aggregation_function</title>
<g id="a_node4"><a xlink:href="../../tables/aggregation_function.html" xlink:title="aggregation_function" target="_top">
<polygon fill="#ffffff" stroke="transparent" points="263,-38.2 263,-190.2 478,-190.2 478,-38.2 263,-38.2"/>
<polygon fill="#f5f5f5" stroke="transparent" points="263.5,-167.2 263.5,-190.2 478.5,-190.2 478.5,-167.2 263.5,-167.2"/>
<polygon fill="none" stroke="#000000" points="263.5,-167.2 263.5,-190.2 478.5,-190.2 478.5,-167.2 263.5,-167.2"/>
<text text-anchor="start" x="268.5" y="-175.8" font-family="Helvetica,sans-Serif" font-weight="bold" font-size="11.00" fill="#000000">aggregation_function</text>
<text text-anchor="start" x="443.5437" y="-175.3" font-family="Helvetica,sans-Serif" font-size="11.00" fill="#000000">[table]</text>
<polygon fill="none" stroke="#000000" points="263.5,-145.2 263.5,-167.2 478.5,-167.2 478.5,-145.2 263.5,-145.2"/>
<image xlink:href="../../images/primaryKeys.png" width="11px" height="12px" preserveAspectRatio="xMinYMin meet" x="268.5" y="-162.2"/>
<text text-anchor="start" x="283.5" y="-152.3" font-family="Helvetica,sans-Serif" font-size="11.00" fill="#000000">aggregation_function_name</text>
<polygon fill="none" stroke="#000000" points="263.5,-123.2 263.5,-145.2 478.5,-145.2 478.5,-123.2 263.5,-123.2"/>
<text text-anchor="start" x="283.5" y="-130.3" font-family="Helvetica,sans-Serif" font-size="11.00" fill="#000000">aggregation_function_description</text>
<polygon fill="none" stroke="#000000" points="263.5,-101.2 263.5,-123.2 478.5,-123.2 478.5,-101.2 263.5,-101.2"/>
<text text-anchor="start" x="283.5" y="-108.3" font-family="Helvetica,sans-Serif" font-size="11.00" fill="#000000">aggregation_function_expression</text>
<polygon fill="none" stroke="#000000" points="263.5,-79.2 263.5,-101.2 478.5,-101.2 478.5,-79.2 263.5,-79.2"/>
<image xlink:href="../../images/foreignKeys.png" width="11px" height="12px" preserveAspectRatio="xMinYMin meet" x="268.5" y="-96.2"/>
<text text-anchor="start" x="283.5" y="-86.3" font-family="Helvetica,sans-Serif" font-size="11.00" fill="#000000">source_level_of_data_granularity</text>
<polygon fill="none" stroke="#000000" points="263.5,-57.2 263.5,-79.2 478.5,-79.2 478.5,-57.2 263.5,-57.2"/>
<image xlink:href="../../images/foreignKeys.png" width="11px" height="12px" preserveAspectRatio="xMinYMin meet" x="268.5" y="-74.2"/>
<text text-anchor="start" x="283.5" y="-64.3" font-family="Helvetica,sans-Serif" font-size="11.00" fill="#000000">target_level_of_data_granularity</text>
<polygon fill="#ffffff" stroke="transparent" points="263.5,-38.2 263.5,-57.2 364.5,-57.2 364.5,-38.2 263.5,-38.2"/>
<polygon fill="none" stroke="#000000" points="263.5,-38.2 263.5,-57.2 364.5,-57.2 364.5,-38.2 263.5,-38.2"/>
<text text-anchor="start" x="266.5" y="-44.3" font-family="Helvetica,sans-Serif" font-size="11.00" fill="#000000">&lt; 2</text>
<polygon fill="#ffffff" stroke="transparent" points="364.5,-38.2 364.5,-57.2 416.5,-57.2 416.5,-38.2 364.5,-38.2"/>
<polygon fill="none" stroke="#000000" points="364.5,-38.2 364.5,-57.2 416.5,-57.2 416.5,-38.2 364.5,-38.2"/>
<text text-anchor="start" x="407.3862" y="-44.3" font-family="Helvetica,sans-Serif" font-size="11.00" fill="#000000"> &#160;</text>
<polygon fill="#ffffff" stroke="transparent" points="416.5,-38.2 416.5,-57.2 478.5,-57.2 478.5,-38.2 416.5,-38.2"/>
<polygon fill="none" stroke="#000000" points="416.5,-38.2 416.5,-57.2 478.5,-57.2 478.5,-38.2 416.5,-38.2"/>
<text text-anchor="start" x="459.9053" y="-44.3" font-family="Helvetica,sans-Serif" font-size="11.00" fill="#000000">1 &gt;</text>
</a>
</g>
</g>
<!-- aggregation_function&#45;&gt;levels_of_data_granularity -->
<g id="edge2" class="edge">
<title>aggregation_function:w&#45;&gt;levels_of_data_granularity:e</title>
<path fill="none" stroke="#000000" d="M249.027,-92.8209C202.0333,-112.8721 265.4379,-241.2 198,-241.2"/>
<polygon fill="#000000" stroke="#000000" points="255.628,-91.6256 264.1415,-93.7424 259.564,-90.9128 263.5,-90.2 263.5,-90.2 263.5,-90.2 259.564,-90.9128 262.8585,-86.6576 255.628,-91.6256 255.628,-91.6256"/>
<ellipse fill="none" stroke="#000000" cx="252.4792" cy="-92.1958" rx="3.2" ry="3.2"/>
</g>
<!-- aggregation_function&#45;&gt;levels_of_data_granularity -->
<g id="edge3" class="edge">
<title>aggregation_function:w&#45;&gt;levels_of_data_granularity:e</title>
<path fill="none" stroke="#000000" d="M249.0632,-70.5148C193.9639,-91.0439 274.5951,-241.2 198,-241.2"/>
<polygon fill="#000000" stroke="#000000" points="255.6009,-69.4666 264.07,-71.7546 259.5504,-68.8333 263.5,-68.2 263.5,-68.2 263.5,-68.2 259.5504,-68.8333 262.93,-64.6454 255.6009,-69.4666 255.6009,-69.4666"/>
<ellipse fill="none" stroke="#000000" cx="252.4412" cy="-69.9732" rx="3.2" ry="3.2"/>
</g>
<!-- dq_result -->
<g id="node5" class="node">
<title>dq_result</title>
<g id="a_node5"><a xlink:href="../../tables/dq_result.html" xlink:title="dq_result" target="_top">
<polygon fill="#ffffff" stroke="transparent" points="597,-682.2 597,-834.2 839,-834.2 839,-682.2 597,-682.2"/>
<polygon fill="#f5f5f5" stroke="transparent" points="597,-811.2 597,-834.2 839,-834.2 839,-811.2 597,-811.2"/>
<polygon fill="none" stroke="#000000" points="597,-811.2 597,-834.2 839,-834.2 839,-811.2 597,-811.2"/>
<text text-anchor="start" x="602" y="-819.8" font-family="Helvetica,sans-Serif" font-weight="bold" font-size="11.00" fill="#000000">dq_result</text>
<text text-anchor="start" x="804.0437" y="-819.3" font-family="Helvetica,sans-Serif" font-size="11.00" fill="#000000">[table]</text>
<polygon fill="#ffffff" stroke="transparent" points="597,-789.2 597,-811.2 839,-811.2 839,-789.2 597,-789.2"/>
<polygon fill="none" stroke="#000000" points="597,-789.2 597,-811.2 839,-811.2 839,-789.2 597,-789.2"/>
<text text-anchor="start" x="617" y="-796.3" font-family="Helvetica,sans-Serif" font-size="11.00" fill="#000000">creation_timestamp</text>
<polygon fill="none" stroke="#000000" points="597,-767.2 597,-789.2 839,-789.2 839,-767.2 597,-767.2"/>
<text text-anchor="start" x="617" y="-774.3" font-family="Helvetica,sans-Serif" font-size="11.00" fill="#000000">result_value</text>
<polygon fill="#ffffff" stroke="transparent" points="597,-745.2 597,-767.2 839,-767.2 839,-745.2 597,-745.2"/>
<polygon fill="none" stroke="#000000" points="597,-745.2 597,-767.2 839,-767.2 839,-745.2 597,-745.2"/>
<image xlink:href="../../images/foreignKeys.png" width="11px" height="12px" preserveAspectRatio="xMinYMin meet" x="602" y="-762.2"/>
<text text-anchor="start" x="617" y="-752.3" font-family="Helvetica,sans-Serif" font-size="11.00" fill="#000000">computed_on_data_element_global_id</text>
<polygon fill="#ffffff" stroke="transparent" points="597,-723.2 597,-745.2 839,-745.2 839,-723.2 597,-723.2"/>
<polygon fill="none" stroke="#000000" points="597,-723.2 597,-745.2 839,-745.2 839,-723.2 597,-723.2"/>
<image xlink:href="../../images/foreignKeys.png" width="11px" height="12px" preserveAspectRatio="xMinYMin meet" x="602" y="-740.2"/>
<text text-anchor="start" x="617" y="-730.3" font-family="Helvetica,sans-Serif" font-size="11.00" fill="#000000">calculated_by_dq_metric</text>
<polygon fill="none" stroke="#000000" points="597,-701.2 597,-723.2 839,-723.2 839,-701.2 597,-701.2"/>
<image xlink:href="../../images/foreignKeys.png" width="11px" height="12px" preserveAspectRatio="xMinYMin meet" x="602" y="-718.2"/>
<text text-anchor="start" x="617" y="-708.3" font-family="Helvetica,sans-Serif" font-size="11.00" fill="#000000">calculated_by_aggregation_process</text>
<polygon fill="#ffffff" stroke="transparent" points="597,-682.2 597,-701.2 716,-701.2 716,-682.2 597,-682.2"/>
<polygon fill="none" stroke="#000000" points="597,-682.2 597,-701.2 716,-701.2 716,-682.2 597,-682.2"/>
<text text-anchor="start" x="600" y="-688.3" font-family="Helvetica,sans-Serif" font-size="11.00" fill="#000000">&lt; 3</text>
<polygon fill="#ffffff" stroke="transparent" points="716,-682.2 716,-701.2 777,-701.2 777,-682.2 716,-682.2"/>
<polygon fill="none" stroke="#000000" points="716,-682.2 716,-701.2 777,-701.2 777,-682.2 716,-682.2"/>
<text text-anchor="start" x="767.8862" y="-688.3" font-family="Helvetica,sans-Serif" font-size="11.00" fill="#000000"> &#160;</text>
<polygon fill="#ffffff" stroke="transparent" points="777,-682.2 777,-701.2 839,-701.2 839,-682.2 777,-682.2"/>
<polygon fill="none" stroke="#000000" points="777,-682.2 777,-701.2 839,-701.2 839,-682.2 777,-682.2"/>
<text text-anchor="start" x="829.8862" y="-688.3" font-family="Helvetica,sans-Serif" font-size="11.00" fill="#000000"> &#160;</text>
</a>
</g>
</g>
<!-- dq_result&#45;&gt;aggregation_process -->
<g id="edge13" class="edge">
<title>dq_result:w&#45;&gt;aggregation_process:e</title>
<path fill="none" stroke="#000000" d="M582.6501,-710.6934C556.8816,-704.6619 550.6892,-681.1791 535,-652.2 487.7027,-564.8384 576.8433,-436.2 477.5,-436.2"/>
<polygon fill="#000000" stroke="#000000" points="589.0437,-711.3646 596.6241,-715.7803 593.0219,-711.7823 597,-712.2 597,-712.2 597,-712.2 593.0219,-711.7823 597.3759,-708.6197 589.0437,-711.3646 589.0437,-711.3646"/>
<ellipse fill="none" stroke="#000000" cx="585.8612" cy="-711.0304" rx="3.2" ry="3.2"/>
</g>
<!-- dq_metric -->
<g id="node9" class="node">
<title>dq_metric</title>
<g id="a_node9"><a xlink:href="../../tables/dq_metric.html" xlink:title="dq_metric" target="_top">
<polygon fill="#ffffff" stroke="transparent" points="247,-638.2 247,-768.2 494,-768.2 494,-638.2 247,-638.2"/>
<polygon fill="#f5f5f5" stroke="transparent" points="247.5,-745.2 247.5,-768.2 494.5,-768.2 494.5,-745.2 247.5,-745.2"/>
<polygon fill="none" stroke="#000000" points="247.5,-745.2 247.5,-768.2 494.5,-768.2 494.5,-745.2 247.5,-745.2"/>
<text text-anchor="start" x="252.5" y="-753.8" font-family="Helvetica,sans-Serif" font-weight="bold" font-size="11.00" fill="#000000">dq_metric</text>
<text text-anchor="start" x="459.5437" y="-753.3" font-family="Helvetica,sans-Serif" font-size="11.00" fill="#000000">[table]</text>
<polygon fill="none" stroke="#000000" points="247.5,-723.2 247.5,-745.2 494.5,-745.2 494.5,-723.2 247.5,-723.2"/>
<image xlink:href="../../images/primaryKeys.png" width="11px" height="12px" preserveAspectRatio="xMinYMin meet" x="252.5" y="-740.2"/>
<text text-anchor="start" x="267.5" y="-730.3" font-family="Helvetica,sans-Serif" font-size="11.00" fill="#000000">metric_name</text>
<polygon fill="none" stroke="#000000" points="247.5,-701.2 247.5,-723.2 494.5,-723.2 494.5,-701.2 247.5,-701.2"/>
<text text-anchor="start" x="267.5" y="-708.3" font-family="Helvetica,sans-Serif" font-size="11.00" fill="#000000">metric_description</text>
<polygon fill="none" stroke="#000000" points="247.5,-679.2 247.5,-701.2 494.5,-701.2 494.5,-679.2 247.5,-679.2"/>
<text text-anchor="start" x="267.5" y="-686.3" font-family="Helvetica,sans-Serif" font-size="11.00" fill="#000000">python_implementation</text>
<polygon fill="none" stroke="#000000" points="247.5,-657.2 247.5,-679.2 494.5,-679.2 494.5,-657.2 247.5,-657.2"/>
<image xlink:href="../../images/foreignKeys.png" width="11px" height="12px" preserveAspectRatio="xMinYMin meet" x="252.5" y="-674.2"/>
<text text-anchor="start" x="267.5" y="-664.3" font-family="Helvetica,sans-Serif" font-size="11.00" fill="#000000">designed_for_level_of_data_granularity</text>
<polygon fill="#ffffff" stroke="transparent" points="247.5,-638.2 247.5,-657.2 364.5,-657.2 364.5,-638.2 247.5,-638.2"/>
<polygon fill="none" stroke="#000000" points="247.5,-638.2 247.5,-657.2 364.5,-657.2 364.5,-638.2 247.5,-638.2"/>
<text text-anchor="start" x="250.5" y="-644.3" font-family="Helvetica,sans-Serif" font-size="11.00" fill="#000000">&lt; 1</text>
<polygon fill="#ffffff" stroke="transparent" points="364.5,-638.2 364.5,-657.2 424.5,-657.2 424.5,-638.2 364.5,-638.2"/>
<polygon fill="none" stroke="#000000" points="364.5,-638.2 364.5,-657.2 424.5,-657.2 424.5,-638.2 364.5,-638.2"/>
<text text-anchor="start" x="415.3862" y="-644.3" font-family="Helvetica,sans-Serif" font-size="11.00" fill="#000000"> &#160;</text>
<polygon fill="#ffffff" stroke="transparent" points="424.5,-638.2 424.5,-657.2 494.5,-657.2 494.5,-638.2 424.5,-638.2"/>
<polygon fill="none" stroke="#000000" points="424.5,-638.2 424.5,-657.2 494.5,-657.2 494.5,-638.2 424.5,-638.2"/>
<text text-anchor="start" x="475.9053" y="-644.3" font-family="Helvetica,sans-Serif" font-size="11.00" fill="#000000">2 &gt;</text>
</a>
</g>
</g>
<!-- dq_result&#45;&gt;dq_metric -->
<g id="edge14" class="edge">
<title>dq_result:w&#45;&gt;dq_metric:e</title>
<path fill="none" stroke="#000000" d="M582.282,-734.2C548.306,-734.2 534.717,-734.2 494.5,-734.2"/>
<polygon fill="#000000" stroke="#000000" points="589,-734.2001 597,-737.8 593,-734.2 597,-734.2 597,-734.2 597,-734.2 593,-734.2 597,-730.6 589,-734.2001 589,-734.2001"/>
<ellipse fill="none" stroke="#000000" cx="585.8" cy="-734.2001" rx="3.2" ry="3.2"/>
</g>
<!-- data_element -->
<g id="node11" class="node">
<title>data_element</title>
<g id="a_node11"><a xlink:href="../../tables/data_element.html" xlink:title="data_element" target="_top">
<polygon fill="#ffffff" stroke="transparent" points="250.5,-789.2 250.5,-919.2 490.5,-919.2 490.5,-789.2 250.5,-789.2"/>
<polygon fill="#f5f5f5" stroke="transparent" points="250.5,-896.2 250.5,-919.2 490.5,-919.2 490.5,-896.2 250.5,-896.2"/>
<polygon fill="none" stroke="#000000" points="250.5,-896.2 250.5,-919.2 490.5,-919.2 490.5,-896.2 250.5,-896.2"/>
<text text-anchor="start" x="255.5" y="-904.8" font-family="Helvetica,sans-Serif" font-weight="bold" font-size="11.00" fill="#000000">data_element</text>
<text text-anchor="start" x="455.5437" y="-904.3" font-family="Helvetica,sans-Serif" font-size="11.00" fill="#000000">[table]</text>
<polygon fill="none" stroke="#000000" points="250.5,-874.2 250.5,-896.2 490.5,-896.2 490.5,-874.2 250.5,-874.2"/>
<image xlink:href="../../images/primaryKeys.png" width="11px" height="12px" preserveAspectRatio="xMinYMin meet" x="255.5" y="-891.2"/>
<text text-anchor="start" x="270.5" y="-881.3" font-family="Helvetica,sans-Serif" font-size="11.00" fill="#000000">data_element_global_identifier</text>
<polygon fill="none" stroke="#000000" points="250.5,-852.2 250.5,-874.2 490.5,-874.2 490.5,-852.2 250.5,-852.2"/>
<text text-anchor="start" x="270.5" y="-859.3" font-family="Helvetica,sans-Serif" font-size="11.00" fill="#000000">data_element_local_identifier</text>
<polygon fill="none" stroke="#000000" points="250.5,-830.2 250.5,-852.2 490.5,-852.2 490.5,-830.2 250.5,-830.2"/>
<image xlink:href="../../images/foreignKeys.png" width="11px" height="12px" preserveAspectRatio="xMinYMin meet" x="255.5" y="-847.2"/>
<text text-anchor="start" x="270.5" y="-837.3" font-family="Helvetica,sans-Serif" font-size="11.00" fill="#000000">is_of_level_of_data_granularity</text>
<polygon fill="none" stroke="#000000" points="250.5,-808.2 250.5,-830.2 490.5,-830.2 490.5,-808.2 250.5,-808.2"/>
<image xlink:href="../../images/foreignKeys.png" width="11px" height="12px" preserveAspectRatio="xMinYMin meet" x="255.5" y="-825.2"/>
<text text-anchor="start" x="270.5" y="-815.3" font-family="Helvetica,sans-Serif" font-size="11.00" fill="#000000">parent_data_element_global_identifier</text>
<polygon fill="#ffffff" stroke="transparent" points="250.5,-789.2 250.5,-808.2 364.5,-808.2 364.5,-789.2 250.5,-789.2"/>
<polygon fill="none" stroke="#000000" points="250.5,-789.2 250.5,-808.2 364.5,-808.2 364.5,-789.2 250.5,-789.2"/>
<text text-anchor="start" x="253.5" y="-795.3" font-family="Helvetica,sans-Serif" font-size="11.00" fill="#000000">&lt; 2</text>
<polygon fill="#ffffff" stroke="transparent" points="364.5,-789.2 364.5,-808.2 422.5,-808.2 422.5,-789.2 364.5,-789.2"/>
<polygon fill="none" stroke="#000000" points="364.5,-789.2 364.5,-808.2 422.5,-808.2 422.5,-789.2 364.5,-789.2"/>
<text text-anchor="start" x="413.3862" y="-795.3" font-family="Helvetica,sans-Serif" font-size="11.00" fill="#000000"> &#160;</text>
<polygon fill="#ffffff" stroke="transparent" points="422.5,-789.2 422.5,-808.2 490.5,-808.2 490.5,-789.2 422.5,-789.2"/>
<polygon fill="none" stroke="#000000" points="422.5,-789.2 422.5,-808.2 490.5,-808.2 490.5,-789.2 422.5,-789.2"/>
<text text-anchor="start" x="471.9053" y="-795.3" font-family="Helvetica,sans-Serif" font-size="11.00" fill="#000000">2 &gt;</text>
</a>
</g>
</g>
<!-- dq_result&#45;&gt;data_element -->
<g id="edge15" class="edge">
<title>dq_result:w&#45;&gt;data_element:e</title>
<path fill="none" stroke="#000000" d="M582.6196,-758.1237C528.1424,-774.1709 559.4748,-885.2 490.5,-885.2"/>
<polygon fill="#000000" stroke="#000000" points="589.0706,-757.2608 597.4773,-759.7682 593.0353,-756.7304 597,-756.2 597,-756.2 597,-756.2 593.0353,-756.7304 596.5227,-752.6318 589.0706,-757.2608 589.0706,-757.2608"/>
<ellipse fill="none" stroke="#000000" cx="585.8989" cy="-757.6851" rx="3.2" ry="3.2"/>
</g>
<!-- dq_dimension&#45;&gt;dq_dimension -->
<g id="edge11" class="edge">
<title>dq_dimension:w&#45;&gt;dq_dimension:e</title>
<path fill="none" stroke="#000000" d="M281.1535,-527.0327C228.7442,-554.804 238.2979,-616.2 370.5,-616.2 513,-616.2 513,-588.8667 446.5,-565.2"/>
<polygon fill="#000000" stroke="#000000" points="287.1695,-524.4037 295.9416,-524.4987 290.8347,-522.8018 294.5,-521.2 294.5,-521.2 294.5,-521.2 290.8347,-522.8018 293.0584,-517.9013 287.1695,-524.4037 287.1695,-524.4037"/>
<ellipse fill="none" stroke="#000000" cx="284.2372" cy="-525.6851" rx="3.2" ry="3.2"/>
</g>
<!-- aggregation_process_is_based_on -->
<g id="node8" class="node">
<title>aggregation_process_is_based_on</title>
<g id="a_node8"><a xlink:href="../../tables/aggregation_process_is_based_on.html" xlink:title="aggregation_process_is_based_on" target="_top">
<polygon fill="#ffffff" stroke="transparent" points="598.5,-255.2 598.5,-363.2 837.5,-363.2 837.5,-255.2 598.5,-255.2"/>
<polygon fill="#f5f5f5" stroke="transparent" points="599,-340.2 599,-363.2 838,-363.2 838,-340.2 599,-340.2"/>
<polygon fill="none" stroke="#000000" points="599,-340.2 599,-363.2 838,-363.2 838,-340.2 599,-340.2"/>
<text text-anchor="start" x="604" y="-348.8" font-family="Helvetica,sans-Serif" font-weight="bold" font-size="11.00" fill="#000000">aggregation_process_is_based_on</text>
<text text-anchor="start" x="803.5219" y="-348.3" font-family="Helvetica,sans-Serif" font-size="11.00" fill="#000000">[table]</text>
<polygon fill="none" stroke="#000000" points="599,-318.2 599,-340.2 838,-340.2 838,-318.2 599,-318.2"/>
<image xlink:href="../../images/primaryKeys.png" width="11px" height="12px" preserveAspectRatio="xMinYMin meet" x="604" y="-335.2"/>
<text text-anchor="start" x="628" y="-325.3" font-family="Helvetica,sans-Serif" font-size="11.00" fill="#000000">aggregation_process_name</text>
<polygon fill="none" stroke="#000000" points="599,-296.2 599,-318.2 838,-318.2 838,-296.2 599,-296.2"/>
<image xlink:href="../../images/primaryKeys.png" width="11px" height="12px" preserveAspectRatio="xMinYMin meet" x="604" y="-313.2"/>
<text text-anchor="start" x="628" y="-303.3" font-family="Helvetica,sans-Serif" font-size="11.00" fill="#000000">aggregation_constraint_name</text>
<polygon fill="none" stroke="#000000" points="599,-274.2 599,-296.2 838,-296.2 838,-274.2 599,-274.2"/>
<image xlink:href="../../images/foreignKeys.png" width="11px" height="12px" preserveAspectRatio="xMinYMin meet" x="604" y="-291.2"/>
<text text-anchor="start" x="628" y="-281.3" font-family="Helvetica,sans-Serif" font-size="11.00" fill="#000000">aggregation_function_name</text>
<polygon fill="#ffffff" stroke="transparent" points="599,-255.2 599,-274.2 717,-274.2 717,-255.2 599,-255.2"/>
<polygon fill="none" stroke="#000000" points="599,-255.2 599,-274.2 717,-274.2 717,-255.2 599,-255.2"/>
<text text-anchor="start" x="602" y="-261.3" font-family="Helvetica,sans-Serif" font-size="11.00" fill="#000000">&lt; 3</text>
<polygon fill="#ffffff" stroke="transparent" points="717,-255.2 717,-274.2 777,-274.2 777,-255.2 717,-255.2"/>
<polygon fill="none" stroke="#000000" points="717,-255.2 717,-274.2 777,-274.2 777,-255.2 717,-255.2"/>
<text text-anchor="start" x="767.8862" y="-261.3" font-family="Helvetica,sans-Serif" font-size="11.00" fill="#000000"> &#160;</text>
<polygon fill="#ffffff" stroke="transparent" points="777,-255.2 777,-274.2 838,-274.2 838,-255.2 777,-255.2"/>
<polygon fill="none" stroke="#000000" points="777,-255.2 777,-274.2 838,-274.2 838,-255.2 777,-255.2"/>
<text text-anchor="start" x="828.8862" y="-261.3" font-family="Helvetica,sans-Serif" font-size="11.00" fill="#000000"> &#160;</text>
</a>
</g>
</g>
<!-- aggregation_process_is_based_on&#45;&gt;aggregation_constraint -->
<g id="edge6" class="edge">
<title>aggregation_process_is_based_on:w&#45;&gt;aggregation_constraint:e</title>
<path fill="none" stroke="#000000" d="M584.4701,-307.2C544.6628,-307.2 529.6198,-307.2 483.5,-307.2"/>
<polygon fill="#000000" stroke="#000000" points="591,-307.2001 599,-310.8 595,-307.2 599,-307.2 599,-307.2 599,-307.2 595,-307.2 599,-303.6 591,-307.2001 591,-307.2001"/>
<ellipse fill="none" stroke="#000000" cx="587.8" cy="-307.2001" rx="3.2" ry="3.2"/>
</g>
<!-- aggregation_process_is_based_on&#45;&gt;aggregation_function -->
<g id="edge7" class="edge">
<title>aggregation_process_is_based_on:w&#45;&gt;aggregation_function:e</title>
<path fill="none" stroke="#000000" d="M584.4474,-283.474C524.9856,-268.1661 551.5926,-156.2 478.5,-156.2"/>
<polygon fill="#000000" stroke="#000000" points="591.0557,-284.2577 598.576,-288.7749 595.0278,-284.7289 599,-285.2 599,-285.2 599,-285.2 595.0278,-284.7289 599.424,-281.6251 591.0557,-284.2577 591.0557,-284.2577"/>
<ellipse fill="none" stroke="#000000" cx="587.878" cy="-283.8808" rx="3.2" ry="3.2"/>
</g>
<!-- aggregation_process_is_based_on&#45;&gt;aggregation_process -->
<g id="edge8" class="edge">
<title>aggregation_process_is_based_on:w&#45;&gt;aggregation_process:e</title>
<path fill="none" stroke="#000000" d="M584.461,-330.8807C529.8516,-344.4934 544.1146,-436.2 477.5,-436.2"/>
<polygon fill="#000000" stroke="#000000" points="591.0529,-330.1187 599.4134,-332.7762 595.0265,-329.6594 599,-329.2 599,-329.2 599,-329.2 595.0265,-329.6594 598.5866,-325.6238 591.0529,-330.1187 591.0529,-330.1187"/>
<ellipse fill="none" stroke="#000000" cx="587.8741" cy="-330.4862" rx="3.2" ry="3.2"/>
</g>
<!-- dq_metric&#45;&gt;levels_of_data_granularity -->
<g id="edge12" class="edge">
<title>dq_metric:w&#45;&gt;levels_of_data_granularity:e</title>
<path fill="none" stroke="#000000" d="M233.4639,-664.2455C167.2499,-621.1988 288.1138,-241.2 198,-241.2"/>
<polygon fill="#000000" stroke="#000000" points="239.7998,-666.0305 246.5237,-671.6651 243.6499,-667.1153 247.5,-668.2 247.5,-668.2 247.5,-668.2 243.6499,-667.1153 248.4763,-664.7349 239.7998,-666.0305 239.7998,-666.0305"/>
<ellipse fill="none" stroke="#000000" cx="236.7197" cy="-665.1627" rx="3.2" ry="3.2"/>
</g>
<!-- metric_computes_value_for_dimension -->
<g id="node10" class="node">
<title>metric_computes_value_for_dimension</title>
<g id="a_node10"><a xlink:href="../../tables/metric_computes_value_for_dimension.html" xlink:title="metric_computes_value_for_dimension" target="_top">
<polygon fill="#ffffff" stroke="transparent" points="585.5,-555.2 585.5,-641.2 850.5,-641.2 850.5,-555.2 585.5,-555.2"/>
<polygon fill="#f5f5f5" stroke="transparent" points="586,-618.2 586,-641.2 851,-641.2 851,-618.2 586,-618.2"/>
<polygon fill="none" stroke="#000000" points="586,-618.2 586,-641.2 851,-641.2 851,-618.2 586,-618.2"/>
<text text-anchor="start" x="591" y="-626.8" font-family="Helvetica,sans-Serif" font-weight="bold" font-size="11.00" fill="#000000">metric_computes_value_for_dimension</text>
<text text-anchor="start" x="816.5219" y="-626.3" font-family="Helvetica,sans-Serif" font-size="11.00" fill="#000000">[table]</text>
<polygon fill="none" stroke="#000000" points="586,-596.2 586,-618.2 851,-618.2 851,-596.2 586,-596.2"/>
<image xlink:href="../../images/primaryKeys.png" width="11px" height="12px" preserveAspectRatio="xMinYMin meet" x="591" y="-613.2"/>
<text text-anchor="start" x="615" y="-603.3" font-family="Helvetica,sans-Serif" font-size="11.00" fill="#000000">metric_name</text>
<polygon fill="none" stroke="#000000" points="586,-574.2 586,-596.2 851,-596.2 851,-574.2 586,-574.2"/>
<image xlink:href="../../images/primaryKeys.png" width="11px" height="12px" preserveAspectRatio="xMinYMin meet" x="591" y="-591.2"/>
<text text-anchor="start" x="615" y="-581.3" font-family="Helvetica,sans-Serif" font-size="11.00" fill="#000000">dimension_name</text>
<polygon fill="#ffffff" stroke="transparent" points="586,-555.2 586,-574.2 717,-574.2 717,-555.2 586,-555.2"/>
<polygon fill="none" stroke="#000000" points="586,-555.2 586,-574.2 717,-574.2 717,-555.2 586,-555.2"/>
<text text-anchor="start" x="589" y="-561.3" font-family="Helvetica,sans-Serif" font-size="11.00" fill="#000000">&lt; 2</text>
<polygon fill="#ffffff" stroke="transparent" points="717,-555.2 717,-574.2 784,-574.2 784,-555.2 717,-555.2"/>
<polygon fill="none" stroke="#000000" points="717,-555.2 717,-574.2 784,-574.2 784,-555.2 717,-555.2"/>
<text text-anchor="start" x="774.8862" y="-561.3" font-family="Helvetica,sans-Serif" font-size="11.00" fill="#000000"> &#160;</text>
<polygon fill="#ffffff" stroke="transparent" points="784,-555.2 784,-574.2 851,-574.2 851,-555.2 784,-555.2"/>
<polygon fill="none" stroke="#000000" points="784,-555.2 784,-574.2 851,-574.2 851,-555.2 784,-555.2"/>
<text text-anchor="start" x="841.8862" y="-561.3" font-family="Helvetica,sans-Serif" font-size="11.00" fill="#000000"> &#160;</text>
</a>
</g>
</g>
<!-- metric_computes_value_for_dimension&#45;&gt;dq_dimension -->
<g id="edge16" class="edge">
<title>metric_computes_value_for_dimension:w&#45;&gt;dq_dimension:e</title>
<path fill="none" stroke="#000000" d="M571.5098,-584.8183C520.7054,-582.0533 503.996,-565.2 446.5,-565.2"/>
<polygon fill="#000000" stroke="#000000" points="578.0028,-584.9893 585.9052,-588.7988 582.0014,-585.0947 586,-585.2 586,-585.2 586,-585.2 582.0014,-585.0947 586.0948,-581.6012 578.0028,-584.9893 578.0028,-584.9893"/>
<ellipse fill="none" stroke="#000000" cx="574.8039" cy="-584.905" rx="3.2" ry="3.2"/>
</g>
<!-- metric_computes_value_for_dimension&#45;&gt;dq_metric -->
<g id="edge17" class="edge">
<title>metric_computes_value_for_dimension:w&#45;&gt;dq_metric:e</title>
<path fill="none" stroke="#000000" d="M571.7221,-609.6206C550.8073,-618.0567 553.0513,-647.0195 535,-672.2 515.8234,-698.9501 527.4137,-734.2 494.5,-734.2"/>
<polygon fill="#000000" stroke="#000000" points="578.1125,-608.5372 586.6017,-610.7494 582.0563,-607.8686 586,-607.2 586,-607.2 586,-607.2 582.0563,-607.8686 585.3983,-603.6506 578.1125,-608.5372 578.1125,-608.5372"/>
<ellipse fill="none" stroke="#000000" cx="574.9576" cy="-609.0721" rx="3.2" ry="3.2"/>
</g>
<!-- data_element&#45;&gt;levels_of_data_granularity -->
<g id="edge9" class="edge">
<title>data_element:w&#45;&gt;levels_of_data_granularity:e</title>
<path fill="none" stroke="#000000" d="M238.4797,-832.7182C194.2844,-759.7913 260.216,-241.2 198,-241.2"/>
<polygon fill="#000000" stroke="#000000" points="243.9634,-836.5877 248.4244,-844.1415 247.2317,-838.8938 250.5,-841.2 250.5,-841.2 250.5,-841.2 247.2317,-838.8938 252.5756,-838.2585 243.9634,-836.5877 243.9634,-836.5877"/>
<ellipse fill="none" stroke="#000000" cx="241.3488" cy="-834.7427" rx="3.2" ry="3.2"/>
</g>
<!-- data_element&#45;&gt;data_element -->
<g id="edge10" class="edge">
<title>data_element:w&#45;&gt;data_element:e</title>
<path fill="none" stroke="#000000" d="M237.5007,-825.8373C184.922,-858.6994 197.1133,-936.2 370.5,-936.2 557,-936.2 557,-912.5333 490.5,-885.2"/>
<polygon fill="#000000" stroke="#000000" points="243.375,-822.838 252.1371,-822.4062 246.9375,-821.019 250.5,-819.2 250.5,-819.2 250.5,-819.2 246.9375,-821.019 248.8629,-815.9938 243.375,-822.838 243.375,-822.838"/>
<ellipse fill="none" stroke="#000000" cx="240.525" cy="-824.2931" rx="3.2" ry="3.2"/>
</g>
</g>
</svg>
