<?xml version="1.0" encoding="UTF-8" standalone="no"?>
<!DOCTYPE svg PUBLIC "-//W3C//DTD SVG 1.1//EN"
 "http://www.w3.org/Graphics/SVG/1.1/DTD/svg11.dtd">
<!-- Generated by graphviz version 2.40.1 (20161225.0304)
 -->
<!-- Title: compactRelationshipsDiagram Pages: 1 -->
<svg width="909pt" height="843pt"
 viewBox="0.00 0.00 909.00 843.20" xmlns="http://www.w3.org/2000/svg" xmlns:xlink="http://www.w3.org/1999/xlink">
<g id="graph0" class="graph" transform="scale(1 1) rotate(0) translate(4 839.2)">
<title>compactRelationshipsDiagram</title>
<polygon fill="#ffffff" stroke="transparent" points="-4,4 -4,-839.2 905,-839.2 905,4 -4,4"/>
<text text-anchor="middle" x="72.4936" y="-7.3" font-family="Helvetica,sans-Serif" font-size="11.00" fill="#000000">Generated by SchemaSpy</text>
<!-- aggregation_constraint -->
<g id="node1" class="node">
<title>aggregation_constraint</title>
<g id="a_node1"><a xlink:href="../../tables/aggregation_constraint.html" xlink:title="aggregation_constraint" target="_top">
<polygon fill="#ffffff" stroke="transparent" points="258,-186.2 258,-291.2 483,-291.2 483,-186.2 258,-186.2"/>
<polygon fill="#f5f5f5" stroke="transparent" points="258.5,-267.7 258.5,-290.7 483.5,-290.7 483.5,-267.7 258.5,-267.7"/>
<polygon fill="none" stroke="#000000" points="258.5,-267.7 258.5,-290.7 483.5,-290.7 483.5,-267.7 258.5,-267.7"/>
<text text-anchor="start" x="263.5" y="-276.3" font-family="Helvetica,sans-Serif" font-weight="bold" font-size="11.00" fill="#000000">aggregation_constraint</text>
<text text-anchor="start" x="448.5437" y="-275.8" font-family="Helvetica,sans-Serif" font-size="11.00" fill="#000000">[table]</text>
<polygon fill="none" stroke="#000000" points="258.5,-245.7 258.5,-267.7 483.5,-267.7 483.5,-245.7 258.5,-245.7"/>
<image xlink:href="../../images/primaryKeys.png" width="11px" height="12px" preserveAspectRatio="xMinYMin meet" x="263.5" y="-262.7"/>
<text text-anchor="start" x="278.5" y="-252.8" font-family="Helvetica,sans-Serif" font-size="11.00" fill="#000000">aggregation_constraint_name</text>
<polygon fill="none" stroke="#000000" points="258.5,-223.7 258.5,-245.7 483.5,-245.7 483.5,-223.7 258.5,-223.7"/>
<image xlink:href="../../images/foreignKeys.png" width="11px" height="12px" preserveAspectRatio="xMinYMin meet" x="263.5" y="-240.7"/>
<text text-anchor="start" x="278.5" y="-230.8" font-family="Helvetica,sans-Serif" font-size="11.00" fill="#000000">covers_level_of_data_granularity</text>
<polygon fill="none" stroke="#000000" points="258.5,-204.7 258.5,-223.7 483.5,-223.7 483.5,-204.7 258.5,-204.7"/>
<text text-anchor="start" x="261.5" y="-210.8" font-family="Helvetica,sans-Serif" font-size="11.00" fill="#000000">...</text>
<polygon fill="#ffffff" stroke="transparent" points="258.5,-185.7 258.5,-204.7 364.5,-204.7 364.5,-185.7 258.5,-185.7"/>
<polygon fill="none" stroke="#000000" points="258.5,-185.7 258.5,-204.7 364.5,-204.7 364.5,-185.7 258.5,-185.7"/>
<text text-anchor="start" x="261.5" y="-191.8" font-family="Helvetica,sans-Serif" font-size="11.00" fill="#000000">&lt; 1</text>
<polygon fill="#ffffff" stroke="transparent" points="364.5,-185.7 364.5,-204.7 419.5,-204.7 419.5,-185.7 364.5,-185.7"/>
<polygon fill="none" stroke="#000000" points="364.5,-185.7 364.5,-204.7 419.5,-204.7 419.5,-185.7 364.5,-185.7"/>
<text text-anchor="start" x="410.3862" y="-191.8" font-family="Helvetica,sans-Serif" font-size="11.00" fill="#000000"> &#160;</text>
<polygon fill="#ffffff" stroke="transparent" points="419.5,-185.7 419.5,-204.7 483.5,-204.7 483.5,-185.7 419.5,-185.7"/>
<polygon fill="none" stroke="#000000" points="419.5,-185.7 419.5,-204.7 483.5,-204.7 483.5,-185.7 419.5,-185.7"/>
<text text-anchor="start" x="464.9053" y="-191.8" font-family="Helvetica,sans-Serif" font-size="11.00" fill="#000000">1 &gt;</text>
</a>
</g>
</g>
<!-- levels_of_data_granularity -->
<g id="node3" class="node">
<title>levels_of_data_granularity</title>
<g id="a_node3"><a xlink:href="../../tables/levels_of_data_granularity.html" xlink:title="levels_of_data_granularity" target="_top">
<polygon fill="#ffffff" stroke="transparent" points="8,-186.2 8,-269.2 198,-269.2 198,-186.2 8,-186.2"/>
<polygon fill="#f5f5f5" stroke="transparent" points="8,-245.7 8,-268.7 198,-268.7 198,-245.7 8,-245.7"/>
<polygon fill="none" stroke="#000000" points="8,-245.7 8,-268.7 198,-268.7 198,-245.7 8,-245.7"/>
<text text-anchor="start" x="13" y="-254.3" font-family="Helvetica,sans-Serif" font-weight="bold" font-size="11.00" fill="#000000">levels_of_data_granularity</text>
<text text-anchor="start" x="163.5219" y="-253.8" font-family="Helvetica,sans-Serif" font-size="11.00" fill="#000000">[table]</text>
<polygon fill="none" stroke="#000000" points="8,-223.7 8,-245.7 198,-245.7 198,-223.7 8,-223.7"/>
<image xlink:href="../../images/primaryKeys.png" width="11px" height="12px" preserveAspectRatio="xMinYMin meet" x="13" y="-240.7"/>
<text text-anchor="start" x="37" y="-230.8" font-family="Helvetica,sans-Serif" font-size="11.00" fill="#000000">level_name</text>
<polygon fill="none" stroke="#000000" points="8,-204.7 8,-223.7 198,-223.7 198,-204.7 8,-204.7"/>
<text text-anchor="start" x="11" y="-210.8" font-family="Helvetica,sans-Serif" font-size="11.00" fill="#000000">...</text>
<polygon fill="#ffffff" stroke="transparent" points="8,-185.7 8,-204.7 92,-204.7 92,-185.7 8,-185.7"/>
<polygon fill="none" stroke="#000000" points="8,-185.7 8,-204.7 92,-204.7 92,-185.7 8,-185.7"/>
<text text-anchor="start" x="11" y="-191.8" font-family="Helvetica,sans-Serif" font-size="11.00" fill="#000000"> &#160;</text>
<polygon fill="#ffffff" stroke="transparent" points="92,-185.7 92,-204.7 140,-204.7 140,-185.7 92,-185.7"/>
<polygon fill="none" stroke="#000000" points="92,-185.7 92,-204.7 140,-204.7 140,-185.7 92,-185.7"/>
<text text-anchor="start" x="130.8862" y="-191.8" font-family="Helvetica,sans-Serif" font-size="11.00" fill="#000000"> &#160;</text>
<polygon fill="#ffffff" stroke="transparent" points="140,-185.7 140,-204.7 198,-204.7 198,-185.7 140,-185.7"/>
<polygon fill="none" stroke="#000000" points="140,-185.7 140,-204.7 198,-204.7 198,-185.7 140,-185.7"/>
<text text-anchor="start" x="179.4053" y="-191.8" font-family="Helvetica,sans-Serif" font-size="11.00" fill="#000000">5 &gt;</text>
</a>
</g>
</g>
<!-- aggregation_constraint&#45;&gt;levels_of_data_granularity -->
<g id="edge1" class="edge">
<title>aggregation_constraint:w&#45;&gt;levels_of_data_granularity:e</title>
<path fill="none" stroke="#000000" d="M243.7977,-234.7C227.8779,-234.7 219.217,-234.7 198,-234.7"/>
<polygon fill="#000000" stroke="#000000" points="250.5,-234.7001 258.5,-238.3 254.5,-234.7 258.5,-234.7 258.5,-234.7 258.5,-234.7 254.5,-234.7 258.5,-231.1 250.5,-234.7001 250.5,-234.7001"/>
<ellipse fill="none" stroke="#000000" cx="247.3" cy="-234.7001" rx="3.2" ry="3.2"/>
</g>
<!-- aggregation_process_computes_value_for_dimension -->
<g id="node2" class="node">
<title>aggregation_process_computes_value_for_dimension</title>
<g id="a_node2"><a xlink:href="../../tables/aggregation_process_computes_va_b73ff08c.html" xlink:title="aggregation_process_computes_value_for_dimension" target="_top">
<polygon fill="#ffffff" stroke="transparent" points="543,-341.7 543,-427.7 893,-427.7 893,-341.7 543,-341.7"/>
<polygon fill="#f5f5f5" stroke="transparent" points="543,-404.7 543,-427.7 893,-427.7 893,-404.7 543,-404.7"/>
<polygon fill="none" stroke="#000000" points="543,-404.7 543,-427.7 893,-427.7 893,-404.7 543,-404.7"/>
<text text-anchor="start" x="548" y="-413.3" font-family="Helvetica,sans-Serif" font-weight="bold" font-size="11.00" fill="#000000">aggregation_process_computes_value_for_dimension</text>
<text text-anchor="start" x="858.5219" y="-412.8" font-family="Helvetica,sans-Serif" font-size="11.00" fill="#000000">[table]</text>
<polygon fill="none" stroke="#000000" points="543,-382.7 543,-404.7 893,-404.7 893,-382.7 543,-382.7"/>
<image xlink:href="../../images/primaryKeys.png" width="11px" height="12px" preserveAspectRatio="xMinYMin meet" x="548" y="-399.7"/>
<text text-anchor="start" x="572" y="-389.8" font-family="Helvetica,sans-Serif" font-size="11.00" fill="#000000">aggregation_process_name</text>
<polygon fill="none" stroke="#000000" points="543,-360.7 543,-382.7 893,-382.7 893,-360.7 543,-360.7"/>
<image xlink:href="../../images/primaryKeys.png" width="11px" height="12px" preserveAspectRatio="xMinYMin meet" x="548" y="-377.7"/>
<text text-anchor="start" x="572" y="-367.8" font-family="Helvetica,sans-Serif" font-size="11.00" fill="#000000">dimension_name</text>
<polygon fill="#ffffff" stroke="transparent" points="543,-341.7 543,-360.7 716,-360.7 716,-341.7 543,-341.7"/>
<polygon fill="none" stroke="#000000" points="543,-341.7 543,-360.7 716,-360.7 716,-341.7 543,-341.7"/>
<text text-anchor="start" x="546" y="-347.8" font-family="Helvetica,sans-Serif" font-size="11.00" fill="#000000">&lt; 2</text>
<polygon fill="#ffffff" stroke="transparent" points="716,-341.7 716,-360.7 804,-360.7 804,-341.7 716,-341.7"/>
<polygon fill="none" stroke="#000000" points="716,-341.7 716,-360.7 804,-360.7 804,-341.7 716,-341.7"/>
<text text-anchor="start" x="794.8862" y="-347.8" font-family="Helvetica,sans-Serif" font-size="11.00" fill="#000000"> &#160;</text>
<polygon fill="#ffffff" stroke="transparent" points="804,-341.7 804,-360.7 893,-360.7 893,-341.7 804,-341.7"/>
<polygon fill="none" stroke="#000000" points="804,-341.7 804,-360.7 893,-360.7 893,-341.7 804,-341.7"/>
<text text-anchor="start" x="883.8862" y="-347.8" font-family="Helvetica,sans-Serif" font-size="11.00" fill="#000000"> &#160;</text>
</a>
</g>
</g>
<!-- dq_dimension -->
<g id="node6" class="node">
<title>dq_dimension</title>
<g id="a_node6"><a xlink:href="../../tables/dq_dimension.html" xlink:title="dq_dimension" target="_top">
<polygon fill="#ffffff" stroke="transparent" points="294.5,-416.2 294.5,-521.2 446.5,-521.2 446.5,-416.2 294.5,-416.2"/>
<polygon fill="#f5f5f5" stroke="transparent" points="294.5,-497.7 294.5,-520.7 446.5,-520.7 446.5,-497.7 294.5,-497.7"/>
<polygon fill="none" stroke="#000000" points="294.5,-497.7 294.5,-520.7 446.5,-520.7 446.5,-497.7 294.5,-497.7"/>
<text text-anchor="start" x="299.5" y="-506.3" font-family="Helvetica,sans-Serif" font-weight="bold" font-size="11.00" fill="#000000">dq_dimension</text>
<text text-anchor="start" x="411.5437" y="-505.8" font-family="Helvetica,sans-Serif" font-size="11.00" fill="#000000">[table]</text>
<polygon fill="none" stroke="#000000" points="294.5,-475.7 294.5,-497.7 446.5,-497.7 446.5,-475.7 294.5,-475.7"/>
<image xlink:href="../../images/primaryKeys.png" width="11px" height="12px" preserveAspectRatio="xMinYMin meet" x="299.5" y="-492.7"/>
<text text-anchor="start" x="314.5" y="-482.8" font-family="Helvetica,sans-Serif" font-size="11.00" fill="#000000">dimension_name</text>
<polygon fill="none" stroke="#000000" points="294.5,-453.7 294.5,-475.7 446.5,-475.7 446.5,-453.7 294.5,-453.7"/>
<image xlink:href="../../images/foreignKeys.png" width="11px" height="12px" preserveAspectRatio="xMinYMin meet" x="299.5" y="-470.7"/>
<text text-anchor="start" x="314.5" y="-460.8" font-family="Helvetica,sans-Serif" font-size="11.00" fill="#000000">is_sub_dimension_of</text>
<polygon fill="none" stroke="#000000" points="294.5,-434.7 294.5,-453.7 446.5,-453.7 446.5,-434.7 294.5,-434.7"/>
<text text-anchor="start" x="297.5" y="-440.8" font-family="Helvetica,sans-Serif" font-size="11.00" fill="#000000">...</text>
<polygon fill="#ffffff" stroke="transparent" points="294.5,-415.7 294.5,-434.7 364.5,-434.7 364.5,-415.7 294.5,-415.7"/>
<polygon fill="none" stroke="#000000" points="294.5,-415.7 294.5,-434.7 364.5,-434.7 364.5,-415.7 294.5,-415.7"/>
<text text-anchor="start" x="297.5" y="-421.8" font-family="Helvetica,sans-Serif" font-size="11.00" fill="#000000">&lt; 1</text>
<polygon fill="#ffffff" stroke="transparent" points="364.5,-415.7 364.5,-434.7 400.5,-434.7 400.5,-415.7 364.5,-415.7"/>
<polygon fill="none" stroke="#000000" points="364.5,-415.7 364.5,-434.7 400.5,-434.7 400.5,-415.7 364.5,-415.7"/>
<text text-anchor="start" x="391.3862" y="-421.8" font-family="Helvetica,sans-Serif" font-size="11.00" fill="#000000"> &#160;</text>
<polygon fill="#ffffff" stroke="transparent" points="400.5,-415.7 400.5,-434.7 446.5,-434.7 446.5,-415.7 400.5,-415.7"/>
<polygon fill="none" stroke="#000000" points="400.5,-415.7 400.5,-434.7 446.5,-434.7 446.5,-415.7 400.5,-415.7"/>
<text text-anchor="start" x="427.9053" y="-421.8" font-family="Helvetica,sans-Serif" font-size="11.00" fill="#000000">3 &gt;</text>
</a>
</g>
</g>
<!-- aggregation_process_computes_value_for_dimension&#45;&gt;dq_dimension -->
<g id="edge5" class="edge">
<title>aggregation_process_computes_value_for_dimension:w&#45;&gt;dq_dimension:e</title>
<path fill="none" stroke="#000000" d="M529.4994,-377.561C501.4296,-400.9957 475.2999,-486.7 446.5,-486.7"/>
<polygon fill="#000000" stroke="#000000" points="535.6617,-374.8858 544.4336,-375.0022 539.3308,-373.2929 543,-371.7 543,-371.7 543,-371.7 539.3308,-373.2929 541.5664,-368.3978 535.6617,-374.8858 535.6617,-374.8858"/>
<ellipse fill="none" stroke="#000000" cx="532.7263" cy="-376.1601" rx="3.2" ry="3.2"/>
</g>
<!-- aggregation_process -->
<g id="node7" class="node">
<title>aggregation_process</title>
<g id="a_node7"><a xlink:href="../../tables/aggregation_process.html" xlink:title="aggregation_process" target="_top">
<polygon fill="#ffffff" stroke="transparent" points="264,-312.2 264,-395.2 477,-395.2 477,-312.2 264,-312.2"/>
<polygon fill="#f5f5f5" stroke="transparent" points="264.5,-371.7 264.5,-394.7 477.5,-394.7 477.5,-371.7 264.5,-371.7"/>
<polygon fill="none" stroke="#000000" points="264.5,-371.7 264.5,-394.7 477.5,-394.7 477.5,-371.7 264.5,-371.7"/>
<text text-anchor="start" x="269.5" y="-380.3" font-family="Helvetica,sans-Serif" font-weight="bold" font-size="11.00" fill="#000000">aggregation_process</text>
<text text-anchor="start" x="442.5437" y="-379.8" font-family="Helvetica,sans-Serif" font-size="11.00" fill="#000000">[table]</text>
<polygon fill="none" stroke="#000000" points="264.5,-349.7 264.5,-371.7 477.5,-371.7 477.5,-349.7 264.5,-349.7"/>
<image xlink:href="../../images/primaryKeys.png" width="11px" height="12px" preserveAspectRatio="xMinYMin meet" x="269.5" y="-366.7"/>
<text text-anchor="start" x="284.5" y="-356.8" font-family="Helvetica,sans-Serif" font-size="11.00" fill="#000000">aggregation_process_name</text>
<polygon fill="none" stroke="#000000" points="264.5,-330.7 264.5,-349.7 477.5,-349.7 477.5,-330.7 264.5,-330.7"/>
<text text-anchor="start" x="267.5" y="-336.8" font-family="Helvetica,sans-Serif" font-size="11.00" fill="#000000">...</text>
<polygon fill="#ffffff" stroke="transparent" points="264.5,-311.7 264.5,-330.7 360.5,-330.7 360.5,-311.7 264.5,-311.7"/>
<polygon fill="none" stroke="#000000" points="264.5,-311.7 264.5,-330.7 360.5,-330.7 360.5,-311.7 264.5,-311.7"/>
<text text-anchor="start" x="267.5" y="-317.8" font-family="Helvetica,sans-Serif" font-size="11.00" fill="#000000"> &#160;</text>
<polygon fill="#ffffff" stroke="transparent" points="360.5,-311.7 360.5,-330.7 414.5,-330.7 414.5,-311.7 360.5,-311.7"/>
<polygon fill="none" stroke="#000000" points="360.5,-311.7 360.5,-330.7 414.5,-330.7 414.5,-311.7 360.5,-311.7"/>
<text text-anchor="start" x="405.3862" y="-317.8" font-family="Helvetica,sans-Serif" font-size="11.00" fill="#000000"> &#160;</text>
<polygon fill="#ffffff" stroke="transparent" points="414.5,-311.7 414.5,-330.7 477.5,-330.7 477.5,-311.7 414.5,-311.7"/>
<polygon fill="none" stroke="#000000" points="414.5,-311.7 414.5,-330.7 477.5,-330.7 477.5,-311.7 414.5,-311.7"/>
<text text-anchor="start" x="458.9053" y="-317.8" font-family="Helvetica,sans-Serif" font-size="11.00" fill="#000000">3 &gt;</text>
</a>
</g>
</g>
<!-- aggregation_process_computes_value_for_dimension&#45;&gt;aggregation_process -->
<g id="edge4" class="edge">
<title>aggregation_process_computes_value_for_dimension:w&#45;&gt;aggregation_process:e</title>
<path fill="none" stroke="#000000" d="M528.726,-391.1105C509.3439,-383.3311 504.4944,-360.7 477.5,-360.7"/>
<polygon fill="#000000" stroke="#000000" points="535.1285,-392.272 542.3574,-397.2422 539.0642,-392.986 543,-393.7 543,-393.7 543,-393.7 539.0642,-392.986 543.6426,-390.1578 535.1285,-392.272 535.1285,-392.272"/>
<ellipse fill="none" stroke="#000000" cx="531.9799" cy="-391.7008" rx="3.2" ry="3.2"/>
</g>
<!-- aggregation_function -->
<g id="node4" class="node">
<title>aggregation_function</title>
<g id="a_node4"><a xlink:href="../../tables/aggregation_function.html" xlink:title="aggregation_function" target="_top">
<polygon fill="#ffffff" stroke="transparent" points="263,-38.2 263,-165.2 478,-165.2 478,-38.2 263,-38.2"/>
<polygon fill="#f5f5f5" stroke="transparent" points="263.5,-141.7 263.5,-164.7 478.5,-164.7 478.5,-141.7 263.5,-141.7"/>
<polygon fill="none" stroke="#000000" points="263.5,-141.7 263.5,-164.7 478.5,-164.7 478.5,-141.7 263.5,-141.7"/>
<text text-anchor="start" x="268.5" y="-150.3" font-family="Helvetica,sans-Serif" font-weight="bold" font-size="11.00" fill="#000000">aggregation_function</text>
<text text-anchor="start" x="443.5437" y="-149.8" font-family="Helvetica,sans-Serif" font-size="11.00" fill="#000000">[table]</text>
<polygon fill="none" stroke="#000000" points="263.5,-119.7 263.5,-141.7 478.5,-141.7 478.5,-119.7 263.5,-119.7"/>
<image xlink:href="../../images/primaryKeys.png" width="11px" height="12px" preserveAspectRatio="xMinYMin meet" x="268.5" y="-136.7"/>
<text text-anchor="start" x="283.5" y="-126.8" font-family="Helvetica,sans-Serif" font-size="11.00" fill="#000000">aggregation_function_name</text>
<polygon fill="none" stroke="#000000" points="263.5,-97.7 263.5,-119.7 478.5,-119.7 478.5,-97.7 263.5,-97.7"/>
<image xlink:href="../../images/foreignKeys.png" width="11px" height="12px" preserveAspectRatio="xMinYMin meet" x="268.5" y="-114.7"/>
<text text-anchor="start" x="283.5" y="-104.8" font-family="Helvetica,sans-Serif" font-size="11.00" fill="#000000">source_level_of_data_granularity</text>
<polygon fill="none" stroke="#000000" points="263.5,-75.7 263.5,-97.7 478.5,-97.7 478.5,-75.7 263.5,-75.7"/>
<image xlink:href="../../images/foreignKeys.png" width="11px" height="12px" preserveAspectRatio="xMinYMin meet" x="268.5" y="-92.7"/>
<text text-anchor="start" x="283.5" y="-82.8" font-family="Helvetica,sans-Serif" font-size="11.00" fill="#000000">target_level_of_data_granularity</text>
<polygon fill="none" stroke="#000000" points="263.5,-56.7 263.5,-75.7 478.5,-75.7 478.5,-56.7 263.5,-56.7"/>
<text text-anchor="start" x="266.5" y="-62.8" font-family="Helvetica,sans-Serif" font-size="11.00" fill="#000000">...</text>
<polygon fill="#ffffff" stroke="transparent" points="263.5,-37.7 263.5,-56.7 364.5,-56.7 364.5,-37.7 263.5,-37.7"/>
<polygon fill="none" stroke="#000000" points="263.5,-37.7 263.5,-56.7 364.5,-56.7 364.5,-37.7 263.5,-37.7"/>
<text text-anchor="start" x="266.5" y="-43.8" font-family="Helvetica,sans-Serif" font-size="11.00" fill="#000000">&lt; 2</text>
<polygon fill="#ffffff" stroke="transparent" points="364.5,-37.7 364.5,-56.7 416.5,-56.7 416.5,-37.7 364.5,-37.7"/>
<polygon fill="none" stroke="#000000" points="364.5,-37.7 364.5,-56.7 416.5,-56.7 416.5,-37.7 364.5,-37.7"/>
<text text-anchor="start" x="407.3862" y="-43.8" font-family="Helvetica,sans-Serif" font-size="11.00" fill="#000000"> &#160;</text>
<polygon fill="#ffffff" stroke="transparent" points="416.5,-37.7 416.5,-56.7 478.5,-56.7 478.5,-37.7 416.5,-37.7"/>
<polygon fill="none" stroke="#000000" points="416.5,-37.7 416.5,-56.7 478.5,-56.7 478.5,-37.7 416.5,-37.7"/>
<text text-anchor="start" x="459.9053" y="-43.8" font-family="Helvetica,sans-Serif" font-size="11.00" fill="#000000">1 &gt;</text>
</a>
</g>
</g>
<!-- aggregation_function&#45;&gt;levels_of_data_granularity -->
<g id="edge2" class="edge">
<title>aggregation_function:w&#45;&gt;levels_of_data_granularity:e</title>
<path fill="none" stroke="#000000" d="M249.308,-111.5684C210.298,-130.3236 255.4442,-234.7 198,-234.7"/>
<polygon fill="#000000" stroke="#000000" points="255.6586,-110.2849 264.2132,-112.2286 259.5793,-109.4925 263.5,-108.7 263.5,-108.7 263.5,-108.7 259.5793,-109.4925 262.7868,-105.1714 255.6586,-110.2849 255.6586,-110.2849"/>
<ellipse fill="none" stroke="#000000" cx="252.522" cy="-110.9189" rx="3.2" ry="3.2"/>
</g>
<!-- aggregation_function&#45;&gt;levels_of_data_granularity -->
<g id="edge3" class="edge">
<title>aggregation_function:w&#45;&gt;levels_of_data_granularity:e</title>
<path fill="none" stroke="#000000" d="M249.2497,-89.2688C202.8952,-108.9217 264.3121,-234.7 198,-234.7"/>
<polygon fill="#000000" stroke="#000000" points="255.6269,-88.1193 264.1387,-90.2429 259.5634,-87.4096 263.5,-86.7 263.5,-86.7 263.5,-86.7 259.5634,-87.4096 262.8613,-83.1571 255.6269,-88.1193 255.6269,-88.1193"/>
<ellipse fill="none" stroke="#000000" cx="252.4777" cy="-88.687" rx="3.2" ry="3.2"/>
</g>
<!-- dq_result -->
<g id="node5" class="node">
<title>dq_result</title>
<g id="a_node5"><a xlink:href="../../tables/dq_result.html" xlink:title="dq_result" target="_top">
<polygon fill="#ffffff" stroke="transparent" points="597,-564.2 597,-713.2 839,-713.2 839,-564.2 597,-564.2"/>
<polygon fill="#f5f5f5" stroke="transparent" points="597,-689.7 597,-712.7 839,-712.7 839,-689.7 597,-689.7"/>
<polygon fill="none" stroke="#000000" points="597,-689.7 597,-712.7 839,-712.7 839,-689.7 597,-689.7"/>
<text text-anchor="start" x="602" y="-698.3" font-family="Helvetica,sans-Serif" font-weight="bold" font-size="11.00" fill="#000000">dq_result</text>
<text text-anchor="start" x="804.0437" y="-697.8" font-family="Helvetica,sans-Serif" font-size="11.00" fill="#000000">[table]</text>
<polygon fill="#ffffff" stroke="transparent" points="597,-667.7 597,-689.7 839,-689.7 839,-667.7 597,-667.7"/>
<polygon fill="none" stroke="#000000" points="597,-667.7 597,-689.7 839,-689.7 839,-667.7 597,-667.7"/>
<text text-anchor="start" x="617" y="-674.8" font-family="Helvetica,sans-Serif" font-size="11.00" fill="#000000">creation_timestamp</text>
<polygon fill="#ffffff" stroke="transparent" points="597,-645.7 597,-667.7 839,-667.7 839,-645.7 597,-645.7"/>
<polygon fill="none" stroke="#000000" points="597,-645.7 597,-667.7 839,-667.7 839,-645.7 597,-645.7"/>
<image xlink:href="../../images/foreignKeys.png" width="11px" height="12px" preserveAspectRatio="xMinYMin meet" x="602" y="-662.7"/>
<text text-anchor="start" x="617" y="-652.8" font-family="Helvetica,sans-Serif" font-size="11.00" fill="#000000">computed_on_data_element_global_id</text>
<polygon fill="#ffffff" stroke="transparent" points="597,-623.7 597,-645.7 839,-645.7 839,-623.7 597,-623.7"/>
<polygon fill="none" stroke="#000000" points="597,-623.7 597,-645.7 839,-645.7 839,-623.7 597,-623.7"/>
<image xlink:href="../../images/foreignKeys.png" width="11px" height="12px" preserveAspectRatio="xMinYMin meet" x="602" y="-640.7"/>
<text text-anchor="start" x="617" y="-630.8" font-family="Helvetica,sans-Serif" font-size="11.00" fill="#000000">calculated_by_dq_metric</text>
<polygon fill="none" stroke="#000000" points="597,-601.7 597,-623.7 839,-623.7 839,-601.7 597,-601.7"/>
<image xlink:href="../../images/foreignKeys.png" width="11px" height="12px" preserveAspectRatio="xMinYMin meet" x="602" y="-618.7"/>
<text text-anchor="start" x="617" y="-608.8" font-family="Helvetica,sans-Serif" font-size="11.00" fill="#000000">calculated_by_aggregation_process</text>
<polygon fill="none" stroke="#000000" points="597,-582.7 597,-601.7 839,-601.7 839,-582.7 597,-582.7"/>
<text text-anchor="start" x="600" y="-588.8" font-family="Helvetica,sans-Serif" font-size="11.00" fill="#000000">...</text>
<polygon fill="#ffffff" stroke="transparent" points="597,-563.7 597,-582.7 716,-582.7 716,-563.7 597,-563.7"/>
<polygon fill="none" stroke="#000000" points="597,-563.7 597,-582.7 716,-582.7 716,-563.7 597,-563.7"/>
<text text-anchor="start" x="600" y="-569.8" font-family="Helvetica,sans-Serif" font-size="11.00" fill="#000000">&lt; 3</text>
<polygon fill="#ffffff" stroke="transparent" points="716,-563.7 716,-582.7 777,-582.7 777,-563.7 716,-563.7"/>
<polygon fill="none" stroke="#000000" points="716,-563.7 716,-582.7 777,-582.7 777,-563.7 716,-563.7"/>
<text text-anchor="start" x="767.8862" y="-569.8" font-family="Helvetica,sans-Serif" font-size="11.00" fill="#000000"> &#160;</text>
<polygon fill="#ffffff" stroke="transparent" points="777,-563.7 777,-582.7 839,-582.7 839,-563.7 777,-563.7"/>
<polygon fill="none" stroke="#000000" points="777,-563.7 777,-582.7 839,-582.7 839,-563.7 777,-563.7"/>
<text text-anchor="start" x="829.8862" y="-569.8" font-family="Helvetica,sans-Serif" font-size="11.00" fill="#000000"> &#160;</text>
</a>
</g>
</g>
<!-- dq_result&#45;&gt;aggregation_process -->
<g id="edge13" class="edge">
<title>dq_result:w&#45;&gt;aggregation_process:e</title>
<path fill="none" stroke="#000000" d="M582.6759,-611.1791C557.0042,-605.0944 551.1249,-581.439 535,-552.7 491.4125,-475.0148 566.5779,-360.7 477.5,-360.7"/>
<polygon fill="#000000" stroke="#000000" points="589.0447,-611.8553 596.6199,-616.2799 593.0224,-612.2776 597,-612.7 597,-612.7 597,-612.7 593.0224,-612.2776 597.3801,-609.1201 589.0447,-611.8553 589.0447,-611.8553"/>
<ellipse fill="none" stroke="#000000" cx="585.8626" cy="-611.5174" rx="3.2" ry="3.2"/>
</g>
<!-- dq_metric -->
<g id="node9" class="node">
<title>dq_metric</title>
<g id="a_node9"><a xlink:href="../../tables/dq_metric.html" xlink:title="dq_metric" target="_top">
<polygon fill="#ffffff" stroke="transparent" points="247,-560.2 247,-665.2 494,-665.2 494,-560.2 247,-560.2"/>
<polygon fill="#f5f5f5" stroke="transparent" points="247.5,-641.7 247.5,-664.7 494.5,-664.7 494.5,-641.7 247.5,-641.7"/>
<polygon fill="none" stroke="#000000" points="247.5,-641.7 247.5,-664.7 494.5,-664.7 494.5,-641.7 247.5,-641.7"/>
<text text-anchor="start" x="252.5" y="-650.3" font-family="Helvetica,sans-Serif" font-weight="bold" font-size="11.00" fill="#000000">dq_metric</text>
<text text-anchor="start" x="459.5437" y="-649.8" font-family="Helvetica,sans-Serif" font-size="11.00" fill="#000000">[table]</text>
<polygon fill="none" stroke="#000000" points="247.5,-619.7 247.5,-641.7 494.5,-641.7 494.5,-619.7 247.5,-619.7"/>
<image xlink:href="../../images/primaryKeys.png" width="11px" height="12px" preserveAspectRatio="xMinYMin meet" x="252.5" y="-636.7"/>
<text text-anchor="start" x="267.5" y="-626.8" font-family="Helvetica,sans-Serif" font-size="11.00" fill="#000000">metric_name</text>
<polygon fill="none" stroke="#000000" points="247.5,-597.7 247.5,-619.7 494.5,-619.7 494.5,-597.7 247.5,-597.7"/>
<image xlink:href="../../images/foreignKeys.png" width="11px" height="12px" preserveAspectRatio="xMinYMin meet" x="252.5" y="-614.7"/>
<text text-anchor="start" x="267.5" y="-604.8" font-family="Helvetica,sans-Serif" font-size="11.00" fill="#000000">designed_for_level_of_data_granularity</text>
<polygon fill="none" stroke="#000000" points="247.5,-578.7 247.5,-597.7 494.5,-597.7 494.5,-578.7 247.5,-578.7"/>
<text text-anchor="start" x="250.5" y="-584.8" font-family="Helvetica,sans-Serif" font-size="11.00" fill="#000000">...</text>
<polygon fill="#ffffff" stroke="transparent" points="247.5,-559.7 247.5,-578.7 364.5,-578.7 364.5,-559.7 247.5,-559.7"/>
<polygon fill="none" stroke="#000000" points="247.5,-559.7 247.5,-578.7 364.5,-578.7 364.5,-559.7 247.5,-559.7"/>
<text text-anchor="start" x="250.5" y="-565.8" font-family="Helvetica,sans-Serif" font-size="11.00" fill="#000000">&lt; 1</text>
<polygon fill="#ffffff" stroke="transparent" points="364.5,-559.7 364.5,-578.7 424.5,-578.7 424.5,-559.7 364.5,-559.7"/>
<polygon fill="none" stroke="#000000" points="364.5,-559.7 364.5,-578.7 424.5,-578.7 424.5,-559.7 364.5,-559.7"/>
<text text-anchor="start" x="415.3862" y="-565.8" font-family="Helvetica,sans-Serif" font-size="11.00" fill="#000000"> &#160;</text>
<polygon fill="#ffffff" stroke="transparent" points="424.5,-559.7 424.5,-578.7 494.5,-578.7 494.5,-559.7 424.5,-559.7"/>
<polygon fill="none" stroke="#000000" points="424.5,-559.7 424.5,-578.7 494.5,-578.7 494.5,-559.7 424.5,-559.7"/>
<text text-anchor="start" x="475.9053" y="-565.8" font-family="Helvetica,sans-Serif" font-size="11.00" fill="#000000">2 &gt;</text>
</a>
</g>
</g>
<!-- dq_result&#45;&gt;dq_metric -->
<g id="edge14" class="edge">
<title>dq_result:w&#45;&gt;dq_metric:e</title>
<path fill="none" stroke="#000000" d="M582.2738,-634.5481C548.2861,-633.8174 534.7476,-630.7 494.5,-630.7"/>
<polygon fill="#000000" stroke="#000000" points="589.0004,-634.6174 596.9628,-638.2998 593.0002,-634.6587 597,-634.7 597,-634.7 597,-634.7 593.0002,-634.6587 597.0372,-631.1002 589.0004,-634.6174 589.0004,-634.6174"/>
<ellipse fill="none" stroke="#000000" cx="585.8006" cy="-634.5844" rx="3.2" ry="3.2"/>
</g>
<!-- data_element -->
<g id="node11" class="node">
<title>data_element</title>
<g id="a_node11"><a xlink:href="../../tables/data_element.html" xlink:title="data_element" target="_top">
<polygon fill="#ffffff" stroke="transparent" points="250.5,-686.2 250.5,-813.2 490.5,-813.2 490.5,-686.2 250.5,-686.2"/>
<polygon fill="#f5f5f5" stroke="transparent" points="250.5,-789.7 250.5,-812.7 490.5,-812.7 490.5,-789.7 250.5,-789.7"/>
<polygon fill="none" stroke="#000000" points="250.5,-789.7 250.5,-812.7 490.5,-812.7 490.5,-789.7 250.5,-789.7"/>
<text text-anchor="start" x="255.5" y="-798.3" font-family="Helvetica,sans-Serif" font-weight="bold" font-size="11.00" fill="#000000">data_element</text>
<text text-anchor="start" x="455.5437" y="-797.8" font-family="Helvetica,sans-Serif" font-size="11.00" fill="#000000">[table]</text>
<polygon fill="none" stroke="#000000" points="250.5,-767.7 250.5,-789.7 490.5,-789.7 490.5,-767.7 250.5,-767.7"/>
<image xlink:href="../../images/primaryKeys.png" width="11px" height="12px" preserveAspectRatio="xMinYMin meet" x="255.5" y="-784.7"/>
<text text-anchor="start" x="270.5" y="-774.8" font-family="Helvetica,sans-Serif" font-size="11.00" fill="#000000">data_element_global_identifier</text>
<polygon fill="none" stroke="#000000" points="250.5,-745.7 250.5,-767.7 490.5,-767.7 490.5,-745.7 250.5,-745.7"/>
<image xlink:href="../../images/foreignKeys.png" width="11px" height="12px" preserveAspectRatio="xMinYMin meet" x="255.5" y="-762.7"/>
<text text-anchor="start" x="270.5" y="-752.8" font-family="Helvetica,sans-Serif" font-size="11.00" fill="#000000">is_of_level_of_data_granularity</text>
<polygon fill="none" stroke="#000000" points="250.5,-723.7 250.5,-745.7 490.5,-745.7 490.5,-723.7 250.5,-723.7"/>
<image xlink:href="../../images/foreignKeys.png" width="11px" height="12px" preserveAspectRatio="xMinYMin meet" x="255.5" y="-740.7"/>
<text text-anchor="start" x="270.5" y="-730.8" font-family="Helvetica,sans-Serif" font-size="11.00" fill="#000000">parent_data_element_global_identifier</text>
<polygon fill="none" stroke="#000000" points="250.5,-704.7 250.5,-723.7 490.5,-723.7 490.5,-704.7 250.5,-704.7"/>
<text text-anchor="start" x="253.5" y="-710.8" font-family="Helvetica,sans-Serif" font-size="11.00" fill="#000000">...</text>
<polygon fill="#ffffff" stroke="transparent" points="250.5,-685.7 250.5,-704.7 364.5,-704.7 364.5,-685.7 250.5,-685.7"/>
<polygon fill="none" stroke="#000000" points="250.5,-685.7 250.5,-704.7 364.5,-704.7 364.5,-685.7 250.5,-685.7"/>
<text text-anchor="start" x="253.5" y="-691.8" font-family="Helvetica,sans-Serif" font-size="11.00" fill="#000000">&lt; 2</text>
<polygon fill="#ffffff" stroke="transparent" points="364.5,-685.7 364.5,-704.7 422.5,-704.7 422.5,-685.7 364.5,-685.7"/>
<polygon fill="none" stroke="#000000" points="364.5,-685.7 364.5,-704.7 422.5,-704.7 422.5,-685.7 364.5,-685.7"/>
<text text-anchor="start" x="413.3862" y="-691.8" font-family="Helvetica,sans-Serif" font-size="11.00" fill="#000000"> &#160;</text>
<polygon fill="#ffffff" stroke="transparent" points="422.5,-685.7 422.5,-704.7 490.5,-704.7 490.5,-685.7 422.5,-685.7"/>
<polygon fill="none" stroke="#000000" points="422.5,-685.7 422.5,-704.7 490.5,-704.7 490.5,-685.7 422.5,-685.7"/>
<text text-anchor="start" x="471.9053" y="-691.8" font-family="Helvetica,sans-Serif" font-size="11.00" fill="#000000">2 &gt;</text>
</a>
</g>
</g>
<!-- dq_result&#45;&gt;data_element -->
<g id="edge15" class="edge">
<title>dq_result:w&#45;&gt;data_element:e</title>
<path fill="none" stroke="#000000" d="M582.693,-658.6163C529.9808,-674.1373 557.1337,-778.7 490.5,-778.7"/>
<polygon fill="#000000" stroke="#000000" points="589.0708,-657.7621 597.478,-660.2681 593.0354,-657.2311 597,-656.7 597,-656.7 597,-656.7 593.0354,-657.2311 596.522,-653.1319 589.0708,-657.7621 589.0708,-657.7621"/>
<ellipse fill="none" stroke="#000000" cx="585.8991" cy="-658.187" rx="3.2" ry="3.2"/>
</g>
<!-- dq_dimension&#45;&gt;dq_dimension -->
<g id="edge11" class="edge">
<title>dq_dimension:w&#45;&gt;dq_dimension:e</title>
<path fill="none" stroke="#000000" d="M281.1535,-470.1188C228.7442,-494.8785 238.2979,-538.2 370.5,-538.2 513,-538.2 513,-509.8667 446.5,-486.7"/>
<polygon fill="#000000" stroke="#000000" points="287.0877,-467.7095 295.8543,-468.0356 290.7938,-466.2048 294.5,-464.7 294.5,-464.7 294.5,-464.7 290.7938,-466.2048 293.1457,-461.3644 287.0877,-467.7095 287.0877,-467.7095"/>
<ellipse fill="none" stroke="#000000" cx="284.1227" cy="-468.9134" rx="3.2" ry="3.2"/>
</g>
<!-- aggregation_process_is_based_on -->
<g id="node8" class="node">
<title>aggregation_process_is_based_on</title>
<g id="a_node8"><a xlink:href="../../tables/aggregation_process_is_based_on.html" xlink:title="aggregation_process_is_based_on" target="_top">
<polygon fill="#ffffff" stroke="transparent" points="598.5,-204.7 598.5,-312.7 837.5,-312.7 837.5,-204.7 598.5,-204.7"/>
<polygon fill="#f5f5f5" stroke="transparent" points="599,-289.7 599,-312.7 838,-312.7 838,-289.7 599,-289.7"/>
<polygon fill="none" stroke="#000000" points="599,-289.7 599,-312.7 838,-312.7 838,-289.7 599,-289.7"/>
<text text-anchor="start" x="604" y="-298.3" font-family="Helvetica,sans-Serif" font-weight="bold" font-size="11.00" fill="#000000">aggregation_process_is_based_on</text>
<text text-anchor="start" x="803.5219" y="-297.8" font-family="Helvetica,sans-Serif" font-size="11.00" fill="#000000">[table]</text>
<polygon fill="none" stroke="#000000" points="599,-267.7 599,-289.7 838,-289.7 838,-267.7 599,-267.7"/>
<image xlink:href="../../images/primaryKeys.png" width="11px" height="12px" preserveAspectRatio="xMinYMin meet" x="604" y="-284.7"/>
<text text-anchor="start" x="628" y="-274.8" font-family="Helvetica,sans-Serif" font-size="11.00" fill="#000000">aggregation_process_name</text>
<polygon fill="none" stroke="#000000" points="599,-245.7 599,-267.7 838,-267.7 838,-245.7 599,-245.7"/>
<image xlink:href="../../images/primaryKeys.png" width="11px" height="12px" preserveAspectRatio="xMinYMin meet" x="604" y="-262.7"/>
<text text-anchor="start" x="628" y="-252.8" font-family="Helvetica,sans-Serif" font-size="11.00" fill="#000000">aggregation_constraint_name</text>
<polygon fill="none" stroke="#000000" points="599,-223.7 599,-245.7 838,-245.7 838,-223.7 599,-223.7"/>
<image xlink:href="../../images/foreignKeys.png" width="11px" height="12px" preserveAspectRatio="xMinYMin meet" x="604" y="-240.7"/>
<text text-anchor="start" x="628" y="-230.8" font-family="Helvetica,sans-Serif" font-size="11.00" fill="#000000">aggregation_function_name</text>
<polygon fill="#ffffff" stroke="transparent" points="599,-204.7 599,-223.7 717,-223.7 717,-204.7 599,-204.7"/>
<polygon fill="none" stroke="#000000" points="599,-204.7 599,-223.7 717,-223.7 717,-204.7 599,-204.7"/>
<text text-anchor="start" x="602" y="-210.8" font-family="Helvetica,sans-Serif" font-size="11.00" fill="#000000">&lt; 3</text>
<polygon fill="#ffffff" stroke="transparent" points="717,-204.7 717,-223.7 777,-223.7 777,-204.7 717,-204.7"/>
<polygon fill="none" stroke="#000000" points="717,-204.7 717,-223.7 777,-223.7 777,-204.7 717,-204.7"/>
<text text-anchor="start" x="767.8862" y="-210.8" font-family="Helvetica,sans-Serif" font-size="11.00" fill="#000000"> &#160;</text>
<polygon fill="#ffffff" stroke="transparent" points="777,-204.7 777,-223.7 838,-223.7 838,-204.7 777,-204.7"/>
<polygon fill="none" stroke="#000000" points="777,-204.7 777,-223.7 838,-223.7 838,-204.7 777,-204.7"/>
<text text-anchor="start" x="828.8862" y="-210.8" font-family="Helvetica,sans-Serif" font-size="11.00" fill="#000000"> &#160;</text>
</a>
</g>
</g>
<!-- aggregation_process_is_based_on&#45;&gt;aggregation_constraint -->
<g id="edge6" class="edge">
<title>aggregation_process_is_based_on:w&#45;&gt;aggregation_constraint:e</title>
<path fill="none" stroke="#000000" d="M584.4701,-256.7C544.6628,-256.7 529.6198,-256.7 483.5,-256.7"/>
<polygon fill="#000000" stroke="#000000" points="591,-256.7001 599,-260.3 595,-256.7 599,-256.7 599,-256.7 599,-256.7 595,-256.7 599,-253.1 591,-256.7001 591,-256.7001"/>
<ellipse fill="none" stroke="#000000" cx="587.8" cy="-256.7001" rx="3.2" ry="3.2"/>
</g>
<!-- aggregation_process_is_based_on&#45;&gt;aggregation_function -->
<g id="edge7" class="edge">
<title>aggregation_process_is_based_on:w&#45;&gt;aggregation_function:e</title>
<path fill="none" stroke="#000000" d="M584.6893,-233.0664C530.8662,-219.8354 543.9933,-130.7 478.5,-130.7"/>
<polygon fill="#000000" stroke="#000000" points="591.0516,-233.7926 598.5917,-238.2768 595.0258,-234.2463 599,-234.7 599,-234.7 599,-234.7 595.0258,-234.2463 599.4083,-231.1232 591.0516,-233.7926 591.0516,-233.7926"/>
<ellipse fill="none" stroke="#000000" cx="587.8723" cy="-233.4297" rx="3.2" ry="3.2"/>
</g>
<!-- aggregation_process_is_based_on&#45;&gt;aggregation_process -->
<g id="edge8" class="edge">
<title>aggregation_process_is_based_on:w&#45;&gt;aggregation_process:e</title>
<path fill="none" stroke="#000000" d="M584.3787,-280.2648C534.7979,-291.6013 537.3034,-360.7 477.5,-360.7"/>
<polygon fill="#000000" stroke="#000000" points="591.0454,-279.5514 599.3831,-282.2796 595.0227,-279.1257 599,-278.7 599,-278.7 599,-278.7 595.0227,-279.1257 598.6169,-275.1204 591.0454,-279.5514 591.0454,-279.5514"/>
<ellipse fill="none" stroke="#000000" cx="587.8636" cy="-279.8919" rx="3.2" ry="3.2"/>
</g>
<!-- dq_metric&#45;&gt;levels_of_data_granularity -->
<g id="edge12" class="edge">
<title>dq_metric:w&#45;&gt;levels_of_data_granularity:e</title>
<path fill="none" stroke="#000000" d="M233.6989,-604.2393C178.058,-562.0427 276.4324,-234.7 198,-234.7"/>
<polygon fill="#000000" stroke="#000000" points="239.8877,-606.2396 246.3928,-612.1255 243.6939,-607.4698 247.5,-608.7 247.5,-608.7 247.5,-608.7 243.6939,-607.4698 248.6072,-605.2745 239.8877,-606.2396 239.8877,-606.2396"/>
<ellipse fill="none" stroke="#000000" cx="236.8428" cy="-605.2554" rx="3.2" ry="3.2"/>
</g>
<!-- metric_computes_value_for_dimension -->
<g id="node10" class="node">
<title>metric_computes_value_for_dimension</title>
<g id="a_node10"><a xlink:href="../../tables/metric_computes_value_for_dimension.html" xlink:title="metric_computes_value_for_dimension" target="_top">
<polygon fill="#ffffff" stroke="transparent" points="585.5,-456.7 585.5,-542.7 850.5,-542.7 850.5,-456.7 585.5,-456.7"/>
<polygon fill="#f5f5f5" stroke="transparent" points="586,-519.7 586,-542.7 851,-542.7 851,-519.7 586,-519.7"/>
<polygon fill="none" stroke="#000000" points="586,-519.7 586,-542.7 851,-542.7 851,-519.7 586,-519.7"/>
<text text-anchor="start" x="591" y="-528.3" font-family="Helvetica,sans-Serif" font-weight="bold" font-size="11.00" fill="#000000">metric_computes_value_for_dimension</text>
<text text-anchor="start" x="816.5219" y="-527.8" font-family="Helvetica,sans-Serif" font-size="11.00" fill="#000000">[table]</text>
<polygon fill="none" stroke="#000000" points="586,-497.7 586,-519.7 851,-519.7 851,-497.7 586,-497.7"/>
<image xlink:href="../../images/primaryKeys.png" width="11px" height="12px" preserveAspectRatio="xMinYMin meet" x="591" y="-514.7"/>
<text text-anchor="start" x="615" y="-504.8" font-family="Helvetica,sans-Serif" font-size="11.00" fill="#000000">metric_name</text>
<polygon fill="none" stroke="#000000" points="586,-475.7 586,-497.7 851,-497.7 851,-475.7 586,-475.7"/>
<image xlink:href="../../images/primaryKeys.png" width="11px" height="12px" preserveAspectRatio="xMinYMin meet" x="591" y="-492.7"/>
<text text-anchor="start" x="615" y="-482.8" font-family="Helvetica,sans-Serif" font-size="11.00" fill="#000000">dimension_name</text>
<polygon fill="#ffffff" stroke="transparent" points="586,-456.7 586,-475.7 717,-475.7 717,-456.7 586,-456.7"/>
<polygon fill="none" stroke="#000000" points="586,-456.7 586,-475.7 717,-475.7 717,-456.7 586,-456.7"/>
<text text-anchor="start" x="589" y="-462.8" font-family="Helvetica,sans-Serif" font-size="11.00" fill="#000000">&lt; 2</text>
<polygon fill="#ffffff" stroke="transparent" points="717,-456.7 717,-475.7 784,-475.7 784,-456.7 717,-456.7"/>
<polygon fill="none" stroke="#000000" points="717,-456.7 717,-475.7 784,-475.7 784,-456.7 717,-456.7"/>
<text text-anchor="start" x="774.8862" y="-462.8" font-family="Helvetica,sans-Serif" font-size="11.00" fill="#000000"> &#160;</text>
<polygon fill="#ffffff" stroke="transparent" points="784,-456.7 784,-475.7 851,-475.7 851,-456.7 784,-456.7"/>
<polygon fill="none" stroke="#000000" points="784,-456.7 784,-475.7 851,-475.7 851,-456.7 784,-456.7"/>
<text text-anchor="start" x="841.8862" y="-462.8" font-family="Helvetica,sans-Serif" font-size="11.00" fill="#000000"> &#160;</text>
</a>
</g>
</g>
<!-- metric_computes_value_for_dimension&#45;&gt;dq_dimension -->
<g id="edge16" class="edge">
<title>metric_computes_value_for_dimension:w&#45;&gt;dq_dimension:e</title>
<path fill="none" stroke="#000000" d="M571.3078,-486.7C521.0685,-486.7 503.293,-486.7 446.5,-486.7"/>
<polygon fill="#000000" stroke="#000000" points="578,-486.7001 586,-490.3 582,-486.7 586,-486.7 586,-486.7 586,-486.7 582,-486.7 586,-483.1 578,-486.7001 578,-486.7001"/>
<ellipse fill="none" stroke="#000000" cx="574.8" cy="-486.7001" rx="3.2" ry="3.2"/>
</g>
<!-- metric_computes_value_for_dimension&#45;&gt;dq_metric -->
<g id="edge17" class="edge">
<title>metric_computes_value_for_dimension:w&#45;&gt;dq_metric:e</title>
<path fill="none" stroke="#000000" d="M571.6689,-510.816C554.4029,-516.751 550.1751,-534.388 535,-553.7 511.1092,-584.1038 533.1673,-630.7 494.5,-630.7"/>
<polygon fill="#000000" stroke="#000000" points="578.0858,-509.8686 586.5259,-512.2614 582.0429,-509.2843 586,-508.7 586,-508.7 586,-508.7 582.0429,-509.2843 585.4741,-505.1386 578.0858,-509.8686 578.0858,-509.8686"/>
<ellipse fill="none" stroke="#000000" cx="574.9201" cy="-510.336" rx="3.2" ry="3.2"/>
</g>
<!-- data_element&#45;&gt;levels_of_data_granularity -->
<g id="edge9" class="edge">
<title>data_element:w&#45;&gt;levels_of_data_granularity:e</title>
<path fill="none" stroke="#000000" d="M238.9618,-747.6397C201.4738,-678.3235 251.7385,-234.7 198,-234.7"/>
<polygon fill="#000000" stroke="#000000" points="244.208,-751.7593 248.2767,-759.5314 247.354,-754.2296 250.5,-756.7 250.5,-756.7 250.5,-756.7 247.354,-754.2296 252.7233,-753.8686 244.208,-751.7593 244.208,-751.7593"/>
<ellipse fill="none" stroke="#000000" cx="241.6912" cy="-749.783" rx="3.2" ry="3.2"/>
</g>
<!-- data_element&#45;&gt;data_element -->
<g id="edge10" class="edge">
<title>data_element:w&#45;&gt;data_element:e</title>
<path fill="none" stroke="#000000" d="M237.5007,-740.9422C184.922,-770.8501 197.1133,-830.2 370.5,-830.2 557,-830.2 557,-805.5333 490.5,-778.7"/>
<polygon fill="#000000" stroke="#000000" points="243.2884,-738.163 252.0584,-737.9452 246.8942,-736.4315 250.5,-734.7 250.5,-734.7 250.5,-734.7 246.8942,-736.4315 248.9416,-731.4548 243.2884,-738.163 243.2884,-738.163"/>
<ellipse fill="none" stroke="#000000" cx="240.4037" cy="-739.5482" rx="3.2" ry="3.2"/>
</g>
</g>
</svg>
